<?xml version="1.0" encoding="UTF-8" standalone="no"?>
<svg
   id="Layer_1"
   style="enable-background:new 0 0 128 128;"
   version="1.1"
   viewBox="0 0 128 128"
   xml:space="preserve"
   sodipodi:docname="nordic.svg"
   inkscape:version="1.1 (c4e8f9e, 2021-05-24)"
   xmlns:inkscape="http://www.inkscape.org/namespaces/inkscape"
   xmlns:sodipodi="http://sodipodi.sourceforge.net/DTD/sodipodi-0.dtd"
   xmlns="http://www.w3.org/2000/svg"
   xmlns:svg="http://www.w3.org/2000/svg"><defs
     id="defs17"><filter
       id="filter2347-3"
       x="-0.024545776"
       y="-0.029998631"
       width="1.0490916"
       height="1.0599973"
       color-interpolation-filters="sRGB"><feGaussianBlur
         stdDeviation="0.14938518"
         id="feGaussianBlur55" /></filter><filter
       id="filter2161-7"
       x="-0.024009103"
       y="-0.033990747"
       width="1.0480182"
       height="1.0679815"
       color-interpolation-filters="sRGB"><feGaussianBlur
         stdDeviation="0.146119"
         id="feGaussianBlur58" /></filter><linearGradient
       id="linearGradient2575"
       x1="26.221"
       x2="26.221"
       y1="14.474"
       y2="7.4466"
       gradientTransform="translate(-.41106 .048353)"
       gradientUnits="userSpaceOnUse"><stop
         stop-color="#2e3440"
         stop-opacity=".15"
         offset="0"
         id="stop61" /><stop
         stop-color="#2e3440"
         stop-opacity="0"
         offset="1"
         id="stop63" /></linearGradient><linearGradient
       id="linearGradient1676"
       x1="25.718"
       x2="25.718"
       y1="10.195"
       y2="3.8296"
       gradientUnits="userSpaceOnUse"><stop
         stop-color="#2e3440"
         offset="0"
         id="stop66" /><stop
         stop-color="#2e3440"
         stop-opacity="0"
         offset="1"
         id="stop68" /></linearGradient></defs><sodipodi:namedview
     id="namedview15"
     pagecolor="#ffffff"
     bordercolor="#666666"
     borderopacity="1.0"
     inkscape:pageshadow="2"
     inkscape:pageopacity="0.0"
     inkscape:pagecheckerboard="0"
     showgrid="false"
     inkscape:zoom="1.8789063"
     inkscape:cx="64.133056"
     inkscape:cy="64.133056"
     inkscape:window-width="1358"
     inkscape:window-height="710"
     inkscape:window-x="0"
     inkscape:window-y="30"
     inkscape:window-maximized="1"
     inkscape:current-layer="Layer_1" /><style
     type="text/css"
     id="style2">
	.st0{fill:none;}
	.st1{fill:#31AF91;}
</style><circle
     class="st0"
     cx="64"
     cy="64"
     r="64"
     id="circle4" /><g
     id="g35"
     transform="matrix(1.1619763,0,0,1.1619763,-10.366483,-6.4419898)"
     style="fill:#84adad;fill-opacity:1"><path
       class="st1"
       d="M 107.1692,39.9614 H 20.830794 c -0.664141,0 -1.106902,0.442761 -1.106902,1.106903 v 13.282832 c 0,0.664142 0.442761,1.106903 1.106902,1.106903 H 107.1692 c 0.66415,0 1.10691,-0.442761 1.10691,-1.106903 V 41.068303 c 0,-0.664142 -0.44276,-1.106903 -1.10691,-1.106903 z"
       id="path6"
       style="stroke-width:1.1069;fill:#84adad;fill-opacity:1" /><path
       class="st1"
       d="M 107.1692,63.471129 H 20.830794 c -0.664141,0 -1.106902,0.442761 -1.106902,1.106902 v 13.282833 c 0,0.664141 0.442761,1.106902 1.106902,1.106902 H 107.1692 c 0.66415,0 1.10691,-0.442761 1.10691,-1.106902 V 64.578031 c 0,-0.664141 -0.44276,-1.106902 -1.10691,-1.106902 z"
       id="path8"
       style="stroke-width:1.1069;fill:#84adad;fill-opacity:1" /><path
       class="st1"
       d="M 107.1692,87.244956 H 20.830794 c -0.664141,0 -1.106902,0.442761 -1.106902,1.106903 v 13.282831 c 0,0.66414 0.442761,1.1069 1.106902,1.1069 H 107.1692 c 0.66415,0 1.10691,-0.44276 1.10691,-1.1069 V 88.351859 c 0,-0.664142 -0.44276,-1.106903 -1.10691,-1.106903 z"
       id="path10"
       style="stroke-width:1.1069;fill:#84adad;fill-opacity:1" /><path
       class="st1"
       d="M 107.1692,16.996499 H 20.830794 c -0.664141,0 -1.106902,0.442761 -1.106902,1.106903 v 13.282832 c 0,0.664142 0.442761,1.106903 1.106902,1.106903 H 107.1692 c 0.66415,0 1.10691,-0.442761 1.10691,-1.106903 V 18.103402 c 0,-0.664142 -0.44276,-1.106903 -1.10691,-1.106903 z"
       id="path22"
       style="stroke-width:1.1069;fill:#84adad;fill-opacity:1" /></g></svg>
