<?xml version="1.0" encoding="UTF-8" standalone="no"?>
<svg
   width="48"
   height="48"
   version="1.1"
   id="svg4"
   sodipodi:docname="shield.svg"
   inkscape:version="1.1 (c4e8f9e, 2021-05-24)"
   xmlns:inkscape="http://www.inkscape.org/namespaces/inkscape"
   xmlns:sodipodi="http://sodipodi.sourceforge.net/DTD/sodipodi-0.dtd"
   xmlns="http://www.w3.org/2000/svg"
   xmlns:svg="http://www.w3.org/2000/svg">
  <defs
     id="defs8" />
  <sodipodi:namedview
     id="namedview6"
     pagecolor="#ffffff"
     bordercolor="#666666"
     borderopacity="1.0"
     inkscape:pageshadow="2"
     inkscape:pageopacity="0.0"
     inkscape:pagecheckerboard="0"
     showgrid="false"
     inkscape:zoom="3.78125"
     inkscape:cx="7.9338843"
     inkscape:cy="7.9338843"
     inkscape:window-width="1350"
     inkscape:window-height="702"
     inkscape:window-x="0"
     inkscape:window-y="30"
     inkscape:window-maximized="0"
     inkscape:current-layer="svg4" />
  <path
     id="path2"
     style="fill:#a796dd;fill-opacity:1;stroke-width:2.80322"
     d="M 23.999999,2.9757263 7.1805807,8.5821991 V 28.204855 c 0,5.802699 4.4275793,9.781761 8.2399813,12.444837 3.812402,2.663073 8.579437,4.374582 8.579437,4.374582 0,0 4.767035,-1.711509 8.579436,-4.374582 3.812401,-2.691107 8.239984,-6.726236 8.239984,-12.444837 V 8.5821991 Z M 35.245796,13.093658 c 1.187126,0.02701 2.166796,1.678579 1.242841,2.737536 L 24.010949,30.132081 17.873394,24.0438 c -0.73965,-0.739813 -0.60055,-1.721076 0,-2.337855 0.616781,-0.60055 1.588304,-0.72991 2.337856,0 l 3.651872,3.651872 10.18911,-11.667376 c 0.379804,-0.434953 0.797854,-0.605781 1.193564,-0.596783 z" />
</svg>
