<?xml version="1.0" encoding="UTF-8" standalone="no"?>
<svg
   width="48"
   height="48"
   version="1.1"
   id="svg9"
   sodipodi:docname="we_09.svg"
   inkscape:version="1.1 (c4e8f9e, 2021-05-24)"
   xmlns:inkscape="http://www.inkscape.org/namespaces/inkscape"
   xmlns:sodipodi="http://sodipodi.sourceforge.net/DTD/sodipodi-0.dtd"
   xmlns="http://www.w3.org/2000/svg"
   xmlns:svg="http://www.w3.org/2000/svg">
  <sodipodi:namedview
     id="namedview11"
     pagecolor="#ffffff"
     bordercolor="#666666"
     borderopacity="1.0"
     inkscape:pageshadow="2"
     inkscape:pageopacity="0.0"
     inkscape:pagecheckerboard="0"
     showgrid="false"
     inkscape:zoom="7.53125"
     inkscape:cx="28.481328"
     inkscape:cy="24.564315"
     inkscape:window-width="1350"
     inkscape:window-height="702"
     inkscape:window-x="0"
     inkscape:window-y="0"
     inkscape:window-maximized="1"
     inkscape:current-layer="svg9" />
  <defs
     id="defs3">
    <style
       id="current-color-scheme"
       type="text/css">
   .ColorScheme-Text { color:#aaaaaa; } .ColorScheme-Highlight { color:#4285f4; }
  </style>
  </defs>
  <path
     style="fill:#78909c;stroke-width:2.91707;fill-opacity:1"
     class="ColorScheme-Text"
     d="m 3.5805303,3.5805301 c 0,0 -2.91706738,0 -2.91706738,2.9170677 V 35.668268 c 0,2.917069 2.91706738,2.917069 2.91706738,2.917069 H 12.33173 v 2.917065 c 0,2.917068 2.917069,2.917068 2.917069,2.917068 h 17.502402 c 0,0 2.917067,0 2.917067,-2.917068 v -2.917065 h 8.751202 c 0,0 2.917067,0 2.917067,-2.917069 V 6.4975978 c 0,-2.9170677 -2.917067,-2.9170677 -2.917067,-2.9170677 z M 6.4975974,9.4146643 H 41.502403 V 32.751201 H 6.4975974 Z"
     id="path7" />
  <g
     aria-label="9"
     id="text70747"
     style="font-size:32px;line-height:1.25;font-family:Neuropolitical;-inkscape-font-specification:Neuropolitical;letter-spacing:0px;word-spacing:0px;fill:#e6e6e6"
     transform="matrix(0.92051972,0,0,0.92051972,1.9075267,1.6917285)">
    <path
       d="m 29.12,10.372884 q 2.4,0 4,0.384 1.6,0.384 2.56,1.248 0.96,0.832 1.344,2.176 0.416,1.312 0.416,3.2 v 7.328 q 0,2.08 -0.416,3.52 -0.384,1.408 -1.344,2.304 -0.96,0.864 -2.56,1.28 -1.6,0.384 -4,0.384 h -6.848 v -4.064 h 6.688 q 1.056,0 1.728,-0.128 0.704,-0.16 1.12,-0.544 0.448,-0.384 0.608,-1.024 0.192,-0.672 0.192,-1.664 v -0.864 h -16 q -1.664,0 -2.816,-0.416 -1.152,-0.416 -1.888,-1.184 -0.704,-0.768 -1.024,-1.856 -0.32,-1.12 -0.32,-2.496 v -1.6 q 0,-1.504 0.32,-2.624 0.32,-1.12 1.024,-1.856 0.736,-0.768 1.888,-1.12 1.152,-0.384 2.816,-0.384 z m -13.696,7.648 q 0,1.216 0.448,1.728 0.448,0.48 1.632,0.48 h 15.104 v -2.752 q 0,-0.896 -0.128,-1.472 -0.128,-0.608 -0.512,-0.928 -0.352,-0.32 -1.056,-0.448 -0.672,-0.128 -1.792,-0.128 H 17.504 q -1.12,0 -1.6,0.512 -0.48,0.512 -0.48,1.6 z"
       id="path74788"
       style="fill:#e6e6e6" />
  </g>
</svg>
