<?xml version="1.0" encoding="UTF-8" standalone="no"?>
<svg
   width="48"
   height="48"
   version="1.1"
   id="svg9"
   sodipodi:docname="we_03.svg"
   inkscape:version="1.1 (c4e8f9e, 2021-05-24)"
   xmlns:inkscape="http://www.inkscape.org/namespaces/inkscape"
   xmlns:sodipodi="http://sodipodi.sourceforge.net/DTD/sodipodi-0.dtd"
   xmlns="http://www.w3.org/2000/svg"
   xmlns:svg="http://www.w3.org/2000/svg">
  <sodipodi:namedview
     id="namedview11"
     pagecolor="#ffffff"
     bordercolor="#666666"
     borderopacity="1.0"
     inkscape:pageshadow="2"
     inkscape:pageopacity="0.0"
     inkscape:pagecheckerboard="0"
     showgrid="false"
     inkscape:zoom="7.53125"
     inkscape:cx="28.481328"
     inkscape:cy="18.589212"
     inkscape:window-width="1350"
     inkscape:window-height="702"
     inkscape:window-x="0"
     inkscape:window-y="0"
     inkscape:window-maximized="1"
     inkscape:current-layer="svg9" />
  <defs
     id="defs3">
    <style
       id="current-color-scheme"
       type="text/css">
   .ColorScheme-Text { color:#aaaaaa; } .ColorScheme-Highlight { color:#4285f4; }
  </style>
  </defs>
  <path
     style="fill:#78909c;stroke-width:2.91707;fill-opacity:1"
     class="ColorScheme-Text"
     d="m 3.5805303,3.5805301 c 0,0 -2.91706738,0 -2.91706738,2.9170677 V 35.668268 c 0,2.917069 2.91706738,2.917069 2.91706738,2.917069 H 12.33173 v 2.917065 c 0,2.917068 2.917069,2.917068 2.917069,2.917068 h 17.502402 c 0,0 2.917067,0 2.917067,-2.917068 v -2.917065 h 8.751202 c 0,0 2.917067,0 2.917067,-2.917069 V 6.4975978 c 0,-2.9170677 -2.917067,-2.9170677 -2.917067,-2.9170677 z M 6.4975974,9.4146643 H 41.502403 V 32.751201 H 6.4975974 Z"
     id="path7" />
  <g
     aria-label="3"
     id="text19651"
     style="font-size:32px;line-height:1.25;font-family:Neuropolitical;-inkscape-font-specification:Neuropolitical;letter-spacing:0px;word-spacing:0px;fill:#e6e6e6"
     transform="matrix(0.88315007,0,0,0.88315007,2.8043984,2.4741701)">
    <path
       d="m 22.544,14.293911 v -4.032 h 7.008 q 1.952,0 3.328,0.288 1.376,0.288 2.208,0.896 0.864,0.608 1.248,1.6 0.384,0.96 0.384,2.336 v 1.632 q 0,1.92 -0.704,2.752 -0.672,0.832 -1.696,1.12 0.576,0.16 1.056,0.448 0.512,0.256 0.864,0.8 0.384,0.512 0.576,1.312 0.192,0.8 0.192,1.984 v 1.76 q 0,1.312 -0.384,2.24 -0.352,0.928 -1.216,1.536 -0.832,0.576 -2.176,0.864 -1.344,0.256 -3.264,0.256 H 10.992 v -4.032 h 18.88 q 1.376,0 1.984,-0.32 0.608,-0.352 0.608,-1.376 v -1.28 q 0,-1.344 -0.544,-1.76 -0.544,-0.448 -1.888,-0.448 H 11.12 v -3.68 h 18.784 q 1.28,0 1.76,-0.384 0.48,-0.416 0.48,-1.504 v -1.344 q 0,-0.992 -0.576,-1.312 -0.576,-0.352 -2.144,-0.352 z"
       id="path25748"
       style="fill:#e6e6e6" />
  </g>
</svg>
