<?xml version="1.0" encoding="UTF-8" standalone="no"?>
<svg
   width="48"
   height="48"
   version="1.1"
   id="svg9"
   sodipodi:docname="we_04.svg"
   inkscape:version="1.1 (c4e8f9e, 2021-05-24)"
   xmlns:inkscape="http://www.inkscape.org/namespaces/inkscape"
   xmlns:sodipodi="http://sodipodi.sourceforge.net/DTD/sodipodi-0.dtd"
   xmlns="http://www.w3.org/2000/svg"
   xmlns:svg="http://www.w3.org/2000/svg">
  <sodipodi:namedview
     id="namedview11"
     pagecolor="#ffffff"
     bordercolor="#666666"
     borderopacity="1.0"
     inkscape:pageshadow="2"
     inkscape:pageopacity="0.0"
     inkscape:pagecheckerboard="0"
     showgrid="false"
     inkscape:zoom="7.53125"
     inkscape:cx="28.481328"
     inkscape:cy="13.941909"
     inkscape:window-width="1350"
     inkscape:window-height="702"
     inkscape:window-x="0"
     inkscape:window-y="0"
     inkscape:window-maximized="1"
     inkscape:current-layer="svg9" />
  <defs
     id="defs3">
    <style
       id="current-color-scheme"
       type="text/css">
   .ColorScheme-Text { color:#aaaaaa; } .ColorScheme-Highlight { color:#4285f4; }
  </style>
  </defs>
  <path
     style="fill:#78909c;stroke-width:2.91707;fill-opacity:1"
     class="ColorScheme-Text"
     d="m 3.5805303,3.5805301 c 0,0 -2.91706738,0 -2.91706738,2.9170677 V 35.668268 c 0,2.917069 2.91706738,2.917069 2.91706738,2.917069 H 12.33173 v 2.917065 c 0,2.917068 2.917069,2.917068 2.917069,2.917068 h 17.502402 c 0,0 2.917067,0 2.917067,-2.917068 v -2.917065 h 8.751202 c 0,0 2.917067,0 2.917067,-2.917069 V 6.4975978 c 0,-2.9170677 -2.917067,-2.9170677 -2.917067,-2.9170677 z M 6.4975974,9.4146643 H 41.502403 V 32.751201 H 6.4975974 Z"
     id="path7" />
  <g
     aria-label="4"
     id="text30028"
     style="font-size:32px;line-height:1.25;font-family:Neuropolitical;-inkscape-font-specification:Neuropolitical;letter-spacing:0px;word-spacing:0px;fill:#e6e6e6"
     transform="matrix(0.90497491,0,0,0.90497491,2.2806022,1.9996998)">
    <path
       d="m 32.624,31.955914 v -6.112 H 10.64 v -15.712 h 4.768 v 11.552 h 17.216 v -11.552 h 4.736 v 21.824 z"
       id="path39880"
       style="fill:#e6e6e6" />
  </g>
</svg>
