<?xml version="1.0" encoding="UTF-8" standalone="no"?>
<svg
   width="48"
   height="48"
   version="1.1"
   id="svg9"
   sodipodi:docname="we_10.svg"
   inkscape:version="1.1 (c4e8f9e, 2021-05-24)"
   xmlns:inkscape="http://www.inkscape.org/namespaces/inkscape"
   xmlns:sodipodi="http://sodipodi.sourceforge.net/DTD/sodipodi-0.dtd"
   xmlns="http://www.w3.org/2000/svg"
   xmlns:svg="http://www.w3.org/2000/svg">
  <sodipodi:namedview
     id="namedview11"
     pagecolor="#ffffff"
     bordercolor="#666666"
     borderopacity="1.0"
     inkscape:pageshadow="2"
     inkscape:pageopacity="0.0"
     inkscape:pagecheckerboard="0"
     showgrid="false"
     inkscape:zoom="7.53125"
     inkscape:cx="-4.5809129"
     inkscape:cy="24.564315"
     inkscape:window-width="1350"
     inkscape:window-height="702"
     inkscape:window-x="0"
     inkscape:window-y="0"
     inkscape:window-maximized="1"
     inkscape:current-layer="svg9" />
  <defs
     id="defs3">
    <style
       id="current-color-scheme"
       type="text/css">
   .ColorScheme-Text { color:#aaaaaa; } .ColorScheme-Highlight { color:#4285f4; }
  </style>
  </defs>
  <path
     style="fill:#78909c;stroke-width:2.91707;fill-opacity:1"
     class="ColorScheme-Text"
     d="m 3.5805303,3.5805301 c 0,0 -2.91706738,0 -2.91706738,2.9170677 V 35.668268 c 0,2.917069 2.91706738,2.917069 2.91706738,2.917069 H 12.33173 v 2.917065 c 0,2.917068 2.917069,2.917068 2.917069,2.917068 h 17.502402 c 0,0 2.917067,0 2.917067,-2.917068 v -2.917065 h 8.751202 c 0,0 2.917067,0 2.917067,-2.917069 V 6.4975978 c 0,-2.9170677 -2.917067,-2.9170677 -2.917067,-2.9170677 z M 6.4975974,9.4146643 H 41.502403 V 32.751201 H 6.4975974 Z"
     id="path7" />
  <g
     aria-label="10"
     id="text74958"
     style="font-size:32px;line-height:1.25;font-family:Neuropolitical;-inkscape-font-specification:Neuropolitical;letter-spacing:0px;word-spacing:0px;fill:#e6e6e6"
     transform="matrix(0.90732877,0,0,0.90732877,2.2241095,1.9669214)">
    <path
       d="m 7.1680231,32.136726 v -21.824 h 4.8639999 v 21.824 z"
       id="path81269"
       style="fill:#e6e6e6" />
    <path
       d="m 23.967977,32.136726 q -2.4,0 -4,-0.384 -1.6,-0.416 -2.56,-1.28 -0.96,-0.896 -1.376,-2.304 -0.384,-1.44 -0.384,-3.52 v -6.848 q 0,-2.048 0.384,-3.488 0.416,-1.44 1.376,-2.304 0.96,-0.896 2.56,-1.28 1.6,-0.416 4,-0.416 h 8.512 q 2.432,0 4.032,0.416 1.6,0.384 2.56,1.28 0.96,0.864 1.344,2.304 0.416,1.44 0.416,3.488 v 6.848 q 0,2.08 -0.416,3.52 -0.384,1.408 -1.344,2.304 -0.96,0.864 -2.56,1.28 -1.6,0.384 -4.032,0.384 z m 12,-14.112 q 0,-1.024 -0.192,-1.696 -0.16,-0.672 -0.576,-1.088 -0.416,-0.416 -1.152,-0.576 -0.704,-0.16 -1.76,-0.16 h -8.096 q -1.152,0 -1.888,0.16 -0.704,0.16 -1.12,0.576 -0.416,0.416 -0.576,1.088 -0.128,0.672 -0.128,1.696 v 6.432 q 0,1.056 0.128,1.76 0.16,0.672 0.576,1.088 0.416,0.384 1.12,0.544 0.736,0.128 1.888,0.128 h 8.096 q 1.056,0 1.76,-0.128 0.736,-0.16 1.152,-0.544 0.416,-0.416 0.576,-1.088 0.192,-0.704 0.192,-1.76 z"
       id="path81271"
       style="fill:#e6e6e6" />
  </g>
</svg>
