<?xml version="1.0" encoding="UTF-8" standalone="no"?>
<svg
   viewBox="0 0 48 48"
   width="48"
   height="48"
   version="1.1"
   id="svg11"
   sodipodi:docname="shield_no.svg"
   inkscape:version="1.1 (c4e8f9e, 2021-05-24)"
   xmlns:inkscape="http://www.inkscape.org/namespaces/inkscape"
   xmlns:sodipodi="http://sodipodi.sourceforge.net/DTD/sodipodi-0.dtd"
   xmlns="http://www.w3.org/2000/svg"
   xmlns:svg="http://www.w3.org/2000/svg">
  <sodipodi:namedview
     id="namedview13"
     pagecolor="#ffffff"
     bordercolor="#666666"
     borderopacity="1.0"
     inkscape:pageshadow="2"
     inkscape:pageopacity="0.0"
     inkscape:pagecheckerboard="0"
     showgrid="false"
     inkscape:zoom="21.875"
     inkscape:cx="11.977143"
     inkscape:cy="11.977143"
     inkscape:window-width="1366"
     inkscape:window-height="702"
     inkscape:window-x="0"
     inkscape:window-y="0"
     inkscape:window-maximized="1"
     inkscape:current-layer="svg11" />
  <defs
     id="defs3051">
    <style
       type="text/css"
       id="current-color-scheme">
      .ColorScheme-Text {
        color:#eff0f1;
      }
      .ColorScheme-NegativeText {
        color:#da4453;
      }
      </style>
  </defs>
  <g
     transform="matrix(2.5,0,0,2.5,-3.5,-3.5)"
     id="g9">
    <path
       style="fill:currentColor;fill-opacity:1;stroke:none"
       d="M 11,3 C 11,3 9,5.6575188 3,6.3242188 3,6.3242188 3,15.6581 11,19 19,15.6581 19,6.3242188 19,6.3242188 13,5.6575188 11,3 11,3 Z m 0,1.3769531 c 1.586995,1.3447 3.87716,2.2417594 6.845703,2.6933594 -0.161259,1.4452 -0.315875,2.5327844 -0.689453,3.5839845 -0.78509,2.2091 -1.700475,3.553031 -2.521484,4.519531 C 13.362538,16.671528 12.207192,17.277659 11,17.880859 9.792808,17.277659 8.6374614,16.671528 7.3652344,15.173828 6.5442254,14.207328 5.62884,12.863397 4.84375,10.654297 4.470172,9.6030969 4.3155559,8.5155125 4.1542969,7.0703125 7.1228399,6.6187125 9.413005,5.7216531 11,4.3769531 Z"
       class="ColorScheme-Text"
       id="path4" />
    <path
       style="fill:currentColor;fill-opacity:1;stroke:none"
       d="m 12,11 c -0.554019,0 -1,0.446 -1,1 v 6 c 0,0.5541 0.445981,1 1,1 h 6 c 0.554019,0 1,-0.4459 1,-1 v -6 c 0,-0.554 -0.445981,-1 -1,-1 z"
       class="ColorScheme-NegativeText"
       id="path6" />
    <path
       style="fill:#ffffff"
       d="m 13,12 -1,1 2,2 -2,2 1,1 2,-2 2,2 1,-1 -2,-2 2,-2 -1,-1 -2,2 z"
       id="path4141" />
  </g>
</svg>
