<?xml version="1.0" encoding="UTF-8" standalone="no"?>
<svg
   viewBox="0 0 48 48"
   width="48"
   height="48"
   version="1.1"
   id="svg11"
   sodipodi:docname="shield_yes.svg"
   inkscape:version="1.1 (c4e8f9e, 2021-05-24)"
   xmlns:inkscape="http://www.inkscape.org/namespaces/inkscape"
   xmlns:sodipodi="http://sodipodi.sourceforge.net/DTD/sodipodi-0.dtd"
   xmlns="http://www.w3.org/2000/svg"
   xmlns:svg="http://www.w3.org/2000/svg">
  <sodipodi:namedview
     id="namedview13"
     pagecolor="#ffffff"
     bordercolor="#666666"
     borderopacity="1.0"
     inkscape:pageshadow="2"
     inkscape:pageopacity="0.0"
     inkscape:pagecheckerboard="0"
     showgrid="false"
     inkscape:zoom="21.875"
     inkscape:cx="11.977143"
     inkscape:cy="11.977143"
     inkscape:window-width="1366"
     inkscape:window-height="702"
     inkscape:window-x="0"
     inkscape:window-y="0"
     inkscape:window-maximized="1"
     inkscape:current-layer="svg11" />
  <defs
     id="defs3051">
    <style
       type="text/css"
       id="current-color-scheme">
      .ColorScheme-Text {
        color:#eff0f1;
      }
      .ColorScheme-PositiveText {
        color:#27ae60;
      }
      </style>
  </defs>
  <g
     transform="matrix(2.5,0,0,2.5,-3.5,-3.5)"
     id="g9">
    <g
       transform="translate(0,-1030.3622)"
       id="g7">
      <path
         style="opacity:1;fill:currentColor;fill-opacity:1;stroke:none"
         d="M 11,3 C 11,3 9,5.6575188 3,6.3242188 3,6.3242188 3,15.6581 11,19 19,15.6581 19,6.3242188 19,6.3242188 13,5.6575188 11,3 11,3 Z m 0,1.3769531 c 1.586995,1.3447 3.87716,2.2417594 6.845703,2.6933594 -0.161259,1.4452 -0.315875,2.5327842 -0.689453,3.5839845 -0.78509,2.2091 -1.700475,3.553031 -2.521484,4.519531 C 13.362538,16.671528 12.207192,17.277659 11,17.880859 9.792808,17.277659 8.6374614,16.671528 7.3652344,15.173828 6.5442254,14.207328 5.62884,12.863397 4.84375,10.654297 4.470172,9.6030967 4.3155559,8.5155125 4.1542969,7.0703125 7.1228399,6.6187125 9.413005,5.7216531 11,4.3769531 Z m 0,1.1992188 C 9.256509,6.7864719 7.2978492,7.3994064 5.3320312,7.8164062 6.2628772,13.098406 8.268115,15.357084 11,16.771484 13.731885,15.357084 15.737124,13.098406 16.667969,7.8164062 14.702151,7.3994063 12.743491,6.7864719 11,5.5761719 Z"
         transform="translate(0,1030.3622)"
         class="ColorScheme-Text"
         id="path4943-7" />
      <path
         style="fill:currentColor;fill-opacity:1;stroke:none"
         class="ColorScheme-PositiveText"
         d="m 15,1041.3622 c 2.216,0 4,1.784 4,4 0,2.216 -1.784,4 -4,4 -2.216,0 -4,-1.784 -4,-4 0,-2.216 1.784,-4 4,-4 z"
         id="rect4153" />
      <path
         style="fill:#ffffff"
         d="m 17,13 -3,3 -1,-1 -1,1 1,1 1,1 4,-4 z"
         transform="translate(0,1030.3622)"
         id="path4142" />
    </g>
  </g>
</svg>
