<?xml version="1.0" encoding="UTF-8" standalone="no"?>
<svg
   viewBox="0 0 48 48"
   version="1.1"
   id="svg8"
   sodipodi:docname="container_4.svg"
   width="48"
   height="48"
   inkscape:version="1.1 (c4e8f9e, 2021-05-24)"
   xmlns:inkscape="http://www.inkscape.org/namespaces/inkscape"
   xmlns:sodipodi="http://sodipodi.sourceforge.net/DTD/sodipodi-0.dtd"
   xmlns="http://www.w3.org/2000/svg"
   xmlns:svg="http://www.w3.org/2000/svg">
  <defs
     id="defs12" />
  <sodipodi:namedview
     id="namedview10"
     pagecolor="#ffffff"
     bordercolor="#666666"
     borderopacity="1.0"
     inkscape:pageshadow="2"
     inkscape:pageopacity="0.0"
     inkscape:pagecheckerboard="0"
     showgrid="false"
     inkscape:zoom="5.711247"
     inkscape:cx="-27.927351"
     inkscape:cy="22.762104"
     inkscape:window-width="1366"
     inkscape:window-height="702"
     inkscape:window-x="0"
     inkscape:window-y="0"
     inkscape:window-maximized="1"
     inkscape:current-layer="svg8" />
  <g
     id="g13"
     transform="matrix(1.0789474,0,0,1.0882591,-1.8947376,-2.118213)">
    <path
       color="#bebebe"
       d="m 5,5.011875 v 38 h 38 v -38 z"
       fill="#808080"
       fill-opacity="0.01"
       id="path2"
       style="stroke-width:2.375" />
    <path
       color="#000000"
       d="m 24,4.70312 -1.04025,0.520125 -14.25,7.27225 L 7.375,13.16287 v 21.96875 l 1.337125,0.66975 14.25,6.975375 L 24,43.29687 l 1.04025,-0.520125 14.25,-7.125 L 40.625,34.98437 V 13.01562 l -1.337125,-0.667375 -14.25,-7.125 z m 0,5.34375 11.875,5.9375 V 32.01562 L 24,37.95312 V 21.92187 L 22.95975,21.401745 12.201,15.98437 Z"
       fill="#232323"
       style="text-indent:0;text-decoration-line:none;text-transform:none;fill:#f2f2f2;stroke-width:2.375"
       id="path4" />
    <path
       d="m 24,21.921875 11.875,-5.9375 v 16.03125 L 24,37.953125 Z"
       fill="#232323"
       opacity="0.5"
       id="path6"
       style="fill:#008000;stroke-width:2.375" />
    <path
       style="fill:#007f00;fill-opacity:0.505882;stroke:none;stroke-width:1px;stroke-linecap:butt;stroke-linejoin:miter;stroke-opacity:1"
       d="M 12.201,15.98437 24,21.921875 35.875,15.98437 24,10.04687 Z"
       id="path59" />
  </g>
</svg>
