<?xml version="1.0" encoding="UTF-8" standalone="no"?>
<svg
   viewBox="0 0 48 48"
   version="1.1"
   id="svg18"
   sodipodi:docname="drive.svg"
   inkscape:version="1.1 (c4e8f9e, 2021-05-24)"
   xmlns:inkscape="http://www.inkscape.org/namespaces/inkscape"
   xmlns:sodipodi="http://sodipodi.sourceforge.net/DTD/sodipodi-0.dtd"
   xmlns="http://www.w3.org/2000/svg"
   xmlns:svg="http://www.w3.org/2000/svg">
  <defs
     id="defs22" />
  <sodipodi:namedview
     id="namedview20"
     pagecolor="#ffffff"
     bordercolor="#666666"
     borderopacity="1.0"
     inkscape:pageshadow="2"
     inkscape:pageopacity="0.0"
     inkscape:pagecheckerboard="0"
     showgrid="false"
     inkscape:zoom="7.1005306"
     inkscape:cx="23.941873"
     inkscape:cy="24.01229"
     inkscape:window-width="1356"
     inkscape:window-height="709"
     inkscape:window-x="0"
     inkscape:window-y="0"
     inkscape:window-maximized="1"
     inkscape:current-layer="svg18" />
  <rect
     width="35.425198"
     height="37.448555"
     x="6.2874017"
     y="5.275723"
     rx="2.7250152"
     style="fill:#839496;fill-opacity:1;stroke:none;stroke-width:1.26274"
     id="rect2" />
  <path
     d="m 24.050427,10.853196 c -1.736823,-0.01814 -3.497835,0.37736 -5.140318,1.24698 -5.256428,2.785448 -7.20733,9.296114 -4.421882,14.550123 2.308909,4.35657 7.16016,6.462286 11.754999,5.480183 l -2.00291,-7.068239 c -0.06531,0.0036 -0.122158,0.03749 -0.18868,0.03749 -2.004119,0 -3.628459,-1.62434 -3.628459,-3.628459 0,-2.004119 1.62434,-3.62846 3.628459,-3.62846 2.00412,0 3.62846,1.624341 3.62846,3.62846 0,0.896229 -0.331399,1.710214 -0.869621,2.343985 l 4.649266,5.556381 c 3.370839,-3.25231 4.343266,-8.466406 2.041614,-12.8133 -1.914618,-3.613946 -5.627741,-5.667654 -9.449719,-5.707567 z"
     style="fill:#073642;fill-opacity:1;stroke-width:1.20949"
     id="path6" />
  <path
     d="m 27.618412,27.484845 3.62846,10.885378 h 3.628459 V 35.95125 Z"
     style="fill:#073642;fill-opacity:1;stroke:none;stroke-width:1.20949"
     id="path8" />
  <path
     d="m 13.810914,24.798575 c 0.96517,3.024926 3.276499,5.53461 6.363109,6.742887 l 2.533874,-6.751353 C 22.341423,24.64497 22.012442,24.439358 21.697976,24.167223 21.188782,23.72818 20.81747,23.179073 20.617904,22.585215 l -6.80578,2.21336 z"
     style="opacity:0.495;fill:#93a1a1;fill-opacity:1;stroke-width:1.20949"
     id="path10" />
  <path
     d="m 13.501286,19.263965 c -0.677313,3.102333 0.07015,6.432049 2.139581,9.02035 l 5.569686,-4.580325 c -0.244317,-0.309629 -0.426949,-0.650704 -0.563621,-1.044996 -0.221336,-0.634981 -0.268506,-1.29657 -0.145138,-1.910989 l -7.000508,-1.48525 z"
     style="opacity:0.246;fill:#268bd2;fill-opacity:1;stroke-width:1.20949"
     id="path12" />
  <path
     d="M 34.144801,18.030289 C 33.15907,15.01262 30.829599,12.518659 27.734523,11.333362 l -2.485495,6.769496 c 0.367684,0.142719 0.697874,0.345913 1.014759,0.615628 0.511613,0.435416 0.887763,0.982104 1.092167,1.574752 l 6.788847,-2.26174 z"
     style="opacity:0.495;fill:#93a1a1;fill-opacity:1;stroke-width:1.20949"
     id="path14" />
  <path
     d="m 34.493134,23.570946 c 0.655541,-3.10717 -0.116111,-6.430839 -2.203685,-9.004627 l -5.537029,4.619029 c 0.246735,0.30721 0.431787,0.648285 0.570877,1.040159 0.224965,0.632561 0.276973,1.29415 0.158443,1.909779 l 7.010184,1.43566 z"
     style="opacity:0.19;fill:#268bd2;fill-opacity:1;stroke-width:1.20949"
     id="path16" />
</svg>
