<?xml version="1.0" encoding="UTF-8" standalone="no"?>
<svg
   viewBox="0 0 48 48"
   version="1.1"
   id="svg18"
   sodipodi:docname="edit.svg"
   width="48"
   height="48"
   inkscape:version="1.1 (c4e8f9e, 2021-05-24)"
   xmlns:inkscape="http://www.inkscape.org/namespaces/inkscape"
   xmlns:sodipodi="http://sodipodi.sourceforge.net/DTD/sodipodi-0.dtd"
   xmlns="http://www.w3.org/2000/svg"
   xmlns:svg="http://www.w3.org/2000/svg">
  <defs
     id="defs22" />
  <sodipodi:namedview
     id="namedview20"
     pagecolor="#ffffff"
     bordercolor="#666666"
     borderopacity="1.0"
     inkscape:pageshadow="2"
     inkscape:pageopacity="0.0"
     inkscape:pagecheckerboard="0"
     showgrid="false"
     inkscape:zoom="4.7045455"
     inkscape:cx="-21.681159"
     inkscape:cy="10.94686"
     inkscape:window-width="1356"
     inkscape:window-height="709"
     inkscape:window-x="0"
     inkscape:window-y="0"
     inkscape:window-maximized="1"
     inkscape:current-layer="svg18" />
  <path
     d="m 12.712101,7.0681509 h 15.803056 c 3.950767,0 3.950767,0 3.950767,3.8101311 v 22.857066 c 0,3.810132 0,3.810132 -3.950767,3.810132 H 12.712101 c -3.9507655,0 -3.9507655,0 -3.9507655,-3.810132 V 10.878282 c 0,-3.8101311 0,-3.8101311 3.9507655,-3.8101311 z"
     style="fill:none;fill-opacity:1;fill-rule:evenodd;stroke-width:1.69318;stroke:#ffffff;stroke-opacity:1"
     id="path2" />
  <g
     transform="matrix(0.98769119,0,0,0.95253276,-9.0171065,-4.3641037)"
     style="fill:#888888"
     id="g10">
    <path
       d="m 23.14,19.11 v 3.555 H 36.854 V 19.11 Z"
       id="path4" />
    <path
       d="m 23.14,33.33 v 3.555 h 6.857 V 33.33 Z"
       id="path6" />
    <path
       d="m 23.14,26.22 v 3.555 H 36.854 V 26.22 Z"
       id="path8" />
  </g>
  <path
     d="m 39.238664,20.826971 c 0,0 0.0017,-0.82458 -1.837106,-1.886207 -1.774458,-1.024377 -2.600732,-0.57399 -2.600732,-0.57399 l -9.566496,16.569508 -0.528272,5.993874 4.923781,-3.457483"
     style="fill:#ff6f03;fill-opacity:1;fill-rule:nonzero;stroke:none;stroke-width:1.69318"
     id="path12" />
  <path
     d="m 25.232638,34.937974 -0.528274,5.993875 4.923782,-3.457483"
     style="fill:#ffc13d;fill-opacity:1;fill-rule:nonzero;stroke:none;stroke-width:1.69318"
     id="path14" />
  <path
     d="m 24.943103,38.136401 -0.238739,2.795448 2.304425,-1.601753"
     style="fill:#2d2d2d;fill-opacity:1;fill-rule:nonzero;stroke:none;stroke-width:1.69318"
     id="path16" />
</svg>
