<?xml version="1.0" encoding="UTF-8" standalone="no"?>
<svg
   viewBox="0 0 48 48"
   version="1.1"
   id="svg21"
   sodipodi:docname="folder.svg"
   inkscape:version="1.1 (c4e8f9e, 2021-05-24)"
   xmlns:inkscape="http://www.inkscape.org/namespaces/inkscape"
   xmlns:sodipodi="http://sodipodi.sourceforge.net/DTD/sodipodi-0.dtd"
   xmlns="http://www.w3.org/2000/svg"
   xmlns:svg="http://www.w3.org/2000/svg">
  <sodipodi:namedview
     id="namedview23"
     pagecolor="#ffffff"
     bordercolor="#666666"
     borderopacity="1.0"
     inkscape:pageshadow="2"
     inkscape:pageopacity="0.0"
     inkscape:pagecheckerboard="0"
     showgrid="false"
     inkscape:zoom="12.197592"
     inkscape:cx="24.021135"
     inkscape:cy="24.021135"
     inkscape:window-width="1904"
     inkscape:window-height="1004"
     inkscape:window-x="0"
     inkscape:window-y="40"
     inkscape:window-maximized="1"
     inkscape:current-layer="svg21" />
  <defs
     id="defs7">
    <radialGradient
       id="radialGradient3073"
       gradientUnits="userSpaceOnUse"
       gradientTransform="matrix(1.25,0,0,0.20833327,-6,31.562508)"
       cx="24"
       cy="40.5"
       r="24">
      <stop
         style="stop-color:#000;stop-opacity:1"
         id="stop2" />
      <stop
         offset="1"
         style="stop-color:#000;stop-opacity:0.196"
         id="stop4" />
    </radialGradient>
  </defs>
  <g
     transform="matrix(0.77805499,0,0,0.77805499,5.3266802,-775.78967)"
     id="g19">
    <path
       d="M 24,35 C 14.173,35 5.472,35.783 0,37 v 6 c 5.472,1.217 14.173,2 24,2 9.827,0 18.528,-0.783 24,-2 V 37 C 42.528,35.783 33.827,35 24,35 Z"
       transform="translate(0,1004.3622)"
       style="opacity:0.1;fill:url(#radialGradient3073);fill-opacity:1;stroke:none"
       id="path9" />
    <rect
       width="46"
       height="32"
       x="1"
       y="1014.36"
       rx="5"
       style="fill:#ea9036;fill-opacity:1;stroke:none"
       id="rect11" />
    <path
       d="m 6,1014.36 c -2.77,0 -5,2.23 -5,5 v 2 c 0,-2.77 2.23,-5 5,-5 h 36 c 2.77,0 5,2.23 5,5 v -2 c 0,-2.77 -2.23,-5 -5,-5 z"
       style="opacity:0.2;fill:#ffffff;fill-opacity:1;stroke:none"
       id="path13" />
    <path
       d="m 6,1022.36 h 8 c 11,-1 9,-12 16,-12 h 12 c 2.77,0 5,2.23 5,5 v 26 c 0,2.77 -2.23,5 -5,5 H 6 c -2.77,0 -5,-2.23 -5,-5 v -14 c 0,-3 2,-5 5,-5 z"
       style="fill:#f2bb64;fill-opacity:1;stroke:none"
       id="path15" />
    <path
       d="m 1,1039.36 v 2 c 0,2.77 2.23,5 5,5 h 36 c 2.77,0 5,-2.23 5,-5 v -2 c 0,2.77 -2.23,5 -5,5 H 6 c -2.77,0 -5,-2.23 -5,-5 z"
       style="opacity:0.15;fill:#000000;fill-opacity:1;stroke:none"
       id="path17" />
  </g>
</svg>
