<?xml version="1.0" encoding="UTF-8" standalone="no"?>
<svg
   viewBox="0 0 48 48"
   version="1.1"
   id="svg22"
   sodipodi:docname="games.svg"
   inkscape:version="1.1 (c4e8f9e, 2021-05-24)"
   xmlns:inkscape="http://www.inkscape.org/namespaces/inkscape"
   xmlns:sodipodi="http://sodipodi.sourceforge.net/DTD/sodipodi-0.dtd"
   xmlns="http://www.w3.org/2000/svg"
   xmlns:svg="http://www.w3.org/2000/svg">
  <defs
     id="defs26" />
  <sodipodi:namedview
     id="namedview24"
     pagecolor="#ffffff"
     bordercolor="#666666"
     borderopacity="1.0"
     inkscape:pageshadow="2"
     inkscape:pageopacity="0.0"
     inkscape:pagecheckerboard="0"
     showgrid="false"
     inkscape:zoom="17.25"
     inkscape:cx="24"
     inkscape:cy="24"
     inkscape:window-width="1904"
     inkscape:window-height="1004"
     inkscape:window-x="0"
     inkscape:window-y="40"
     inkscape:window-maximized="1"
     inkscape:current-layer="svg22" />
  <path
     d="m 13.849 10.504 c -1.079 0.044 -1.967 0.506 -2.578 0.97 c -3.615 2.742 -6.771 14.178 -6.771 20.23 c 0 6.05 1.391 5.795 2.599 5.795 1.207 0 2.725 -0.83 4.052 -1.998 c 3.662 -3.224 5.349 -6.5 8.991 -6.5 l 7.717 0 c 3.642 0 5.329 3.276 8.991 6.5 1.327 1.168 2.845 1.998 4.052 1.998 1.207 0 2.599 0.257 2.599 -5.795 c 0 -6.05 -3.156 -17.488 -6.771 -20.23 -0.978 -0.742 -2.662 -1.481 -4.711 -0.507 -1.374 0.653 -2.602 1.033 -4.397 1.033 l -7.242 0 c -1.795 0 -3.02 -0.38 -4.397 -1.033 -0.768 -0.365 -1.486 -0.489 -2.133 -0.463 z"
     style="fill:#deddc9;fill-opacity:1;stroke:none;fill-rule:evenodd"
     id="path2" />
  <ellipse
     cx="14.5"
     cy="20"
     rx="3.5"
     ry="3.5"
     style="fill:#3b3b3b;opacity:1;fill-opacity:1;stroke:none;fill-rule:nonzero"
     id="ellipse4" />
  <ellipse
     cx="34.5"
     cy="17"
     rx="1.5"
     ry="1.5"
     style="fill:#df8003;opacity:1;fill-opacity:1;stroke:none;fill-rule:nonzero"
     id="ellipse6" />
  <ellipse
     cy="20"
     cx="37.5"
     rx="1.5"
     ry="1.5"
     style="fill:#e45146;opacity:1;fill-opacity:1;stroke:none;fill-rule:nonzero"
     id="ellipse8" />
  <ellipse
     cx="34.5"
     cy="23"
     rx="1.5"
     ry="1.5"
     style="fill:#68bf45;opacity:1;fill-opacity:1;stroke:none;fill-rule:nonzero"
     id="ellipse10" />
  <ellipse
     cy="20"
     cx="31.5"
     rx="1.5"
     ry="1.5"
     style="fill:#5b6dc1;opacity:1;fill-opacity:1;stroke:none;fill-rule:nonzero"
     id="ellipse12" />
  <ellipse
     cx="24"
     cy="20"
     rx="1.25"
     ry="1.25"
     style="stroke-dasharray:none;stroke-opacity:1;fill:none;opacity:1;stroke-miterlimit:4;fill-opacity:1;stroke:#3b3b3b;fill-rule:nonzero;stroke-linecap:round;stroke-linejoin:miter;stroke-width:0.5;stroke-dashoffset:0"
     id="ellipse14" />
  <ellipse
     cx="21"
     cy="20"
     rx="1"
     ry="1"
     style="fill:#3b3b3b;opacity:1;fill-opacity:1;stroke:none;fill-rule:nonzero"
     id="ellipse16" />
  <ellipse
     cy="20"
     cx="27"
     rx="1"
     ry="1"
     style="fill:#3b3b3b;opacity:1;fill-opacity:1;stroke:none;fill-rule:nonzero"
     id="ellipse18" />
</svg>
