<?xml version="1.0" encoding="UTF-8" standalone="no"?>
<svg
   width="48"
   height="48"
   viewBox="0 0 48 48"
   version="1.1"
   id="svg8"
   sodipodi:docname="home.svg"
   inkscape:version="1.1 (c4e8f9e, 2021-05-24)"
   xmlns:inkscape="http://www.inkscape.org/namespaces/inkscape"
   xmlns:sodipodi="http://sodipodi.sourceforge.net/DTD/sodipodi-0.dtd"
   xmlns="http://www.w3.org/2000/svg"
   xmlns:svg="http://www.w3.org/2000/svg">
  <defs
     id="defs12" />
  <sodipodi:namedview
     id="namedview10"
     pagecolor="#ffffff"
     bordercolor="#666666"
     borderopacity="1.0"
     inkscape:pageshadow="2"
     inkscape:pageopacity="0.0"
     inkscape:pagecheckerboard="0"
     showgrid="false"
     inkscape:zoom="13.306464"
     inkscape:cx="23.522402"
     inkscape:cy="29.008458"
     inkscape:window-width="1904"
     inkscape:window-height="1004"
     inkscape:window-x="0"
     inkscape:window-y="40"
     inkscape:window-maximized="1"
     inkscape:current-layer="svg8" />
  <path
     style="fill:#ffffff;fill-opacity:0.902;stroke-width:2.56273"
     d="M 22.08129,9.6547247 C 5.0548283,22.24313 4.8379319,18.822821 4.8379319,22.293181 c 0,1.80192 0.6006394,2.02716 6.3484261,2.02716 v 12.813644 c 0,2.562728 0,2.562728 2.562727,2.562728 h 5.125458 c 2.562729,0 2.562729,0 2.562729,-2.562728 V 26.88307 c 3.195069,0 1.930388,0 5.125456,0 v 10.250915 c 0,2.562728 0,2.562728 2.56273,2.562728 h 5.125457 c 2.562728,0 2.562728,0 2.562728,-2.562728 V 24.320341 c 5.747784,0 6.348425,-0.225238 6.348425,-2.02716 0,-3.478703 -0.141821,0.0084 -17.243358,-12.6384563 C 24,7.8528072 24,7.8528072 22.08129,9.6547247 Z"
     id="path4" />
</svg>
