<?xml version="1.0" encoding="UTF-8" standalone="no"?>
<svg
   xmlns:dc="http://purl.org/dc/elements/1.1/"
   xmlns:cc="http://creativecommons.org/ns#"
   xmlns:rdf="http://www.w3.org/1999/02/22-rdf-syntax-ns#"
   xmlns:svg="http://www.w3.org/2000/svg"
   xmlns="http://www.w3.org/2000/svg"
   xmlns:xlink="http://www.w3.org/1999/xlink"
   xmlns:sodipodi="http://sodipodi.sourceforge.net/DTD/sodipodi-0.dtd"
   xmlns:inkscape="http://www.inkscape.org/namespaces/inkscape"
   height="48"
   width="48"
   viewBox="0 0 48 48"
   id="svg2"
   version="1.1"
   inkscape:version="0.91 r"
   sodipodi:docname="pet-48.svg">
  <metadata
     id="metadata69">
    <rdf:RDF>
      <cc:Work
         rdf:about="">
        <dc:format>image/svg+xml</dc:format>
        <dc:type
           rdf:resource="http://purl.org/dc/dcmitype/StillImage" />
        <dc:title />
      </cc:Work>
    </rdf:RDF>
  </metadata>
  <defs
     id="defs67">
    <linearGradient
       id="linearGradient3888"
       inkscape:collect="always">
      <stop
         id="stop3890"
         offset="0"
         style="stop-color:#000000;stop-opacity:1;" />
      <stop
         id="stop3892"
         offset="1"
         style="stop-color:#000000;stop-opacity:0;" />
    </linearGradient>
    <linearGradient
       id="linearGradient3818">
      <stop
         id="stop3820"
         offset="0"
         style="stop-color:#e6e6e6;stop-opacity:1;" />
      <stop
         id="stop3822"
         offset="1"
         style="stop-color:#cbc5c5;stop-opacity:0;" />
    </linearGradient>
    <linearGradient
       y2="380.85712"
       x2="585.88849"
       y1="376.52084"
       x1="585.88855"
       gradientTransform="matrix(1,0,0,1.0512821,0,-20.50275)"
       gradientUnits="userSpaceOnUse"
       id="linearGradient3838"
       xlink:href="#linearGradient3888"
       inkscape:collect="always" />
    <filter
       color-interpolation-filters="sRGB"
       id="filter3991"
       inkscape:collect="always">
      <feGaussianBlur
         id="feGaussianBlur3993"
         stdDeviation="3.2756602"
         inkscape:collect="always" />
    </filter>
    <linearGradient
       y2="380.85712"
       x2="585.88849"
       y1="376.52084"
       x1="585.88855"
       gradientTransform="matrix(1,0,0,1.0512821,-869.49815,-422.67574)"
       gradientUnits="userSpaceOnUse"
       id="linearGradient3819"
       xlink:href="#linearGradient3888"
       inkscape:collect="always" />
  </defs>
  <sodipodi:namedview
     pagecolor="#ffffff"
     bordercolor="#666666"
     borderopacity="1"
     objecttolerance="10"
     gridtolerance="10"
     guidetolerance="10"
     inkscape:pageopacity="0"
     inkscape:pageshadow="2"
     inkscape:window-width="1366"
     inkscape:window-height="699"
     id="namedview65"
     showgrid="false"
     inkscape:zoom="2.4583334"
     inkscape:cx="-77.974241"
     inkscape:cy="24"
     inkscape:window-x="0"
     inkscape:window-y="0"
     inkscape:window-maximized="1"
     inkscape:current-layer="svg2" />
  <linearGradient
     id="a"
     y2="43.539"
     gradientUnits="userSpaceOnUse"
     x2="23.815"
     y1="41.555"
     x1="23.815"
     gradientTransform="matrix(1.2123911,0,0,1.2123911,-4.2423504,-5.4388174)">
    <stop
       stop-opacity=".27451"
       offset="0"
       id="stop5" />
    <stop
       stop-opacity="0"
       offset="1"
       id="stop7" />
  </linearGradient>
  <linearGradient
     id="b">
    <stop
       stop-opacity=".31373"
       offset="0"
       id="stop10" />
    <stop
       stop-opacity=".27451"
       offset=".22222"
       id="stop12" />
    <stop
       stop-opacity="0"
       offset="1"
       id="stop14" />
  </linearGradient>
  <radialGradient
     id="c"
     xlink:href="#b"
     gradientUnits="userSpaceOnUse"
     cy="189.58"
     cx="450.91"
     gradientTransform="matrix(3.1522168e-7,-0.14209223,-0.25576602,-1.8185866e-7,73.117898,109.61346)"
     r="21.167" />
  <radialGradient
     id="d"
     xlink:href="#b"
     gradientUnits="userSpaceOnUse"
     cy="189.58"
     cx="450.91"
     gradientTransform="matrix(-3.1522168e-7,0.14209223,0.25576602,1.8185866e-7,-23.856414,-19.729271)"
     r="21.167" />
  <radialGradient
     id="e"
     xlink:href="#b"
     gradientUnits="userSpaceOnUse"
     cy="189.58"
     cx="450.91"
     gradientTransform="matrix(-3.1522168e-7,-0.14209223,0.25576602,-1.8185866e-7,-23.856414,109.61346)"
     r="21.167" />
  <radialGradient
     id="f"
     xlink:href="#b"
     gradientUnits="userSpaceOnUse"
     cy="189.58"
     cx="450.91"
     gradientTransform="matrix(3.1522168e-7,0.14209223,-0.25576602,1.8185866e-7,73.117898,-19.729271)"
     r="21.167" />
  <linearGradient
     id="g"
     y2="21.154"
     gradientUnits="userSpaceOnUse"
     x2="23.815"
     y1="42.985"
     x1="23.815"
     gradientTransform="matrix(1.2123911,0,0,1.2123911,-4.2423504,-5.4388174)">
    <stop
       stop-color="#2196f3"
       offset="0"
       id="stop21" />
    <stop
       stop-color="#42a5f5"
       offset="1"
       id="stop23" />
  </linearGradient>
  <linearGradient
     id="h"
     y2="7.321"
     gradientUnits="userSpaceOnUse"
     x2="23.815"
     y1="31.136"
     x1="23.815"
     gradientTransform="matrix(1.2123911,0,0,1.2123911,-4.2423504,-5.4388174)">
    <stop
       stop-color="#e0e0e0"
       offset="0"
       id="stop26" />
    <stop
       stop-color="#eee"
       offset="1"
       id="stop28" />
  </linearGradient>
  <linearGradient
     id="i"
     y2="-94.583"
     gradientUnits="userSpaceOnUse"
     x2="264.58"
     y1="74.75"
     x1="264.58"
     gradientTransform="matrix(0.11367258,0,0,0.11367258,-4.2423506,19.000563)">
    <stop
       stop-color="#757575"
       offset="0"
       id="stop31" />
    <stop
       stop-color="#9e9e9e"
       offset="1"
       id="stop33" />
  </linearGradient>
  <path
     d="m 24.030609,44.942094 1.202922,0 0,2.405868 -1.202922,0 z"
     id="path35"
     style="fill:url(#a)"
     inkscape:connector-curvature="0" />
  <path
     d="m 25.233301,44.942094 4.811738,0 0,-2.405869 -4.811738,0 z"
     id="path37"
     style="fill:url(#c)"
     inkscape:connector-curvature="0" />
  <path
     d="m 24.030609,44.942094 -4.816466,0 0,2.405868 4.816466,0 z"
     id="path39"
     style="fill:url(#d)"
     inkscape:connector-curvature="0" />
  <path
     d="m 24.030609,44.942094 -4.816466,0 0,-2.405869 4.816466,0 z"
     id="path41"
     style="fill:url(#e)"
     inkscape:connector-curvature="0" />
  <path
     d="m 25.233301,44.942094 4.811738,0 0,2.405868 -4.811738,0 z"
     id="path43"
     style="fill:url(#f)"
     inkscape:connector-curvature="0" />
  <path
     d="m 9.3825004,17.800295 -0.00947,18.678096 0,0.07578 c 0.00947,0.326776 0.1562893,0.644083 0.412019,0.866666 0,0 0,0.0048 0.00474,0.0048 0.014208,0.01421 0.028415,0.02368 0.042623,0.03789 0.00947,0.0048 0.018944,0.0094 0.028415,0.01894 0.00474,0.0048 0.014208,0.0094 0.023681,0.01894 0.00947,0.0048 0.02368,0.01421 0.037888,0.02368 0.023679,0.01421 0.042622,0.02842 0.061566,0.03789 l 14.0564616,8.112594 c 0.04262,0.02842 0.08525,0.04736 0.127871,0.0663 0.108927,0.04736 0.222583,0.07578 0.336245,0.08998 0.01894,0 0.03315,0.0048 0.05209,0.0048 l 0.01421,0 c 0.01421,0 0.02842,0.0048 0.04262,0.0048 l 0.05683,0 c 0.01421,0 0.02841,-0.0048 0.04262,-0.0048 l 0.01421,0 c 0.01894,0 0.03789,-0.0048 0.05683,-0.0048 0.09472,-0.0094 0.189436,-0.03315 0.27942,-0.0663 0.01894,-0.0094 0.03315,-0.01421 0.05209,-0.02368 0.01894,-0.0048 0.03789,-0.01421 0.0521,-0.02368 0.02841,-0.01421 0.05209,-0.02368 0.08051,-0.04262 l 14.037069,-8.103173 c 0.04262,-0.02368 0.08525,-0.0521 0.12787,-0.08051 0,0 0.0048,0 0.0048,-0.0048 0.0094,-0.0094 0.02368,-0.01894 0.03789,-0.02842 0.0048,-0.0048 0.0094,-0.0094 0.01421,-0.0094 0.0094,-0.0094 0.01421,-0.01421 0.02368,-0.01894 0.0094,-0.0094 0.01894,-0.01894 0.02842,-0.02842 0.0048,0 0.0048,-0.0048 0.0094,-0.0048 0.236791,-0.222582 0.369402,-0.530421 0.383612,-0.842987 l 0,-0.0094 -0.0048,-18.744777 z"
     id="path45"
     style="fill:url(#g)"
     inkscape:connector-curvature="0" />
  <path
     d="m 39.915357,35.901294 0,0.0048 c -0.01421,0.312566 -0.146808,0.620403 -0.383613,0.842987 -0.0048,0 -0.0048,0.0048 -0.0094,0.0048 -0.0094,0.0094 -0.01894,0.01894 -0.02842,0.02368 -0.0094,0.0094 -0.01421,0.01421 -0.02368,0.01894 -0.0048,0.0048 -0.0094,0.0094 -0.01421,0.01421 -0.01421,0.0094 -0.02842,0.01894 -0.03789,0.02842 l -0.0048,0.0048 c -0.04262,0.02842 -0.08525,0.05683 -0.127871,0.08051 L 25.24841,45.027578 c -0.02842,0.01421 -0.0521,0.02842 -0.08051,0.04262 -0.01421,0.0094 -0.03315,0.01421 -0.05209,0.02368 -0.01894,0.0094 -0.03315,0.01421 -0.0521,0.02368 -0.08998,0.03315 -0.184696,0.0521 -0.27942,0.0663 -0.01894,0 -0.03789,0.0048 -0.05683,0.0048 l -0.08525,0 c -0.0094,0 -0.01894,0.0048 -0.02842,0 l -0.05683,0 c -0.01894,0 -0.03315,-0.0048 -0.0521,-0.0048 -0.113662,-0.01421 -0.227324,-0.04262 -0.336245,-0.08998 -0.04262,-0.01894 -0.08525,-0.03789 -0.127871,-0.0663 L 9.9842962,36.914788 c -0.018944,-0.01421 -0.037888,-0.02368 -0.061566,-0.03789 -0.014208,-0.0094 -0.028416,-0.01894 -0.037887,-0.02842 -0.00947,-0.0048 -0.018944,-0.0094 -0.023681,-0.01421 -0.00947,-0.0094 -0.018943,-0.01421 -0.028415,-0.01894 -0.014208,-0.01421 -0.028414,-0.02842 -0.042623,-0.03789 l -0.00474,-0.0048 C 9.5296459,36.550128 9.3828375,36.23282 9.3733687,35.906045 l 0,0.506755 c 0.00947,0.331516 0.1562893,0.648824 0.412019,0.871406 l 0.00474,0.0048 c 0.014208,0.0094 0.028415,0.02368 0.042623,0.03789 0.00947,0.0048 0.018944,0.0094 0.028415,0.01894 0.00474,0.0048 0.014208,0.0094 0.023681,0.01421 0.00947,0.0094 0.02368,0.01894 0.037887,0.02842 0.02368,0.01421 0.042622,0.02368 0.061566,0.03789 l 14.0564623,8.112593 c 0.04262,0.02368 0.08525,0.04736 0.12787,0.0663 0.108926,0.04736 0.222584,0.07578 0.336245,0.08998 0.01894,0 0.03315,0.0048 0.0521,0.0048 l 0.05683,0 c 0.0094,0.0048 0.01894,0 0.02842,0 l 0.08525,0 c 0.01894,0 0.03789,-0.0048 0.05683,-0.0048 0.09472,-0.01421 0.189436,-0.03315 0.27942,-0.07104 0.01894,-0.0048 0.03315,-0.0094 0.0521,-0.01894 0.01894,-0.0094 0.03789,-0.01421 0.0521,-0.02368 0.02842,-0.01421 0.05209,-0.02841 0.08051,-0.04262 L 39.2855,37.435813 c 0.04262,-0.02368 0.08525,-0.0521 0.127871,-0.08051 l 0.0048,-0.0048 c 0.0094,-0.0094 0.02368,-0.01894 0.03789,-0.02842 l 0.01421,-0.01421 c 0.0094,-0.0048 0.01421,-0.0094 0.02368,-0.01894 0.0094,-0.0048 0.01894,-0.01421 0.02842,-0.02368 0.0048,0 0.0048,-0.0048 0.0094,-0.0094 0.236793,-0.217855 0.369404,-0.525682 0.383613,-0.83826 l 0,-0.0094 z"
     id="path47"
     inkscape:connector-curvature="0"
     style="fill-opacity:0.23528999" />
  <path
     d="m 24.030609,27.499423 1.169763,0 0,18.195566 -1.169763,0 z"
     id="path49"
     inkscape:connector-curvature="0"
     style="fill:#fafafa;fill-opacity:0.11764999" />
  <path
     d="m 1.890651,13.713324 c 0.018944,0.02368 0.042622,0.04262 0.066302,0.0663 0.018944,0.01421 0.033152,0.02842 0.047359,0.03789 0.00947,0.0094 0.018944,0.01421 0.023679,0.01894 0.00947,0.0094 0.018944,0.01421 0.028415,0.01894 0.00947,0.0094 0.023681,0.01894 0.033152,0.02368 l 0.00474,0.0048 c 0.018945,0.01421 0.042625,0.02368 0.061567,0.03789 l 6.5213303,3.765081 0.4593872,0.184695 0.00474,-0.0048 -0.4641153,-0.189436 -6.5213304,-3.765081 c -0.018944,-0.0094 -0.042622,-0.02368 -0.061567,-0.03789 l -0.00474,0 c -0.00947,-0.0094 -0.02368,-0.01894 -0.033152,-0.02368 -0.00947,-0.0094 -0.018943,-0.01421 -0.028415,-0.01894 -0.00474,-0.0048 -0.014208,-0.01421 -0.023679,-0.01894 -0.014208,-0.01421 -0.028416,-0.02368 -0.047359,-0.03789 l 0,-0.0048 c -0.02368,-0.01894 -0.042623,-0.03789 -0.066302,-0.05683 z m 45.454966,0 c -0.02368,0.01894 -0.04262,0.03789 -0.0663,0.05683 0,0 0,0.0048 -0.0048,0.0048 -0.01421,0.01421 -0.02842,0.02368 -0.04262,0.03789 -0.0094,0.0048 -0.01894,0.01421 -0.02841,0.01894 -0.0048,0.0048 -0.01421,0.0094 -0.02368,0.01894 -0.0094,0.0048 -0.02368,0.01421 -0.03789,0.02368 l -0.0048,0 c -0.01894,0.01421 -0.03789,0.02841 -0.05683,0.03789 l -6.52133,3.76508 -0.464116,0.189436 0.0048,0.0048 0.459387,-0.184695 6.521331,-3.765081 c 0.01894,-0.01421 0.03789,-0.02368 0.05683,-0.03789 0.0048,0 0.0048,0 0.0048,-0.0048 0.01421,-0.0048 0.02842,-0.01421 0.03789,-0.02368 0.0094,-0.0048 0.01894,-0.0094 0.02368,-0.01894 0.0094,-0.0048 0.01894,-0.0094 0.02842,-0.01894 0.01421,-0.0094 0.02842,-0.02368 0.04262,-0.03789 l 0.0048,0 c 0.02368,-0.02368 0.04736,-0.04262 0.0663,-0.0663 z M 1.890651,23.341407 c 0.018944,0.02368 0.042622,0.04262 0.066302,0.0663 0.018944,0.01421 0.033152,0.02841 0.047359,0.03789 0.00947,0.0094 0.018944,0.01421 0.023679,0.01894 0.00947,0.0094 0.018944,0.01421 0.028415,0.01894 0.00947,0.0094 0.023681,0.01894 0.033152,0.02368 l 0.00474,0.0048 c 0.018945,0.01421 0.042625,0.02368 0.061567,0.03789 l 7.2222136,4.167594 0,1.193454 6.8338844,3.949727 c 0.04262,0.02368 0.08525,0.04262 0.127871,0.06157 0.108926,0.04736 0.222583,0.07578 0.331516,0.08998 0.01894,0.0048 0.03789,0.0048 0.05683,0.0048 l 0.01421,0 c 0.01421,0 0.02842,0.0048 0.04262,0.0048 l 0.05683,0 c 0.01421,0 0.02842,-0.0048 0.04262,-0.0048 l 0.01421,0 c 0.01894,0 0.03789,0 0.05683,-0.0048 0.09472,-0.0094 0.184696,-0.03315 0.27942,-0.0663 0.01894,-0.0094 0.03315,-0.01421 0.0521,-0.02368 0.01894,-0.0048 0.03315,-0.01421 0.0521,-0.02368 0.02842,-0.01421 0.0521,-0.02368 0.07578,-0.03789 l 7.2033,-4.158137 7.198573,4.158137 c 0.02841,0.01421 0.05209,0.02368 0.08051,0.03789 0.01421,0.0094 0.03315,0.01894 0.0521,0.02368 0.01894,0.0094 0.03315,0.01421 0.0521,0.02368 0.08998,0.03315 0.184695,0.05683 0.27942,0.0663 0.01894,0.0048 0.03789,0.0048 0.05683,0.0048 l 0.01421,0 c 0.01421,0 0.02842,0.0048 0.04262,0.0048 l 0.05683,0 c 0.01421,0 0.02842,-0.0048 0.04262,-0.0048 l 0.01421,0 c 0.01421,0 0.03315,0 0.0521,-0.0048 0.113662,-0.01421 0.227323,-0.04262 0.336245,-0.08998 0.04262,-0.01894 0.08525,-0.03789 0.127871,-0.06157 l 6.886018,-3.978097 0,-1.193454 7.170201,-4.139224 c 0.01894,-0.01421 0.03789,-0.02368 0.05683,-0.03789 0.0048,0 0.0048,0 0.0048,-0.0048 0.01421,-0.0048 0.02842,-0.01421 0.03789,-0.02368 0.0094,-0.0048 0.01894,-0.0094 0.02368,-0.01894 0.0094,-0.0048 0.01894,-0.0094 0.02842,-0.01894 0.01421,-0.0094 0.02842,-0.02368 0.04262,-0.03789 l 0.0048,0 c 0.02368,-0.02368 0.04736,-0.04262 0.0663,-0.0663 -0.02368,0.01894 -0.04262,0.03789 -0.0663,0.05683 0,0 0,0.0048 -0.0048,0.0048 -0.01421,0.01421 -0.02842,0.02368 -0.04262,0.03789 -0.0094,0.0048 -0.01894,0.01421 -0.02842,0.01894 -0.0048,0.0048 -0.01421,0.0094 -0.02368,0.01894 -0.0094,0.0048 -0.02368,0.01421 -0.03789,0.02368 l -0.0048,0 c -0.01894,0.01421 -0.03789,0.02842 -0.05683,0.03789 l -14.056462,8.117321 c -0.04262,0.02368 -0.08525,0.04262 -0.127871,0.06157 -0.108924,0.04736 -0.222582,0.07578 -0.336245,0.08998 -0.01894,0 -0.03789,0.0048 -0.0521,0.0048 l -0.01421,0 c -0.01421,0 -0.02841,0.0048 -0.04262,0.0048 l -0.05683,0 c -0.01421,0 -0.02842,-0.0048 -0.04262,-0.0048 l -0.01421,0 c -0.01894,0 -0.03789,-0.0048 -0.05683,-0.0048 -0.09472,-0.0094 -0.189436,-0.03315 -0.27942,-0.0663 -0.01894,-0.0094 -0.03315,-0.01421 -0.0521,-0.02368 -0.01894,-0.0048 -0.03789,-0.01421 -0.05209,-0.02368 -0.02842,-0.01421 -0.0521,-0.02368 -0.08051,-0.03789 l -7.198573,-4.158137 -7.2033,4.158137 c -0.02368,0.01421 -0.04736,0.02368 -0.07578,0.03789 -0.01894,0.0094 -0.03315,0.01894 -0.0521,0.02368 -0.01894,0.0094 -0.03315,0.01421 -0.0521,0.02368 -0.09472,0.03315 -0.184696,0.05683 -0.27942,0.0663 -0.01894,0 -0.03789,0.0048 -0.05683,0.0048 l -0.01421,0 c -0.01421,0 -0.02842,0.0048 -0.04262,0.0048 l -0.05683,0 c -0.01421,0 -0.02842,-0.0048 -0.04262,-0.0048 l -0.01421,0 c -0.01894,0 -0.03789,-0.0048 -0.05683,-0.0048 -0.108926,-0.01421 -0.222584,-0.04262 -0.331516,-0.08998 -0.04262,-0.01894 -0.08525,-0.03789 -0.127871,-0.06157 L 2.1552554,23.540316 c -0.018944,-0.0094 -0.042622,-0.02368 -0.061568,-0.03789 l -0.00474,0 c -0.00947,-0.0094 -0.02368,-0.01894 -0.033152,-0.02368 -0.00947,-0.0094 -0.018943,-0.01421 -0.028415,-0.01894 -0.00474,-0.0048 -0.014208,-0.01421 -0.02368,-0.01894 -0.014208,-0.01421 -0.028416,-0.02368 -0.047359,-0.03789 l 0,-0.0048 c -0.02368,-0.01894 -0.042623,-0.03789 -0.066302,-0.05683 z"
     id="path51"
     inkscape:connector-curvature="0"
     style="fill-opacity:0.23528999" />
  <path
     d="m 9.3824443,17.800066 -0.00947,18.678678 0,0.07577 c 0.00947,0.326776 0.1562884,0.644081 0.412029,0.866675 0,0 0,0.0048 0.00474,0.0048 0.014208,0.01421 0.028416,0.02368 0.042622,0.03789 0.00947,0.0048 0.018944,0.0094 0.028416,0.01894 0.00474,0.0048 0.014208,0.0094 0.023679,0.01894 0.00947,0.0048 0.023679,0.01421 0.037887,0.02368 0.023679,0.01421 0.042622,0.02842 0.061567,0.03789 l 14.0556137,8.112584 c 0.04262,0.02842 0.08525,0.04736 0.12787,0.0663 0.108925,0.04736 0.222583,0.07578 0.336255,0.08998 0.01894,0 0.03315,0.0048 0.0521,0.0048 l 0.01421,0 c 0.01421,0 0.02842,0.0048 0.04262,0.0048 l 0.05683,0 c 0.01421,0 0.02841,-0.0048 0.04262,-0.0048 l 0.01421,0 c 0.01894,0 0.03789,-0.0048 0.05683,-0.0048 0.09472,-0.0094 0.189436,-0.03315 0.279419,-0.0663 0.01894,-0.0094 0.03315,-0.01421 0.0521,-0.02368 0.01894,-0.0048 0.03789,-0.01421 0.0521,-0.02368 0.02842,-0.01421 0.0521,-0.02368 0.08051,-0.04262 l 14.037426,-8.10315 c 0.04262,-0.02368 0.08525,-0.0521 0.127871,-0.08051 0,0 0.0048,0 0.0048,-0.0048 0.0094,-0.0094 0.02368,-0.01894 0.03789,-0.02841 0.0048,-0.0048 0.0094,-0.0094 0.01421,-0.0094 0.0094,-0.0094 0.01421,-0.01421 0.02368,-0.01894 0.0094,-0.0094 0.01894,-0.01894 0.02842,-0.02842 0.0048,0 0.0048,-0.0048 0.0094,-0.0048 0.236792,-0.222582 0.369403,-0.530419 0.383612,-0.842996 l 0,-0.0094 -0.0048,-18.744608 z"
     id="path53"
     inkscape:connector-curvature="0"
     style="fill:none;stroke:#212121;stroke-width:0.34101772;stroke-linecap:square;stroke-linejoin:round" />
  <path
     d="m 16.78536,4.0377162 c -0.01421,0 -0.02842,0 -0.04262,0.00474 l -0.01421,0 c -0.01894,0 -0.03789,0 -0.05683,0.00474 -0.108926,0.014208 -0.222582,0.042623 -0.331516,0.089983 -0.04262,0.018943 -0.08525,0.037887 -0.127871,0.061566 L 2.1558495,12.31606 c -0.018944,0.0094 -0.037888,0.01894 -0.056831,0.03315 -0.00474,0 -0.00474,0.0048 -0.00947,0.0048 -0.00947,0.0094 -0.02368,0.01421 -0.033152,0.02368 -0.00947,0.0048 -0.018943,0.01421 -0.02368,0.01894 -0.00947,0.0048 -0.018944,0.01421 -0.028415,0.01894 -0.014208,0.01421 -0.033152,0.02368 -0.047359,0.03789 l 0,0.0048 c -0.2036452,0.175226 -0.3362445,0.40729 -0.3883409,0.658291 0.052095,0.251001 0.1846957,0.487794 0.3883409,0.663021 0.018944,0.01421 0.033152,0.02842 0.047359,0.03789 0.00947,0.0094 0.018944,0.01421 0.023679,0.01894 0.00947,0.0094 0.018944,0.01421 0.028415,0.01894 0.00947,0.0094 0.023681,0.01894 0.033152,0.02368 l 0.00474,0.0048 c 0.018945,0.01421 0.042624,0.02368 0.061567,0.03789 l 6.5213303,3.765081 0.4641155,0.184696 -0.4641155,0.307838 -6.5213303,3.76508 c -0.018944,0.0094 -0.037887,0.01894 -0.056831,0.03315 -0.00474,0 -0.00474,0.0048 -0.00947,0.0048 -0.00947,0.0094 -0.02368,0.01421 -0.033152,0.02368 -0.00947,0.0048 -0.018943,0.01421 -0.02368,0.01894 -0.00947,0.0048 -0.018944,0.01421 -0.028415,0.01894 -0.014208,0.01421 -0.033152,0.02368 -0.047359,0.03789 l 0,0.0048 c -0.2036453,0.175227 -0.3362445,0.40729 -0.388341,0.658292 0.052095,0.251001 0.1846957,0.487793 0.388341,0.663032 0.018944,0.01421 0.033152,0.02842 0.047359,0.03789 0.00947,0.0094 0.018944,0.01421 0.023679,0.01894 0.00947,0.0094 0.018944,0.01421 0.028415,0.01894 0.00947,0.0094 0.023681,0.01894 0.033152,0.02368 l 0.00474,0.0048 c 0.018945,0.01421 0.042624,0.02368 0.061567,0.03789 l 14.0564495,8.112412 c 0.04262,0.02368 0.08525,0.04736 0.127871,0.0663 0.108926,0.04736 0.222583,0.07578 0.331516,0.08998 0.01894,0 0.03789,0 0.05683,0.0048 l 0.170499,0 c 0.01894,-0.0048 0.03789,-0.0048 0.05683,-0.0048 0.09472,-0.01421 0.184696,-0.03789 0.27942,-0.07104 0.01894,-0.0048 0.03315,-0.01421 0.0521,-0.01894 0.01894,-0.0094 0.03315,-0.01894 0.0521,-0.02368 0.02842,-0.01421 0.0521,-0.02841 0.07578,-0.04262 l 7.203301,-4.158138 7.198572,4.158138 c 0.02841,0.01421 0.05209,0.02842 0.08051,0.04262 0.01421,0.0048 0.03315,0.01421 0.0521,0.02368 0.01894,0.0048 0.03315,0.01421 0.0521,0.01894 0.08998,0.03315 0.184695,0.05683 0.27942,0.07104 0.01894,0 0.03789,0 0.05683,0.0048 l 0.170499,0 c 0.01421,-0.0048 0.03315,-0.0048 0.05209,-0.0048 0.113662,-0.01421 0.227324,-0.04262 0.336245,-0.08998 0.04262,-0.01894 0.08525,-0.04262 0.127871,-0.0663 l 14.056458,-8.112784 c 0.01894,-0.01421 0.03789,-0.02368 0.05683,-0.03789 0.0048,0 0.0048,0 0.0048,-0.0048 0.01421,-0.0048 0.02842,-0.01421 0.03789,-0.02368 0.0094,-0.0048 0.01894,-0.0094 0.02368,-0.01894 0.0094,-0.0048 0.01894,-0.0094 0.02842,-0.01894 0.01421,-0.0094 0.02842,-0.02368 0.04262,-0.03789 l 0.0048,0 c 0.203646,-0.175226 0.336245,-0.412018 0.388341,-0.663032 -0.0521,-0.251001 -0.184695,-0.483065 -0.388341,-0.658291 l 0,-0.0048 c -0.01421,-0.01421 -0.03315,-0.02368 -0.04736,-0.03789 -0.0094,-0.0048 -0.01894,-0.01421 -0.02842,-0.01894 -0.0094,-0.0048 -0.01421,-0.01421 -0.02368,-0.01894 -0.0094,-0.0094 -0.02368,-0.01421 -0.03315,-0.02368 -0.0048,0 -0.0094,-0.0048 -0.0094,-0.0048 -0.01894,-0.01421 -0.03789,-0.02368 -0.05683,-0.03315 l -6.52133,-3.765081 -0.464115,-0.307838 0.464115,-0.184696 6.52133,-3.76508 c 0.01894,-0.01421 0.03789,-0.02368 0.05683,-0.03789 0.0048,0 0.0048,0 0.0048,-0.0048 0.01421,-0.0048 0.02841,-0.01421 0.03789,-0.02368 0.0094,-0.0048 0.01894,-0.0094 0.02368,-0.01894 0.0094,-0.0048 0.01894,-0.0094 0.02842,-0.01894 0.01421,-0.0094 0.02842,-0.02368 0.04262,-0.03789 l 0.0048,0 c 0.203646,-0.175227 0.336245,-0.412019 0.388341,-0.663021 -0.05209,-0.251001 -0.184695,-0.483064 -0.388341,-0.658291 l 0,-0.0048 c -0.01421,-0.01421 -0.03315,-0.02368 -0.04736,-0.03789 -0.0094,-0.0048 -0.01894,-0.01421 -0.02842,-0.01894 -0.0094,-0.0048 -0.01421,-0.01421 -0.02368,-0.01894 -0.0094,-0.0094 -0.02368,-0.01421 -0.03315,-0.02368 -0.0048,0 -0.0094,-0.0048 -0.0094,-0.0048 -0.01894,-0.01421 -0.03789,-0.02368 -0.05683,-0.03315 L 33.024774,4.1987376 c -0.04262,-0.02368 -0.08525,-0.042624 -0.127871,-0.061566 -0.108926,-0.047359 -0.222583,-0.075775 -0.336245,-0.089983 -0.01894,-0.00474 -0.03789,-0.00474 -0.0521,-0.00474 l -0.01421,0 c -0.01421,-0.00474 -0.02842,-0.00474 -0.04262,-0.00474 l -0.05683,0 c -0.01421,0 -0.02841,0 -0.04262,0.00474 l -0.01421,0 c -0.01894,0 -0.03789,0 -0.05683,0.00474 -0.09472,0.00947 -0.189436,0.033151 -0.27942,0.066302 -0.01894,0.00947 -0.03315,0.014208 -0.05209,0.023681 -0.01894,0.00474 -0.03789,0.014207 -0.0521,0.02368 -0.02841,0.00947 -0.05209,0.023679 -0.08051,0.037887 l -7.198569,4.1581366 -7.2033,-4.1581376 c -0.02368,-0.014208 -0.04736,-0.028417 -0.07578,-0.037888 -0.01894,-0.00947 -0.03315,-0.018944 -0.0521,-0.02368 -0.01894,-0.00947 -0.03315,-0.014208 -0.0521,-0.023681 -0.09472,-0.033151 -0.184696,-0.056831 -0.27942,-0.066302 -0.01894,-0.00474 -0.03789,-0.00474 -0.05683,-0.00474 l -0.01421,0 c -0.01421,-0.00474 -0.02841,-0.00474 -0.04262,-0.00474 l -0.05683,0 z"
     id="path55"
     style="fill:url(#h)"
     inkscape:connector-curvature="0" />
  <path
     d="m 16.78536,4.0377162 c -0.01421,0 -0.02842,0 -0.04262,0.00474 l -0.01421,0 c -0.01894,0 -0.03789,0 -0.05683,0.00474 -0.108926,0.014208 -0.222582,0.042623 -0.331516,0.089983 -0.04262,0.018943 -0.08525,0.037887 -0.127871,0.061566 L 2.1558495,12.31606 c -0.018944,0.0094 -0.037888,0.01894 -0.056831,0.03315 -0.00474,0 -0.00474,0.0048 -0.00947,0.0048 -0.00947,0.0094 -0.02368,0.01421 -0.033152,0.02368 -0.00947,0.0048 -0.018943,0.01421 -0.02368,0.01894 -0.00947,0.0048 -0.018944,0.01421 -0.028415,0.01894 -0.014208,0.01421 -0.033152,0.02368 -0.047359,0.03789 l 0,0.0048 c -0.2036452,0.175226 -0.3362445,0.40729 -0.3883409,0.658291 0.014208,0.08051 0.037887,0.151549 0.071038,0.227324 0.071039,-0.165759 0.1752268,-0.312566 0.317307,-0.435709 0.014208,-0.01421 0.033152,-0.02842 0.047359,-0.04262 0.00947,-0.0048 0.018944,-0.01421 0.028415,-0.01894 0.00474,-0.0048 0.014208,-0.0094 0.02368,-0.01894 0.00947,-0.0048 0.023681,-0.01421 0.033152,-0.02368 0.00474,0 0.00474,0 0.00947,-0.0048 0.018944,-0.0094 0.037888,-0.02368 0.056831,-0.03315 L 16.212315,4.6533733 c 0.04262,-0.028416 0.08525,-0.047359 0.127871,-0.066303 0.108926,-0.047358 0.222583,-0.075775 0.331516,-0.089983 0.01894,0 0.03789,-0.00474 0.05683,-0.00474 l 0.01421,0 c 0.01421,0 0.02842,-0.00474 0.04262,-0.00474 l 0.05683,0 c 0.01421,0.00474 0.02842,0.00474 0.04262,0.00474 l 0.01421,0 c 0.01894,0 0.03789,0.00474 0.05683,0.00474 0.09472,0.00947 0.184695,0.033152 0.27942,0.066303 0.01894,0.00947 0.03315,0.014208 0.0521,0.02368 0.01894,0.00947 0.03315,0.014208 0.0521,0.02368 0.02841,0.014208 0.0521,0.028416 0.07578,0.042624 l 7.2033,4.1534093 7.198573,-4.1534093 c 0.02841,-0.014208 0.05209,-0.028416 0.08051,-0.042624 0.01421,-0.00947 0.03315,-0.014207 0.0521,-0.02368 0.01894,-0.00947 0.03315,-0.014208 0.05209,-0.02368 0.08998,-0.033151 0.184695,-0.056831 0.279419,-0.066303 0.01894,0 0.03789,-0.00474 0.05683,-0.00474 l 0.01421,0 c 0.01421,0 0.02842,0 0.04262,-0.00474 l 0.05683,0 c 0.01421,0 0.02842,0.00474 0.04262,0.00474 l 0.01421,0 c 0.01421,0 0.03315,0.00474 0.0521,0.00474 0.113661,0.014208 0.227323,0.042624 0.336245,0.089983 0.04262,0.018944 0.08525,0.037888 0.127871,0.066303 l 14.056462,8.1125937 c 0.01894,0.0094 0.03789,0.02368 0.05683,0.03315 0,0.0048 0.0048,0.0048 0.0094,0.0048 0.0094,0.0094 0.02368,0.01894 0.03315,0.02368 0.0094,0.0094 0.01421,0.01421 0.02368,0.01894 0.0094,0.0048 0.01894,0.01421 0.02842,0.01894 0.01421,0.01421 0.03315,0.02841 0.04736,0.04262 0.14208,0.12313 0.246262,0.26995 0.317308,0.435709 0.02842,-0.07578 0.0521,-0.146809 0.07104,-0.227324 -0.0521,-0.251001 -0.184696,-0.483065 -0.388341,-0.658291 l 0,-0.0048 c -0.01421,-0.01421 -0.03315,-0.02368 -0.04736,-0.03789 -0.0094,-0.0048 -0.01894,-0.01421 -0.02842,-0.01894 -0.0094,-0.0048 -0.01421,-0.01421 -0.02368,-0.01894 -0.0094,-0.0094 -0.02368,-0.01421 -0.03315,-0.02368 -0.0048,0 -0.0094,-0.0048 -0.0094,-0.0048 -0.01894,-0.01421 -0.03789,-0.02368 -0.05683,-0.03315 L 33.02477,4.1987376 c -0.04262,-0.02368 -0.08525,-0.042624 -0.127872,-0.061566 -0.108924,-0.047359 -0.222582,-0.075775 -0.336243,-0.089983 -0.01894,-0.00474 -0.03789,-0.00474 -0.0521,-0.00474 l -0.01421,0 c -0.01421,-0.00474 -0.02842,-0.00474 -0.04262,-0.00474 l -0.05683,0 c -0.01421,0 -0.02842,0 -0.04262,0.00474 l -0.01421,0 c -0.01894,0 -0.03789,0 -0.05683,0.00474 -0.09472,0.00947 -0.189437,0.033151 -0.27942,0.066302 -0.01894,0.00947 -0.03315,0.014208 -0.05209,0.023681 -0.01894,0.00474 -0.03789,0.014207 -0.0521,0.02368 -0.02841,0.00947 -0.05209,0.023679 -0.08051,0.037887 l -7.198568,4.1581366 -7.2033,-4.1581376 c -0.02368,-0.014208 -0.04736,-0.028417 -0.07578,-0.037888 -0.01894,-0.00947 -0.03315,-0.018944 -0.0521,-0.02368 -0.01894,-0.00947 -0.03315,-0.014208 -0.05209,-0.023681 -0.09472,-0.033151 -0.184695,-0.056831 -0.279419,-0.066302 -0.01894,-0.00474 -0.03789,-0.00474 -0.05683,-0.00474 l -0.01421,0 c -0.01421,-0.00474 -0.02842,-0.00474 -0.04262,-0.00474 l -0.05683,0 z m -8.0699171,14.1134448 -0.037888,0.02842 -6.5213304,3.76508 c -0.018944,0.0094 -0.037887,0.01894 -0.056831,0.03315 -0.00474,0 -0.00474,0.0048 -0.00947,0.0048 -0.00947,0.0094 -0.023679,0.01421 -0.033152,0.02368 -0.00947,0.0048 -0.018943,0.01421 -0.023679,0.01894 -0.00947,0.0048 -0.018944,0.01421 -0.028415,0.01894 -0.014208,0.01421 -0.033152,0.02368 -0.047359,0.03789 l 0,0.0048 c -0.2036453,0.175227 -0.3362446,0.40729 -0.388341,0.658292 0.014208,0.07578 0.037888,0.151548 0.071038,0.227323 0.071039,-0.165758 0.1752269,-0.312566 0.317307,-0.435708 0.014208,-0.01421 0.033152,-0.02842 0.047359,-0.04262 0.00947,-0.0048 0.018944,-0.01421 0.028415,-0.01894 0.00474,-0.0048 0.014208,-0.0094 0.02368,-0.01894 0.00947,-0.0048 0.023681,-0.01421 0.033152,-0.02368 0.00474,0 0.00474,0 0.00947,-0.0048 0.018944,-0.0094 0.037888,-0.02368 0.056831,-0.03315 l 6.5213292,-3.765113 0.4641155,-0.303098 z m 31.8058671,0 -0.426229,0.175226 0.464117,0.303099 6.52133,3.76508 c 0.01894,0.0094 0.03789,0.02368 0.05683,0.03315 0,0.0048 0.0048,0.0048 0.0094,0.0048 0.0094,0.0094 0.02368,0.01894 0.03315,0.02368 0.0094,0.0094 0.01421,0.01421 0.02368,0.01894 0.0094,0.0048 0.01894,0.01421 0.02842,0.01894 0.01421,0.01421 0.03315,0.02842 0.04736,0.04262 0.14208,0.12313 0.246261,0.269951 0.317307,0.435708 0.02842,-0.07578 0.0521,-0.151548 0.07104,-0.227322 -0.0521,-0.251002 -0.184696,-0.483065 -0.388341,-0.658293 l 0,-0.0048 c -0.01421,-0.01421 -0.03315,-0.02368 -0.04736,-0.03789 -0.0094,-0.0048 -0.01894,-0.01421 -0.02841,-0.01894 -0.0094,-0.0048 -0.01421,-0.01421 -0.02368,-0.01894 -0.0094,-0.0094 -0.02368,-0.01421 -0.03315,-0.02368 -0.0048,0 -0.0094,-0.0048 -0.0094,-0.0048 -0.01894,-0.01421 -0.03789,-0.02368 -0.05683,-0.03315 l -6.52133,-3.765079 z"
     id="path57"
     inkscape:connector-curvature="0"
     style="fill:#fafafa;fill-opacity:0.78430996" />
  <path
     d="m 24.64185,8.4798241 -0.08525,0 c -0.01894,0.00474 -0.03315,0.00474 -0.0521,0.00474 -0.11366,0.014208 -0.227321,0.042622 -0.336254,0.089982 -0.04262,0.018944 -0.08525,0.042622 -0.12787,0.066303 L 9.9847703,16.753429 c -0.018944,0.01421 -0.037887,0.02368 -0.05683,0.03789 0,0 -0.00474,0 -0.00947,0.0048 -0.00947,0.0048 -0.023679,0.01421 -0.033151,0.02368 -0.00947,0.0048 -0.018944,0.0094 -0.02368,0.01421 -0.00947,0.0094 -0.018944,0.01421 -0.028416,0.02368 -0.014208,0.0094 -0.033152,0.02368 -0.047359,0.03789 -0.2557405,0.222582 -0.4025486,0.539888 -0.412029,0.871402 l 0,0.07577 c 0.00947,0.326774 0.1562885,0.644079 0.412029,0.866673 l 0.00474,0.0048 c 0.014208,0.0094 0.028416,0.02368 0.042622,0.03789 0.00947,0.0048 0.018944,0.0094 0.028416,0.01894 0.00474,0.0048 0.014208,0.0094 0.023679,0.01894 0.00947,0.0048 0.023679,0.01421 0.037888,0.02368 0.023679,0.01421 0.042622,0.02368 0.061567,0.03789 l 14.0556127,8.112585 c 0.04262,0.02842 0.08525,0.04736 0.127871,0.0663 0.108926,0.04736 0.222582,0.07578 0.336254,0.08998 0.01894,0 0.03315,0.0048 0.0521,0.0048 l 0.01421,0 c 0.01421,0 0.02842,0 0.04262,0.0048 l 0.05683,0 c 0.01421,-0.0048 0.02842,-0.0048 0.04262,-0.0048 l 0.01421,0 c 0.01894,0 0.03789,-0.0048 0.05683,-0.0048 0.09472,-0.0094 0.189436,-0.03315 0.279418,-0.0663 0.01894,-0.0094 0.03315,-0.01421 0.0521,-0.02368 0.01894,-0.0094 0.03789,-0.01421 0.0521,-0.02368 0.02841,-0.01421 0.0521,-0.02841 0.08051,-0.04262 L 39.285488,18.861 c 0.04262,-0.02368 0.08525,-0.05209 0.12787,-0.08051 0,0 0.0048,-0.0048 0.0048,-0.0048 0.0094,-0.0094 0.02368,-0.01894 0.03789,-0.02841 l 0.01421,-0.01421 c 0.0094,-0.0048 0.01421,-0.0094 0.02368,-0.01421 0.0094,-0.0094 0.01894,-0.01894 0.02842,-0.02842 0.0048,0 0.0048,-0.0048 0.0094,-0.0048 0.236791,-0.222582 0.369401,-0.530419 0.38361,-0.842995 l 0,-0.03789 c 0,0 0,-0.02368 0,-0.03315 l 0,-0.0048 c -0.01421,-0.317306 -0.146808,-0.620402 -0.38361,-0.842996 l -0.0094,-0.0094 c -0.0094,-0.0094 -0.01894,-0.01421 -0.02842,-0.02368 -0.0094,-0.0094 -0.01421,-0.01421 -0.02368,-0.01894 -0.0048,-0.0048 -0.0094,-0.0094 -0.01421,-0.01421 -0.01421,-0.0094 -0.02841,-0.01894 -0.03789,-0.02841 -0.0048,0 -0.0048,0 -0.0048,-0.0048 -0.04262,-0.02842 -0.08525,-0.05683 -0.12787,-0.08051 L 25.248047,8.6407575 c -0.02842,-0.014208 -0.0521,-0.028415 -0.08051,-0.042622 -0.01421,-0.00474 -0.03315,-0.014208 -0.0521,-0.02368 -0.01894,-0.00474 -0.03315,-0.014208 -0.0521,-0.018944 -0.08998,-0.033151 -0.184695,-0.05683 -0.279418,-0.071039 -0.01894,0 -0.03789,0 -0.05683,-0.00474 l -0.08525,0 z"
     id="path59"
     style="fill:url(#i);stroke:#212121;stroke-width:0.34101772;stroke-linecap:square;stroke-linejoin:round"
     inkscape:connector-curvature="0" />
  <path
     d="m 16.785135,4.0377618 c -0.01421,0 -0.02842,0 -0.04262,0.00474 l -0.01421,0 c -0.01894,0 -0.03789,0 -0.05683,0.00474 -0.108925,0.014208 -0.222587,0.042623 -0.331525,0.089981 -0.04262,0.018944 -0.08525,0.037886 -0.12787,0.061565 L 2.1558579,12.316234 c -0.018944,0.0094 -0.037886,0.01894 -0.056831,0.03315 -0.00474,0 -0.00474,0.0048 -0.00947,0.0048 -0.00947,0.0094 -0.02368,0.01421 -0.033153,0.02368 -0.00947,0.0048 -0.018944,0.01421 -0.02368,0.01894 -0.00947,0.0048 -0.018944,0.01421 -0.028416,0.01894 -0.014208,0.01421 -0.033152,0.02368 -0.04736,0.03789 l 0,0.0048 c -0.2036432,0.175227 -0.3362473,0.407286 -0.3883386,0.658298 0.052094,0.251004 0.1846984,0.487799 0.3883386,0.663021 0.018944,0.01421 0.033153,0.02842 0.04736,0.03789 0.00947,0.0094 0.018944,0.01421 0.02368,0.01894 0.00947,0.0094 0.018944,0.01421 0.028416,0.01894 0.00947,0.0094 0.02368,0.01894 0.033153,0.02368 l 0.00474,0.0048 c 0.018944,0.01421 0.042623,0.02368 0.061565,0.03789 l 6.5213326,3.764886 0.4641295,0.184699 -0.4641295,0.307826 -6.5213326,3.764886 c -0.018944,0.0094 -0.037886,0.01894 -0.056831,0.03315 -0.00474,0 -0.00474,0.0048 -0.00947,0.0048 -0.00947,0.0094 -0.02368,0.01421 -0.033153,0.02368 -0.00947,0.0048 -0.018944,0.01421 -0.02368,0.01894 -0.00947,0.0048 -0.018944,0.01421 -0.028416,0.01894 -0.014208,0.01421 -0.033153,0.02368 -0.04736,0.03789 l 0,0.0048 c -0.2036431,0.175227 -0.3362472,0.407286 -0.3883386,0.658298 0.052094,0.251004 0.1846985,0.4878 0.3883386,0.663021 0.018944,0.01421 0.033153,0.02842 0.04736,0.03789 0.00947,0.0094 0.018944,0.01421 0.02368,0.01894 0.00947,0.0094 0.018944,0.01421 0.028416,0.01894 0.00947,0.0094 0.02368,0.01894 0.033153,0.02368 l 0.00474,0.0048 c 0.018944,0.01421 0.042623,0.02368 0.061565,0.03789 L 16.212072,31.66231 c 0.04262,0.02368 0.08525,0.04736 0.12787,0.0663 0.108926,0.04736 0.222588,0.07578 0.331525,0.08998 0.01894,0 0.03789,0 0.05683,0.0048 l 0.170494,0 c 0.01894,-0.0048 0.03789,-0.0048 0.05683,-0.0048 0.09472,-0.01421 0.184699,-0.03789 0.27942,-0.07104 0.01894,-0.0048 0.03315,-0.01421 0.0521,-0.01894 0.01894,-0.0094 0.03315,-0.01894 0.05209,-0.02368 0.02842,-0.01421 0.0521,-0.02841 0.07578,-0.04262 l 7.20315,-4.157978 7.19864,4.157978 c 0.02842,0.01421 0.0521,0.02842 0.08051,0.04262 0.01421,0.0048 0.03315,0.01421 0.0521,0.02368 0.01894,0.0048 0.03315,0.01421 0.0521,0.01894 0.08998,0.03315 0.184698,0.05683 0.279418,0.07104 0.01894,0 0.03789,0 0.05683,0.0048 l 0.170493,0 c 0.01421,-0.0048 0.03315,-0.0048 0.0521,-0.0048 0.113662,-0.01421 0.227321,-0.04262 0.336248,-0.08998 0.04262,-0.01894 0.08525,-0.04262 0.12787,-0.0663 l 14.056219,-8.112642 c 0.01894,-0.01421 0.03789,-0.02368 0.05683,-0.03789 0.0048,0 0.0048,0 0.0048,-0.0048 0.01421,-0.0048 0.02842,-0.01421 0.03789,-0.02368 0.0094,-0.0048 0.01894,-0.0094 0.02368,-0.01894 0.0094,-0.0048 0.01894,-0.0094 0.02842,-0.01894 0.01421,-0.0094 0.02842,-0.02368 0.04262,-0.03789 l 0.0048,0 c 0.203643,-0.175227 0.336247,-0.412008 0.388338,-0.663021 -0.0521,-0.251003 -0.184698,-0.483047 -0.388338,-0.658298 l 0,-0.0048 c -0.01421,-0.01421 -0.03315,-0.02368 -0.04736,-0.03789 -0.0094,-0.0048 -0.01894,-0.01421 -0.02842,-0.01894 -0.0094,-0.0048 -0.01421,-0.01421 -0.02368,-0.01894 -0.0094,-0.0094 -0.02368,-0.01421 -0.03315,-0.02368 -0.0048,0 -0.0094,-0.0048 -0.0094,-0.0048 -0.01894,-0.01421 -0.03789,-0.02368 -0.05683,-0.03315 l -6.521333,-3.764886 -0.464129,-0.307826 0.464129,-0.184699 6.521333,-3.764886 c 0.01894,-0.01421 0.03789,-0.02368 0.05683,-0.03789 0.0048,0 0.0048,0 0.0048,-0.0048 0.01421,-0.0048 0.02842,-0.01421 0.03789,-0.02368 0.0094,-0.0048 0.01894,-0.0094 0.02368,-0.01894 0.0094,-0.0048 0.01894,-0.0094 0.02842,-0.01894 0.01421,-0.0094 0.02841,-0.02368 0.04262,-0.03789 l 0.0048,0 c 0.203643,-0.175228 0.336247,-0.412008 0.388338,-0.663021 -0.0521,-0.251003 -0.184698,-0.483047 -0.388338,-0.658298 l 0,-0.0048 c -0.01421,-0.01421 -0.03315,-0.02368 -0.04736,-0.03789 -0.0094,-0.0048 -0.01894,-0.01421 -0.02842,-0.01894 -0.0094,-0.0048 -0.01421,-0.01421 -0.02368,-0.01894 -0.0094,-0.0094 -0.02368,-0.01421 -0.03315,-0.02368 -0.0048,0 -0.0094,-0.0048 -0.0094,-0.0048 -0.01894,-0.01421 -0.03789,-0.02368 -0.05683,-0.03315 L 33.024443,4.1987794 c -0.04262,-0.02368 -0.08525,-0.042623 -0.12787,-0.061565 -0.108925,-0.04736 -0.222588,-0.075773 -0.336248,-0.089981 -0.01894,-0.00474 -0.03789,-0.00474 -0.0521,-0.00474 l -0.01421,0 c -0.01421,-0.00474 -0.02842,-0.00474 -0.04262,-0.00474 l -0.05683,0 c -0.01421,0 -0.02841,0 -0.04262,0.00474 l -0.01421,0 c -0.01894,0 -0.03789,0 -0.05683,0.00474 -0.09472,0.00947 -0.189435,0.033152 -0.279419,0.066302 -0.01894,0.00947 -0.03315,0.014208 -0.05209,0.02368 -0.01894,0.00474 -0.03789,0.014208 -0.0521,0.02368 -0.02842,0.00947 -0.05209,0.02368 -0.08051,0.037886 L 24.61815,8.3567586 17.414999,4.1987813 c -0.02368,-0.014208 -0.04736,-0.028416 -0.07578,-0.037886 -0.01894,-0.00947 -0.03315,-0.018944 -0.0521,-0.02368 -0.01894,-0.00947 -0.03315,-0.014208 -0.05209,-0.02368 -0.09472,-0.033153 -0.184699,-0.056831 -0.279419,-0.066302 -0.01894,-0.00474 -0.03789,-0.00474 -0.05683,-0.00474 l -0.01421,0 c -0.01421,-0.00474 -0.02842,-0.00474 -0.04262,-0.00474 l -0.05683,0 z"
     id="path61"
     inkscape:connector-curvature="0"
     style="fill:none;stroke:#212121;stroke-width:0.34102935;stroke-linecap:square;stroke-linejoin:round" />
  <path
     d="m 24.030609,8.7025121 1.169763,0 0,18.1955649 -1.169763,0 z"
     id="path63"
     inkscape:connector-curvature="0"
     style="fill:#1b1b1b;fill-opacity:0.07843101" />
  <path
     style="opacity:0;fill:#de8787;fill-opacity:0.29047618;stroke:none;filter:url(#filter3991)"
     d="M -71.18324,-17.27602 C -77.0945,32.16206 -95.90516,-44.00873 -194.42185,55.45496 -300.03138,162.07968 -332.5327,28.02843 -333.8229,-13.23541 c -1.31133,-41.93966 85.16619,-137.30749 159.6041,-123.23861 82.18396,15.53289 113.17065,34.43462 103.03556,119.198 z"
     id="path3968"
     inkscape:connector-curvature="0"
     sodipodi:nodetypes="sssss"
     inkscape:export-xdpi="111"
     inkscape:export-ydpi="111" />
  <g
     id="g4331"
     transform="matrix(0.08692256,0,0,0.08692256,41.404166,13.871498)">
    <path
       inkscape:export-ydpi="111"
       inkscape:export-xdpi="111"
       inkscape:export-filename="/root/path3968.png"
       sodipodi:nodetypes="cccccccccc"
       inkscape:connector-curvature="0"
       id="path3798"
       d="m -337.65283,-11.46074 c 1.60546,-71.45055 64.77577,-92.76725 109.60155,-69.70052 23.01342,-2.82355 55.6085,-2.0524 68.1853,-0.50507 13.17249,-34.74476 66.61642,-33.13214 99.50002,-5.05077 10.6058,10.7835 12.0394,64.65386 -26.264,49.49748 4.3774,4.2339 8.7547,5.55524 13.132,14.64721 6.3928,11.95347 11.0991,23.90694 12.1219,35.86041 0.02,13.8608 -4.4018,27.05307 -11.1117,44.95179 -14.9067,27.32763 -34.9622,50.81867 -68.6904,63.63961 -48.21752,17.04523 -192.11782,12.49377 -196.47467,-133.34014 z"
       style="fill:#ffffff;fill-opacity:1;stroke:#0c0909;stroke-width:1px;stroke-linecap:butt;stroke-linejoin:miter;stroke-opacity:1" />
    <path
       style="opacity:0.10344831;fill:#245bcb;fill-opacity:1;stroke:#0c0909;stroke-width:1px;stroke-linecap:butt;stroke-linejoin:miter;stroke-opacity:1"
       d="m -337.65283,-11.46074 c 1.60546,-71.45055 64.77577,-92.76725 109.60155,-69.70052 23.01342,-2.82355 55.6085,-2.0524 68.1853,-0.50507 13.17249,-34.74476 66.61642,-33.13214 99.50002,-5.05077 10.6058,10.7835 12.0394,64.65386 -26.264,49.49748 4.3774,4.2339 8.7547,5.55524 13.132,14.64721 6.3928,11.95347 11.0991,23.90694 12.1219,35.86041 0.02,13.8608 -4.4018,27.05307 -11.1117,44.95179 -14.9067,27.32763 -34.9622,50.81867 -68.6904,63.63961 -48.21752,17.04523 -192.11782,12.49377 -196.47467,-133.34014 z"
       id="path3852"
       inkscape:connector-curvature="0"
       sodipodi:nodetypes="cccccccccc"
       inkscape:export-filename="/root/path3968.png"
       inkscape:export-xdpi="111"
       inkscape:export-ydpi="111" />
    <path
       inkscape:export-ydpi="111"
       inkscape:export-xdpi="111"
       inkscape:export-filename="/root/path3968.png"
       sodipodi:nodetypes="cccc"
       inkscape:connector-curvature="0"
       id="path3836"
       d="m -143.91276,-68.91686 c 25.30378,1.99119 31.82021,16.64062 47.18131,26.14141 -17.59869,-11.65211 -25.82129,-37.00534 -36.3655,-40.4061 z"
       style="opacity:0.47892719;fill:#000000;stroke:#000000;stroke-width:1px;stroke-linecap:butt;stroke-linejoin:miter;stroke-opacity:1" />
    <path
       inkscape:export-ydpi="111"
       inkscape:export-xdpi="111"
       inkscape:export-filename="/root/path3968.png"
       sodipodi:nodetypes="cscscc"
       inkscape:connector-curvature="0"
       id="path3826"
       d="m -304.40446,-2.37986 c -0.0877,-6.68187 4.34763,-22.09565 15.59471,-21.07489 17.06221,1.54854 49.96076,4.53516 62.49342,-7.43303 -28.56843,7.74579 -42.7663,3.20579 -56.35677,-6.67434 -4.16671,-3.02916 -10.44865,-1.93548 -16.08887,-3.19303 -12.64322,9.62154 -5.52337,23.48721 -5.64249,38.37529 z"
       style="opacity:0.38314173;fill:url(#linearGradient3819);fill-opacity:1;stroke:none" />
    <path
       inkscape:export-filename="/root/path3968.png"
       inkscape:export-ydpi="111"
       inkscape:export-xdpi="111"
       sodipodi:nodetypes="cccccc"
       inkscape:connector-curvature="0"
       id="path3787"
       d="m -157.34061,85.51392 12.12184,-5.05077 c -2.57707,13.99714 13.75126,35.05107 40.52865,18.12148 -8.39701,7.75484 -22.26656,14.42332 -34.97282,20.26432 -28.13156,9.79603 -12.01473,5.03497 -46.97209,9.09138 10.19477,-0.29108 45.01381,-8.06873 29.29442,-42.42641 z"
       style="fill:#000000;stroke:#000000;stroke-width:1px;stroke-linecap:butt;stroke-linejoin:miter;stroke-opacity:1" />
    <path
       inkscape:export-ydpi="111"
       inkscape:export-xdpi="111"
       inkscape:export-filename="/root/path3968.png"
       sodipodi:nodetypes="csaaaasaac"
       inkscape:connector-curvature="0"
       id="path3007"
       d="m -328.06958,44.47491 c -9.40355,-24.52462 -15.05279,-60.62473 0,-97.14286 6.18076,-14.99456 21.84865,-26.03176 37.14286,-31.42857 18.8656,-6.65703 42.74349,-8.69267 60,1.42857 10.49633,6.15627 19.9039,19.33324 18.57143,31.42857 -1.1436,10.38087 -11.88933,18.60589 -21.42857,22.85714 -10.44112,4.65317 -26.18191,4.03771 -34.28572,0.71429 -7.39617,-3.03321 -8.71518,-8.61666 -14.28571,-10.71429 -5.81046,-2.18798 -13.78126,-5.37864 -18.57143,-1.42857 -9.61549,7.92913 -5.69979,24.05487 -4.28571,37.14286"
       style="fill:none;stroke:#000000;stroke-width:3.9000001;stroke-linecap:round;stroke-linejoin:round;stroke-miterlimit:4;stroke-dasharray:none;stroke-opacity:1" />
    <path
       inkscape:export-ydpi="111"
       inkscape:export-xdpi="111"
       inkscape:export-filename="/root/path3968.png"
       sodipodi:nodetypes="ccaaaaaccac"
       inkscape:connector-curvature="0"
       id="path3009"
       d="m -227.71244,-81.23938 c 22.85714,-2.46084 43.92858,-3.23128 66.78572,0 5.81801,-10.26875 11.84557,-18.70548 21.42857,-22.85714 14.41927,-6.24689 32.0122,-4.24288 47.14286,0 12.34562,3.46191 25.87891,9.24345 32.85714,20 6.1398,9.46417 7.55901,22.77545 4.28572,33.57143 -2.10564,6.94483 -7.38381,14.18625 -14.28572,16.42857 -6.04229,1.96304 -18.57143,-4.28572 -18.57143,-4.28572 -13.58204,-5.92053 -24.4985,-19.83781 -34.28571,-37.14285 0,0 -5.629,-8.98226 -10,-8.57143 -6.07145,0.57065 -11.42857,14.28571 -11.42857,14.28571"
       style="fill:none;stroke:#000000;stroke-width:3.9000001;stroke-linecap:round;stroke-linejoin:miter;stroke-miterlimit:4;stroke-dasharray:none;stroke-opacity:1" />
    <path
       inkscape:export-ydpi="111"
       inkscape:export-xdpi="111"
       inkscape:export-filename="/root/path3968.png"
       sodipodi:nodetypes="casc"
       inkscape:connector-curvature="0"
       id="path3011"
       d="m -89.91658,-38.88731 c 18.78328,8.20116 27.60563,34.34673 27.56129,54.7908 -0.0684,31.51855 -18.68571,64.05785 -42.85714,84.28569 -64.41449,53.9052 -185.31902,30.4429 -223.27557,-57.05619"
       style="fill:none;stroke:#000000;stroke-width:3.9000001;stroke-linecap:butt;stroke-linejoin:miter;stroke-miterlimit:4;stroke-dasharray:none;stroke-opacity:1" />
    <ellipse
       inkscape:export-ydpi="111"
       inkscape:export-xdpi="111"
       inkscape:export-filename="/root/path3968.png"
       id="path3781"
       style="fill:#000000;fill-opacity:1;stroke:none"
       cx="-112.894"
       cy="10.762609"
       rx="25.253811"
       ry="23.233507" />
    <path
       inkscape:export-ydpi="111"
       inkscape:export-xdpi="111"
       inkscape:export-filename="/root/path3968.png"
       sodipodi:nodetypes="sscs"
       inkscape:connector-curvature="0"
       id="path3785"
       d="m -200.77716,67.33118 c 2.21672,-13.8557 67.68035,-37.78044 74.75128,-23.23351 7.60254,15.6406 -14.93824,36.52585 -23.23351,49.49747 -18.25668,-5.80712 -54.56284,-7.23059 -51.51777,-26.26396 z"
       style="fill:#000000;stroke:#000000;stroke-width:1px;stroke-linecap:butt;stroke-linejoin:miter;stroke-opacity:1" />
    <path
       sodipodi:nodetypes="ssssscccaascccss"
       inkscape:connector-curvature="0"
       id="path3012"
       d="m -274.09653,8.76316 c -15.01564,0.12014 -29.75132,10.87217 -29.3125,32.03125 0.44426,21.42103 22.16826,45.0484 48.5625,46.4375 33.93076,1.78573 47.2587,-26.19631 47.125,-42.53125 -0.11064,-13.51764 -1.49187,-42.43202 -43.1875,-31.4375 -0.38397,0.10125 -0.87289,0.15479 -1.375,0.15625 l 0,0.0625 c 0.15184,0.154 0.30361,0.30087 0.40625,0.46875 7.73913,2.12317 8.50466,7.82063 7.9375,12.8125 -1.11092,9.77776 -10.94812,20.58377 -20.78125,20.96875 -9.78605,0.38314 -23.51687,-7.90275 -22.25,-19.1875 0.59938,-5.33898 6.93637,-14.65178 18.5,-18.53125 0.11999,-0.003 1.48725,0.0539 3.3125,0.1875 l 0,-0.0625 c -1.0855,-0.36362 -2.01877,-0.68 -2.53125,-0.78125 -2.11234,-0.41732 -4.26116,-0.61091 -6.40625,-0.59375 z"
       style="fill:#000000;fill-opacity:1;stroke:none" />
  </g>
</svg>
