<?xml version="1.0" encoding="UTF-8" standalone="no"?>
<!-- Created with Inkscape (http://www.inkscape.org/) -->

<svg
   width="110"
   height="110"
   id="svg2"
   version="1.1"
   inkscape:version="1.1 (c4e8f9e, 2021-05-24)"
   sodipodi:docname="logo-spot.svg"
   inkscape:export-filename="/root/spot.png"
   inkscape:export-xdpi="90"
   inkscape:export-ydpi="90"
   xmlns:inkscape="http://www.inkscape.org/namespaces/inkscape"
   xmlns:sodipodi="http://sodipodi.sourceforge.net/DTD/sodipodi-0.dtd"
   xmlns="http://www.w3.org/2000/svg"
   xmlns:svg="http://www.w3.org/2000/svg"
   xmlns:rdf="http://www.w3.org/1999/02/22-rdf-syntax-ns#"
   xmlns:cc="http://creativecommons.org/ns#"
   xmlns:dc="http://purl.org/dc/elements/1.1/">
  <defs
     id="defs4">
    <filter
       inkscape:collect="always"
       id="filter3794"
       color-interpolation-filters="sRGB"
       x="-0.066575301"
       y="-0.078017932"
       width="1.1331506"
       height="1.1560359">
      <feGaussianBlur
         inkscape:collect="always"
         stdDeviation="0.26270005"
         id="feGaussianBlur3796" />
    </filter>
    <filter
       inkscape:collect="always"
       id="filter3816"
       color-interpolation-filters="sRGB"
       x="-0.085319259"
       y="-0.099983508"
       width="1.1706385"
       height="1.199967">
      <feGaussianBlur
         inkscape:collect="always"
         stdDeviation="0.336662"
         id="feGaussianBlur3818" />
    </filter>
    <filter
       inkscape:collect="always"
       id="filter3871"
       x="-0.10211648"
       width="1.204233"
       y="-0.12787251"
       height="1.255745"
       color-interpolation-filters="sRGB">
      <feGaussianBlur
         inkscape:collect="always"
         stdDeviation="0.38700783"
         id="feGaussianBlur3873" />
    </filter>
    <filter
       inkscape:collect="always"
       id="filter3889"
       x="-0.22283739"
       width="1.4456748"
       y="-0.26113756"
       height="1.5222751"
       color-interpolation-filters="sRGB">
      <feGaussianBlur
         inkscape:collect="always"
         stdDeviation="0.87929596"
         id="feGaussianBlur3891" />
    </filter>
    <filter
       inkscape:collect="always"
       id="filter3899"
       x="-0.15320418"
       width="1.3064084"
       y="-0.17953615"
       height="1.3590723"
       color-interpolation-filters="sRGB">
      <feGaussianBlur
         inkscape:collect="always"
         stdDeviation="0.60452965"
         id="feGaussianBlur3901" />
    </filter>
    <filter
       inkscape:collect="always"
       id="filter4104"
       color-interpolation-filters="sRGB"
       x="-0.032833516"
       y="-0.018911917"
       width="1.065667"
       height="1.0378238">
      <feGaussianBlur
         inkscape:collect="always"
         stdDeviation="0.20218229"
         id="feGaussianBlur4106" />
    </filter>
    <filter
       inkscape:collect="always"
       id="filter4355"
       x="-0.10317658"
       width="1.2063532"
       y="-0.15066623"
       height="1.3013325"
       color-interpolation-filters="sRGB">
      <feGaussianBlur
         inkscape:collect="always"
         stdDeviation="0.36923021"
         id="feGaussianBlur4357" />
    </filter>
    <filter
       inkscape:collect="always"
       id="filter4377"
       color-interpolation-filters="sRGB"
       x="-0.055915607"
       y="-0.042047616"
       width="1.1118312"
       height="1.0840952">
      <feGaussianBlur
         inkscape:collect="always"
         stdDeviation="0.92716331"
         id="feGaussianBlur4379" />
    </filter>
    <filter
       inkscape:collect="always"
       id="filter4389"
       color-interpolation-filters="sRGB"
       x="-0.066922861"
       y="-0.037419361"
       width="1.1338457"
       height="1.0748387">
      <feGaussianBlur
         inkscape:collect="always"
         stdDeviation="0.70633344"
         id="feGaussianBlur4391" />
    </filter>
  </defs>
  <sodipodi:namedview
     id="base"
     pagecolor="#050303"
     bordercolor="#666666"
     borderopacity="1.0"
     inkscape:pageopacity="0"
     inkscape:pageshadow="2"
     inkscape:zoom="2.8"
     inkscape:cx="71.785714"
     inkscape:cy="64.285714"
     inkscape:document-units="px"
     inkscape:current-layer="layer1"
     showgrid="false"
     inkscape:window-width="1358"
     inkscape:window-height="704"
     inkscape:window-x="218"
     inkscape:window-y="106"
     inkscape:window-maximized="0"
     inkscape:pagecheckerboard="0" />
  <metadata
     id="metadata7">
    <rdf:RDF>
      <cc:Work
         rdf:about="">
        <dc:format>image/svg+xml</dc:format>
        <dc:type
           rdf:resource="http://purl.org/dc/dcmitype/StillImage" />
      </cc:Work>
    </rdf:RDF>
  </metadata>
  <g
     inkscape:label="Layer 1"
     inkscape:groupmode="layer"
     id="layer1"
     style="display:inline"
     transform="translate(0,-2094.7244)">
    <path
       style="fill:#8aa799;fill-opacity:1;stroke:none"
       id="path4359"
       transform="matrix(1,0,0,0.99444448,-156.12189,1663.6836)"
       d="m 258.59906,490.21228 c 0,25.10513 -21.25626,45.45686 -47.47717,45.45686 -26.22092,0 -47.47717,-20.35173 -47.47717,-45.45686 0,-25.10513 21.25625,-45.45686 47.47717,-45.45686 26.22091,0 47.47717,20.35173 47.47717,45.45686 z"
       sodipodi:type="arc"
       sodipodi:ry="45.456863"
       sodipodi:rx="47.477169"
       sodipodi:cy="490.21228"
       sodipodi:cx="211.12189" />
    <g
       id="g3949"
       transform="translate(-313.77875,1632.023)">
      <path
         inkscape:connector-curvature="0"
         id="path3943"
         d="m 356.78477,488.92588 c -2.70887,0.004 -5.41773,0.012 -8.12659,0.0178 -0.23147,0.23019 -0.15596,0.67702 -0.25898,0.99351 -0.30316,1.81214 -0.58368,3.62796 -0.8735,5.44227 0.32909,0.42706 0.78156,0.77577 1.07052,1.2529 1.01581,1.44249 1.35784,3.23074 1.51512,4.95748 0.0384,1.01901 0.15641,2.09971 -0.18455,3.08026 -0.5899,0.94373 -1.71208,1.35741 -2.70493,1.73422 -0.58091,0.22521 -1.22197,0.31385 -1.79268,0.53789 -0.57715,2.13612 -1.11496,4.30553 -1.81882,6.41037 -0.6494,2.01464 -1.42744,3.978 -2.26198,5.9233 0.0632,0.29519 0.45926,0.0345 0.64506,0.0146 2.78533,-0.75276 5.54224,-1.75403 8.43448,-1.96391 1.03549,-0.0375 2.19277,-0.0368 3.06794,0.57018 0.54394,0.39626 0.41172,1.16736 0.18348,1.70661 -0.33292,0.61025 -0.5935,1.2696 -0.98253,1.84866 -0.55867,0.723 -1.44914,1.11838 -1.93024,1.92011 -0.66269,0.85974 -0.79646,2.00213 -1.481,2.83865 -0.69503,0.66185 -1.77235,0.62997 -2.65954,0.47351 -1.55829,-0.28754 -2.67723,-1.5507 -3.49526,-2.82869 -0.6687,-1.08989 -1.4359,-2.17741 -1.78634,-3.41176 0.0131,-0.31966 -0.24987,-0.90251 -0.4037,-0.30667 -0.50871,1.04963 -0.84687,2.20574 -0.72692,3.38237 0.0265,1.34437 0.58968,2.62978 1.47278,3.6336 0.94162,1.10939 1.9891,2.13765 3.11446,3.05682 1.47135,0.36145 2.96659,0.66743 4.46085,0.93518 0.27378,-0.15429 -0.1668,-0.32134 -0.28411,-0.4084 -0.7337,-0.45671 -1.54615,-0.82315 -2.2176,-1.35542 -0.22208,-0.33723 0.22326,-0.80622 0.56427,-0.54651 1.0873,0.51995 2.10573,1.17844 3.17054,1.74015 2.61219,0.16952 5.24307,0.22026 7.85385,0.0679 0.70906,-0.007 1.40626,-0.24921 1.90762,-0.75371 0.32479,-0.22121 0.59562,-0.6576 1.0148,-0.68147 0.33397,0.073 0.42643,0.48707 0.20124,0.72605 -0.52814,0.59082 -1.17378,1.13301 -1.92363,1.41263 -1.29788,0.29032 -2.65992,0.17174 -3.98734,0.21308 -1.25193,0.0181 -2.52071,-0.0368 -3.76196,0.0276 -0.0748,0.25187 0.29481,0.48221 0.42978,0.70251 0.75917,0.88128 1.70477,1.61551 2.81909,1.98916 1.49068,0.62122 3.19843,0.61105 4.7019,0.0313 2.63225,-1.00293 4.94534,-2.67492 7.29254,-4.21279 3.58109,-2.42601 7.20993,-4.7444 10.83055,-7.10295 0.28375,-0.24231 0.70362,-0.37883 0.90188,-0.69596 -0.21322,-0.15697 -0.12159,-0.4942 -0.29989,-0.70237 -0.49704,-0.58749 -1.31878,-0.78488 -2.03806,-0.98056 -2.37665,-0.50675 -4.84586,-0.46531 -7.21715,-0.97811 -1.32751,-0.22606 -2.2985,-1.27238 -3.08571,-2.26333 -2.1907,-2.87548 -3.68546,-6.20173 -5.28298,-9.42975 -0.65956,-1.30185 -1.26882,-2.64539 -1.41538,-4.11022 -0.31463,-2.73845 0.0682,-5.50483 0.54701,-8.20489 0.43344,-2.27936 1.28718,-4.47086 2.30418,-6.55137 -0.0636,-0.27693 -0.48481,-0.0799 -0.6925,-0.14442 -1.60333,-0.0118 -3.20671,-0.0105 -4.81007,-0.007 z"
         style="fill:#ffffff;fill-opacity:1;stroke:#360404;stroke-width:0.03156727;stroke-linecap:round;stroke-linejoin:round;stroke-miterlimit:4;stroke-opacity:1;stroke-dasharray:none;stroke-dashoffset:0" />
      <path
         sodipodi:nodetypes="cccccccccccccccccccccccccc"
         inkscape:connector-curvature="0"
         id="path3930"
         d="m 350.30277,469.76342 c -3.49194,-0.1708 -5.35168,3.40284 -8.19987,4.83676 -1.81242,1.28586 -3.74867,2.43348 -5.53092,3.73543 -1.05768,2.45249 -0.95524,5.94828 0.26255,7.90196 3.11968,-2.23333 6.01695,-5.40733 9.63954,-6.40635 -0.0553,2.59266 0.18427,5.31337 1.83485,7.39638 3.67619,-2.00633 8.53715,-2.71092 12.41639,-4.06556 1.30339,-1.24663 0.56684,-4.71776 2.92078,-4.61518 1.65876,1.53887 0.70743,3.59721 0.72386,5.63843 -0.54732,4.8867 -4.16991,9.03494 -4.30539,14.06369 -0.11877,3.08673 -0.38906,6.59923 1.63914,9.24667 1.35047,4.06623 2.77598,7.67239 5.96747,10.56312 3.42303,3.31527 8.37505,1.68902 11.49909,3.70422 -0.42678,2.7595 2.92095,-1.51117 4.04553,-1.99701 3.11557,-1.76666 5.05049,-4.72616 6.4963,-7.91367 1.19317,-2.65973 3.61988,-3.97652 5.01119,-6.45347 0.65361,-3.52678 1.93241,-5.04265 4.90896,-9.30883 0.96992,-1.3296 3.26267,-1.94398 2.53864,-4.14108 1.72221,-3.51957 1.01632,-8.29954 -0.36343,-12.70501 -4.55251,-2.70141 -9.51872,-5.08954 -14.93465,-5.20008 -1.56276,0.15212 -4.24439,-1.73086 -5.60578,-0.72225 -0.41438,2.5019 -2.6635,2.40522 -4.47937,2.5161 -5.19832,0.0282 -10.39568,-0.0859 -15.59337,-0.14761 -2.8659,-2.0227 -5.70925,-4.09184 -8.59737,-6.07433 -0.76471,0.0493 -1.52943,0.0984 -2.29414,0.14761 z"
         style="fill:#000000;fill-opacity:1;stroke:none" />
      <path
         sodipodi:nodetypes="ccccccccccccccccccccccccccccc"
         inkscape:connector-curvature="0"
         id="path3924"
         d="m 362.69023,479.62982 c -1.30382,1.24729 -1.25444,3.89472 -3.53729,3.89693 -3.46577,1.04598 -7.21355,1.94575 -10.15691,4.08298 -1.00302,2.32343 -1.46992,5.05795 -1.38393,7.58929 2.01225,2.45672 2.60449,5.99969 2.09822,9.10714 -1.03824,1.6367 -3.45318,1.69227 -4.62289,2.90899 -0.99051,3.7496 -2.42491,7.40016 -3.46863,11.07538 0.96802,0.94153 2.75177,-0.38694 3.92857,-0.35714 2.37403,-0.25871 5.13179,-1.49866 7.39956,-0.70312 1.15888,1.6033 -1.17904,3.29843 -2.09822,4.4308 -1.81178,1.06701 -1.05307,3.82031 -2.7567,4.79911 -3.11567,0.79512 -5.03112,-2.73579 -6.51785,-4.84375 -0.24146,-0.76861 -1.31415,-1.5568 -1.43973,-0.34599 -0.75817,3.79511 2.32972,7.12618 5.41294,8.76116 0.47938,-0.22706 1.93905,0.70676 1.79688,-0.0335 -0.72645,-0.21683 -1.69201,-1.61671 -0.42411,-1.59598 2.0516,0.90782 4.0783,2.02931 6.43973,1.70759 2.44555,-0.15744 5.47002,0.61982 7.31027,-1.37277 1.20093,-0.42226 0.50973,1.55831 -0.20089,1.67411 -2.61202,1.65439 -6.23093,0.34819 -8.91741,1.07143 1.97607,2.18208 5.11479,3.47272 7.93526,2.14285 6.10533,-2.8665 11.48465,-7.07839 17.12054,-10.75892 1.11347,-0.30144 1.9851,-1.68469 0.49107,-2.0759 -3.17425,-1.23537 -7.0799,-0.41443 -10,-2.26562 -2.79151,-3.12866 -5.20463,-6.59026 -6.52157,-10.54788 -2.58437,-4.2434 -0.49639,-9.44076 0.48899,-14.05417 1.08569,-4.02671 4.41154,-7.70762 3.22577,-12.02009 -0.0762,-0.89498 -0.7181,-2.19084 -1.60167,-2.27295 z"
         style="fill:#ffffff;fill-opacity:1;stroke:none" />
      <path
         sodipodi:nodetypes="csacscccacsssssssssscc"
         inkscape:connector-curvature="0"
         id="path2996"
         d="m 344.46202,530.61839 c -1.11545,6.22927 -1.19046,12.65481 -0.75762,18.68782 0.13248,1.8465 -2.45718,4.19846 -2.14656,6.43972 0.17468,1.26043 0.0244,2.75059 2.14656,3.15673 2.15868,0.39691 6.37289,1.20705 7.32361,0.37881 0.89406,-0.77888 0.3292,-7.45655 1.01015,-10.73287 l 2.02031,-1.76777 c 5.12514,4.64246 13.416,5.21472 20.70812,7.07107 -0.0842,2.36469 0.3181,3.95634 -0.25253,5.80838 -0.30609,0.99345 -1.23984,1.80601 -1.6415,2.65165 0,0 -1.01862,2.11503 -0.12627,2.65165 1.84922,1.11205 9.00119,1.22905 10.73287,0.12626 1.43484,-0.91375 0.5482,-4.15798 2.11009,-5.77005 4.59006,-4.73752 7.64926,-8.88192 8.59517,-17.47262 0.23005,-2.08935 2.24459,-3.65575 2.67936,-5.69978 2.37946,-11.1866 2.05736,-28.84702 -2.27295,-30.0252 -1.34542,-0.36606 -3.16165,2.78813 -4.33693,4.95868 -1.28883,2.38025 -2.30903,5.44811 -4.24938,6.91061 -3.71602,2.8009 -8.78063,5.96379 -13.69957,9.12019 -5.71132,3.66486 -10.66098,7.71277 -14.20588,8.05241 -2.4142,0.23131 -5.09466,-0.88647 -6.59124,-3.08097 z"
         style="fill:#ffffff;stroke:#000000;stroke-width:1px;stroke-linecap:butt;stroke-linejoin:miter;stroke-opacity:1" />
      <path
         inkscape:connector-curvature="0"
         id="path2998"
         d="m 344.71456,530.11332 -0.37881,0.63134"
         style="fill:none;stroke:#000000;stroke-width:1px;stroke-linecap:butt;stroke-linejoin:miter;stroke-opacity:1" />
      <path
         sodipodi:nodetypes="cascscccsssc"
         inkscape:connector-curvature="0"
         id="path3903"
         d="m 344.58829,530.61839 c 0,0 -3.65881,-2.94694 -4.41942,-5.05076 -0.57261,-1.58378 -0.60515,-3.53377 0.12627,-5.05077 5.64819,-11.7145 6.40412,-24.37671 8.08122,-32.95622 4.65866,-2.63885 9.02503,-3.9452 11.99556,-4.41941 1.17374,-0.18738 0.99749,-4.32956 3.283,-4.29316 1.69863,3.60619 0.21962,5.62356 0.12627,8.33376 m 0.53571,-1.25 c -1.39588,2.51096 -3.41471,6.80548 -3.94498,9.96257 -0.66685,3.97023 -1.19929,7.67701 0.37881,10.85914 1.97322,3.97886 4.84504,10.48821 7.57614,12.12183 2.12132,1.26888 11.29804,0.51676 10.85914,3.6618"
         style="fill:none;stroke:#000000;stroke-width:1px;stroke-linecap:round;stroke-linejoin:miter;stroke-opacity:1" />
      <path
         sodipodi:nodetypes="ccsssssssssssc"
         inkscape:connector-curvature="0"
         id="path3905"
         d="m 394.46457,505.99592 0.88388,-5.05076 c 1.29034,-2.65647 5.90782,-5.16119 6.56599,-6.81853 1.72126,-4.33432 0.65893,-14.96577 -0.25253,-15.27856 -1.85483,-0.63653 -6.64978,-3.22334 -8.96511,-4.16688 -1.60461,-0.6539 -9.54521,-0.85119 -10.9854,-1.38895 -0.90088,-0.33639 -0.56239,2.14311 -1.51524,2.27284 -5.75235,0.78316 -17.17858,0.60233 -18.81409,-0.12627 -2.97662,-1.32604 -5.82155,-4.09234 -7.95495,-5.68211 -0.49722,-0.37052 -5.03387,-0.26796 -5.68211,0.37881 -3.24212,3.23477 -9.34454,5.54237 -11.11168,8.08122 -1.49388,2.14627 -0.85165,7.90653 0.50508,7.82868 1.22038,-0.07 8.23918,-7.1379 9.21764,-5.80838 1.12778,1.53242 0.2745,5.84782 1.95717,7.32361"
         style="fill:none;stroke:#000000;stroke-width:1px;stroke-linecap:butt;stroke-linejoin:miter;stroke-opacity:1" />
      <path
         sodipodi:nodetypes="ssssas"
         inkscape:connector-curvature="0"
         id="path3907"
         d="m 341.93663,519.63298 c 1.83766,-0.31718 8.33248,-2.96604 11.11168,-1.6415 1.49618,0.71307 -0.54493,2.89895 -2.18989,4.70259 -1.8158,1.99096 -0.7646,3.81703 -3.49221,3.75744 -2.48077,-0.0542 -3.77505,-2.40438 -4.8722,-4.26251 -0.44338,-0.7509 -1.37545,-2.41482 -0.55738,-2.55602 z"
         style="fill:none;stroke:#000000;stroke-width:0.80000001;stroke-linecap:butt;stroke-linejoin:miter;stroke-miterlimit:4;stroke-opacity:1;stroke-dasharray:none" />
      <path
         sodipodi:nodetypes="cscc"
         inkscape:connector-curvature="0"
         id="path3909"
         d="m 345.21963,506.75354 c 1.49493,-0.28697 4.44358,-1.15234 4.67196,-2.52538 0.26279,-1.57987 0.19446,-6.93347 -2.77792,-8.83884 z"
         style="fill:none;stroke:#000000;stroke-width:0.5;stroke-linecap:butt;stroke-linejoin:miter;stroke-miterlimit:4;stroke-opacity:1;stroke-dasharray:none" />
      <path
         sodipodi:nodetypes="ccsc"
         inkscape:connector-curvature="0"
         id="path3911"
         d="m 347.11367,529.1663 3.21986,1.8309 c 3.16054,0.24865 6.71483,0.26122 8.90197,0 0.79434,-0.0949 1.95717,-1.38896 1.95717,-1.38896"
         style="fill:none;stroke:#000000;stroke-width:1px;stroke-linecap:round;stroke-linejoin:miter;stroke-opacity:1" />
      <path
         sodipodi:nodetypes="cc"
         inkscape:connector-curvature="0"
         id="path3913"
         d="m 354.1216,546.9071 c 2.01716,-3.03533 4.15718,-4.84829 5.36644,-7.76555"
         style="fill:none;stroke:#000000;stroke-width:1px;stroke-linecap:round;stroke-linejoin:miter;stroke-opacity:1" />
      <path
         sodipodi:nodetypes="cc"
         inkscape:connector-curvature="0"
         id="path3917"
         d="m 375.1454,553.53623 c 2.41487,-1.66022 2.0679,-3.81836 3.4724,-5.93465"
         style="fill:none;stroke:#000000;stroke-width:1px;stroke-linecap:round;stroke-linejoin:miter;stroke-opacity:1" />
      <path
         inkscape:connector-curvature="0"
         id="path3926"
         d="m 347.4877,495.81522 c -0.53166,3.58037 -1.58723,7.18918 -2.09943,10.7184 1.42219,0.45399 3.49948,-0.64184 4.35702,-1.68255 1.13232,-2.98926 -0.0492,-6.52264 -2.01314,-9.08571 l -0.24445,0.0499 z"
         style="fill:#070000;fill-opacity:1;stroke:none" />
      <path
         sodipodi:nodetypes="cccccc"
         inkscape:connector-curvature="0"
         id="path3932"
         d="m 352.64583,518.1388 c -2.7989,-1.0176 -14.39582,0.58065 -11.63441,1.8036 0.78903,2.65627 2.97605,7.41058 6.29104,6.54651 1.81372,0.26986 2.7067,-1.92501 2.80201,-3.27454 2.71386,-1.39389 2.74283,-2.86285 3.23943,-4.88553 -0.15245,-0.21763 -0.44625,-0.21666 -0.69807,-0.19004 z"
         style="fill:#070000;fill-opacity:1;stroke:none" />
      <path
         sodipodi:type="arc"
         style="fill:#1a1a1a;fill-opacity:1;stroke:none;filter:url(#filter3899)"
         id="path3893"
         sodipodi:cx="369.52643"
         sodipodi:cy="506.37473"
         sodipodi:rx="4.7350903"
         sodipodi:ry="4.0406103"
         d="m 374.26152,506.37473 c 0,2.23156 -2.11997,4.04061 -4.73509,4.04061 -2.61512,0 -4.73509,-1.80905 -4.73509,-4.04061 0,-2.23157 2.11997,-4.04061 4.73509,-4.04061 2.61512,0 4.73509,1.80904 4.73509,4.04061 z"
         transform="matrix(1.2192671,0,0,0.63947288,-81.453793,188.44731)" />
      <path
         transform="matrix(1.1066667,0,0,1.1875,-40.81408,-95.136521)"
         d="m 374.26152,506.37473 c 0,2.23156 -2.11997,4.04061 -4.73509,4.04061 -2.61512,0 -4.73509,-1.80905 -4.73509,-4.04061 0,-2.23157 2.11997,-4.04061 4.73509,-4.04061 2.61512,0 4.73509,1.80904 4.73509,4.04061 z"
         sodipodi:ry="4.0406103"
         sodipodi:rx="4.7350903"
         sodipodi:cy="506.37473"
         sodipodi:cx="369.52643"
         id="path3000"
         style="fill:#666666;fill-opacity:1;stroke:none;filter:url(#filter3794)"
         sodipodi:type="arc" />
      <path
         sodipodi:type="arc"
         style="fill:#ffffff;fill-opacity:1;stroke:none;filter:url(#filter3816)"
         id="path3798"
         sodipodi:cx="369.52643"
         sodipodi:cy="506.37473"
         sodipodi:rx="4.7350903"
         sodipodi:ry="4.0406103"
         d="m 374.26152,506.37473 c 0,2.23156 -2.11997,4.04061 -4.73509,4.04061 -2.61512,0 -4.73509,-1.80905 -4.73509,-4.04061 0,-2.23157 2.11997,-4.04061 4.73509,-4.04061 2.61512,0 4.73509,1.80904 4.73509,4.04061 z"
         transform="matrix(0.93013541,0,0,1.0185035,24.608297,-9.4978229)" />
      <path
         sodipodi:nodetypes="sssssssss"
         inkscape:connector-curvature="0"
         id="path3820"
         d="m 374.01468,506.27253 c 0,1.08032 -0.0713,2.2724 -0.88071,2.89852 -0.86253,0.66722 -2.49854,0.7333 -3.60754,0.7333 -1.03552,0 -2.61926,0.005 -3.4886,-0.55627 -0.93535,-0.60432 -1.11883,-1.81675 -1.11883,-2.97335 0,-0.91774 0.17731,-2.22316 0.81629,-2.84048 0.91476,-0.88375 2.52552,-0.89353 3.79114,-0.89353 1.30486,0 2.67933,0.10713 3.55811,1.01174 0.56896,0.58568 0.93014,1.74308 0.93014,2.62007 z"
         style="fill:#000000;fill-opacity:1;stroke:none;filter:url(#filter3871)"
         transform="matrix(0.74914189,0,0,0.87364758,91.404049,63.973256)" />
      <path
         sodipodi:type="arc"
         style="fill:#ffffff;fill-opacity:1;stroke:none;filter:url(#filter3889)"
         id="path3875"
         sodipodi:cx="369.52643"
         sodipodi:cy="506.37473"
         sodipodi:rx="4.7350903"
         sodipodi:ry="4.0406103"
         d="m 374.26152,506.37473 c 0,2.23156 -2.11997,4.04061 -4.73509,4.04061 -2.61512,0 -4.73509,-1.80905 -4.73509,-4.04061 0,-2.23157 2.11997,-4.04061 4.73509,-4.04061 2.61512,0 4.73509,1.80904 4.73509,4.04061 z"
         transform="matrix(0.16722992,0,0,0.21257188,307.04697,397.07375)" />
      <path
         transform="matrix(0.16722992,0,0,0.21257188,307.67197,397.69875)"
         d="m 374.26152,506.37473 c 0,2.23156 -2.11997,4.04061 -4.73509,4.04061 -2.61512,0 -4.73509,-1.80905 -4.73509,-4.04061 0,-2.23157 2.11997,-4.04061 4.73509,-4.04061 2.61512,0 4.73509,1.80904 4.73509,4.04061 z"
         sodipodi:ry="4.0406103"
         sodipodi:rx="4.7350903"
         sodipodi:cy="506.37473"
         sodipodi:cx="369.52643"
         id="path3935"
         style="fill:#ffffff;fill-opacity:1;stroke:none;filter:url(#filter3889)"
         sodipodi:type="arc" />
      <path
         sodipodi:nodetypes="ccccccccccccccccccccccccccccccccccc"
         inkscape:connector-curvature="0"
         id="path3937"
         d="m 394.25476,506.65632 c -1.54148,0.76344 -2.17756,2.59976 -3.1011,3.95019 -1.7174,2.872 -2.7404,6.36751 -5.6397,8.30164 -5.83289,4.30068 -12.09748,7.97561 -18.07635,12.06694 -2.94796,1.77133 -5.75604,4.10644 -9.23754,4.62096 -2.76732,0.35092 -5.39456,-1.0759 -7.15402,-3.11942 -2.01914,-0.30748 -4.07315,-1.31666 -6.11607,-1.30022 -0.55255,1.08744 -0.35467,2.77164 -0.57885,3.97736 -0.55427,4.99561 -0.2691,10.02868 -0.19124,15.0405 -0.85189,2.16358 -2.71951,4.38766 -1.86942,6.83593 0.29944,1.51501 2.18072,1.37429 3.33768,1.69991 1.54782,0.15001 3.20907,0.67994 4.73152,0.23648 0.93535,-0.71898 0.42629,-2.18195 0.69047,-3.19065 0.26175,-2.45176 -0.0357,-5.00152 0.62091,-7.38971 0.7607,-1.0742 1.98859,-1.78252 2.75486,-2.8986 1.54408,-1.97277 3.34794,-3.87042 4.40474,-6.14716 0.0193,-0.50742 1.07798,-1.0257 1.08259,-0.26785 -0.5521,2.13151 -2.27717,3.81813 -3.51187,5.63059 -0.26091,0.79691 -2.18306,1.82029 -1.06894,2.47096 5.11986,3.63259 11.56292,4.30512 17.51676,5.7241 1.04025,0.26228 2.18067,0.72399 2.75043,-0.52208 1.47653,-1.39065 1.44182,-3.72633 2.8125,-5.12835 0.42449,-0.22512 0.89782,0.17821 0.50782,0.61384 -0.85109,2.2727 -1.61234,4.77665 -3.64398,6.29464 -0.21028,2.04649 0.25618,4.25873 -0.54129,6.1942 -0.62577,1.28071 -2.22577,2.60718 -1.55692,4.15736 2.04065,0.98587 4.46787,0.85645 6.69643,0.81474 1.22744,-0.18914 2.80111,-0.0863 3.69419,-1.07701 0.63601,-1.91178 0.42692,-4.23495 2.06376,-5.68804 3.45167,-3.63267 6.42987,-7.97399 7.40053,-12.98384 0.54727,-2.44565 0.61881,-5.11081 2.1875,-7.17076 1.74383,-2.86585 1.73321,-6.35455 2.19285,-9.59108 0.41007,-5.43704 0.6492,-10.96245 -0.22823,-16.36564 -0.41189,-1.95895 -0.84842,-4.1349 -2.30502,-5.57788 -0.1925,-0.10134 -0.39632,-0.24205 -0.625,-0.21205 z"
         style="fill:#ffffff;fill-opacity:1;stroke:none" />
      <path
         sodipodi:nodetypes="ccccc"
         inkscape:connector-curvature="0"
         id="path3947"
         d="m 346.35606,530.87093 c 0.40458,-0.27193 0.98824,-0.59502 1.01015,-0.75761 l 6.43972,1.38896 c 2.87989,-0.79468 -0.79191,0.25597 -1.62799,0.47198 z"
         style="fill:none;stroke:#000000;stroke-width:1px;stroke-linecap:butt;stroke-linejoin:miter;stroke-opacity:1" />
    </g>
    <path
       style="opacity:0.05400002;fill:#ffffff;fill-opacity:1;stroke:none"
       d="m 51.46446,2110.5139 c -0.0432,-2.8674 11.07569,0.9109 16.66751,-1.7678 0.91733,-0.4394 1.76351,-1.1883 2.77793,-1.2627 5.76601,-0.4226 13.28174,0.1119 16.66752,4.7983 2.51611,3.4826 1.02476,8.8645 -0.50508,12.8794 -1.32021,3.4647 -5.21167,5.3785 -7.07107,8.5863 -1.67005,2.8811 -1.50892,6.7014 -3.53553,9.3439 -3.15628,4.1155 -8.67757,12.4532 -12.62691,9.0914 -2.86666,-2.4402 4.83777,-6.6691 5.05076,-10.1015 0.62494,-10.0709 5.28617,-10.4612 6.81853,-13.8896 1.1684,-2.6141 1.33735,-6.205 -0.25254,-8.5863 -3.07535,-4.6064 -9.92573,-4.9858 -15.15228,-6.8186 -2.87074,-1.0067 -8.79299,0.769 -8.83884,-2.2728 z"
       id="path4020"
       inkscape:connector-curvature="0"
       sodipodi:nodetypes="ssaaaaaassaas" />
    <path
       style="opacity:0.06000001;fill:#ffffff;stroke:#000000;stroke-width:1px;stroke-linecap:butt;stroke-linejoin:miter;stroke-opacity:1"
       d="m 47.67639,2110.2613 c -0.31534,-4.5417 -8.55393,-9.2073 -11.36422,-7.5761 -2.88131,1.6724 -7.83456,4.4028 -11.61675,6.566 -1.9498,1.1152 -3.47985,5.4771 -1.51524,6.566 2.81135,1.5582 4.10461,-5.0963 6.81854,-6.8185 1.88852,-1.1985 4.46736,-2.2532 6.31345,-2.2729 3.09484,-0.033 6.59664,7.7064 9.09137,5.5559 0.65021,-0.5606 2.34306,-1.0091 2.27285,-2.0204 z"
       id="path4022"
       inkscape:connector-curvature="0"
       sodipodi:nodetypes="assaassa" />
    <path
       style="fill:#b3b3b3;fill-opacity:0.23305084;stroke:none;filter:url(#filter4377)"
       d="m 81.01142,2142.0812 c 5.84069,1.6959 2.12063,12.131 1.51523,18.1827 -0.54098,5.4076 -2.55092,10.6021 -4.54569,15.6574 -2.52872,6.4084 -3.4736,14.8293 -9.34391,18.4353 -1.14764,0.7049 -2.93309,0.7664 -4.0406,0 -7.59558,-5.2566 4.39779,-10.9921 1.78045,-16.1139 -0.59466,-1.1637 -1.52886,-1.9152 -1.92839,-0.671 -1.81374,5.6485 -1.78301,6.6196 -4.39775,5.9257 -3.59907,-0.9551 -11.35503,-1.8385 -14.64722,-4.5457 -2.47589,-2.0359 0.47376,-6.6909 2.27285,-9.3439 6.20082,-9.1438 19.09029,-11.5017 27.02158,-19.1929 2.5019,-2.4261 2.96662,-9.3056 6.31345,-8.3337 z"
       id="path4060"
       inkscape:connector-curvature="0"
       sodipodi:nodetypes="aaaasssssaaa" />
    <path
       style="opacity:0.14285715;fill:#cccccc;stroke:none;filter:url(#filter4104)"
       d="m 32.77663,2164.1782 c 1.24597,-1.2525 9.36888,2.7914 11.36422,4.9245 1.81688,1.9424 -5.61911,6.7512 -7.32361,10.7329 -1.27026,2.9673 0.75713,7.8257 -2.0203,9.4702 -1.51249,0.8955 -5.86366,-0.4381 -5.05076,-1.5152 2.32573,-3.082 0.81346,-21.3837 3.03045,-23.6124 z"
       id="path4094"
       inkscape:connector-curvature="0"
       sodipodi:nodetypes="ssaass" />
    <path
       style="opacity:0.11764706;fill:#cccccc;stroke:none;filter:url(#filter4389)"
       d="m 36.69098,2120.6154 c 2.08252,-3.5003 11.61675,-3.7881 11.61675,-3.7881 0.18968,0.024 -6.46242,13.5981 -4.92449,20.2031 1.13177,4.8607 4.99152,10.4018 6.9448,14.3947 1.4507,2.9654 8.85805,0.018 9.34391,3.283 0.60709,4.08 -5.92527,8.1067 -9.97526,7.3236 -1.41048,-0.2728 -0.96146,-3.0752 -2.27284,-3.6618 -3.54993,-1.588 -9.34552,5.2642 -11.49048,2.0203 -2.21506,-3.3499 7.4141,-6.1761 6.56599,-10.1016 -0.64356,-2.9786 -6.56526,-2.0972 -7.70242,-4.9245 -1.93901,-4.8208 3.51906,-9.958 3.66181,-15.1522 0.0894,-3.2514 -3.43087,-6.8012 -1.76777,-9.5965 z"
       id="path4108"
       inkscape:connector-curvature="0"
       sodipodi:nodetypes="acssaaaaaaaa" />
    <path
       style="opacity:0.13025208;fill:#666666;fill-opacity:1;stroke:none;filter:url(#filter4355)"
       d="m 29.27664,2152.5448 c 1.22066,-1.6859 6.66846,-1.295 7.94642,-1.1608 1.83149,0.1925 -2.16471,3.4757 -2.76785,5.4465 -0.43467,1.4203 -6.40535,-2.5914 -5.17857,-4.2857 z"
       id="path4317"
       inkscape:connector-curvature="0"
       sodipodi:nodetypes="ssss" />
  </g>
  <g
     inkscape:groupmode="layer"
     id="layer2"
     inkscape:label="color"
     style="display:inline"
     transform="translate(0,-2094.7244)" />
</svg>
