<?xml version="1.0" encoding="UTF-8" standalone="no"?>
<svg
   viewBox="0 0 48 48"
   version="1.1"
   id="svg6"
   sodipodi:docname="container_4.svg"
   inkscape:version="1.1 (c4e8f9e, 2021-05-24)"
   width="48"
   height="48"
   xmlns:inkscape="http://www.inkscape.org/namespaces/inkscape"
   xmlns:sodipodi="http://sodipodi.sourceforge.net/DTD/sodipodi-0.dtd"
   xmlns="http://www.w3.org/2000/svg"
   xmlns:svg="http://www.w3.org/2000/svg">
  <defs
     id="defs10" />
  <sodipodi:namedview
     id="namedview8"
     pagecolor="#ffffff"
     bordercolor="#666666"
     borderopacity="1.0"
     inkscape:pageshadow="2"
     inkscape:pageopacity="0.0"
     inkscape:pagecheckerboard="0"
     showgrid="false"
     inkscape:zoom="20.416667"
     inkscape:cx="12.048979"
     inkscape:cy="12"
     inkscape:window-width="1366"
     inkscape:window-height="702"
     inkscape:window-x="0"
     inkscape:window-y="0"
     inkscape:window-maximized="1"
     inkscape:current-layer="svg6" />
  <g
     id="g9"
     transform="matrix(2.5,0,0,2.5,-6,-6)">
    <path
       d="M 6.5,4 C 5.124,4 4,5.124 4,6.5 v 11 C 4,18.876 5.124,20 6.5,20 h 11 C 18.876,20 20,18.876 20,17.5 V 6.5 C 20,5.124 18.876,4 17.5,4 Z m 0,1 h 11 C 18.34,5 19,5.66 19,6.5 v 11 C 19,18.34 18.34,19 17.5,19 H 6.5 C 5.66,19 5,18.34 5,17.5 V 6.5 C 5,5.66 5.66,5 6.5,5"
       fill="#d8dee9"
       id="path2"
       style="fill:#97b67c;fill-opacity:1" />
    <rect
       x="7"
       y="8"
       width="10"
       height="9"
       fill="#d8dee9"
       id="rect4"
       style="fill:#a3be8c;fill-opacity:1" />
  </g>
</svg>
