<?xml version="1.0" encoding="UTF-8" standalone="no"?>
<svg
   style="isolation:isolate"
   width="256"
   height="256"
   viewBox="0 0 256 256"
   version="1.1"
   id="svg57"
   sodipodi:docname="pet.svg"
   inkscape:version="1.1 (c4e8f9e, 2021-05-24)"
   xmlns:inkscape="http://www.inkscape.org/namespaces/inkscape"
   xmlns:sodipodi="http://sodipodi.sourceforge.net/DTD/sodipodi-0.dtd"
   xmlns:xlink="http://www.w3.org/1999/xlink"
   xmlns="http://www.w3.org/2000/svg"
   xmlns:svg="http://www.w3.org/2000/svg">
  <sodipodi:namedview
     id="namedview59"
     pagecolor="#d09b9b"
     bordercolor="#666666"
     borderopacity="1.0"
     inkscape:pageshadow="2"
     inkscape:pageopacity="0"
     inkscape:pagecheckerboard="0"
     showgrid="false"
     inkscape:zoom="0.23486328"
     inkscape:cx="278.88565"
     inkscape:cy="197.98753"
     inkscape:window-width="1358"
     inkscape:window-height="704"
     inkscape:window-x="144"
     inkscape:window-y="30"
     inkscape:window-maximized="0"
     inkscape:current-layer="svg57" />
  <defs
     id="defs13">
    <filter
       id="2247UeNtoZvcOQUKSDKqAdC78T7U4oOY"
       width="1.0842484"
       height="1.1077836"
       x="-0.042124196"
       y="-0.045132896"
       color-interpolation-filters="sRGB"
       filterUnits="objectBoundingBox">
      <feGaussianBlur
         in="SourceGraphic"
         stdDeviation="4.294"
         id="feGaussianBlur2" />
      <feOffset
         dx="0"
         dy="4"
         result="pf_100_offsetBlur"
         id="feOffset4" />
      <feFlood
         flood-opacity=".4"
         id="feFlood6" />
      <feComposite
         in2="pf_100_offsetBlur"
         operator="in"
         result="pf_100_dropShadow"
         id="feComposite8" />
      <feBlend
         in="SourceGraphic"
         in2="pf_100_dropShadow"
         mode="normal"
         id="feBlend10" />
    </filter>
    <linearGradient
       id="linearGradient3888"
       inkscape:collect="always">
      <stop
         id="stop3890"
         offset="0"
         style="stop-color:#000000;stop-opacity:1;" />
      <stop
         id="stop3892"
         offset="1"
         style="stop-color:#000000;stop-opacity:0;" />
    </linearGradient>
    <linearGradient
       id="linearGradient3818">
      <stop
         id="stop3820"
         offset="0"
         style="stop-color:#e6e6e6;stop-opacity:1;" />
      <stop
         id="stop3822"
         offset="1"
         style="stop-color:#cbc5c5;stop-opacity:0;" />
    </linearGradient>
    <linearGradient
       y2="380.85712"
       x2="585.88849"
       y1="376.52084"
       x1="585.88855"
       gradientTransform="matrix(1,0,0,1.0512821,0,-20.50275)"
       gradientUnits="userSpaceOnUse"
       id="linearGradient3838"
       xlink:href="#linearGradient3888"
       inkscape:collect="always" />
    <linearGradient
       y2="380.85712"
       x2="585.88849"
       y1="376.52084"
       x1="585.88855"
       gradientTransform="matrix(1,0,0,1.0512821,-869.49815,-422.67574)"
       gradientUnits="userSpaceOnUse"
       id="linearGradient3819"
       xlink:href="#linearGradient3888"
       inkscape:collect="always" />
  </defs>
  <g
     filter="url(#2247UeNtoZvcOQUKSDKqAdC78T7U4oOY)"
     id="g17">
    <path
       fill="#faf8f6"
       d="M 166.351 13.28 C 240.407 13.28 250.991 23.837 250.991 97.824 L 250.991 157.075 C 250.991 231.061 240.407 241.619 166.351 241.619 L 90.982 241.619 C 16.926 241.619 6.343 231.061 6.343 157.075 L 6.343 97.824 C 6.343 23.837 16.926 13.28 90.982 13.28 L 166.351 13.28 L 166.351 13.28 Z"
       id="path15" />
  </g>
  <defs
     id="defs38">
    <filter
       id="0EUgOm7ID5JtJ6aQoSl9iUJGcQnQcvoF"
       width="1.1421462"
       height="1.1697324"
       x="-0.071073106"
       y="-0.071073106"
       color-interpolation-filters="sRGB"
       filterUnits="objectBoundingBox">
      <feGaussianBlur
         in="SourceGraphic"
         stdDeviation="4.294"
         id="feGaussianBlur27" />
      <feOffset
         dx="0"
         dy="4"
         result="pf_100_offsetBlur"
         id="feOffset29" />
      <feFlood
         flood-opacity=".4"
         id="feFlood31" />
      <feComposite
         in2="pf_100_offsetBlur"
         operator="in"
         result="pf_100_dropShadow"
         id="feComposite33" />
      <feBlend
         in="SourceGraphic"
         in2="pf_100_dropShadow"
         mode="normal"
         id="feBlend35" />
    </filter>
  </defs>
  <g
     opacity=".2"
     id="g42">
    <path
       fill="#ffffff"
       d="M 249.643 83.58 L 44.234 236.61 C 55.796 238.921 70.66 239.629 89.757 239.629 L 165.127 239.629 C 239.182 239.629 249.766 229.071 249.766 155.085 L 249.766 95.834 C 249.766 91.531 249.725 87.464 249.643 83.58 L 249.643 83.58 Z"
       id="path40" />
  </g>
  <g
     opacity=".4"
     id="g55">
    <linearGradient
       id="_lgradient_201"
       x1=".517"
       x2=".517"
       y1="0"
       y2="1"
       gradientTransform="matrix(244.65,0,0,228.34,5.68,11.95)"
       gradientUnits="userSpaceOnUse">
      <stop
         offset="0%"
         style="stop-color:#ffffff"
         id="stop44" />
      <stop
         offset="12.5%"
         stop-opacity=".098"
         style="stop-color:#ffffff"
         id="stop46" />
      <stop
         offset="92.5%"
         stop-opacity=".098"
         style="stop-color:#000000"
         id="stop48" />
      <stop
         offset="100%"
         stop-opacity=".498"
         style="stop-color:#000000"
         id="stop50" />
    </linearGradient>
    <path
       fill="url(#_lgradient_201)"
       fill-rule="evenodd"
       d="M 165.06803 11.951234 C 169.395994 11.941409 173.723944 11.990533 178.051908 12.088781 C 181.927398 12.167379 185.802873 12.31475 189.678362 12.540721 C 193.1309 12.737216 196.583423 13.022134 200.026115 13.395476 C 203.085193 13.729518 206.144271 14.181458 209.173842 14.741469 C 211.888645 15.242533 214.57394 15.881143 217.219897 16.6573 C 219.619947 17.354858 221.970814 18.219439 224.242988 19.241215 C 226.357793 20.184394 228.384061 21.304417 230.302129 22.591462 C 232.141505 23.829383 233.862851 25.244151 235.436659 26.80629 C 237.000621 28.378252 238.417046 30.087764 239.656409 31.924995 C 240.944972 33.840824 242.066305 35.864728 243.020409 37.967229 C 244.043389 40.246576 244.908985 42.584873 245.617197 44.972292 C 246.394255 47.615155 247.033606 50.297317 247.535265 53.008956 C 248.095924 56.034984 248.548399 59.080665 248.882828 62.13617 C 249.256611 65.574836 249.541856 69.013506 249.738578 72.462003 C 249.964823 76.323139 250.112361 80.194101 250.200884 84.055237 C 250.289421 88.378131 250.338591 92.701032 250.32876 97.014106 L 250.32876 155.225886 C 250.338591 159.54878 250.289421 163.861854 250.200884 168.184747 C 250.112361 172.05571 249.964823 175.916853 249.738578 179.777981 C 249.541856 183.226485 249.256611 186.674975 248.882828 190.103826 C 248.548399 193.15933 248.095924 196.214835 247.535265 199.240851 C 247.033606 201.942664 246.394255 204.624837 245.617197 207.267703 C 244.908985 209.655115 244.043389 212.003235 243.020409 214.272755 C 242.066305 216.38509 240.944972 218.399156 239.656409 220.314999 C 238.417046 222.152226 237.000621 223.871561 235.436659 225.433697 C 233.862851 226.995832 232.141505 228.410601 230.302129 229.648532 C 228.384061 230.935575 226.357793 232.055598 224.242988 232.998768 C 221.970814 234.020552 219.619947 234.885137 217.219897 235.592507 C 214.57394 236.368672 211.888645 237.007276 209.173842 237.498515 C 206.144271 238.068354 203.085193 238.510465 200.026115 238.844519 C 196.583423 239.21785 193.1309 239.502777 189.678362 239.699269 C 185.802873 239.925235 181.927398 240.072615 178.051908 240.161035 C 173.723944 240.249454 169.395994 240.298581 165.06803 240.288762 L 90.941963 240.288762 C 86.614006 240.298581 82.286049 240.249454 77.9581 240.161035 C 74.08261 240.072615 70.20712 239.925235 66.331638 239.699269 C 62.879108 239.502777 59.426578 239.21785 55.983886 238.844519 C 52.924808 238.510465 49.865733 238.068354 46.836162 237.498515 C 44.121356 237.007276 41.436057 236.368672 38.7901 235.592507 C 36.390053 234.885137 34.039187 234.020552 31.767009 232.998768 C 29.652213 232.055598 27.625943 230.935575 25.707871 229.648532 C 23.868489 228.410601 22.147143 226.995832 20.573343 225.433697 C 19.009377 223.871561 17.592955 222.152226 16.353586 220.314999 C 15.065036 218.399156 13.943701 216.38509 12.989584 214.272755 C 11.966612 212.003235 11.101021 209.655115 10.392811 207.267703 C 9.615746 204.624837 8.976389 201.942664 8.47474 199.240851 C 7.914072 196.214835 7.461604 193.15933 7.127172 190.103826 C 6.753394 186.674975 6.468142 183.226485 6.271417 179.777981 C 6.045183 175.916853 5.897639 172.05571 5.809112 168.184747 C 5.720586 163.861854 5.671405 159.54878 5.681241 155.225886 L 5.681241 97.014106 C 5.671405 92.701032 5.720586 88.378131 5.809112 84.055237 C 5.897639 80.194101 6.045183 76.323139 6.271417 72.462003 C 6.468142 69.013506 6.753394 65.574836 7.127172 62.13617 C 7.461604 59.080665 7.914072 56.034984 8.47474 53.008956 C 8.976389 50.297317 9.615746 47.615155 10.392811 44.972292 C 11.101021 42.584873 11.966612 40.246576 12.989584 37.967229 C 13.943701 35.864728 15.065036 33.840824 16.353586 31.924995 C 17.592955 30.087764 19.009377 28.378252 20.573343 26.80629 C 22.147143 25.244151 23.868489 23.829383 25.707871 22.591462 C 27.625943 21.304417 29.652213 20.184394 31.767009 19.241215 C 34.039187 18.219439 36.390053 17.354858 38.7901 16.6573 C 41.436057 15.881143 44.121356 15.242533 46.836162 14.741469 C 49.865733 14.181458 52.924808 13.729518 55.983886 13.395476 C 59.426578 13.022134 62.879108 12.737216 66.331638 12.540721 C 70.20712 12.31475 74.08261 12.167379 77.9581 12.088781 C 82.286049 11.990533 86.614006 11.941409 90.941963 11.951234 L 165.06803 11.951234 Z M 165.077876 15.959741 C 169.376317 15.949916 173.674759 15.99904 177.973216 16.087463 C 181.799522 16.175886 185.625827 16.323257 189.452133 16.539402 C 192.835809 16.735898 196.219486 17.010992 199.583486 17.384332 C 202.554026 17.698726 205.514751 18.131016 208.445953 18.681203 C 211.023049 19.152792 213.580483 19.761928 216.098564 20.498786 C 218.321569 21.147221 220.495374 21.952852 222.600334 22.896029 C 224.508571 23.750785 226.338116 24.762737 228.069293 25.922059 C 229.692286 27.012609 231.207063 28.260355 232.59398 29.645648 C 233.980897 31.030941 235.230091 32.543956 236.331763 34.165043 C 237.492434 35.894202 238.505568 37.711787 239.361333 39.607968 C 240.305606 41.720292 241.112187 43.891565 241.761369 46.102139 C 242.508934 48.617282 243.108947 51.161898 243.590914 53.735987 C 244.131912 56.663768 244.564709 59.6112 244.889308 62.578282 C 245.263091 65.938355 245.538505 69.308252 245.735227 72.687976 C 245.951626 76.509812 246.10901 80.321821 246.187687 84.143656 C 246.276225 88.437084 246.325394 92.720685 246.325394 97.014106 C 246.325394 97.014106 246.325394 97.014106 246.325394 97.014106 L 246.325394 155.225886 C 246.325394 155.225886 246.325394 155.225886 246.325394 155.225886 C 246.325394 159.519306 246.276225 163.802907 246.187687 168.096328 C 246.10901 171.918164 245.951626 175.739999 245.735227 179.552015 C 245.538505 182.931739 245.263091 186.301629 244.889308 189.671533 C 244.564709 192.628784 244.131912 195.576216 243.590914 198.503994 C 243.108947 201.078094 242.508934 203.622706 241.761369 206.137845 C 241.112187 208.358253 240.305606 210.5197 239.361333 212.63202 C 238.505568 214.528209 237.492434 216.355617 236.331763 218.074952 C 235.230091 219.705853 233.980897 221.218876 232.59398 222.604172 C 231.207063 223.979634 229.692286 225.227385 228.069293 226.317935 C 226.338116 227.477251 224.508571 228.489201 222.600334 229.343951 C 220.495374 230.296956 218.321569 231.092775 216.098564 231.741198 C 213.580483 232.478056 211.023049 233.087202 208.445953 233.558787 C 205.514751 234.108972 202.554026 234.541264 199.583486 234.865483 C 196.219486 235.228995 192.835809 235.513922 189.452133 235.70058 C 185.625827 235.916726 181.799522 236.073926 177.973216 236.152526 C 173.674759 236.25078 169.376317 236.290072 165.077876 236.290072 C 165.077876 236.290072 165.077876 236.290072 165.06803 236.290072 L 90.941963 236.290072 C 90.932125 236.290072 90.932125 236.290072 90.932125 236.290072 C 86.633683 236.290072 82.335234 236.25078 78.036784 236.152526 C 74.210479 236.073926 70.384173 235.916726 66.557868 235.70058 C 63.174195 235.513922 59.790522 235.228995 56.426518 234.865483 C 53.455967 234.541264 50.495253 234.108972 47.564048 233.558787 C 44.986944 233.087202 42.429517 232.478056 39.911433 231.741198 C 37.688439 231.092775 35.514626 230.296956 33.409665 229.343951 C 31.501429 228.489201 29.671886 227.477251 27.940703 226.317935 C 26.31772 225.227385 24.802935 223.979634 23.416022 222.604172 C 22.029109 221.218876 20.779904 219.705853 19.678243 218.074952 C 18.517564 216.355617 17.504428 214.528209 16.648674 212.63202 C 15.704392 210.5197 14.897819 208.358253 14.248626 206.137845 C 13.50107 203.622706 12.901057 201.078094 12.419081 198.503994 C 11.878086 195.576216 11.445291 192.628784 11.120694 189.671533 C 10.746916 186.301629 10.471501 182.931739 10.274776 179.552015 C 10.058378 175.739999 9.900997 171.918164 9.822307 168.096328 C 9.733781 163.802907 9.6846 159.519306 9.6846 155.225886 C 9.6846 155.225886 9.6846 155.225886 9.6846 155.225886 L 9.6846 97.014106 C 9.6846 97.014106 9.6846 97.014106 9.6846 97.014106 C 9.6846 92.720685 9.733781 88.437084 9.822307 84.143656 C 9.900997 80.321821 10.058378 76.509812 10.274776 72.687976 C 10.471501 69.308252 10.746916 65.938355 11.120694 62.578282 C 11.445291 59.6112 11.878086 56.663768 12.419081 53.735987 C 12.901057 51.161898 13.50107 48.617282 14.248626 46.102139 C 14.897819 43.891565 15.704392 41.720292 16.648674 39.607968 C 17.504428 37.711787 18.517564 35.894202 19.678243 34.165043 C 20.779904 32.543956 22.029109 31.030941 23.416022 29.645648 C 24.802935 28.260355 26.31772 27.012609 27.940703 25.922059 C 29.671886 24.762737 31.501429 23.750785 33.409665 22.896029 C 35.514626 21.952852 37.688439 21.147221 39.911433 20.498786 C 42.429517 19.761928 44.986944 19.152792 47.564048 18.681203 C 50.495253 18.131016 53.455967 17.698726 56.426518 17.384332 C 59.790522 17.010992 63.174195 16.735898 66.557868 16.539402 C 70.384173 16.323257 74.210479 16.175886 78.036784 16.087463 C 82.335234 15.99904 86.633683 15.949916 90.932125 15.959741 C 90.932125 15.959741 90.932125 15.959741 90.941963 15.959741 L 165.06803 15.959741 C 165.077876 15.959741 165.077876 15.959741 165.077876 15.959741 Z"
       id="path53" />
  </g>
  <g
     id="g4137"
     transform="matrix(4.4956704,0,0,4.4956704,-1103.3307,776.53615)">
    <path
       d="m 273.66827,-125.72387 h 1.20292 v 2.40587 h -1.20292 z"
       id="path35"
       style="fill:url(#a)"
       inkscape:connector-curvature="0" />
    <path
       d="m 274.87096,-125.72387 h 4.81174 v -2.40586 h -4.81174 z"
       id="path37"
       style="fill:url(#c)"
       inkscape:connector-curvature="0" />
    <path
       d="m 273.66827,-125.72387 h -4.81647 v 2.40587 h 4.81647 z"
       id="path39"
       style="fill:url(#d)"
       inkscape:connector-curvature="0" />
    <path
       d="m 273.66827,-125.72387 h -4.81647 v -2.40586 h 4.81647 z"
       id="path41"
       style="fill:url(#e)"
       inkscape:connector-curvature="0" />
    <path
       d="m 274.87096,-125.72387 h 4.81174 v 2.40587 h -4.81174 z"
       id="path43"
       style="fill:url(#f)"
       inkscape:connector-curvature="0" />
    <path
       d="m 259.02016,-152.86566 -0.009,18.67809 v 0.0758 c 0.009,0.32678 0.15629,0.64408 0.41202,0.86667 0,0 0,0.005 0.005,0.005 0.0142,0.0142 0.0284,0.0237 0.0426,0.0379 0.009,0.005 0.0189,0.009 0.0284,0.0189 0.005,0.005 0.0142,0.009 0.0237,0.0189 0.009,0.005 0.0237,0.0142 0.0379,0.0237 0.0237,0.0142 0.0426,0.0284 0.0616,0.0379 l 14.05646,8.11259 c 0.0426,0.0284 0.0852,0.0474 0.12787,0.0663 0.10893,0.0474 0.22259,0.0758 0.33625,0.09 0.0189,0 0.0331,0.005 0.0521,0.005 h 0.0142 c 0.0142,0 0.0284,0.005 0.0426,0.005 h 0.0568 c 0.0142,0 0.0284,-0.005 0.0426,-0.005 h 0.0142 c 0.0189,0 0.0379,-0.005 0.0568,-0.005 0.0947,-0.009 0.18944,-0.0332 0.27942,-0.0663 0.0189,-0.009 0.0331,-0.0142 0.0521,-0.0237 0.0189,-0.005 0.0379,-0.0142 0.0521,-0.0237 0.0284,-0.0142 0.0521,-0.0237 0.0805,-0.0426 l 14.03707,-8.10317 c 0.0426,-0.0237 0.0852,-0.0521 0.12787,-0.0805 0,0 0.005,0 0.005,-0.005 0.009,-0.009 0.0237,-0.0189 0.0379,-0.0284 0.005,-0.005 0.009,-0.009 0.0142,-0.009 0.009,-0.009 0.0142,-0.0142 0.0237,-0.0189 0.009,-0.009 0.0189,-0.0189 0.0284,-0.0284 0.005,0 0.005,-0.005 0.009,-0.005 0.23679,-0.22258 0.3694,-0.53042 0.38361,-0.84299 v -0.009 l -0.005,-18.74478 z"
       id="path45"
       style="fill:url(#g)"
       inkscape:connector-curvature="0" />
    <path
       d="m 289.55302,-134.76467 v 0.005 c -0.0142,0.31257 -0.14681,0.62041 -0.38362,0.84299 -0.005,0 -0.005,0.005 -0.009,0.005 -0.009,0.009 -0.0189,0.0189 -0.0284,0.0237 -0.009,0.009 -0.0142,0.0142 -0.0237,0.0189 -0.005,0.005 -0.009,0.009 -0.0142,0.0142 -0.0142,0.009 -0.0284,0.0189 -0.0379,0.0284 l -0.005,0.005 c -0.0426,0.0284 -0.0852,0.0568 -0.12787,0.0805 l -14.03706,8.10314 c -0.0284,0.0142 -0.0521,0.0284 -0.0805,0.0426 -0.0142,0.009 -0.0331,0.0142 -0.0521,0.0237 -0.0189,0.009 -0.0331,0.0142 -0.0521,0.0237 -0.09,0.0332 -0.1847,0.0521 -0.27942,0.0663 -0.0189,0 -0.0379,0.005 -0.0568,0.005 h -0.0852 c -0.009,0 -0.0189,0.005 -0.0284,0 h -0.0568 c -0.0189,0 -0.0331,-0.005 -0.0521,-0.005 -0.11366,-0.0142 -0.22732,-0.0426 -0.33625,-0.09 -0.0426,-0.0189 -0.0852,-0.0379 -0.12787,-0.0663 l -14.05644,-8.11279 c -0.019,-0.0142 -0.0379,-0.0237 -0.0616,-0.0379 -0.0142,-0.009 -0.0284,-0.0189 -0.0379,-0.0284 -0.009,-0.005 -0.0189,-0.009 -0.0237,-0.0142 -0.009,-0.009 -0.0189,-0.0142 -0.0284,-0.0189 -0.0142,-0.0142 -0.0284,-0.0284 -0.0426,-0.0379 l -0.005,-0.005 c -0.25573,-0.22251 -0.40254,-0.53982 -0.41201,-0.86659 v 0.50675 c 0.009,0.33152 0.15629,0.64882 0.41202,0.87141 l 0.005,0.005 c 0.0142,0.009 0.0284,0.0237 0.0426,0.0379 0.009,0.005 0.0189,0.009 0.0284,0.0189 0.005,0.005 0.0142,0.009 0.0237,0.0142 0.009,0.009 0.0237,0.0189 0.0379,0.0284 0.0237,0.0142 0.0426,0.0237 0.0616,0.0379 l 14.05646,8.11259 c 0.0426,0.0237 0.0852,0.0474 0.12787,0.0663 0.10893,0.0474 0.22259,0.0758 0.33625,0.09 0.0189,0 0.0331,0.005 0.0521,0.005 h 0.0568 c 0.009,0.005 0.0189,0 0.0284,0 h 0.0852 c 0.0189,0 0.0379,-0.005 0.0568,-0.005 0.0947,-0.0142 0.18943,-0.0331 0.27942,-0.071 0.0189,-0.005 0.0331,-0.009 0.0521,-0.0189 0.0189,-0.009 0.0379,-0.0142 0.0521,-0.0237 0.0284,-0.0142 0.0521,-0.0284 0.0805,-0.0426 l 14.03706,-8.10314 c 0.0426,-0.0237 0.0852,-0.0521 0.12787,-0.0805 l 0.005,-0.005 c 0.009,-0.009 0.0237,-0.0189 0.0379,-0.0284 l 0.0142,-0.0142 c 0.009,-0.005 0.0142,-0.009 0.0237,-0.0189 0.009,-0.005 0.0189,-0.0142 0.0284,-0.0237 0.005,0 0.005,-0.005 0.009,-0.009 0.23679,-0.21785 0.3694,-0.52568 0.38361,-0.83826 v -0.009 z"
       id="path47"
       inkscape:connector-curvature="0"
       style="fill-opacity:0.23529" />
    <path
       d="m 273.66827,-143.16654 h 1.16976 v 18.19557 h -1.16976 z"
       id="path49"
       inkscape:connector-curvature="0"
       style="fill:#fafafa;fill-opacity:0.11765" />
    <path
       d="m 251.52831,-156.95264 c 0.0189,0.0237 0.0426,0.0426 0.0663,0.0663 0.019,0.0142 0.0332,0.0284 0.0474,0.0379 0.009,0.009 0.019,0.0142 0.0237,0.0189 0.009,0.009 0.0189,0.0142 0.0284,0.0189 0.009,0.009 0.0237,0.0189 0.0331,0.0237 l 0.005,0.005 c 0.0189,0.0142 0.0426,0.0237 0.0616,0.0379 l 6.52134,3.76509 0.45938,0.18469 0.005,-0.005 -0.46411,-0.18944 -6.52133,-3.76508 c -0.019,-0.009 -0.0426,-0.0237 -0.0616,-0.0379 h -0.005 c -0.009,-0.009 -0.0237,-0.0189 -0.0332,-0.0237 -0.009,-0.009 -0.0189,-0.0142 -0.0284,-0.0189 -0.005,-0.005 -0.0142,-0.0142 -0.0237,-0.0189 -0.0142,-0.0142 -0.0284,-0.0237 -0.0474,-0.0379 v -0.005 c -0.0237,-0.0189 -0.0426,-0.0379 -0.0663,-0.0568 z m 45.45497,0 c -0.0237,0.0189 -0.0426,0.0379 -0.0663,0.0568 0,0 0,0.005 -0.005,0.005 -0.0142,0.0142 -0.0284,0.0237 -0.0426,0.0379 -0.009,0.005 -0.0189,0.0142 -0.0284,0.0189 -0.005,0.005 -0.0142,0.009 -0.0237,0.0189 -0.009,0.005 -0.0237,0.0142 -0.0379,0.0237 h -0.005 c -0.0189,0.0142 -0.0379,0.0284 -0.0568,0.0379 l -6.52133,3.76508 -0.46412,0.18944 0.005,0.005 0.45939,-0.18469 6.52133,-3.76509 c 0.0189,-0.0142 0.0379,-0.0237 0.0568,-0.0379 0.005,0 0.005,0 0.005,-0.005 0.0142,-0.005 0.0284,-0.0142 0.0379,-0.0237 0.009,-0.005 0.0189,-0.009 0.0237,-0.0189 0.009,-0.005 0.0189,-0.009 0.0284,-0.0189 0.0142,-0.009 0.0284,-0.0237 0.0426,-0.0379 h 0.005 c 0.0237,-0.0237 0.0474,-0.0426 0.0663,-0.0663 z m -45.45497,9.62809 c 0.0189,0.0237 0.0426,0.0426 0.0663,0.0663 0.019,0.0142 0.0332,0.0284 0.0474,0.0379 0.009,0.009 0.019,0.0142 0.0237,0.0189 0.009,0.009 0.0189,0.0142 0.0284,0.0189 0.009,0.009 0.0237,0.0189 0.0331,0.0237 l 0.005,0.005 c 0.0189,0.0142 0.0426,0.0237 0.0616,0.0379 l 7.22222,4.16759 v 1.19346 l 6.83388,3.94972 c 0.0426,0.0237 0.0852,0.0426 0.12787,0.0616 0.10893,0.0474 0.22259,0.0758 0.33152,0.09 0.0189,0.005 0.0379,0.005 0.0568,0.005 h 0.0142 c 0.0142,0 0.0284,0.005 0.0426,0.005 h 0.0568 c 0.0142,0 0.0284,-0.005 0.0426,-0.005 h 0.0142 c 0.0189,0 0.0379,0 0.0568,-0.005 0.0947,-0.009 0.1847,-0.0332 0.27942,-0.0663 0.0189,-0.009 0.0331,-0.0142 0.0521,-0.0237 0.0189,-0.005 0.0331,-0.0142 0.0521,-0.0237 0.0284,-0.0142 0.0521,-0.0237 0.0758,-0.0379 l 7.2033,-4.15813 7.19857,4.15813 c 0.0284,0.0142 0.0521,0.0237 0.0805,0.0379 0.0142,0.009 0.0331,0.0189 0.0521,0.0237 0.0189,0.009 0.0331,0.0142 0.0521,0.0237 0.09,0.0332 0.1847,0.0568 0.27942,0.0663 0.0189,0.005 0.0379,0.005 0.0568,0.005 h 0.0142 c 0.0142,0 0.0284,0.005 0.0426,0.005 h 0.0568 c 0.0142,0 0.0284,-0.005 0.0426,-0.005 h 0.0142 c 0.0142,0 0.0331,0 0.0521,-0.005 0.11366,-0.0142 0.22733,-0.0426 0.33625,-0.09 0.0426,-0.0189 0.0853,-0.0379 0.12787,-0.0616 l 6.88602,-3.97809 v -1.19346 l 7.1702,-4.13922 c 0.0189,-0.0142 0.0379,-0.0237 0.0568,-0.0379 0.005,0 0.005,0 0.005,-0.005 0.0142,-0.005 0.0284,-0.0142 0.0379,-0.0237 0.009,-0.005 0.0189,-0.009 0.0237,-0.0189 0.009,-0.005 0.0189,-0.009 0.0284,-0.0189 0.0142,-0.009 0.0284,-0.0237 0.0426,-0.0379 h 0.005 c 0.0237,-0.0237 0.0474,-0.0426 0.0663,-0.0663 -0.0237,0.0189 -0.0426,0.0379 -0.0663,0.0568 0,0 0,0.005 -0.005,0.005 -0.0142,0.0142 -0.0284,0.0237 -0.0426,0.0379 -0.009,0.005 -0.0189,0.0142 -0.0284,0.0189 -0.005,0.005 -0.0142,0.009 -0.0237,0.0189 -0.009,0.005 -0.0237,0.0142 -0.0379,0.0237 h -0.005 c -0.0189,0.0142 -0.0379,0.0284 -0.0568,0.0379 l -14.05646,8.11732 c -0.0426,0.0237 -0.0852,0.0426 -0.12788,0.0616 -0.10892,0.0474 -0.22258,0.0758 -0.33624,0.09 -0.0189,0 -0.0379,0.005 -0.0521,0.005 h -0.0142 c -0.0142,0 -0.0284,0.005 -0.0426,0.005 h -0.0568 c -0.0142,0 -0.0284,-0.005 -0.0426,-0.005 h -0.0142 c -0.0189,0 -0.0379,-0.005 -0.0568,-0.005 -0.0947,-0.009 -0.18944,-0.0332 -0.27942,-0.0663 -0.0189,-0.009 -0.0331,-0.0142 -0.0521,-0.0237 -0.0189,-0.005 -0.0379,-0.0142 -0.0521,-0.0237 -0.0284,-0.0142 -0.0521,-0.0237 -0.0805,-0.0379 l -7.19857,-4.15814 -7.2033,4.15814 c -0.0237,0.0142 -0.0474,0.0237 -0.0758,0.0379 -0.0189,0.009 -0.0332,0.0189 -0.0521,0.0237 -0.0189,0.009 -0.0331,0.0142 -0.0521,0.0237 -0.0947,0.0331 -0.1847,0.0568 -0.27942,0.0663 -0.0189,0 -0.0379,0.005 -0.0568,0.005 h -0.0142 c -0.0142,0 -0.0284,0.005 -0.0426,0.005 h -0.0568 c -0.0142,0 -0.0284,-0.005 -0.0426,-0.005 h -0.0142 c -0.0189,0 -0.0379,-0.005 -0.0568,-0.005 -0.10893,-0.0142 -0.22259,-0.0426 -0.33152,-0.09 -0.0426,-0.0189 -0.0852,-0.0379 -0.12787,-0.0616 l -14.05647,-8.11738 c -0.0189,-0.009 -0.0426,-0.0237 -0.0616,-0.0379 h -0.005 c -0.009,-0.009 -0.0237,-0.0189 -0.0331,-0.0237 -0.009,-0.009 -0.019,-0.0142 -0.0284,-0.0189 -0.005,-0.005 -0.0142,-0.0142 -0.0237,-0.0189 -0.0142,-0.0142 -0.0284,-0.0237 -0.0474,-0.0379 v -0.005 c -0.0237,-0.0189 -0.0426,-0.0379 -0.0663,-0.0568 z"
       id="path51"
       inkscape:connector-curvature="0"
       style="fill-opacity:0.23529" />
    <path
       d="m 259.0201,-152.86589 -0.009,18.67867 v 0.0758 c 0.009,0.32678 0.15629,0.64409 0.41203,0.86668 0,0 0,0.005 0.005,0.005 0.0142,0.0142 0.0284,0.0237 0.0426,0.0379 0.009,0.005 0.0189,0.009 0.0284,0.0189 0.005,0.005 0.0142,0.009 0.0237,0.0189 0.009,0.005 0.0237,0.0142 0.0379,0.0237 0.0237,0.0142 0.0426,0.0284 0.0616,0.0379 l 14.05562,8.11258 c 0.0426,0.0284 0.0853,0.0474 0.12787,0.0663 0.10892,0.0474 0.22258,0.0758 0.33625,0.09 0.0189,0 0.0331,0.005 0.0521,0.005 h 0.0142 c 0.0142,0 0.0284,0.005 0.0426,0.005 h 0.0568 c 0.0142,0 0.0284,-0.005 0.0426,-0.005 h 0.0142 c 0.0189,0 0.0379,-0.005 0.0568,-0.005 0.0947,-0.009 0.18944,-0.0331 0.27942,-0.0663 0.0189,-0.009 0.0331,-0.0142 0.0521,-0.0237 0.0189,-0.005 0.0379,-0.0142 0.0521,-0.0237 0.0284,-0.0142 0.0521,-0.0237 0.0805,-0.0426 l 14.03743,-8.10315 c 0.0426,-0.0237 0.0852,-0.0521 0.12787,-0.0805 0,0 0.005,0 0.005,-0.005 0.009,-0.009 0.0237,-0.0189 0.0379,-0.0284 0.005,-0.005 0.009,-0.009 0.0142,-0.009 0.009,-0.009 0.0142,-0.0142 0.0237,-0.0189 0.009,-0.009 0.0189,-0.0189 0.0284,-0.0284 0.005,0 0.005,-0.005 0.009,-0.005 0.23679,-0.22258 0.3694,-0.53042 0.38361,-0.84299 v -0.009 l -0.005,-18.74461 z"
       id="path53-7"
       inkscape:connector-curvature="0"
       style="fill:none;stroke:#212121;stroke-width:0.341018;stroke-linecap:square;stroke-linejoin:round" />
    <path
       d="m 266.42302,-166.62824 c -0.0142,0 -0.0284,0 -0.0426,0.005 h -0.0142 c -0.0189,0 -0.0379,0 -0.0568,0.005 -0.10893,0.0142 -0.22258,0.0426 -0.33152,0.09 -0.0426,0.0189 -0.0852,0.0379 -0.12787,0.0616 l -14.05646,8.11731 c -0.0189,0.009 -0.0379,0.0189 -0.0568,0.0332 -0.005,0 -0.005,0.005 -0.009,0.005 -0.009,0.009 -0.0237,0.0142 -0.0331,0.0237 -0.009,0.005 -0.019,0.0142 -0.0237,0.0189 -0.009,0.005 -0.019,0.0142 -0.0284,0.0189 -0.0142,0.0142 -0.0331,0.0237 -0.0474,0.0379 v 0.005 c -0.20364,0.17523 -0.33624,0.40729 -0.38834,0.65829 0.0521,0.251 0.1847,0.4878 0.38834,0.66302 0.019,0.0142 0.0331,0.0284 0.0474,0.0379 0.009,0.009 0.019,0.0142 0.0237,0.0189 0.009,0.009 0.0189,0.0142 0.0284,0.0189 0.009,0.009 0.0237,0.0189 0.0331,0.0237 l 0.005,0.005 c 0.0189,0.0142 0.0426,0.0237 0.0616,0.0379 l 6.52133,3.76508 0.46412,0.1847 -0.46412,0.30784 -6.52133,3.76508 c -0.0189,0.009 -0.0379,0.0189 -0.0568,0.0332 -0.005,0 -0.005,0.005 -0.009,0.005 -0.009,0.009 -0.0237,0.0142 -0.0331,0.0237 -0.009,0.005 -0.0189,0.0142 -0.0237,0.0189 -0.009,0.005 -0.0189,0.0142 -0.0284,0.0189 -0.0142,0.0142 -0.0332,0.0237 -0.0474,0.0379 v 0.005 c -0.20365,0.17522 -0.33625,0.40729 -0.38834,0.65829 0.0521,0.251 0.18469,0.48779 0.38834,0.66303 0.0189,0.0142 0.0332,0.0284 0.0474,0.0379 0.009,0.009 0.0189,0.0142 0.0237,0.0189 0.009,0.009 0.0189,0.0142 0.0284,0.0189 0.009,0.009 0.0237,0.0189 0.0331,0.0237 l 0.005,0.005 c 0.019,0.0142 0.0426,0.0237 0.0616,0.0379 l 14.05645,8.11241 c 0.0426,0.0237 0.0853,0.0474 0.12787,0.0663 0.10893,0.0474 0.22258,0.0758 0.33152,0.09 0.0189,0 0.0379,0 0.0568,0.005 h 0.17049 c 0.0189,-0.005 0.0379,-0.005 0.0568,-0.005 0.0947,-0.0142 0.1847,-0.0379 0.27942,-0.071 0.0189,-0.005 0.0332,-0.0142 0.0521,-0.0189 0.0189,-0.009 0.0332,-0.0189 0.0521,-0.0237 0.0284,-0.0142 0.0521,-0.0284 0.0758,-0.0426 l 7.20331,-4.15813 7.19857,4.15813 c 0.0284,0.0142 0.0521,0.0284 0.0805,0.0426 0.0142,0.005 0.0331,0.0142 0.0521,0.0237 0.0189,0.005 0.0331,0.0142 0.0521,0.0189 0.09,0.0332 0.18469,0.0568 0.27942,0.071 0.0189,0 0.0379,0 0.0568,0.005 h 0.1705 c 0.0142,-0.005 0.0331,-0.005 0.0521,-0.005 0.11366,-0.0142 0.22732,-0.0426 0.33624,-0.09 0.0426,-0.0189 0.0852,-0.0426 0.12787,-0.0663 l 14.05646,-8.11278 c 0.0189,-0.0142 0.0379,-0.0237 0.0568,-0.0379 0.005,0 0.005,0 0.005,-0.005 0.0142,-0.005 0.0284,-0.0142 0.0379,-0.0237 0.009,-0.005 0.0189,-0.009 0.0237,-0.0189 0.009,-0.005 0.0189,-0.009 0.0284,-0.0189 0.0142,-0.009 0.0284,-0.0237 0.0426,-0.0379 h 0.005 c 0.20365,-0.17523 0.33625,-0.41202 0.38834,-0.66303 -0.0521,-0.251 -0.18469,-0.48307 -0.38834,-0.65829 v -0.005 c -0.0142,-0.0142 -0.0331,-0.0237 -0.0474,-0.0379 -0.009,-0.005 -0.0189,-0.0142 -0.0284,-0.0189 -0.009,-0.005 -0.0142,-0.0142 -0.0237,-0.0189 -0.009,-0.009 -0.0237,-0.0142 -0.0331,-0.0237 -0.005,0 -0.009,-0.005 -0.009,-0.005 -0.0189,-0.0142 -0.0379,-0.0237 -0.0568,-0.0332 l -6.52133,-3.76508 -0.46411,-0.30784 0.46411,-0.1847 6.52133,-3.76508 c 0.0189,-0.0142 0.0379,-0.0237 0.0568,-0.0379 0.005,0 0.005,0 0.005,-0.005 0.0142,-0.005 0.0284,-0.0142 0.0379,-0.0237 0.009,-0.005 0.0189,-0.009 0.0237,-0.0189 0.009,-0.005 0.0189,-0.009 0.0284,-0.0189 0.0142,-0.009 0.0284,-0.0237 0.0426,-0.0379 h 0.005 c 0.20365,-0.17523 0.33625,-0.41202 0.38834,-0.66302 -0.0521,-0.251 -0.18469,-0.48306 -0.38834,-0.65829 v -0.005 c -0.0142,-0.0142 -0.0332,-0.0237 -0.0474,-0.0379 -0.009,-0.005 -0.0189,-0.0142 -0.0284,-0.0189 -0.009,-0.005 -0.0142,-0.0142 -0.0237,-0.0189 -0.009,-0.009 -0.0237,-0.0142 -0.0331,-0.0237 -0.005,0 -0.009,-0.005 -0.009,-0.005 -0.0189,-0.0142 -0.0379,-0.0237 -0.0568,-0.0332 l -14.05688,-8.11695 c -0.0426,-0.0237 -0.0853,-0.0426 -0.12787,-0.0616 -0.10892,-0.0474 -0.22258,-0.0758 -0.33624,-0.09 -0.0189,-0.005 -0.0379,-0.005 -0.0521,-0.005 h -0.0142 c -0.0142,-0.005 -0.0284,-0.005 -0.0426,-0.005 h -0.0568 c -0.0142,0 -0.0284,0 -0.0426,0.005 h -0.0142 c -0.0189,0 -0.0379,0 -0.0568,0.005 -0.0947,0.009 -0.18944,0.0332 -0.27942,0.0663 -0.0189,0.009 -0.0331,0.0142 -0.0521,0.0237 -0.0189,0.005 -0.0379,0.0142 -0.0521,0.0237 -0.0284,0.009 -0.0521,0.0237 -0.0805,0.0379 l -7.19857,4.15814 -7.2033,-4.15814 c -0.0237,-0.0142 -0.0474,-0.0284 -0.0758,-0.0379 -0.0189,-0.009 -0.0331,-0.0189 -0.0521,-0.0237 -0.0189,-0.009 -0.0331,-0.0142 -0.0521,-0.0237 -0.0947,-0.0332 -0.1847,-0.0568 -0.27942,-0.0663 -0.0189,-0.005 -0.0379,-0.005 -0.0568,-0.005 h -0.0142 c -0.0142,-0.005 -0.0284,-0.005 -0.0426,-0.005 h -0.0568 z"
       id="path55"
       style="fill:url(#h)"
       inkscape:connector-curvature="0" />
    <path
       d="m 266.42302,-166.62824 c -0.0142,0 -0.0284,0 -0.0426,0.005 h -0.0142 c -0.0189,0 -0.0379,0 -0.0568,0.005 -0.10893,0.0142 -0.22258,0.0426 -0.33152,0.09 -0.0426,0.0189 -0.0852,0.0379 -0.12787,0.0616 l -14.05646,8.11731 c -0.0189,0.009 -0.0379,0.0189 -0.0568,0.0332 -0.005,0 -0.005,0.005 -0.009,0.005 -0.009,0.009 -0.0237,0.0142 -0.0331,0.0237 -0.009,0.005 -0.019,0.0142 -0.0237,0.0189 -0.009,0.005 -0.019,0.0142 -0.0284,0.0189 -0.0142,0.0142 -0.0331,0.0237 -0.0474,0.0379 v 0.005 c -0.20364,0.17523 -0.33624,0.40729 -0.38834,0.65829 0.0142,0.0805 0.0379,0.15155 0.071,0.22733 0.071,-0.16576 0.17523,-0.31257 0.31731,-0.43571 0.0142,-0.0142 0.0332,-0.0284 0.0474,-0.0426 0.009,-0.005 0.0189,-0.0142 0.0284,-0.0189 0.005,-0.005 0.0142,-0.009 0.0237,-0.0189 0.009,-0.005 0.0237,-0.0142 0.0331,-0.0237 0.005,0 0.005,0 0.009,-0.005 0.0189,-0.009 0.0379,-0.0237 0.0568,-0.0332 l 14.05646,-8.11267 c 0.0426,-0.0284 0.0853,-0.0474 0.12788,-0.0663 0.10892,-0.0474 0.22258,-0.0758 0.33151,-0.09 0.0189,0 0.0379,-0.005 0.0568,-0.005 h 0.0142 c 0.0142,0 0.0284,-0.005 0.0426,-0.005 h 0.0568 c 0.0142,0.005 0.0284,0.005 0.0426,0.005 h 0.0142 c 0.0189,0 0.0379,0.005 0.0568,0.005 0.0947,0.009 0.1847,0.0332 0.27942,0.0663 0.0189,0.009 0.0332,0.0142 0.0521,0.0237 0.0189,0.009 0.0332,0.0142 0.0521,0.0237 0.0284,0.0142 0.0521,0.0284 0.0758,0.0426 l 7.2033,4.15341 7.19857,-4.15341 c 0.0284,-0.0142 0.0521,-0.0284 0.0805,-0.0426 0.0142,-0.009 0.0331,-0.0142 0.0521,-0.0237 0.0189,-0.009 0.0331,-0.0142 0.0521,-0.0237 0.09,-0.0332 0.1847,-0.0568 0.27942,-0.0663 0.0189,0 0.0379,-0.005 0.0568,-0.005 h 0.0142 c 0.0142,0 0.0284,0 0.0426,-0.005 h 0.0568 c 0.0142,0 0.0284,0.005 0.0426,0.005 h 0.0142 c 0.0142,0 0.0331,0.005 0.0521,0.005 0.11366,0.0142 0.22733,0.0426 0.33625,0.09 0.0426,0.0189 0.0852,0.0379 0.12787,0.0663 l 14.05646,8.1126 c 0.0189,0.009 0.0379,0.0237 0.0568,0.0331 0,0.005 0.005,0.005 0.009,0.005 0.009,0.009 0.0237,0.0189 0.0332,0.0237 0.009,0.009 0.0142,0.0142 0.0237,0.0189 0.009,0.005 0.0189,0.0142 0.0284,0.0189 0.0142,0.0142 0.0331,0.0284 0.0474,0.0426 0.14208,0.12313 0.24626,0.26995 0.31731,0.43571 0.0284,-0.0758 0.0521,-0.14681 0.071,-0.22733 -0.0521,-0.251 -0.1847,-0.48306 -0.38834,-0.65829 v -0.005 c -0.0142,-0.0142 -0.0331,-0.0237 -0.0474,-0.0379 -0.009,-0.005 -0.0189,-0.0142 -0.0284,-0.0189 -0.009,-0.005 -0.0142,-0.0142 -0.0237,-0.0189 -0.009,-0.009 -0.0237,-0.0142 -0.0331,-0.0237 -0.005,0 -0.009,-0.005 -0.009,-0.005 -0.0189,-0.0142 -0.0379,-0.0237 -0.0568,-0.0332 l -14.05648,-8.11725 c -0.0426,-0.0237 -0.0853,-0.0426 -0.12787,-0.0616 -0.10893,-0.0474 -0.22258,-0.0758 -0.33625,-0.09 -0.0189,-0.005 -0.0379,-0.005 -0.0521,-0.005 h -0.0142 c -0.0142,-0.005 -0.0284,-0.005 -0.0426,-0.005 h -0.0568 c -0.0142,0 -0.0284,0 -0.0426,0.005 h -0.0142 c -0.0189,0 -0.0379,0 -0.0568,0.005 -0.0947,0.009 -0.18943,0.0332 -0.27942,0.0663 -0.0189,0.009 -0.0332,0.0142 -0.0521,0.0237 -0.0189,0.005 -0.0379,0.0142 -0.0521,0.0237 -0.0284,0.009 -0.0521,0.0237 -0.0805,0.0379 l -7.19856,4.15814 -7.2033,-4.15814 c -0.0237,-0.0142 -0.0474,-0.0284 -0.0758,-0.0379 -0.0189,-0.009 -0.0331,-0.0189 -0.0521,-0.0237 -0.0189,-0.009 -0.0331,-0.0142 -0.0521,-0.0237 -0.0947,-0.0332 -0.1847,-0.0568 -0.27942,-0.0663 -0.0189,-0.005 -0.0379,-0.005 -0.0568,-0.005 h -0.0142 c -0.0142,-0.005 -0.0284,-0.005 -0.0426,-0.005 h -0.0568 z m -8.06992,14.11344 -0.0379,0.0284 -6.52133,3.76508 c -0.0189,0.009 -0.0379,0.0189 -0.0568,0.0332 -0.005,0 -0.005,0.005 -0.009,0.005 -0.009,0.009 -0.0237,0.0142 -0.0331,0.0237 -0.009,0.005 -0.0189,0.0142 -0.0237,0.0189 -0.009,0.005 -0.0189,0.0142 -0.0284,0.0189 -0.0142,0.0142 -0.0331,0.0237 -0.0474,0.0379 v 0.005 c -0.20365,0.17523 -0.33625,0.40729 -0.38834,0.65829 0.0142,0.0758 0.0379,0.15155 0.071,0.22733 0.071,-0.16576 0.17522,-0.31257 0.3173,-0.43571 0.0142,-0.0142 0.0331,-0.0284 0.0474,-0.0426 0.009,-0.005 0.019,-0.0142 0.0284,-0.0189 0.005,-0.005 0.0142,-0.009 0.0237,-0.0189 0.009,-0.005 0.0237,-0.0142 0.0332,-0.0237 0.005,0 0.005,0 0.009,-0.005 0.0189,-0.009 0.0379,-0.0237 0.0568,-0.0331 l 6.52133,-3.76511 0.46411,-0.3031 z m 31.80587,0 -0.42623,0.17523 0.46412,0.3031 6.52133,3.76508 c 0.0189,0.009 0.0379,0.0237 0.0568,0.0332 0,0.005 0.005,0.005 0.009,0.005 0.009,0.009 0.0237,0.0189 0.0331,0.0237 0.009,0.009 0.0142,0.0142 0.0237,0.0189 0.009,0.005 0.0189,0.0142 0.0284,0.0189 0.0142,0.0142 0.0331,0.0284 0.0474,0.0426 0.14208,0.12313 0.24626,0.26995 0.3173,0.4357 0.0284,-0.0758 0.0521,-0.15154 0.071,-0.22732 -0.0521,-0.251 -0.18469,-0.48306 -0.38834,-0.65829 v -0.005 c -0.0142,-0.0142 -0.0331,-0.0237 -0.0474,-0.0379 -0.009,-0.005 -0.0189,-0.0142 -0.0284,-0.0189 -0.009,-0.005 -0.0142,-0.0142 -0.0237,-0.0189 -0.009,-0.009 -0.0237,-0.0142 -0.0331,-0.0237 -0.005,0 -0.009,-0.005 -0.009,-0.005 -0.0189,-0.0142 -0.0379,-0.0237 -0.0568,-0.0332 l -6.52133,-3.76508 z"
       id="path57"
       inkscape:connector-curvature="0"
       style="fill:#fafafa;fill-opacity:0.78431" />
    <path
       d="m 274.27951,-162.18614 h -0.0853 c -0.0189,0.005 -0.0331,0.005 -0.0521,0.005 -0.11366,0.0142 -0.22732,0.0426 -0.33625,0.09 -0.0426,0.0189 -0.0852,0.0426 -0.12787,0.0663 l -14.05561,8.11258 c -0.0189,0.0142 -0.0379,0.0237 -0.0568,0.0379 0,0 -0.005,0 -0.009,0.005 -0.009,0.005 -0.0237,0.0142 -0.0331,0.0237 -0.009,0.005 -0.0189,0.009 -0.0237,0.0142 -0.009,0.009 -0.0189,0.0142 -0.0284,0.0237 -0.0142,0.009 -0.0332,0.0237 -0.0474,0.0379 -0.25574,0.22258 -0.40254,0.53989 -0.41202,0.8714 v 0.0758 c 0.009,0.32678 0.15628,0.64408 0.41202,0.86667 l 0.005,0.005 c 0.0142,0.009 0.0284,0.0237 0.0426,0.0379 0.009,0.005 0.0189,0.009 0.0284,0.0189 0.005,0.005 0.0142,0.009 0.0237,0.0189 0.009,0.005 0.0237,0.0142 0.0379,0.0237 0.0237,0.0142 0.0426,0.0237 0.0616,0.0379 l 14.05561,8.11259 c 0.0426,0.0284 0.0853,0.0474 0.12787,0.0663 0.10893,0.0474 0.22258,0.0758 0.33625,0.09 0.0189,0 0.0331,0.005 0.0521,0.005 h 0.0142 c 0.0142,0 0.0284,0 0.0426,0.005 h 0.0568 c 0.0142,-0.005 0.0284,-0.005 0.0426,-0.005 h 0.0142 c 0.0189,0 0.0379,-0.005 0.0568,-0.005 0.0947,-0.009 0.18944,-0.0332 0.27942,-0.0663 0.0189,-0.009 0.0332,-0.0142 0.0521,-0.0237 0.0189,-0.009 0.0379,-0.0142 0.0521,-0.0237 0.0284,-0.0142 0.0521,-0.0284 0.0805,-0.0426 l 14.03743,-8.10315 c 0.0426,-0.0237 0.0852,-0.0521 0.12787,-0.0805 0,0 0.005,-0.005 0.005,-0.005 0.009,-0.009 0.0237,-0.0189 0.0379,-0.0284 l 0.0142,-0.0142 c 0.009,-0.005 0.0142,-0.009 0.0237,-0.0142 0.009,-0.009 0.0189,-0.0189 0.0284,-0.0284 0.005,0 0.005,-0.005 0.009,-0.005 0.23679,-0.22258 0.3694,-0.53042 0.38361,-0.84299 v -0.0379 c 0,0 0,-0.0237 0,-0.0331 v -0.005 c -0.0142,-0.31731 -0.14681,-0.62041 -0.38361,-0.843 l -0.009,-0.009 c -0.009,-0.009 -0.0189,-0.0142 -0.0284,-0.0237 -0.009,-0.009 -0.0142,-0.0142 -0.0237,-0.0189 -0.005,-0.005 -0.009,-0.009 -0.0142,-0.0142 -0.0142,-0.009 -0.0284,-0.0189 -0.0379,-0.0284 -0.005,0 -0.005,0 -0.005,-0.005 -0.0426,-0.0284 -0.0852,-0.0568 -0.12787,-0.0805 l -14.03744,-8.1031 c -0.0284,-0.0142 -0.0521,-0.0284 -0.0805,-0.0426 -0.0142,-0.005 -0.0331,-0.0142 -0.0521,-0.0237 -0.0189,-0.005 -0.0331,-0.0142 -0.0521,-0.0189 -0.09,-0.0332 -0.1847,-0.0568 -0.27942,-0.071 -0.0189,0 -0.0379,0 -0.0568,-0.005 h -0.0853 z"
       id="path59"
       style="fill:url(#i);stroke:#212121;stroke-width:0.341018;stroke-linecap:square;stroke-linejoin:round"
       inkscape:connector-curvature="0" />
    <path
       style="fill:#008080;stroke:none;stroke-width:1px;stroke-linecap:butt;stroke-linejoin:miter;stroke-opacity:1"
       d="m 274.83803,-143.16654 14.3318,-8.81341 -4.3e-4,18.06327 -14.46861,9.01682 z"
       id="path827" />
    <path
       style="fill:#008080;stroke:none;stroke-width:1px;stroke-linecap:butt;stroke-linejoin:miter;stroke-opacity:1"
       d="m 259.4231,-133.38136 15.2785,8.34019 0.13643,-18.12537 -16.05866,-9.17268 z"
       id="path825"
       sodipodi:nodetypes="ccccc" />
    <path
       style="fill:#333333;fill-opacity:1;stroke:none;stroke-width:1px;stroke-linecap:butt;stroke-linejoin:miter;stroke-opacity:1"
       d="m 258.31542,-152.9887 16.52261,-8.97475 15.74068,9.5795 -16.32269,10.42064 z"
       id="path837"
       sodipodi:nodetypes="ccccc" />
    <path
       d="m 266.42279,-166.6282 c -0.0142,0 -0.0284,0 -0.0426,0.005 h -0.0142 c -0.0189,0 -0.0379,0 -0.0568,0.005 -0.10892,0.0142 -0.22258,0.0426 -0.33152,0.09 -0.0426,0.0189 -0.0852,0.0379 -0.12787,0.0616 l -14.05622,8.11744 c -0.019,0.009 -0.0379,0.0189 -0.0568,0.0332 -0.005,0 -0.005,0.005 -0.009,0.005 -0.009,0.009 -0.0237,0.0142 -0.0332,0.0237 -0.009,0.005 -0.0189,0.0142 -0.0237,0.0189 -0.009,0.005 -0.0189,0.0142 -0.0284,0.0189 -0.0142,0.0142 -0.0331,0.0237 -0.0474,0.0379 v 0.005 c -0.20365,0.17523 -0.33625,0.40729 -0.38834,0.6583 0.0521,0.25101 0.1847,0.4878 0.38834,0.66302 0.0189,0.0142 0.0332,0.0284 0.0474,0.0379 0.009,0.009 0.0189,0.0142 0.0237,0.0189 0.009,0.009 0.0189,0.0142 0.0284,0.0189 0.009,0.009 0.0237,0.0189 0.0332,0.0237 l 0.005,0.005 c 0.0189,0.0142 0.0426,0.0237 0.0616,0.0379 l 6.52133,3.76489 0.46413,0.1847 -0.46413,0.30782 -6.52133,3.76489 c -0.0189,0.009 -0.0379,0.0189 -0.0568,0.0332 -0.005,0 -0.005,0.005 -0.009,0.005 -0.009,0.009 -0.0237,0.0142 -0.0331,0.0237 -0.009,0.005 -0.019,0.0142 -0.0237,0.0189 -0.009,0.005 -0.019,0.0142 -0.0284,0.0189 -0.0142,0.0142 -0.0331,0.0237 -0.0474,0.0379 v 0.005 c -0.20364,0.17523 -0.33625,0.40729 -0.38834,0.6583 0.0521,0.251 0.1847,0.4878 0.38834,0.66302 0.019,0.0142 0.0332,0.0284 0.0474,0.0379 0.009,0.009 0.019,0.0142 0.0237,0.0189 0.009,0.009 0.019,0.0142 0.0284,0.0189 0.009,0.009 0.0237,0.0189 0.0331,0.0237 l 0.005,0.005 c 0.0189,0.0142 0.0426,0.0237 0.0616,0.0379 l 14.0562,8.11246 c 0.0426,0.0237 0.0852,0.0474 0.12787,0.0663 0.10893,0.0474 0.22259,0.0758 0.33153,0.09 0.0189,0 0.0379,0 0.0568,0.005 h 0.17049 c 0.0189,-0.005 0.0379,-0.005 0.0568,-0.005 0.0947,-0.0142 0.1847,-0.0379 0.27942,-0.071 0.0189,-0.005 0.0331,-0.0142 0.0521,-0.0189 0.0189,-0.009 0.0331,-0.0189 0.0521,-0.0237 0.0284,-0.0142 0.0521,-0.0284 0.0758,-0.0426 l 7.20315,-4.15798 7.19864,4.15798 c 0.0284,0.0142 0.0521,0.0284 0.0805,0.0426 0.0142,0.005 0.0331,0.0142 0.0521,0.0237 0.0189,0.005 0.0331,0.0142 0.0521,0.0189 0.09,0.0332 0.1847,0.0568 0.27942,0.071 0.0189,0 0.0379,0 0.0568,0.005 h 0.17049 c 0.0142,-0.005 0.0331,-0.005 0.0521,-0.005 0.11366,-0.0142 0.22732,-0.0426 0.33625,-0.09 0.0426,-0.0189 0.0852,-0.0426 0.12787,-0.0663 l 14.05622,-8.11264 c 0.0189,-0.0142 0.0379,-0.0237 0.0568,-0.0379 0.005,0 0.005,0 0.005,-0.005 0.0142,-0.005 0.0284,-0.0142 0.0379,-0.0237 0.009,-0.005 0.0189,-0.009 0.0237,-0.0189 0.009,-0.005 0.0189,-0.009 0.0284,-0.0189 0.0142,-0.009 0.0284,-0.0237 0.0426,-0.0379 h 0.005 c 0.20364,-0.17523 0.33625,-0.41201 0.38834,-0.66302 -0.0521,-0.25101 -0.1847,-0.48305 -0.38834,-0.6583 v -0.005 c -0.0142,-0.0142 -0.0331,-0.0237 -0.0474,-0.0379 -0.009,-0.005 -0.0189,-0.0142 -0.0284,-0.0189 -0.009,-0.005 -0.0142,-0.0142 -0.0237,-0.0189 -0.009,-0.009 -0.0237,-0.0142 -0.0331,-0.0237 -0.005,0 -0.009,-0.005 -0.009,-0.005 -0.0189,-0.0142 -0.0379,-0.0237 -0.0568,-0.0332 l -6.52133,-3.76489 -0.46413,-0.30782 0.46413,-0.1847 6.52133,-3.76489 c 0.0189,-0.0142 0.0379,-0.0237 0.0568,-0.0379 0.005,0 0.005,0 0.005,-0.005 0.0142,-0.005 0.0284,-0.0142 0.0379,-0.0237 0.009,-0.005 0.0189,-0.009 0.0237,-0.0189 0.009,-0.005 0.0189,-0.009 0.0284,-0.0189 0.0142,-0.009 0.0284,-0.0237 0.0426,-0.0379 h 0.005 c 0.20364,-0.17523 0.33625,-0.41201 0.38834,-0.66302 -0.0521,-0.251 -0.1847,-0.48305 -0.38834,-0.6583 v -0.005 c -0.0142,-0.0142 -0.0331,-0.0237 -0.0474,-0.0379 -0.009,-0.005 -0.0189,-0.0142 -0.0284,-0.0189 -0.009,-0.005 -0.0142,-0.0142 -0.0237,-0.0189 -0.009,-0.009 -0.0237,-0.0142 -0.0331,-0.0237 -0.005,0 -0.009,-0.005 -0.009,-0.005 -0.0189,-0.0142 -0.0379,-0.0237 -0.0568,-0.0332 l -14.05665,-8.11727 c -0.0426,-0.0237 -0.0852,-0.0426 -0.12787,-0.0616 -0.10892,-0.0474 -0.22259,-0.0758 -0.33625,-0.09 -0.0189,-0.005 -0.0379,-0.005 -0.0521,-0.005 h -0.0142 c -0.0142,-0.005 -0.0284,-0.005 -0.0426,-0.005 h -0.0568 c -0.0142,0 -0.0284,0 -0.0426,0.005 h -0.0142 c -0.0189,0 -0.0379,0 -0.0568,0.005 -0.0947,0.009 -0.18943,0.0332 -0.27941,0.0663 -0.0189,0.009 -0.0332,0.0142 -0.0521,0.0237 -0.0189,0.005 -0.0379,0.0142 -0.0521,0.0237 -0.0284,0.009 -0.0521,0.0237 -0.0805,0.0379 l -7.19864,4.15798 -7.20315,-4.15798 c -0.0237,-0.0142 -0.0474,-0.0284 -0.0758,-0.0379 -0.0189,-0.009 -0.0331,-0.0189 -0.0521,-0.0237 -0.0189,-0.009 -0.0331,-0.0142 -0.0521,-0.0237 -0.0947,-0.0332 -0.1847,-0.0568 -0.27942,-0.0663 -0.0189,-0.005 -0.0379,-0.005 -0.0568,-0.005 h -0.0142 c -0.0142,-0.005 -0.0284,-0.005 -0.0426,-0.005 h -0.0568 z"
       id="path61"
       inkscape:connector-curvature="0"
       style="fill:none;stroke:#212121;stroke-width:0.341029;stroke-linecap:square;stroke-linejoin:round" />
    <path
       d="m 273.66827,-161.96345 h 1.16976 v 18.19557 h -1.16976 z"
       id="path63"
       inkscape:connector-curvature="0"
       style="fill:#1b1b1b;fill-opacity:0.078431" />
    <path
       style="fill:#e6e6e6;stroke:none;stroke-width:1px;stroke-linecap:butt;stroke-linejoin:miter;stroke-opacity:1"
       d="m 258.78277,-152.78938 c -2.39486,-1.51895 -7.04999,-3.99146 -7.18763,-4.96744 l 15.00165,-8.86143 7.07488,4.20464 z"
       id="path829"
       sodipodi:nodetypes="ccccc" />
    <path
       style="fill:#e6e6e6;stroke:none;stroke-width:1px;stroke-linecap:butt;stroke-linejoin:miter;stroke-opacity:1"
       d="m 289.73547,-152.79353 -13.05364,-8.05191 4.8534,-5.65921 15.774,8.95584 z"
       id="path835"
       sodipodi:nodetypes="ccccc" />
    <g
       id="g4331"
       transform="matrix(0.08692256,0,0,0.08692256,291.04183,-156.79446)">
      <path
         inkscape:export-ydpi="111"
         inkscape:export-xdpi="111"
         inkscape:export-filename="/root/path3968.png"
         sodipodi:nodetypes="cccccccccc"
         inkscape:connector-curvature="0"
         id="path3798"
         d="m -337.65283,-11.46074 c 1.60546,-71.45055 64.77577,-92.76725 109.60155,-69.70052 23.01342,-2.82355 55.6085,-2.0524 68.1853,-0.50507 13.17249,-34.74476 66.61642,-33.13214 99.50002,-5.05077 10.6058,10.7835 12.0394,64.65386 -26.264,49.49748 4.3774,4.2339 8.7547,5.55524 13.132,14.64721 6.3928,11.95347 11.0991,23.90694 12.1219,35.86041 0.02,13.8608 -4.4018,27.05307 -11.1117,44.95179 -14.9067,27.32763 -34.9622,50.81867 -68.6904,63.63961 -48.21752,17.04523 -192.11782,12.49377 -196.47467,-133.34014 z"
         style="fill:#ffffff;fill-opacity:1;stroke:#0c0909;stroke-width:1px;stroke-linecap:butt;stroke-linejoin:miter;stroke-opacity:1" />
      <path
         style="opacity:0.103448;fill:#245bcb;fill-opacity:1;stroke:#0c0909;stroke-width:1px;stroke-linecap:butt;stroke-linejoin:miter;stroke-opacity:1"
         d="m -337.65283,-11.46074 c 1.60546,-71.45055 64.77577,-92.76725 109.60155,-69.70052 23.01342,-2.82355 55.6085,-2.0524 68.1853,-0.50507 13.17249,-34.74476 66.61642,-33.13214 99.50002,-5.05077 10.6058,10.7835 12.0394,64.65386 -26.264,49.49748 4.3774,4.2339 8.7547,5.55524 13.132,14.64721 6.3928,11.95347 11.0991,23.90694 12.1219,35.86041 0.02,13.8608 -4.4018,27.05307 -11.1117,44.95179 -14.9067,27.32763 -34.9622,50.81867 -68.6904,63.63961 -48.21752,17.04523 -192.11782,12.49377 -196.47467,-133.34014 z"
         id="path3852"
         inkscape:connector-curvature="0"
         sodipodi:nodetypes="cccccccccc"
         inkscape:export-filename="/root/path3968.png"
         inkscape:export-xdpi="111"
         inkscape:export-ydpi="111" />
      <path
         inkscape:export-ydpi="111"
         inkscape:export-xdpi="111"
         inkscape:export-filename="/root/path3968.png"
         sodipodi:nodetypes="cccc"
         inkscape:connector-curvature="0"
         id="path3836"
         d="m -143.91276,-68.91686 c 25.30378,1.99119 31.82021,16.64062 47.18131,26.14141 -17.59869,-11.65211 -25.82129,-37.00534 -36.3655,-40.4061 z"
         style="opacity:0.478927;fill:#000000;stroke:#000000;stroke-width:1px;stroke-linecap:butt;stroke-linejoin:miter;stroke-opacity:1" />
      <path
         inkscape:export-ydpi="111"
         inkscape:export-xdpi="111"
         inkscape:export-filename="/root/path3968.png"
         sodipodi:nodetypes="cscscc"
         inkscape:connector-curvature="0"
         id="path3826"
         d="m -304.40446,-2.37986 c -0.0877,-6.68187 4.34763,-22.09565 15.59471,-21.07489 17.06221,1.54854 49.96076,4.53516 62.49342,-7.43303 -28.56843,7.74579 -42.7663,3.20579 -56.35677,-6.67434 -4.16671,-3.02916 -10.44865,-1.93548 -16.08887,-3.19303 -12.64322,9.62154 -5.52337,23.48721 -5.64249,38.37529 z"
         style="opacity:0.383142;fill:url(#linearGradient3819);fill-opacity:1;stroke:none" />
      <path
         inkscape:export-filename="/root/path3968.png"
         inkscape:export-ydpi="111"
         inkscape:export-xdpi="111"
         sodipodi:nodetypes="cccccc"
         inkscape:connector-curvature="0"
         id="path3787"
         d="m -157.34061,85.51392 12.12184,-5.05077 c -2.57707,13.99714 13.75126,35.05107 40.52865,18.12148 -8.39701,7.75484 -22.26656,14.42332 -34.97282,20.26432 -28.13156,9.79603 -12.01473,5.03497 -46.97209,9.09138 10.19477,-0.29108 45.01381,-8.06873 29.29442,-42.42641 z"
         style="fill:#000000;stroke:#000000;stroke-width:1px;stroke-linecap:butt;stroke-linejoin:miter;stroke-opacity:1" />
      <path
         inkscape:export-ydpi="111"
         inkscape:export-xdpi="111"
         inkscape:export-filename="/root/path3968.png"
         sodipodi:nodetypes="csaaaasaac"
         inkscape:connector-curvature="0"
         id="path3007"
         d="m -328.06958,44.47491 c -9.40355,-24.52462 -15.05279,-60.62473 0,-97.14286 6.18076,-14.99456 21.84865,-26.03176 37.14286,-31.42857 18.8656,-6.65703 42.74349,-8.69267 60,1.42857 10.49633,6.15627 19.9039,19.33324 18.57143,31.42857 -1.1436,10.38087 -11.88933,18.60589 -21.42857,22.85714 -10.44112,4.65317 -26.18191,4.03771 -34.28572,0.71429 -7.39617,-3.03321 -8.71518,-8.61666 -14.28571,-10.71429 -5.81046,-2.18798 -13.78126,-5.37864 -18.57143,-1.42857 -9.61549,7.92913 -5.69979,24.05487 -4.28571,37.14286"
         style="fill:none;stroke:#000000;stroke-width:3.9;stroke-linecap:round;stroke-linejoin:round;stroke-miterlimit:4;stroke-dasharray:none;stroke-opacity:1" />
      <path
         inkscape:export-ydpi="111"
         inkscape:export-xdpi="111"
         inkscape:export-filename="/root/path3968.png"
         sodipodi:nodetypes="ccaaaaaccac"
         inkscape:connector-curvature="0"
         id="path3009"
         d="m -227.71244,-81.23938 c 22.85714,-2.46084 43.92858,-3.23128 66.78572,0 5.81801,-10.26875 11.84557,-18.70548 21.42857,-22.85714 14.41927,-6.24689 32.0122,-4.24288 47.14286,0 12.34562,3.46191 25.87891,9.24345 32.85714,20 6.1398,9.46417 7.55901,22.77545 4.28572,33.57143 -2.10564,6.94483 -7.38381,14.18625 -14.28572,16.42857 -6.04229,1.96304 -18.57143,-4.28572 -18.57143,-4.28572 -13.58204,-5.92053 -24.4985,-19.83781 -34.28571,-37.14285 0,0 -5.629,-8.98226 -10,-8.57143 -6.07145,0.57065 -11.42857,14.28571 -11.42857,14.28571"
         style="fill:none;stroke:#000000;stroke-width:3.9;stroke-linecap:round;stroke-linejoin:miter;stroke-miterlimit:4;stroke-dasharray:none;stroke-opacity:1" />
      <path
         inkscape:export-ydpi="111"
         inkscape:export-xdpi="111"
         inkscape:export-filename="/root/path3968.png"
         sodipodi:nodetypes="casc"
         inkscape:connector-curvature="0"
         id="path3011"
         d="m -89.91658,-38.88731 c 18.78328,8.20116 27.60563,34.34673 27.56129,54.7908 -0.0684,31.51855 -18.68571,64.05785 -42.85714,84.28569 -64.41449,53.9052 -185.31902,30.4429 -223.27557,-57.05619"
         style="fill:none;stroke:#000000;stroke-width:3.9;stroke-linecap:butt;stroke-linejoin:miter;stroke-miterlimit:4;stroke-dasharray:none;stroke-opacity:1" />
      <ellipse
         inkscape:export-ydpi="111"
         inkscape:export-xdpi="111"
         inkscape:export-filename="/root/path3968.png"
         id="path3781"
         style="fill:#000000;fill-opacity:1;stroke:none"
         cx="-112.894"
         cy="10.762609"
         rx="25.253811"
         ry="23.233507" />
      <path
         inkscape:export-ydpi="111"
         inkscape:export-xdpi="111"
         inkscape:export-filename="/root/path3968.png"
         sodipodi:nodetypes="sscs"
         inkscape:connector-curvature="0"
         id="path3785"
         d="m -200.77716,67.33118 c 2.21672,-13.8557 67.68035,-37.78044 74.75128,-23.23351 7.60254,15.6406 -14.93824,36.52585 -23.23351,49.49747 -18.25668,-5.80712 -54.56284,-7.23059 -51.51777,-26.26396 z"
         style="fill:#000000;stroke:#000000;stroke-width:1px;stroke-linecap:butt;stroke-linejoin:miter;stroke-opacity:1" />
      <path
         sodipodi:nodetypes="ssssscccaascccss"
         inkscape:connector-curvature="0"
         id="path3012"
         d="m -274.09653,8.76316 c -15.01564,0.12014 -29.75132,10.87217 -29.3125,32.03125 0.44426,21.42103 22.16826,45.0484 48.5625,46.4375 33.93076,1.78573 47.2587,-26.19631 47.125,-42.53125 -0.11064,-13.51764 -1.49187,-42.43202 -43.1875,-31.4375 -0.38397,0.10125 -0.87289,0.15479 -1.375,0.15625 v 0.0625 c 0.15184,0.154 0.30361,0.30087 0.40625,0.46875 7.73913,2.12317 8.50466,7.82063 7.9375,12.8125 -1.11092,9.77776 -10.94812,20.58377 -20.78125,20.96875 -9.78605,0.38314 -23.51687,-7.90275 -22.25,-19.1875 0.59938,-5.33898 6.93637,-14.65178 18.5,-18.53125 0.11999,-0.003 1.48725,0.0539 3.3125,0.1875 v -0.0625 c -1.0855,-0.36362 -2.01877,-0.68 -2.53125,-0.78125 -2.11234,-0.41732 -4.26116,-0.61091 -6.40625,-0.59375 z"
         style="fill:#000000;fill-opacity:1;stroke:none" />
    </g>
    <path
       style="fill:#e6e6e6;stroke:none;stroke-width:1px;stroke-linecap:butt;stroke-linejoin:miter;stroke-opacity:1"
       d="m 258.77937,-152.33922 14.8889,9.17268 c 0,0 -6.68058,4.38047 -7.30069,4.32588 0,0 -14.88971,-7.83783 -15.08945,-8.85244 -0.19974,-1.01461 7.50124,-4.64612 7.50124,-4.64612 z"
       id="path833"
       sodipodi:nodetypes="ccszc" />
    <path
       style="fill:#e6e6e6;stroke:none;stroke-width:1px;stroke-linecap:butt;stroke-linejoin:miter;stroke-opacity:1"
       d="m 290.57871,-152.38395 6.65518,4.69056 -15.31542,8.83686 -7.08044,-4.31001 z"
       id="path831"
       sodipodi:nodetypes="ccccc" />
  </g>
</svg>
