<?xml version="1.0" encoding="UTF-8" standalone="no"?>
<svg
   viewBox="0 0 24 24"
   width="24"
   height="24"
   version="1.1"
   id="svg10"
   sodipodi:docname="container_3.svg"
   inkscape:version="1.1 (c4e8f9e, 2021-05-24)"
   xmlns:inkscape="http://www.inkscape.org/namespaces/inkscape"
   xmlns:sodipodi="http://sodipodi.sourceforge.net/DTD/sodipodi-0.dtd"
   xmlns="http://www.w3.org/2000/svg"
   xmlns:svg="http://www.w3.org/2000/svg">
  <sodipodi:namedview
     id="namedview12"
     pagecolor="#ffffff"
     bordercolor="#666666"
     borderopacity="1.0"
     inkscape:pageshadow="2"
     inkscape:pageopacity="0.0"
     inkscape:pagecheckerboard="0"
     showgrid="false"
     inkscape:zoom="20.166667"
     inkscape:cx="10.884298"
     inkscape:cy="12.024793"
     inkscape:window-width="1360"
     inkscape:window-height="713"
     inkscape:window-x="0"
     inkscape:window-y="0"
     inkscape:window-maximized="1"
     inkscape:current-layer="svg10" />
  <defs
     id="defs1">
    <style
       type="text/css"
       id="current-color-scheme">
            .ColorScheme-Text {
                color:#eff0f1;
            }
        </style>
  </defs>
  <path
     style="fill:#00ff00;fill-opacity:1;stroke:none"
     d="m 17,13 a 3,1 0 0 0 -3,1 v 5 a 3,1 0 0 0 3,1 3,1 0 0 0 3,-1 v -5 a 3,1 0 0 0 -3,-1 z m -0.1,1 a 3,1 0 0 1 0.1,0 3,1 0 0 1 2,0.257812 V 14.74 A 3,1 0 0 1 17,15 3,1 0 0 1 15,14.7 V 14.2 A 3,1 0 0 1 16.9,14 Z M 15,15.74 a 3,1 0 0 0 2,0.26 3,1 0 0 0 2,-0.26 v 1 A 3,1 0 0 1 17,17 3,1 0 0 1 15,16.7 Z m 0,2 a 3,1 0 0 0 2,0.26 3,1 0 0 0 2,-0.26 v 1 A 3,1 0 0 1 17,19 3,1 0 0 1 15,18.7 Z"
     class="ColorScheme-Text"
     id="path4" />
  <path
     style="fill:currentColor;fill-opacity:1;stroke:none"
     d="m 5,4 v 16 h 8 V 17 H 8 L 6,15 V 12.9 C 6.6,12.7 7,12.1 7,11.5 7,10.9 6.6,10.3 6,10.1 V 8 C 6,6.3 7.3,5 9,5 h 4 c 1.66,0 3,1.34 3,3 v 2.1 c -0.6,0.2 -1,0.8 -1,1.4 6.76e-4,0.2 0,0.3 0.1,0.5 H 17 V 4 Z m 2,14 h 5 v 1 H 7 Z"
     class="ColorScheme-Text"
     id="path6" />
</svg>
