<?xml version="1.0" encoding="UTF-8" standalone="no"?>
<svg
   viewBox="0 0 48 48"
   version="1.1"
   id="svg4"
   sodipodi:docname="container_0.svg"
   inkscape:version="1.1 (c4e8f9e, 2021-05-24)"
   width="48"
   height="48"
   xmlns:inkscape="http://www.inkscape.org/namespaces/inkscape"
   xmlns:sodipodi="http://sodipodi.sourceforge.net/DTD/sodipodi-0.dtd"
   xmlns="http://www.w3.org/2000/svg"
   xmlns:svg="http://www.w3.org/2000/svg">
  <defs
     id="defs8" />
  <sodipodi:namedview
     id="namedview6"
     pagecolor="#ffffff"
     bordercolor="#666666"
     borderopacity="1.0"
     inkscape:pageshadow="2"
     inkscape:pageopacity="0.0"
     inkscape:pagecheckerboard="0"
     showgrid="false"
     inkscape:zoom="20.416667"
     inkscape:cx="12.048979"
     inkscape:cy="12"
     inkscape:window-width="1366"
     inkscape:window-height="702"
     inkscape:window-x="0"
     inkscape:window-y="0"
     inkscape:window-maximized="1"
     inkscape:current-layer="svg4" />
  <path
     d="M 10.25,4 C 6.81,4 4,6.81 4,10.25 v 27.5 C 4,41.19 6.81,44 10.25,44 h 27.5 C 41.19,44 44,41.19 44,37.75 V 10.25 C 44,6.81 41.19,4 37.75,4 Z m 0,2.5 h 27.5 c 2.1,0 3.75,1.65 3.75,3.75 v 27.5 c 0,2.1 -1.65,3.75 -3.75,3.75 H 10.25 C 8.15,41.5 6.5,39.85 6.5,37.75 V 10.25 C 6.5,8.15 8.15,6.5 10.25,6.5"
     fill="#d8dee9"
     id="path2"
     style="fill:#b54a55;fill-opacity:1;stroke-width:2.5" />
</svg>
