<?xml version="1.0" encoding="UTF-8" standalone="no"?>
<svg
   width="16"
   height="16"
   version="1.1"
   id="svg7"
   sodipodi:docname="clock.svg"
   inkscape:version="1.1 (c4e8f9e, 2021-05-24)"
   xmlns:inkscape="http://www.inkscape.org/namespaces/inkscape"
   xmlns:sodipodi="http://sodipodi.sourceforge.net/DTD/sodipodi-0.dtd"
   xmlns="http://www.w3.org/2000/svg"
   xmlns:svg="http://www.w3.org/2000/svg">
  <sodipodi:namedview
     id="namedview9"
     pagecolor="#ffffff"
     bordercolor="#666666"
     borderopacity="1.0"
     inkscape:pageshadow="2"
     inkscape:pageopacity="0.0"
     inkscape:pagecheckerboard="0"
     showgrid="false"
     inkscape:zoom="3.100958"
     inkscape:cx="-29.668251"
     inkscape:cy="11.931797"
     inkscape:window-width="1350"
     inkscape:window-height="702"
     inkscape:window-x="0"
     inkscape:window-y="0"
     inkscape:window-maximized="0"
     inkscape:current-layer="svg7" />
  <defs
     id="defs3">
    <style
       id="current-color-scheme"
       type="text/css">
   .ColorScheme-Text { color:#0db9d7; } .ColorScheme-Highlight { color:#5294e2; }
  </style>
  </defs>
  <path
     style="fill:#c88faf;fill-opacity:1;stroke-width:0.922369"
     class="ColorScheme-Text"
     d="M 8.0000001,0.6210451 A 7.3789551,7.3789551 0 0 0 0.62104475,7.9999996 7.3789551,7.3789551 0 0 0 8.0000001,15.378955 7.3789551,7.3789551 0 0 0 15.378955,7.9999996 7.3789551,7.3789551 0 0 0 8.0000001,0.6210451 Z m -0.115296,1.8447381 h 0.230592 c 0.447119,0 0.807073,0.3599546 0.807073,0.8070737 v 3.8047737 h 3.8047739 c 0.447119,0 0.807074,0.359954 0.807074,0.807073 v 0.230592 c 0,0.447119 -0.359955,0.807073 -0.807074,0.807073 H 8.1152961 7.8847041 c -0.447119,0 -0.807074,-0.359954 -0.807074,-0.807073 V 7.8847036 3.2728569 c 0,-0.4471191 0.359955,-0.8070737 0.807074,-0.8070737 z"
     id="path5" />
</svg>
