<?xml version="1.0" encoding="UTF-8" standalone="no"?>
<svg
   width="16"
   height="16"
   version="1.1"
   id="svg66"
   sodipodi:docname="harddissk.svg"
   inkscape:version="1.1 (c4e8f9e, 2021-05-24)"
   xmlns:inkscape="http://www.inkscape.org/namespaces/inkscape"
   xmlns:sodipodi="http://sodipodi.sourceforge.net/DTD/sodipodi-0.dtd"
   xmlns="http://www.w3.org/2000/svg"
   xmlns:svg="http://www.w3.org/2000/svg">
  <sodipodi:namedview
     id="namedview68"
     pagecolor="#ffffff"
     bordercolor="#666666"
     borderopacity="1.0"
     inkscape:pageshadow="2"
     inkscape:pageopacity="0.0"
     inkscape:pagecheckerboard="0"
     showgrid="false"
     inkscape:zoom="21.38998"
     inkscape:cx="6.9191275"
     inkscape:cy="7.9943973"
     inkscape:window-width="1350"
     inkscape:window-height="702"
     inkscape:window-x="0"
     inkscape:window-y="0"
     inkscape:window-maximized="1"
     inkscape:current-layer="svg66" />
  <defs
     id="defs56">
    <style
       id="current-color-scheme"
       type="text/css">
   .ColorScheme-Text { color:#0db9d7; } .ColorScheme-Highlight { color:#5294e2; }
  </style>
    <linearGradient
       id="arrongin"
       x1="0%"
       x2="0%"
       y1="0%"
       y2="100%">
      <stop
         offset="0%"
         style="stop-color:#dd9b44; stop-opacity:1"
         id="stop3" />
      <stop
         offset="100%"
         style="stop-color:#ad6c16; stop-opacity:1"
         id="stop5" />
    </linearGradient>
    <linearGradient
       id="aurora"
       x1="0%"
       x2="0%"
       y1="0%"
       y2="100%">
      <stop
         offset="0%"
         style="stop-color:#09D4DF; stop-opacity:1"
         id="stop8" />
      <stop
         offset="100%"
         style="stop-color:#9269F4; stop-opacity:1"
         id="stop10" />
    </linearGradient>
    <linearGradient
       id="fitdance"
       x1="0%"
       x2="0%"
       y1="0%"
       y2="100%">
      <stop
         offset="0%"
         style="stop-color:#1AD6AB; stop-opacity:1"
         id="stop13" />
      <stop
         offset="100%"
         style="stop-color:#329DB6; stop-opacity:1"
         id="stop15" />
    </linearGradient>
    <linearGradient
       id="oomox"
       x1="0%"
       x2="0%"
       y1="0%"
       y2="100%">
      <stop
         offset="0%"
         style="stop-color:#efefe7; stop-opacity:1"
         id="stop18" />
      <stop
         offset="100%"
         style="stop-color:#8f8f8b; stop-opacity:1"
         id="stop20" />
    </linearGradient>
    <linearGradient
       id="rainblue"
       x1="0%"
       x2="0%"
       y1="0%"
       y2="100%">
      <stop
         offset="0%"
         style="stop-color:#00F260; stop-opacity:1"
         id="stop23" />
      <stop
         offset="100%"
         style="stop-color:#0575E6; stop-opacity:1"
         id="stop25" />
    </linearGradient>
    <linearGradient
       id="sunrise"
       x1="0%"
       x2="0%"
       y1="0%"
       y2="100%">
      <stop
         offset="0%"
         style="stop-color: #FF8501; stop-opacity:1"
         id="stop28" />
      <stop
         offset="100%"
         style="stop-color: #FFCB01; stop-opacity:1"
         id="stop30" />
    </linearGradient>
    <linearGradient
       id="telinkrin"
       x1="0%"
       x2="0%"
       y1="0%"
       y2="100%">
      <stop
         offset="0%"
         style="stop-color: #b2ced6; stop-opacity:1"
         id="stop33" />
      <stop
         offset="100%"
         style="stop-color: #6da5b7; stop-opacity:1"
         id="stop35" />
    </linearGradient>
    <linearGradient
       id="60spsycho"
       x1="0%"
       x2="0%"
       y1="0%"
       y2="100%">
      <stop
         offset="0%"
         style="stop-color: #df5940; stop-opacity:1"
         id="stop38" />
      <stop
         offset="25%"
         style="stop-color: #d8d15f; stop-opacity:1"
         id="stop40" />
      <stop
         offset="50%"
         style="stop-color: #e9882a; stop-opacity:1"
         id="stop42" />
      <stop
         offset="100%"
         style="stop-color: #279362; stop-opacity:1"
         id="stop44" />
    </linearGradient>
    <linearGradient
       id="90ssummer"
       x1="0%"
       x2="0%"
       y1="0%"
       y2="100%">
      <stop
         offset="0%"
         style="stop-color: #f618c7; stop-opacity:1"
         id="stop47" />
      <stop
         offset="20%"
         style="stop-color: #94ffab; stop-opacity:1"
         id="stop49" />
      <stop
         offset="50%"
         style="stop-color: #fbfd54; stop-opacity:1"
         id="stop51" />
      <stop
         offset="100%"
         style="stop-color: #0f83ae; stop-opacity:1"
         id="stop53" />
    </linearGradient>
  </defs>
  <path
     id="path58"
     style="fill:#0db9d7;fill-opacity:1;stroke-width:0.918734"
     class="ColorScheme-Text"
     d="M 5.1972656 0.65039062 C 4.0413142 0.66371227 3.1954834 0.6222917 2.5039062 1.0039062 C 2.1581224 1.1946906 1.8856538 1.5169099 1.734375 1.9199219 C 1.5830871 2.322943 1.5273436 2.8020812 1.5273438 3.40625 L 1.5273438 12.59375 C 1.5273438 13.197919 1.5830501 13.677066 1.734375 14.080078 C 1.885663 14.48309 2.1581222 14.805319 2.5039062 14.996094 C 3.1954836 15.377663 4.0413234 15.336223 5.1972656 15.349609 L 5.2011719 15.349609 L 9.7988281 15.349609 L 9.8027344 15.349609 C 10.958677 15.336289 11.804516 15.377706 12.496094 14.996094 C 12.841878 14.80531 13.114337 14.48309 13.265625 14.080078 C 13.416747 13.677057 13.472656 13.197919 13.472656 12.59375 L 13.472656 3.40625 C 13.472656 2.8020812 13.416952 2.322943 13.265625 1.9199219 C 13.114357 1.5169099 12.841878 1.1946906 12.496094 1.0039062 C 11.804517 0.62231926 10.958686 0.66373065 9.8027344 0.65039062 L 9.7988281 0.65039062 L 5.2011719 0.65039062 L 5.1972656 0.65039062 z M 7.40625 5.2460938 C 7.5280088 5.243413 7.6500243 5.2459133 7.7714844 5.2539062 C 8.7431653 5.317896 9.6934031 5.7227091 10.425781 6.4550781 L 10.75 6.7792969 L 10.425781 7.1035156 L 10.099609 7.4296875 L 10.097656 7.4296875 L 9.4765625 8.0507812 L 8.828125 7.4003906 L 9.4199219 6.8085938 C 8.2814357 5.9564034 6.7015845 5.9371588 5.5429688 6.8261719 C 4.25969 7.8108437 3.9060637 9.5855251 4.7148438 10.986328 C 5.5236146 12.387141 7.2360741 12.966635 8.7304688 12.347656 C 10.224873 11.72865 11.026071 10.107321 10.607422 8.5449219 L 10.488281 8.1015625 L 11.375 7.8632812 L 11.496094 8.3066406 C 12.032267 10.307543 10.995829 12.406507 9.0820312 13.199219 C 7.1682253 13.99194 4.9537221 13.239234 3.9179688 11.445312 C 2.8822336 9.6513745 3.3409432 7.3586833 4.984375 6.0976562 C 5.7033684 5.545961 6.5539384 5.2648589 7.40625 5.2460938 z M 7.5 8 A 1.3781013 1.3781013 0 0 1 8.8789062 9.3789062 A 1.3781013 1.3781013 0 0 1 7.5 10.755859 A 1.3781013 1.3781013 0 0 1 6.1210938 9.3789062 A 1.3781013 1.3781013 0 0 1 7.5 8 z M 7.5 8.9179688 A 0.45936711 0.45936711 0 0 0 7.0410156 9.3789062 A 0.45936711 0.45936711 0 0 0 7.5 9.8378906 A 0.45936711 0.45936711 0 0 0 7.9589844 9.3789062 A 0.45936711 0.45936711 0 0 0 7.5 8.9179688 z " />
</svg>
