<?xml version="1.0" encoding="UTF-8" standalone="no"?>
<!-- Created with Inkscape (http://www.inkscape.org/) -->

<svg
   xmlns:dc="http://purl.org/dc/elements/1.1/"
   xmlns:cc="http://creativecommons.org/ns#"
   xmlns:rdf="http://www.w3.org/1999/02/22-rdf-syntax-ns#"
   xmlns:svg="http://www.w3.org/2000/svg"
   xmlns="http://www.w3.org/2000/svg"
   xmlns:xlink="http://www.w3.org/1999/xlink"
   xmlns:sodipodi="http://sodipodi.sourceforge.net/DTD/sodipodi-0.dtd"
   xmlns:inkscape="http://www.inkscape.org/namespaces/inkscape"
   width="48px"
   height="48px"
   id="svg7006"
   version="1.1"
   inkscape:version="0.48.3.1 r9886"
   sodipodi:docname="closebox_outline.svg">
  <defs
     id="defs7008">
    <filter
       color-interpolation-filters="sRGB"
       inkscape:collect="always"
       id="filter6889">
      <feGaussianBlur
         inkscape:collect="always"
         stdDeviation="0.42"
         id="feGaussianBlur6891" />
    </filter>
    <linearGradient
       inkscape:collect="always"
       xlink:href="#linearGradient7776"
       id="linearGradient7782"
       x1="48"
       y1="0"
       x2="12"
       y2="30"
       gradientUnits="userSpaceOnUse" />
    <linearGradient
       inkscape:collect="always"
       id="linearGradient7776">
      <stop
         style="stop-color:#ffffff;stop-opacity:1;"
         offset="0"
         id="stop7778" />
      <stop
         style="stop-color:#aaffcc;stop-opacity:0.29341317"
         offset="1"
         id="stop7780" />
    </linearGradient>
    <filter
       color-interpolation-filters="sRGB"
       inkscape:collect="always"
       id="filter7825">
      <feGaussianBlur
         inkscape:collect="always"
         stdDeviation="1.2511243"
         id="feGaussianBlur7827" />
    </filter>
    <linearGradient
       inkscape:collect="always"
       xlink:href="#linearGradient7776"
       id="linearGradient7840"
       gradientUnits="userSpaceOnUse"
       x1="48"
       y1="0"
       x2="12"
       y2="30" />
    <linearGradient
       inkscape:collect="always"
       xlink:href="#linearGradient7776"
       id="linearGradient7848"
       gradientUnits="userSpaceOnUse"
       x1="48"
       y1="0"
       x2="12"
       y2="30" />
    <linearGradient
       inkscape:collect="always"
       xlink:href="#linearGradient7776"
       id="linearGradient7856"
       gradientUnits="userSpaceOnUse"
       x1="48"
       y1="0"
       x2="12"
       y2="30" />
  </defs>
  <sodipodi:namedview
     id="base"
     pagecolor="#050505"
     bordercolor="#666666"
     borderopacity="1.0"
     inkscape:pageopacity="0"
     inkscape:pageshadow="2"
     inkscape:zoom="2.4748737"
     inkscape:cx="25.929825"
     inkscape:cy="24"
     inkscape:current-layer="layer1"
     showgrid="true"
     inkscape:grid-bbox="true"
     inkscape:document-units="px"
     inkscape:window-width="867"
     inkscape:window-height="774"
     inkscape:window-x="235"
     inkscape:window-y="69"
     inkscape:window-maximized="0" />
  <metadata
     id="metadata7011">
    <rdf:RDF>
      <cc:Work
         rdf:about="">
        <dc:format>image/svg+xml</dc:format>
        <dc:type
           rdf:resource="http://purl.org/dc/dcmitype/StillImage" />
        <dc:title></dc:title>
      </cc:Work>
    </rdf:RDF>
  </metadata>
  <g
     id="layer1"
     inkscape:label="Layer 1"
     inkscape:groupmode="layer">
    <g
       transform="translate(0,-1004.3622)"
       id="g8154"
       style="fill:#7ef923;fill-opacity:1">
      <path
         inkscape:connector-curvature="0"
         id="rect7688"
         d="m 39,1004.3622 0,3 3,0 0,3 3,0 0,3 3,0 0,-6 0,-3 -3,0 -6,0 z m 3,6 -3,0 0,3 3,0 0,-3 z"
         style="fill:#7ef923;fill-opacity:1;stroke:none" />
      <path
         style="fill:#7ef923;fill-opacity:1;stroke:none"
         d="m 9,1052.3622 0,-3 -3,0 0,-3 -3,0 0,-3 -3,0 0,6 0,3 3,0 6,0 z m -3,-6 3,0 0,-3 -3,0 0,3 z"
         id="path7838"
         inkscape:connector-curvature="0" />
      <path
         style="fill:#7ef923;fill-opacity:1;stroke:none"
         d="m 0,1013.3622 3,0 0,-3 3,0 0,-3 3,0 0,-3 -6,0 -3,0 0,3 0,6 z m 6,-3 0,3 3,0 0,-3 -3,0 z"
         id="path7846"
         inkscape:connector-curvature="0" />
      <path
         inkscape:connector-curvature="0"
         id="path7854"
         d="m 48,1043.3622 -3,0 0,3 -3,0 0,3 -3,0 0,3 6,0 3,0 0,-3 0,-6 z m -6,3 0,-3 -3,0 0,3 3,0 z"
         style="fill:#7ef923;fill-opacity:1;stroke:none" />
    </g>
  </g>
</svg>
