<?xml version="1.0" encoding="UTF-8" standalone="no"?>
<!-- Created with Inkscape (http://www.inkscape.org/) -->

<svg
   xmlns:dc="http://purl.org/dc/elements/1.1/"
   xmlns:cc="http://creativecommons.org/ns#"
   xmlns:rdf="http://www.w3.org/1999/02/22-rdf-syntax-ns#"
   xmlns:svg="http://www.w3.org/2000/svg"
   xmlns="http://www.w3.org/2000/svg"
   xmlns:sodipodi="http://sodipodi.sourceforge.net/DTD/sodipodi-0.dtd"
   xmlns:inkscape="http://www.inkscape.org/namespaces/inkscape"
   width="48px"
   height="48px"
   id="svg4154"
   version="1.1"
   inkscape:version="0.48.3.1 r9886"
   sodipodi:docname="connect.svg">
  <defs
     id="defs4156">
    <filter
       id="filter6933"
       inkscape:collect="always"
       color-interpolation-filters="sRGB">
      <feGaussianBlur
         id="feGaussianBlur6935"
         stdDeviation="4.2979592"
         inkscape:collect="always" />
    </filter>
    <filter
       color-interpolation-filters="sRGB"
       inkscape:collect="always"
       id="filter5719">
      <feGaussianBlur
         inkscape:collect="always"
         stdDeviation="5.4635921"
         id="feGaussianBlur5721" />
    </filter>
  </defs>
  <sodipodi:namedview
     id="base"
     pagecolor="#ffffff"
     bordercolor="#666666"
     borderopacity="1.0"
     inkscape:pageopacity="0.0"
     inkscape:pageshadow="2"
     inkscape:zoom="0.64"
     inkscape:cx="24"
     inkscape:cy="24"
     inkscape:current-layer="layer1"
     showgrid="true"
     inkscape:grid-bbox="true"
     inkscape:document-units="px"
     inkscape:window-width="648"
     inkscape:window-height="453"
     inkscape:window-x="396"
     inkscape:window-y="36"
     inkscape:window-maximized="0" />
  <metadata
     id="metadata4159">
    <rdf:RDF>
      <cc:Work
         rdf:about="">
        <dc:format>image/svg+xml</dc:format>
        <dc:type
           rdf:resource="http://purl.org/dc/dcmitype/StillImage" />
        <dc:title></dc:title>
      </cc:Work>
    </rdf:RDF>
  </metadata>
  <g
     id="layer1"
     inkscape:label="Layer 1"
     inkscape:groupmode="layer">
    <g
       id="g5723"
       transform="matrix(0.24844727,0,0,0.24844727,14.727399,-186.28713)">
      <g
         style="opacity:0.63320462;filter:url(#filter5719)"
         transform="translate(169.04995,5.6637173e-6)"
         id="g4895">
        <rect
           y="773.95551"
           x="-216.25272"
           height="144.89996"
           width="12.074997"
           id="rect4897"
           style="fill:#000000" />
        <rect
           transform="matrix(0,1,-1,0,0,0)"
           style="fill:#000000"
           id="rect4899"
           width="12.074997"
           height="144.89996"
           x="761.88049"
           y="59.27776" />
        <rect
           y="-918.85547"
           x="47.202766"
           height="144.89996"
           width="12.074997"
           id="rect4901"
           style="fill:#000000"
           transform="scale(-1,-1)" />
        <rect
           transform="matrix(0,-1,1,0,0,0)"
           style="fill:#000000"
           id="rect4903"
           width="12.074997"
           height="144.89996"
           x="-930.93048"
           y="-204.17772" />
      </g>
      <g
         transform="translate(169.04995,-9.7039446e-6)"
         id="g4905">
        <g
           id="g4889">
          <rect
             y="773.95551"
             x="-216.25272"
             height="144.89996"
             width="12.074997"
             id="rect4838"
             style="fill:#000000" />
          <rect
             transform="matrix(0,1,-1,0,0,0)"
             style="fill:#000000"
             id="rect4840"
             width="12.074997"
             height="144.89996"
             x="761.88049"
             y="59.27776" />
          <rect
             y="-918.85547"
             x="47.202766"
             height="144.89996"
             width="12.074997"
             id="rect4842"
             style="fill:#000000"
             transform="scale(-1,-1)" />
          <rect
             transform="matrix(0,-1,1,0,0,0)"
             style="fill:#000000"
             id="rect4844"
             width="12.074997"
             height="144.89996"
             x="-930.93048"
             y="-204.17772" />
        </g>
        <rect
           y="773.95551"
           x="-204.17772"
           height="96.599968"
           width="12.074997"
           id="rect4846"
           style="fill:#525252;fill-opacity:1" />
        <rect
           style="fill:#525252;fill-opacity:1"
           id="rect4848"
           width="12.074997"
           height="96.599968"
           x="-786.03052"
           y="-192.10272"
           transform="matrix(0,-1,1,0,0,0)" />
        <rect
           style="fill:#3b3b3b;fill-opacity:1"
           id="rect4850"
           width="12.074997"
           height="96.599968"
           x="-918.85547"
           y="-167.95273"
           transform="matrix(0,-1,1,0,0,0)" />
        <rect
           transform="scale(-1,-1)"
           y="-918.85553"
           x="59.277767"
           height="96.599968"
           width="12.074997"
           id="rect4852"
           style="fill:#3b3b3b;fill-opacity:1" />
        <rect
           style="fill:#424242;fill-opacity:1"
           id="rect4854"
           width="30"
           height="30"
           x="-33"
           y="9"
           transform="matrix(4.0249989,0,0,4.0249989,-59.277761,749.8055)" />
        <rect
           style="fill:#424242;fill-opacity:1"
           id="rect4856"
           width="3"
           height="12"
           x="-36"
           y="30"
           transform="matrix(4.0249989,0,0,4.0249989,-59.277761,749.8055)" />
        <rect
           style="fill:#424242;fill-opacity:1"
           id="rect4858"
           width="6"
           height="3"
           x="-33"
           y="39"
           transform="matrix(4.0249989,0,0,4.0249989,-59.277761,749.8055)" />
        <rect
           style="fill:#424242;fill-opacity:1"
           id="rect4860"
           width="6"
           height="3"
           x="-9"
           y="6"
           transform="matrix(4.0249989,0,0,4.0249989,-59.277761,749.8055)" />
        <rect
           style="fill:#424242;fill-opacity:1"
           id="rect4862"
           width="3"
           height="12"
           x="-3"
           y="6"
           transform="matrix(4.0249989,0,0,4.0249989,-59.277761,749.8055)" />
        <rect
           style="fill:#ffffff;fill-opacity:1"
           id="rect4864"
           width="3"
           height="3"
           x="-30"
           y="21"
           transform="matrix(4.0249989,0,0,4.0249989,-59.277761,749.8055)" />
        <rect
           style="fill:#ffffff;fill-opacity:1"
           id="rect4866"
           width="3"
           height="3"
           x="-27"
           y="24"
           transform="matrix(4.0249989,0,0,4.0249989,-59.277761,749.8055)" />
        <rect
           style="fill:#ffffff;fill-opacity:1"
           id="rect4868"
           width="3"
           height="3"
           x="-24"
           y="27"
           transform="matrix(4.0249989,0,0,4.0249989,-59.277761,749.8055)" />
        <rect
           style="fill:#ffffff;fill-opacity:1"
           id="rect4870"
           width="3"
           height="3"
           x="-27"
           y="30"
           transform="matrix(4.0249989,0,0,4.0249989,-59.277761,749.8055)" />
        <rect
           style="fill:#ffffff;fill-opacity:1"
           id="rect4872"
           width="3"
           height="3"
           x="-30"
           y="33"
           transform="matrix(4.0249989,0,0,4.0249989,-59.277761,749.8055)" />
        <rect
           style="fill:#ffffff;fill-opacity:1"
           id="rect4887"
           width="12"
           height="3.000001"
           x="-18"
           y="33"
           transform="matrix(4.0249989,0,0,4.0249989,-59.277761,749.8055)" />
      </g>
    </g>
  </g>
</svg>
