<?xml version="1.0" encoding="UTF-8" standalone="no"?>
<!-- Created with Inkscape (http://www.inkscape.org/) -->

<svg
   xmlns:dc="http://purl.org/dc/elements/1.1/"
   xmlns:cc="http://creativecommons.org/ns#"
   xmlns:rdf="http://www.w3.org/1999/02/22-rdf-syntax-ns#"
   xmlns:svg="http://www.w3.org/2000/svg"
   xmlns="http://www.w3.org/2000/svg"
   xmlns:sodipodi="http://sodipodi.sourceforge.net/DTD/sodipodi-0.dtd"
   xmlns:inkscape="http://www.inkscape.org/namespaces/inkscape"
   width="48px"
   height="48px"
   id="svg7006"
   version="1.1"
   inkscape:version="0.48.3.1 r9886"
   sodipodi:docname="Documento nuevo 3">
  <defs
     id="defs7008">
    <filter
       color-interpolation-filters="sRGB"
       inkscape:collect="always"
       id="filter6889">
      <feGaussianBlur
         inkscape:collect="always"
         stdDeviation="0.42"
         id="feGaussianBlur6891" />
    </filter>
  </defs>
  <sodipodi:namedview
     id="base"
     pagecolor="#ffffff"
     bordercolor="#666666"
     borderopacity="1.0"
     inkscape:pageopacity="0.0"
     inkscape:pageshadow="2"
     inkscape:zoom="7"
     inkscape:cx="25.929825"
     inkscape:cy="24"
     inkscape:current-layer="layer1"
     showgrid="true"
     inkscape:grid-bbox="true"
     inkscape:document-units="px"
     inkscape:window-width="867"
     inkscape:window-height="774"
     inkscape:window-x="235"
     inkscape:window-y="69"
     inkscape:window-maximized="0" />
  <metadata
     id="metadata7011">
    <rdf:RDF>
      <cc:Work
         rdf:about="">
        <dc:format>image/svg+xml</dc:format>
        <dc:type
           rdf:resource="http://purl.org/dc/dcmitype/StillImage" />
        <dc:title></dc:title>
      </cc:Work>
    </rdf:RDF>
  </metadata>
  <g
     id="layer1"
     inkscape:label="Layer 1"
     inkscape:groupmode="layer">
    <g
       transform="translate(0,-1004.3622)"
       id="g6967">
      <g
         style="opacity:0.75149704;filter:url(#filter6889)"
         id="g6849">
        <rect
           transform="matrix(0,1,-1,0,0,0)"
           style="fill:#000000"
           id="rect6851"
           width="3"
           height="24"
           x="1007.3622"
           y="-42" />
        <rect
           y="-1037.3622"
           x="-45"
           height="27.000036"
           width="3"
           id="rect6853"
           style="fill:#000000"
           transform="scale(-1,-1)" />
        <rect
           transform="matrix(0,-1,1,0,0,0)"
           style="fill:#000000"
           id="rect6855"
           width="3"
           height="26.999998"
           x="-1049.3622"
           y="6.000001" />
        <rect
           y="1010.3622"
           x="15"
           height="9"
           width="3"
           id="rect6857"
           style="fill:#000000;fill-opacity:1;stroke:none" />
        <rect
           y="1019.3622"
           x="12"
           height="9"
           width="3"
           id="rect6859"
           style="fill:#000000;fill-opacity:1;stroke:none" />
        <rect
           y="1028.3622"
           x="9"
           height="9"
           width="3"
           id="rect6861"
           style="fill:#000000;fill-opacity:1;stroke:none" />
        <rect
           y="1037.3622"
           x="6"
           height="8.9999828"
           width="3"
           id="rect6863"
           style="fill:#000000;fill-opacity:1;stroke:none" />
        <rect
           y="1043.3622"
           x="33"
           height="3"
           width="3"
           id="rect6865"
           style="fill:#000000;fill-opacity:1;stroke:none" />
        <rect
           y="1040.3622"
           x="36"
           height="3"
           width="3"
           id="rect6867"
           style="fill:#000000;fill-opacity:1;stroke:none" />
        <rect
           transform="translate(0,1004.3622)"
           y="6"
           x="12"
           height="3"
           width="3"
           id="rect6869"
           style="fill:#000000;fill-opacity:1;stroke:none" />
        <rect
           y="1019.3622"
           x="6"
           height="3"
           width="6"
           id="rect6871"
           style="fill:#000000;fill-opacity:1;stroke:none" />
        <rect
           transform="translate(0,1004.3622)"
           y="24"
           x="3"
           height="3"
           width="6"
           id="rect6873"
           style="fill:#000000;fill-opacity:1;stroke:none" />
        <rect
           transform="translate(0,1004.3622)"
           y="33"
           x="39"
           height="3"
           width="3"
           id="rect6875"
           style="fill:#000000;fill-opacity:1;stroke:none" />
      </g>
      <g
         id="g6657">
        <rect
           y="-42"
           x="1007.3622"
           height="24"
           width="3"
           id="rect5777"
           style="fill:#000000"
           transform="matrix(0,1,-1,0,0,0)" />
        <rect
           transform="scale(-1,-1)"
           style="fill:#000000"
           id="rect5779"
           width="3"
           height="27.000036"
           x="-45"
           y="-1037.3622" />
        <rect
           y="6.000001"
           x="-1049.3622"
           height="26.999998"
           width="3"
           id="rect5799"
           style="fill:#000000"
           transform="matrix(0,-1,1,0,0,0)" />
        <rect
           style="fill:#000000;fill-opacity:1;stroke:none"
           id="rect5805"
           width="3"
           height="9"
           x="15"
           y="1010.3622" />
        <rect
           style="fill:#000000;fill-opacity:1;stroke:none"
           id="rect6576"
           width="3"
           height="9"
           x="12"
           y="1019.3622" />
        <rect
           style="fill:#000000;fill-opacity:1;stroke:none"
           id="rect6579"
           width="3"
           height="9"
           x="9"
           y="1028.3622" />
        <rect
           style="fill:#000000;fill-opacity:1;stroke:none"
           id="rect6588"
           width="3"
           height="8.9999828"
           x="6"
           y="1037.3622" />
        <rect
           style="fill:#000000;fill-opacity:1;stroke:none"
           id="rect6593"
           width="3"
           height="3"
           x="33"
           y="1043.3622" />
        <rect
           style="fill:#000000;fill-opacity:1;stroke:none"
           id="rect6597"
           width="3"
           height="3"
           x="36"
           y="1040.3622" />
        <rect
           style="fill:#000000;fill-opacity:1;stroke:none"
           id="rect6600"
           width="3"
           height="3"
           x="12"
           y="6"
           transform="translate(0,1004.3622)" />
        <rect
           style="fill:#000000;fill-opacity:1;stroke:none"
           id="rect6605"
           width="6"
           height="3"
           x="6"
           y="1019.3622" />
        <rect
           style="fill:#000000;fill-opacity:1;stroke:none"
           id="rect6607"
           width="6"
           height="3"
           x="3"
           y="24"
           transform="translate(0,1004.3622)" />
        <rect
           style="fill:#000000;fill-opacity:1;stroke:none"
           id="rect6609"
           width="3"
           height="3"
           x="39"
           y="33"
           transform="translate(0,1004.3622)" />
      </g>
      <path
         inkscape:connector-curvature="0"
         id="rect6673"
         transform="translate(0,1004.3622)"
         d="m 18,6 0,9 -3,0 0,9 -3,0 0,9 -3,0 0,9 24,0 0,-3 3,0 0,-3 3,0 0,-3 3,0 0,-27 -24,0 z"
         style="fill:#37483e;fill-opacity:1;stroke:none" />
      <path
         inkscape:connector-curvature="0"
         id="rect6689"
         transform="translate(0,1004.3622)"
         d="m 30,15 0,3 3,0 0,-3 -3,0 z m 3,3 0,3 3,0 0,-3 -3,0 z m 3,3 0,3 3,0 0,-3 -3,0 z m 0,3 -3,0 0,3 3,0 0,-3 z m -3,3 -3,0 0,3 3,0 0,-3 z m -3,3 -3,0 0,3 3,0 0,-3 z"
         style="fill:#e6e6e6;fill-opacity:1;stroke:none" />
      <rect
         y="1040.3622"
         x="18"
         height="3"
         width="12"
         id="rect6778"
         style="fill:#e6e6e6;fill-opacity:1;stroke:none" />
      <rect
         y="1010.3622"
         x="18"
         height="3"
         width="3"
         id="rect6796"
         style="fill:#536c5d;fill-opacity:1;stroke:none" />
      <rect
         y="1019.3622"
         x="15"
         height="3"
         width="3"
         id="rect6836"
         style="fill:#536c5d;fill-opacity:1;stroke:none" />
      <rect
         y="1028.3622"
         x="12"
         height="3"
         width="3"
         id="rect6838"
         style="fill:#536c5d;fill-opacity:1;stroke:none" />
      <rect
         y="1037.3622"
         x="36"
         height="3"
         width="3"
         id="rect6840"
         style="fill:#1c241f;fill-opacity:1;stroke:none" />
      <rect
         style="fill:#1c241f;fill-opacity:1;stroke:none"
         id="rect6845"
         width="3"
         height="3"
         x="33"
         y="1040.3622" />
      <rect
         y="1043.3622"
         x="30"
         height="3"
         width="3"
         id="rect6847"
         style="fill:#1c241f;fill-opacity:1;stroke:none" />
    </g>
  </g>
</svg>
