<?xml version="1.0" encoding="UTF-8" standalone="no"?>
<!-- Created with Inkscape (http://www.inkscape.org/) -->

<svg
   xmlns:dc="http://purl.org/dc/elements/1.1/"
   xmlns:cc="http://creativecommons.org/ns#"
   xmlns:rdf="http://www.w3.org/1999/02/22-rdf-syntax-ns#"
   xmlns:svg="http://www.w3.org/2000/svg"
   xmlns="http://www.w3.org/2000/svg"
   xmlns:sodipodi="http://sodipodi.sourceforge.net/DTD/sodipodi-0.dtd"
   xmlns:inkscape="http://www.inkscape.org/namespaces/inkscape"
   width="48px"
   height="48px"
   id="svg7006"
   version="1.1"
   inkscape:version="0.48.3.1 r9886"
   sodipodi:docname="locked_outline.svg">
  <defs
     id="defs7008">
    <filter
       color-interpolation-filters="sRGB"
       inkscape:collect="always"
       id="filter6889">
      <feGaussianBlur
         inkscape:collect="always"
         stdDeviation="0.42"
         id="feGaussianBlur6891" />
    </filter>
    <filter
       color-interpolation-filters="sRGB"
       inkscape:collect="always"
       id="filter8785">
      <feGaussianBlur
         inkscape:collect="always"
         stdDeviation="0.63"
         id="feGaussianBlur8787" />
    </filter>
  </defs>
  <sodipodi:namedview
     id="base"
     pagecolor="#050505"
     bordercolor="#666666"
     borderopacity="1.0"
     inkscape:pageopacity="0"
     inkscape:pageshadow="2"
     inkscape:zoom="2.4748737"
     inkscape:cx="25.929825"
     inkscape:cy="64.406102"
     inkscape:current-layer="layer1"
     showgrid="true"
     inkscape:grid-bbox="true"
     inkscape:document-units="px"
     inkscape:window-width="867"
     inkscape:window-height="774"
     inkscape:window-x="255"
     inkscape:window-y="214"
     inkscape:window-maximized="0" />
  <metadata
     id="metadata7011">
    <rdf:RDF>
      <cc:Work
         rdf:about="">
        <dc:format>image/svg+xml</dc:format>
        <dc:type
           rdf:resource="http://purl.org/dc/dcmitype/StillImage" />
        <dc:title></dc:title>
      </cc:Work>
    </rdf:RDF>
  </metadata>
  <g
     id="layer1"
     inkscape:label="Layer 1"
     inkscape:groupmode="layer">
    <g
       transform="translate(0,-1004.3622)"
       id="g8789">
      <g
         style="opacity:0.73652697;fill:#000000;filter:url(#filter8785)"
         id="g8618">
        <rect
           style="fill:#000000;fill-opacity:1;stroke:none"
           id="rect8620"
           width="3"
           height="30"
           x="9"
           y="9"
           transform="translate(0,1004.3622)" />
        <rect
           style="fill:#000000;fill-opacity:1;stroke:none"
           id="rect8622"
           width="30"
           height="3"
           x="9"
           y="36"
           transform="translate(0,1004.3622)" />
        <rect
           style="fill:#000000;fill-opacity:1;stroke:none"
           id="rect8624"
           width="3"
           height="30"
           x="36"
           y="9"
           transform="translate(0,1004.3622)" />
        <rect
           style="fill:#000000;fill-opacity:1;stroke:none"
           id="rect8626"
           width="30"
           height="3"
           x="9"
           y="9"
           transform="translate(0,1004.3622)" />
        <path
           inkscape:connector-curvature="0"
           style="fill:#000000;fill-opacity:1;stroke:none"
           d="m 15,15 0,6 3,0 0,3 -3,0 0,3 3,0 0,3 -3,0 0,3 3,0 3,0 0,-3 3,0 0,3 9,0 0,-3 -3,0 0,-3 3,0 0,-3 -6,0 0,3 -6,0 0,-6 12,0 0,-3 0,-3 -3,0 0,3 -3,0 0,-3 -3,0 0,3 -3,0 0,-3 -3,0 -3,0 z"
           transform="translate(0,1004.3622)"
           id="path8628" />
        <rect
           style="fill:#000000;fill-opacity:1;stroke:none"
           id="rect8630"
           width="3"
           height="3"
           x="21"
           y="27"
           transform="translate(0,1004.3622)" />
        <rect
           style="fill:#000000;fill-opacity:1;stroke:none"
           id="rect8632"
           width="3"
           height="9"
           x="27"
           y="18"
           transform="translate(0,1004.3622)" />
        <rect
           style="fill:#000000;fill-opacity:1;stroke:none"
           id="rect8634"
           width="6"
           height="6"
           x="21"
           y="21"
           transform="translate(0,1004.3622)" />
        <path
           inkscape:connector-curvature="0"
           style="fill:#000000;fill-opacity:1;stroke:none"
           d="m 12,12 0,15 0,3 0,3 0,3 24,0 0,-3 0,-21 -3,0 -18,0 -3,0 z m 3,3 6,0 0,3 3,0 0,-3 3,0 0,3 3,0 0,-3 3,0 0,6 -3,0 0,3 3,0 0,3 -3,0 0,3 3,0 0,3 -9,0 0,-3 -3,0 0,3 -6,0 0,-3 3,0 0,-3 -3,0 0,-3 3,0 0,-3 -3,0 0,-6 z"
           transform="translate(0,1004.3622)"
           id="path8636" />
        <rect
           style="fill:#000000;fill-opacity:1;stroke:none"
           id="rect8638"
           width="3"
           height="30"
           x="6"
           y="9"
           transform="translate(0,1004.3622)" />
        <rect
           style="fill:#000000;fill-opacity:1;stroke:none"
           id="rect8640"
           width="30"
           height="3"
           x="9"
           y="39"
           transform="translate(0,1004.3622)" />
        <rect
           style="fill:#000000;fill-opacity:1;stroke:none"
           id="rect8642"
           width="3"
           height="30"
           x="39"
           y="9"
           transform="translate(0,1004.3622)" />
        <rect
           style="fill:#000000;fill-opacity:1;stroke:none"
           id="rect8644"
           width="30"
           height="3"
           x="9"
           y="6"
           transform="translate(0,1004.3622)" />
        <g
           style="fill:#000000"
           id="g8646">
          <rect
             transform="translate(0,1004.3622)"
             y="12"
             x="3"
             height="3"
             width="6"
             id="rect8648"
             style="fill:#000000;fill-opacity:1;stroke:none" />
          <rect
             transform="translate(0,1004.3622)"
             y="18"
             x="3"
             height="3"
             width="6"
             id="rect8650"
             style="fill:#000000;fill-opacity:1;stroke:none" />
          <rect
             transform="translate(0,1004.3622)"
             y="24"
             x="3"
             height="3"
             width="6"
             id="rect8652"
             style="fill:#000000;fill-opacity:1;stroke:none" />
          <rect
             transform="translate(0,1004.3622)"
             y="30"
             x="3"
             height="3"
             width="6"
             id="rect8654"
             style="fill:#000000;fill-opacity:1;stroke:none" />
          <rect
             transform="translate(0,1004.3622)"
             y="3"
             x="12"
             height="6"
             width="3"
             id="rect8656"
             style="fill:#000000;fill-opacity:1;stroke:none" />
          <rect
             transform="translate(0,1004.3622)"
             y="3"
             x="18"
             height="6"
             width="3"
             id="rect8658"
             style="fill:#000000;fill-opacity:1;stroke:none" />
          <rect
             transform="translate(0,1004.3622)"
             y="3"
             x="24"
             height="6"
             width="3"
             id="rect8660"
             style="fill:#000000;fill-opacity:1;stroke:none" />
          <rect
             transform="translate(0,1004.3622)"
             y="3"
             x="30"
             height="6"
             width="3"
             id="rect8662"
             style="fill:#000000;fill-opacity:1;stroke:none" />
          <rect
             transform="translate(0,1004.3622)"
             y="12"
             x="39"
             height="3"
             width="6"
             id="rect8664"
             style="fill:#000000;fill-opacity:1;stroke:none" />
          <rect
             transform="translate(0,1004.3622)"
             y="18"
             x="39"
             height="3"
             width="6"
             id="rect8666"
             style="fill:#000000;fill-opacity:1;stroke:none" />
          <rect
             transform="translate(0,1004.3622)"
             y="24"
             x="39"
             height="3"
             width="6"
             id="rect8668"
             style="fill:#000000;fill-opacity:1;stroke:none" />
          <rect
             transform="translate(0,1004.3622)"
             y="30"
             x="39"
             height="3"
             width="6"
             id="rect8670"
             style="fill:#000000;fill-opacity:1;stroke:none" />
          <rect
             transform="translate(0,1004.3622)"
             y="39"
             x="33"
             height="6"
             width="3"
             id="rect8672"
             style="fill:#000000;fill-opacity:1;stroke:none" />
          <rect
             transform="translate(0,1004.3622)"
             y="39"
             x="27"
             height="6"
             width="3"
             id="rect8674"
             style="fill:#000000;fill-opacity:1;stroke:none" />
          <rect
             transform="translate(0,1004.3622)"
             y="39"
             x="21"
             height="6"
             width="3"
             id="rect8676"
             style="fill:#000000;fill-opacity:1;stroke:none" />
          <rect
             transform="translate(0,1004.3622)"
             y="39"
             x="15"
             height="6"
             width="3"
             id="rect8678"
             style="fill:#000000;fill-opacity:1;stroke:none" />
        </g>
        <rect
           style="fill:#000000;fill-opacity:1;stroke:none"
           id="rect8680"
           width="3"
           height="3"
           x="6"
           y="12"
           transform="translate(0,1004.3622)" />
        <rect
           style="fill:#000000;fill-opacity:1;stroke:none"
           id="rect8682"
           width="3"
           height="3"
           x="6"
           y="18"
           transform="translate(0,1004.3622)" />
        <rect
           style="fill:#000000;fill-opacity:1;stroke:none"
           id="rect8684"
           width="3"
           height="3"
           x="6"
           y="24"
           transform="translate(0,1004.3622)" />
        <rect
           style="fill:#000000;fill-opacity:1;stroke:none"
           id="rect8686"
           width="3"
           height="3"
           x="6"
           y="30"
           transform="translate(0,1004.3622)" />
        <rect
           style="fill:#000000;fill-opacity:1;stroke:none"
           id="rect8688"
           width="3"
           height="3"
           x="15"
           y="39"
           transform="translate(0,1004.3622)" />
        <rect
           style="fill:#000000;fill-opacity:1;stroke:none"
           id="rect8690"
           width="3"
           height="3"
           x="21"
           y="39"
           transform="translate(0,1004.3622)" />
        <rect
           style="fill:#000000;fill-opacity:1;stroke:none"
           id="rect8692"
           width="3"
           height="3"
           x="27"
           y="39"
           transform="translate(0,1004.3622)" />
        <rect
           style="fill:#000000;fill-opacity:1;stroke:none"
           id="rect8694"
           width="3"
           height="3"
           x="33"
           y="39"
           transform="translate(0,1004.3622)" />
        <rect
           style="fill:#000000;fill-opacity:1;stroke:none"
           id="rect8696"
           width="3"
           height="3"
           x="39"
           y="30"
           transform="translate(0,1004.3622)" />
        <rect
           style="fill:#000000;fill-opacity:1;stroke:none"
           id="rect8698"
           width="3"
           height="3"
           x="39"
           y="24"
           transform="translate(0,1004.3622)" />
        <rect
           style="fill:#000000;fill-opacity:1;stroke:none"
           id="rect8700"
           width="3"
           height="3"
           x="39"
           y="18"
           transform="translate(0,1004.3622)" />
        <rect
           style="fill:#000000;fill-opacity:1;stroke:none"
           id="rect8702"
           width="3"
           height="3"
           x="39"
           y="12"
           transform="translate(0,1004.3622)" />
        <rect
           style="fill:#000000;fill-opacity:1;stroke:none"
           id="rect8704"
           width="3"
           height="3"
           x="30"
           y="6"
           transform="translate(0,1004.3622)" />
        <rect
           style="fill:#000000;fill-opacity:1;stroke:none"
           id="rect8706"
           width="3"
           height="3"
           x="24"
           y="6"
           transform="translate(0,1004.3622)" />
        <rect
           style="fill:#000000;fill-opacity:1;stroke:none"
           id="rect8708"
           width="3"
           height="3"
           x="18"
           y="6"
           transform="translate(0,1004.3622)" />
        <rect
           style="fill:#000000;fill-opacity:1;stroke:none"
           id="rect8710"
           width="3"
           height="3"
           x="12"
           y="6"
           transform="translate(0,1004.3622)" />
      </g>
      <g
         id="g8476">
        <rect
           style="fill:#4d4d4d;fill-opacity:1;stroke:none"
           id="rect8299"
           width="3"
           height="30"
           x="9"
           y="9"
           transform="translate(0,1004.3622)" />
        <rect
           style="fill:#4d4d4d;fill-opacity:1;stroke:none"
           id="rect8301"
           width="30"
           height="3"
           x="9"
           y="36"
           transform="translate(0,1004.3622)" />
        <rect
           style="fill:#4d4d4d;fill-opacity:1;stroke:none"
           id="rect8303"
           width="3"
           height="30"
           x="36"
           y="9"
           transform="translate(0,1004.3622)" />
        <rect
           style="fill:#4d4d4d;fill-opacity:1;stroke:none"
           id="rect8305"
           width="30"
           height="3"
           x="9"
           y="9"
           transform="translate(0,1004.3622)" />
        <path
           style="fill:#4d4d4d;fill-opacity:1;stroke:none"
           d="m 15,15 0,6 3,0 0,3 -3,0 0,3 3,0 0,3 -3,0 0,3 3,0 3,0 0,-3 3,0 0,3 9,0 0,-3 -3,0 0,-3 3,0 0,-3 -6,0 0,3 -6,0 0,-6 12,0 0,-3 0,-3 -3,0 0,3 -3,0 0,-3 -3,0 0,3 -3,0 0,-3 -3,0 -3,0 z"
           transform="translate(0,1004.3622)"
           id="rect8307"
           inkscape:connector-curvature="0" />
        <rect
           style="fill:#4d4d4d;fill-opacity:1;stroke:none"
           id="rect8318"
           width="3"
           height="3"
           x="21"
           y="27"
           transform="translate(0,1004.3622)" />
        <rect
           style="fill:#4d4d4d;fill-opacity:1;stroke:none"
           id="rect8327"
           width="3"
           height="9"
           x="27"
           y="18"
           transform="translate(0,1004.3622)" />
        <rect
           style="fill:#008000;fill-opacity:1;stroke:none"
           id="rect8338"
           width="6"
           height="6"
           x="21"
           y="21"
           transform="translate(0,1004.3622)" />
        <path
           style="fill:#ffffff;fill-opacity:1;stroke:none"
           d="m 12,12 0,15 0,3 0,3 0,3 24,0 0,-3 0,-21 -3,0 -18,0 -3,0 z m 3,3 6,0 0,3 3,0 0,-3 3,0 0,3 3,0 0,-3 3,0 0,6 -3,0 0,3 3,0 0,3 -3,0 0,3 3,0 0,3 -9,0 0,-3 -3,0 0,3 -6,0 0,-3 3,0 0,-3 -3,0 0,-3 3,0 0,-3 -3,0 0,-6 z"
           transform="translate(0,1004.3622)"
           id="rect8340"
           inkscape:connector-curvature="0" />
        <rect
           style="fill:#ffffff;fill-opacity:1;stroke:none"
           id="rect8363"
           width="3"
           height="30"
           x="6"
           y="9"
           transform="translate(0,1004.3622)" />
        <rect
           style="fill:#ffffff;fill-opacity:1;stroke:none"
           id="rect8365"
           width="30"
           height="3"
           x="9"
           y="39"
           transform="translate(0,1004.3622)" />
        <rect
           style="fill:#ffffff;fill-opacity:1;stroke:none"
           id="rect8367"
           width="3"
           height="30"
           x="39"
           y="9"
           transform="translate(0,1004.3622)" />
        <rect
           style="fill:#ffffff;fill-opacity:1;stroke:none"
           id="rect8369"
           width="30"
           height="3"
           x="9"
           y="6"
           transform="translate(0,1004.3622)" />
        <g
           id="g8404">
          <rect
             transform="translate(0,1004.3622)"
             y="12"
             x="3"
             height="3"
             width="6"
             id="rect8371"
             style="fill:#808080;fill-opacity:1;stroke:none" />
          <rect
             transform="translate(0,1004.3622)"
             y="18"
             x="3"
             height="3"
             width="6"
             id="rect8373"
             style="fill:#808080;fill-opacity:1;stroke:none" />
          <rect
             transform="translate(0,1004.3622)"
             y="24"
             x="3"
             height="3"
             width="6"
             id="rect8375"
             style="fill:#808080;fill-opacity:1;stroke:none" />
          <rect
             transform="translate(0,1004.3622)"
             y="30"
             x="3"
             height="3"
             width="6"
             id="rect8377"
             style="fill:#808080;fill-opacity:1;stroke:none" />
          <rect
             transform="translate(0,1004.3622)"
             y="3"
             x="12"
             height="6"
             width="3"
             id="rect8379"
             style="fill:#808080;fill-opacity:1;stroke:none" />
          <rect
             transform="translate(0,1004.3622)"
             y="3"
             x="18"
             height="6"
             width="3"
             id="rect8381"
             style="fill:#808080;fill-opacity:1;stroke:none" />
          <rect
             transform="translate(0,1004.3622)"
             y="3"
             x="24"
             height="6"
             width="3"
             id="rect8384"
             style="fill:#808080;fill-opacity:1;stroke:none" />
          <rect
             transform="translate(0,1004.3622)"
             y="3"
             x="30"
             height="6"
             width="3"
             id="rect8386"
             style="fill:#808080;fill-opacity:1;stroke:none" />
          <rect
             transform="translate(0,1004.3622)"
             y="12"
             x="39"
             height="3"
             width="6"
             id="rect8388"
             style="fill:#808080;fill-opacity:1;stroke:none" />
          <rect
             transform="translate(0,1004.3622)"
             y="18"
             x="39"
             height="3"
             width="6"
             id="rect8390"
             style="fill:#808080;fill-opacity:1;stroke:none" />
          <rect
             transform="translate(0,1004.3622)"
             y="24"
             x="39"
             height="3"
             width="6"
             id="rect8392"
             style="fill:#808080;fill-opacity:1;stroke:none" />
          <rect
             transform="translate(0,1004.3622)"
             y="30"
             x="39"
             height="3"
             width="6"
             id="rect8394"
             style="fill:#808080;fill-opacity:1;stroke:none" />
          <rect
             transform="translate(0,1004.3622)"
             y="39"
             x="33"
             height="6"
             width="3"
             id="rect8396"
             style="fill:#808080;fill-opacity:1;stroke:none" />
          <rect
             transform="translate(0,1004.3622)"
             y="39"
             x="27"
             height="6"
             width="3"
             id="rect8398"
             style="fill:#808080;fill-opacity:1;stroke:none" />
          <rect
             transform="translate(0,1004.3622)"
             y="39"
             x="21"
             height="6"
             width="3"
             id="rect8400"
             style="fill:#808080;fill-opacity:1;stroke:none" />
          <rect
             transform="translate(0,1004.3622)"
             y="39"
             x="15"
             height="6"
             width="3"
             id="rect8402"
             style="fill:#808080;fill-opacity:1;stroke:none" />
        </g>
        <rect
           style="fill:#000000;fill-opacity:1;stroke:none"
           id="rect8422"
           width="3"
           height="3"
           x="6"
           y="12"
           transform="translate(0,1004.3622)" />
        <rect
           style="fill:#000000;fill-opacity:1;stroke:none"
           id="rect8424"
           width="3"
           height="3"
           x="6"
           y="18"
           transform="translate(0,1004.3622)" />
        <rect
           style="fill:#000000;fill-opacity:1;stroke:none"
           id="rect8426"
           width="3"
           height="3"
           x="6"
           y="24"
           transform="translate(0,1004.3622)" />
        <rect
           style="fill:#000000;fill-opacity:1;stroke:none"
           id="rect8428"
           width="3"
           height="3"
           x="6"
           y="30"
           transform="translate(0,1004.3622)" />
        <rect
           style="fill:#000000;fill-opacity:1;stroke:none"
           id="rect8430"
           width="3"
           height="3"
           x="15"
           y="39"
           transform="translate(0,1004.3622)" />
        <rect
           style="fill:#000000;fill-opacity:1;stroke:none"
           id="rect8432"
           width="3"
           height="3"
           x="21"
           y="39"
           transform="translate(0,1004.3622)" />
        <rect
           style="fill:#000000;fill-opacity:1;stroke:none"
           id="rect8434"
           width="3"
           height="3"
           x="27"
           y="39"
           transform="translate(0,1004.3622)" />
        <rect
           style="fill:#000000;fill-opacity:1;stroke:none"
           id="rect8436"
           width="3"
           height="3"
           x="33"
           y="39"
           transform="translate(0,1004.3622)" />
        <rect
           style="fill:#000000;fill-opacity:1;stroke:none"
           id="rect8438"
           width="3"
           height="3"
           x="39"
           y="30"
           transform="translate(0,1004.3622)" />
        <rect
           style="fill:#000000;fill-opacity:1;stroke:none"
           id="rect8440"
           width="3"
           height="3"
           x="39"
           y="24"
           transform="translate(0,1004.3622)" />
        <rect
           style="fill:#000000;fill-opacity:1;stroke:none"
           id="rect8442"
           width="3"
           height="3"
           x="39"
           y="18"
           transform="translate(0,1004.3622)" />
        <rect
           style="fill:#000000;fill-opacity:1;stroke:none"
           id="rect8451"
           width="3"
           height="3"
           x="39"
           y="12"
           transform="translate(0,1004.3622)" />
        <rect
           style="fill:#000000;fill-opacity:1;stroke:none"
           id="rect8454"
           width="3"
           height="3"
           x="30"
           y="6"
           transform="translate(0,1004.3622)" />
        <rect
           style="fill:#000000;fill-opacity:1;stroke:none"
           id="rect8456"
           width="3"
           height="3"
           x="24"
           y="6"
           transform="translate(0,1004.3622)" />
        <rect
           style="fill:#000000;fill-opacity:1;stroke:none"
           id="rect8458"
           width="3"
           height="3"
           x="18"
           y="6"
           transform="translate(0,1004.3622)" />
        <rect
           style="fill:#000000;fill-opacity:1;stroke:none"
           id="rect8463"
           width="3"
           height="3"
           x="12"
           y="6"
           transform="translate(0,1004.3622)" />
      </g>
    </g>
  </g>
</svg>
