<?xml version="1.0" encoding="UTF-8" standalone="no"?>
<!-- Created with Inkscape (http://www.inkscape.org/) -->

<svg
   xmlns:dc="http://purl.org/dc/elements/1.1/"
   xmlns:cc="http://creativecommons.org/ns#"
   xmlns:rdf="http://www.w3.org/1999/02/22-rdf-syntax-ns#"
   xmlns:svg="http://www.w3.org/2000/svg"
   xmlns="http://www.w3.org/2000/svg"
   xmlns:sodipodi="http://sodipodi.sourceforge.net/DTD/sodipodi-0.dtd"
   xmlns:inkscape="http://www.inkscape.org/namespaces/inkscape"
   width="48px"
   height="48px"
   id="svg4154"
   version="1.1"
   inkscape:version="0.48.3.1 r9886"
   sodipodi:docname="disc.svg">
  <defs
     id="defs4156">
    <filter
       id="filter6933"
       inkscape:collect="always"
       color-interpolation-filters="sRGB">
      <feGaussianBlur
         id="feGaussianBlur6935"
         stdDeviation="4.2979592"
         inkscape:collect="always" />
    </filter>
    <filter
       color-interpolation-filters="sRGB"
       inkscape:collect="always"
       id="filter5719">
      <feGaussianBlur
         inkscape:collect="always"
         stdDeviation="5.4635921"
         id="feGaussianBlur5721" />
    </filter>
    <filter
       color-interpolation-filters="sRGB"
       inkscape:collect="always"
       id="filter6316">
      <feGaussianBlur
         inkscape:collect="always"
         stdDeviation="1.1178707"
         id="feGaussianBlur6318" />
    </filter>
    <filter
       color-interpolation-filters="sRGB"
       inkscape:collect="always"
       id="filter6759">
      <feGaussianBlur
         inkscape:collect="always"
         stdDeviation="2.8745247"
         id="feGaussianBlur6761" />
    </filter>
    <filter
       color-interpolation-filters="sRGB"
       inkscape:collect="always"
       id="filter7644">
      <feGaussianBlur
         inkscape:collect="always"
         stdDeviation="4.7908745"
         id="feGaussianBlur7646" />
    </filter>
    <filter
       color-interpolation-filters="sRGB"
       inkscape:collect="always"
       id="filter6759-5">
      <feGaussianBlur
         inkscape:collect="always"
         stdDeviation="2.8745247"
         id="feGaussianBlur6761-6" />
    </filter>
    <filter
       color-interpolation-filters="sRGB"
       inkscape:collect="always"
       id="filter9078">
      <feGaussianBlur
         inkscape:collect="always"
         stdDeviation="0.87832718"
         id="feGaussianBlur9080" />
    </filter>
  </defs>
  <sodipodi:namedview
     id="base"
     pagecolor="#ffffff"
     bordercolor="#666666"
     borderopacity="1.0"
     inkscape:pageopacity="0.0"
     inkscape:pageshadow="2"
     inkscape:zoom="1.8101934"
     inkscape:cx="22.017433"
     inkscape:cy="25.570392"
     inkscape:current-layer="layer1"
     showgrid="true"
     inkscape:grid-bbox="true"
     inkscape:document-units="px"
     inkscape:window-width="648"
     inkscape:window-height="488"
     inkscape:window-x="396"
     inkscape:window-y="1"
     inkscape:window-maximized="0" />
  <metadata
     id="metadata4159">
    <rdf:RDF>
      <cc:Work
         rdf:about="">
        <dc:format>image/svg+xml</dc:format>
        <dc:type
           rdf:resource="http://purl.org/dc/dcmitype/StillImage" />
        <dc:title></dc:title>
      </cc:Work>
    </rdf:RDF>
  </metadata>
  <g
     id="layer1"
     inkscape:label="Layer 1"
     inkscape:groupmode="layer">
    <g
       transform="translate(0,-1004.3622)"
       id="g9082">
      <g
         style="opacity:0.53281854;fill:#000000;filter:url(#filter9078)"
         id="g8938">
        <rect
           y="1022.3622"
           x="39"
           height="15"
           width="3"
           id="rect8940"
           style="fill:#000000;fill-opacity:1;stroke:none" />
        <rect
           transform="scale(1,-1)"
           y="-1028.3622"
           x="30"
           height="2.9999826"
           width="3"
           id="rect8942"
           style="fill:#000000;fill-opacity:1;stroke:none" />
        <rect
           y="1022.3622"
           x="30"
           height="3"
           width="3"
           id="rect8944"
           style="fill:#000000;fill-opacity:1;stroke:none" />
        <rect
           y="1019.3622"
           x="9"
           height="3"
           width="3"
           id="rect8946"
           style="fill:#000000;fill-opacity:1;stroke:none" />
        <rect
           y="1046.3622"
           x="9"
           height="3"
           width="6"
           id="rect8948"
           style="fill:#000000;fill-opacity:1;stroke:none" />
        <rect
           y="1046.3622"
           x="6"
           height="3"
           width="3"
           id="rect8950"
           style="fill:#000000;fill-opacity:1;stroke:none" />
        <rect
           y="1043.3622"
           x="15"
           height="3"
           width="18"
           id="rect8952"
           style="fill:#000000;fill-opacity:1;stroke:none" />
        <rect
           y="1046.3622"
           x="33"
           height="3"
           width="3"
           id="rect8954"
           style="fill:#000000;fill-opacity:1;stroke:none" />
        <rect
           y="1046.3622"
           x="36"
           height="3"
           width="6"
           id="rect8956"
           style="fill:#000000;fill-opacity:1;stroke:none" />
        <rect
           y="1013.3622"
           x="24"
           height="3"
           width="3"
           id="rect8958"
           style="fill:#000000;fill-opacity:1;stroke:none" />
        <rect
           y="1013.3622"
           x="21"
           height="3"
           width="3"
           id="rect8960"
           style="fill:#000000;fill-opacity:1;stroke:none" />
        <rect
           transform="scale(1,-1)"
           y="-1019.3622"
           x="9"
           height="3.0000346"
           width="3"
           id="rect8962"
           style="fill:#000000;fill-opacity:1;stroke:none" />
        <rect
           transform="matrix(0,1,-1,0,0,0)"
           y="-9"
           x="1022.3622"
           height="3"
           width="15"
           id="rect8964"
           style="fill:#000000;fill-opacity:1;stroke:none" />
        <rect
           y="1022.3622"
           x="15"
           height="5.9999828"
           width="3"
           id="rect8966"
           style="fill:#000000;fill-opacity:1;stroke:none" />
        <rect
           y="1040.3622"
           x="12"
           height="3"
           width="3"
           id="rect8968"
           style="fill:#000000;fill-opacity:1;stroke:none" />
        <rect
           y="1037.3622"
           x="9"
           height="3"
           width="3"
           id="rect8970"
           style="fill:#000000;fill-opacity:1;stroke:none" />
        <rect
           y="1043.3622"
           x="42"
           height="3"
           width="3"
           id="rect8972"
           style="fill:#000000;fill-opacity:1;stroke:none" />
        <rect
           y="1028.3622"
           x="21"
           height="5.9999828"
           width="6"
           id="rect8974"
           style="fill:#000000;fill-opacity:1;stroke:none" />
        <rect
           transform="matrix(0,1,-1,0,0,0)"
           y="-6"
           x="1043.3622"
           height="3"
           width="2.9999826"
           id="rect8976"
           style="fill:#000000;fill-opacity:1;stroke:none" />
        <rect
           y="1040.3622"
           x="33"
           height="3"
           width="9"
           id="rect8978"
           style="fill:#000000;fill-opacity:1;stroke:none" />
        <rect
           y="1040.3622"
           x="6"
           height="3"
           width="3"
           id="rect8980"
           style="fill:#000000;fill-opacity:1;stroke:none" />
        <rect
           y="1040.3622"
           x="9"
           height="3"
           width="3"
           id="rect8982"
           style="fill:#000000;fill-opacity:1;stroke:none" />
        <rect
           y="1013.3622"
           x="15"
           height="3"
           width="6"
           id="rect8984"
           style="fill:#000000;fill-opacity:1;stroke:none" />
        <rect
           ry="7.1054274e-15"
           transform="translate(0,1004.3622)"
           y="3"
           x="30"
           height="3"
           width="3"
           id="rect8986"
           style="fill:#000000;fill-opacity:1;stroke:none" />
        <rect
           ry="7.1054274e-15"
           y="1007.3622"
           x="33"
           height="3"
           width="12"
           id="rect8988"
           style="fill:#000000;fill-opacity:1;stroke:none" />
        <rect
           ry="7.1054274e-15"
           y="1013.3622"
           x="3"
           height="3"
           width="6"
           id="rect8990"
           style="fill:#000000;fill-opacity:1;stroke:none" />
        <rect
           ry="2.3684483e-15"
           y="1013.3622"
           x="9"
           height="2.9999654"
           width="3"
           id="rect8992"
           style="fill:#000000;fill-opacity:1;stroke:none" />
        <rect
           ry="4.7369513e-15"
           y="1013.3622"
           x="36"
           height="6"
           width="3"
           id="rect8994"
           style="fill:#000000;fill-opacity:1;stroke:none" />
        <rect
           y="1037.3622"
           x="36"
           height="3"
           width="3"
           id="rect8996"
           style="fill:#000000;fill-opacity:1;stroke:none" />
        <rect
           transform="translate(0,1004.3622)"
           y="6"
           x="15"
           height="3"
           width="3"
           id="rect8998"
           style="fill:#000000;fill-opacity:1;stroke:none" />
        <rect
           ry="7.1054274e-15"
           transform="translate(0,1004.3622)"
           y="6"
           x="30"
           height="3"
           width="3"
           id="rect9000"
           style="fill:#000000;fill-opacity:1;stroke:none" />
        <rect
           style="fill:#000000;fill-opacity:1;stroke:none"
           id="rect9002"
           width="6"
           height="3"
           x="12"
           y="1007.3622" />
        <rect
           y="1013.3622"
           x="27"
           height="3"
           width="6"
           id="rect9004"
           style="fill:#000000;fill-opacity:1;stroke:none" />
        <rect
           ry="7.1054274e-15"
           transform="translate(0,1004.3622)"
           y="15"
           x="36"
           height="3"
           width="3"
           id="rect9006"
           style="fill:#000000;fill-opacity:1;stroke:none" />
        <rect
           style="fill:#000000;fill-opacity:1;stroke:none"
           id="rect9008"
           width="9"
           height="3"
           x="3"
           y="1007.3622"
           ry="7.1054274e-15" />
        <rect
           ry="7.1054274e-15"
           transform="translate(0,1004.3622)"
           y="6"
           x="3"
           height="3"
           width="3"
           id="rect9010"
           style="fill:#000000;fill-opacity:1;stroke:none" />
        <rect
           ry="7.1054274e-15"
           transform="translate(0,1004.3622)"
           y="6"
           x="42"
           height="3"
           width="3"
           id="rect9012"
           style="fill:#000000;fill-opacity:1;stroke:none" />
        <rect
           ry="7.1054274e-15"
           transform="translate(0,1004.3622)"
           y="9"
           x="39"
           height="3"
           width="6"
           id="rect9014"
           style="fill:#000000;fill-opacity:1;stroke:none" />
        <rect
           transform="translate(0,1004.3622)"
           y="33"
           x="18"
           height="3"
           width="12"
           id="rect9016"
           style="fill:#000000;fill-opacity:1;stroke:none" />
        <rect
           transform="translate(0,1004.3622)"
           y="30"
           x="30"
           height="3"
           width="3"
           id="rect9018"
           style="fill:#000000;fill-opacity:1;stroke:none" />
        <rect
           transform="translate(0,1004.3622)"
           y="30"
           x="15"
           height="3"
           width="3"
           id="rect9020"
           style="fill:#000000;fill-opacity:1;stroke:none" />
        <rect
           transform="translate(0,1004.3622)"
           y="36"
           x="21"
           height="9"
           width="6"
           id="rect9022"
           style="fill:#000000;fill-opacity:1;stroke:none" />
        <path
           inkscape:connector-curvature="0"
           id="path9024"
           transform="translate(0,1004.3622)"
           d="m 24,12 0,3 0,6 3,0 0,3 0,3 9,0 0,-3 0,-6 0,-6 -9,0 -3,0 z m 6,6 3,0 0,6 -3,0 0,-3 0,-3 z"
           style="fill:#000000;fill-opacity:1;stroke:none" />
        <rect
           transform="translate(0,1004.3622)"
           y="6"
           x="33"
           height="3"
           width="9"
           id="rect9026"
           style="fill:#000000;fill-opacity:1;stroke:none" />
        <rect
           transform="translate(0,1004.3622)"
           y="12"
           x="12"
           height="6"
           width="12"
           id="rect9028"
           style="fill:#000000;fill-opacity:1;stroke:none" />
        <rect
           transform="translate(0,1004.3622)"
           y="18"
           x="9"
           height="15"
           width="6"
           id="rect9030"
           style="fill:#000000;fill-opacity:1;stroke:none" />
        <rect
           transform="translate(0,1004.3622)"
           y="24"
           x="15"
           height="6"
           width="6"
           id="rect9032"
           style="fill:#000000;fill-opacity:1;stroke:none" />
        <rect
           transform="translate(0,1004.3622)"
           y="18"
           x="18"
           height="6"
           width="6"
           id="rect9034"
           style="fill:#000000;fill-opacity:1;stroke:none" />
        <rect
           transform="translate(0,1004.3622)"
           y="21"
           x="24"
           height="3"
           width="3"
           id="rect9036"
           style="fill:#000000;fill-opacity:1;stroke:none" />
        <rect
           transform="translate(0,1004.3622)"
           y="6"
           x="6"
           height="3"
           width="9"
           id="rect9038"
           style="fill:#000000;fill-opacity:1;stroke:none" />
        <rect
           transform="translate(0,1004.3622)"
           y="21"
           x="36"
           height="12"
           width="3"
           id="rect9040"
           style="fill:#000000;fill-opacity:1;stroke:none" />
        <rect
           transform="translate(0,1004.3622)"
           y="18"
           x="36"
           height="3"
           width="3"
           id="rect9042"
           style="fill:#000000;fill-opacity:1;stroke:none" />
        <rect
           transform="translate(0,1004.3622)"
           y="39"
           x="9"
           height="3"
           width="6"
           id="rect9044"
           style="fill:#000000;fill-opacity:1;stroke:none" />
        <rect
           transform="translate(0,1004.3622)"
           y="39"
           x="33"
           height="3"
           width="6"
           id="rect9046"
           style="fill:#000000;fill-opacity:1;stroke:none" />
        <path
           inkscape:connector-curvature="0"
           id="path9048"
           transform="translate(0,1004.3622)"
           d="m 18,27 0,3 0,3 3,0 6,0 3,0 0,-3 3,0 0,-3 -6,0 0,3 -6,0 0,-3 -3,0 z m 15,3 0,3 -3,0 0,3 6,0 0,-3 0,-3 -3,0 z m 6,9 0,3 3,0 0,-3 -3,0 z"
           style="fill:#000000;fill-opacity:1;stroke:none" />
        <rect
           transform="translate(0,1004.3622)"
           y="36"
           x="27"
           height="3"
           width="6"
           id="rect9050"
           style="fill:#000000;fill-opacity:1;stroke:none" />
        <path
           inkscape:connector-curvature="0"
           id="path9052"
           transform="translate(0,1004.3622)"
           d="m 12,33 0,3 3,0 0,3 6,0 0,-3 -3,0 0,-3 -6,0 z"
           style="fill:#000000;fill-opacity:1;stroke:none" />
        <rect
           transform="translate(0,1004.3622)"
           y="39"
           x="6"
           height="3"
           width="3"
           id="rect9054"
           style="fill:#000000;fill-opacity:1;stroke:none" />
        <rect
           transform="translate(0,1004.3622)"
           y="27"
           x="33"
           height="3"
           width="3"
           id="rect9056"
           style="fill:#000000;fill-opacity:1;stroke:none" />
        <rect
           transform="translate(0,1004.3622)"
           y="27"
           x="15"
           height="3"
           width="3"
           id="rect9058"
           style="fill:#000000;fill-opacity:1;stroke:none" />
        <rect
           transform="translate(0,1004.3622)"
           y="9"
           x="12"
           height="3"
           width="3"
           id="rect9060"
           style="fill:#000000;fill-opacity:1;stroke:none" />
        <rect
           transform="translate(0,1004.3622)"
           y="9"
           x="33"
           height="3"
           width="3"
           id="rect9062"
           style="fill:#000000;fill-opacity:1;stroke:none" />
        <rect
           transform="translate(0,1004.3622)"
           y="30"
           x="21"
           height="3"
           width="6"
           id="rect9064"
           style="fill:#000000;fill-opacity:1;stroke:none" />
      </g>
      <g
         id="g8873">
        <rect
           style="fill:#000000;fill-opacity:1;stroke:none"
           id="rect8697"
           width="3"
           height="15"
           x="39"
           y="1022.3622" />
        <rect
           style="fill:#000000;fill-opacity:1;stroke:none"
           id="rect8699"
           width="3"
           height="2.9999826"
           x="30"
           y="-1028.3622"
           transform="scale(1,-1)" />
        <rect
           style="fill:#000000;fill-opacity:1;stroke:none"
           id="rect8701"
           width="3"
           height="3"
           x="30"
           y="1022.3622" />
        <rect
           style="fill:#000000;fill-opacity:1;stroke:none"
           id="rect8703"
           width="3"
           height="3"
           x="9"
           y="1019.3622" />
        <rect
           style="fill:#000000;fill-opacity:1;stroke:none"
           id="rect8705"
           width="6"
           height="3"
           x="9"
           y="1046.3622" />
        <rect
           style="fill:#000000;fill-opacity:1;stroke:none"
           id="rect8707"
           width="3"
           height="3"
           x="6"
           y="1046.3622" />
        <rect
           style="fill:#000000;fill-opacity:1;stroke:none"
           id="rect8709"
           width="18"
           height="3"
           x="15"
           y="1043.3622" />
        <rect
           style="fill:#000000;fill-opacity:1;stroke:none"
           id="rect8711"
           width="3"
           height="3"
           x="33"
           y="1046.3622" />
        <rect
           style="fill:#000000;fill-opacity:1;stroke:none"
           id="rect8713"
           width="6"
           height="3"
           x="36"
           y="1046.3622" />
        <rect
           style="fill:#000000;fill-opacity:1;stroke:none"
           id="rect8717"
           width="3"
           height="3"
           x="24"
           y="1013.3622" />
        <rect
           style="fill:#000000;fill-opacity:1;stroke:none"
           id="rect8719"
           width="3"
           height="3"
           x="21"
           y="1013.3622" />
        <rect
           style="fill:#000000;fill-opacity:1;stroke:none"
           id="rect8721"
           width="3"
           height="3.0000346"
           x="9"
           y="-1019.3622"
           transform="scale(1,-1)" />
        <rect
           style="fill:#000000;fill-opacity:1;stroke:none"
           id="rect8723"
           width="15"
           height="3"
           x="1022.3622"
           y="-9"
           transform="matrix(0,1,-1,0,0,0)" />
        <rect
           style="fill:#000000;fill-opacity:1;stroke:none"
           id="rect8725"
           width="3"
           height="5.9999828"
           x="15"
           y="1022.3622" />
        <rect
           style="fill:#000000;fill-opacity:1;stroke:none"
           id="rect8727"
           width="3"
           height="3"
           x="12"
           y="1040.3622" />
        <rect
           style="fill:#000000;fill-opacity:1;stroke:none"
           id="rect8729"
           width="3"
           height="3"
           x="9"
           y="1037.3622" />
        <rect
           style="fill:#000000;fill-opacity:1;stroke:none"
           id="rect8731"
           width="3"
           height="3"
           x="42"
           y="1043.3622" />
        <rect
           style="fill:#000000;fill-opacity:1;stroke:none"
           id="rect8733"
           width="6"
           height="5.9999828"
           x="21"
           y="1028.3622" />
        <rect
           style="fill:#000000;fill-opacity:1;stroke:none"
           id="rect8735"
           width="2.9999826"
           height="3"
           x="1043.3622"
           y="-6"
           transform="matrix(0,1,-1,0,0,0)" />
        <rect
           style="fill:#000000;fill-opacity:1;stroke:none"
           id="rect8737"
           width="9"
           height="3"
           x="33"
           y="1040.3622" />
        <rect
           style="fill:#000000;fill-opacity:1;stroke:none"
           id="rect8739"
           width="3"
           height="3"
           x="6"
           y="1040.3622" />
        <rect
           style="fill:#000000;fill-opacity:1;stroke:none"
           id="rect8741"
           width="3"
           height="3"
           x="9"
           y="1040.3622" />
        <rect
           style="fill:#000000;fill-opacity:1;stroke:none"
           id="rect8743"
           width="6"
           height="3"
           x="15"
           y="1013.3622" />
        <rect
           style="fill:#000000;fill-opacity:1;stroke:none"
           id="rect8745"
           width="3"
           height="3"
           x="30"
           y="3"
           transform="translate(0,1004.3622)"
           ry="7.1054274e-15" />
        <rect
           style="fill:#000000;fill-opacity:1;stroke:none"
           id="rect8747"
           width="12"
           height="3"
           x="33"
           y="1007.3622"
           ry="7.1054274e-15" />
        <rect
           style="fill:#000000;fill-opacity:1;stroke:none"
           id="rect8749"
           width="6"
           height="3"
           x="3"
           y="1013.3622"
           ry="7.1054274e-15" />
        <rect
           style="fill:#000000;fill-opacity:1;stroke:none"
           id="rect8751"
           width="3"
           height="2.9999654"
           x="9"
           y="1013.3622"
           ry="2.3684483e-15" />
        <rect
           style="fill:#000000;fill-opacity:1;stroke:none"
           id="rect8753"
           width="3"
           height="6"
           x="36"
           y="1013.3622"
           ry="4.7369513e-15" />
        <rect
           style="fill:#000000;fill-opacity:1;stroke:none"
           id="rect8755"
           width="3"
           height="3"
           x="36"
           y="1037.3622" />
        <rect
           style="fill:#000000;fill-opacity:1;stroke:none"
           id="rect8757"
           width="3"
           height="3"
           x="15"
           y="6"
           transform="translate(0,1004.3622)" />
        <rect
           style="fill:#000000;fill-opacity:1;stroke:none"
           id="rect8759"
           width="3"
           height="3"
           x="30"
           y="6"
           transform="translate(0,1004.3622)"
           ry="7.1054274e-15" />
        <rect
           y="1007.3622"
           x="12"
           height="3"
           width="6"
           id="rect8761"
           style="fill:#000000;fill-opacity:1;stroke:none" />
        <rect
           style="fill:#000000;fill-opacity:1;stroke:none"
           id="rect8763"
           width="6"
           height="3"
           x="27"
           y="1013.3622" />
        <rect
           style="fill:#000000;fill-opacity:1;stroke:none"
           id="rect8765"
           width="3"
           height="3"
           x="36"
           y="15"
           transform="translate(0,1004.3622)"
           ry="7.1054274e-15" />
        <rect
           ry="7.1054274e-15"
           y="1007.3622"
           x="3"
           height="3"
           width="9"
           id="rect8767"
           style="fill:#000000;fill-opacity:1;stroke:none" />
        <rect
           style="fill:#000000;fill-opacity:1;stroke:none"
           id="rect8769"
           width="3"
           height="3"
           x="3"
           y="6"
           transform="translate(0,1004.3622)"
           ry="7.1054274e-15" />
        <rect
           style="fill:#000000;fill-opacity:1;stroke:none"
           id="rect8771"
           width="3"
           height="3"
           x="42"
           y="6"
           transform="translate(0,1004.3622)"
           ry="7.1054274e-15" />
        <rect
           style="fill:#000000;fill-opacity:1;stroke:none"
           id="rect8773"
           width="6"
           height="3"
           x="39"
           y="9"
           transform="translate(0,1004.3622)"
           ry="7.1054274e-15" />
        <rect
           style="fill:#000000;fill-opacity:1;stroke:none"
           id="rect8775"
           width="12"
           height="3"
           x="18"
           y="33"
           transform="translate(0,1004.3622)" />
        <rect
           style="fill:#000000;fill-opacity:1;stroke:none"
           id="rect8777"
           width="3"
           height="3"
           x="30"
           y="30"
           transform="translate(0,1004.3622)" />
        <rect
           style="fill:#000000;fill-opacity:1;stroke:none"
           id="rect8779"
           width="3"
           height="3"
           x="15"
           y="30"
           transform="translate(0,1004.3622)" />
        <rect
           style="fill:#c36269;fill-opacity:1;stroke:none"
           id="rect8781"
           width="6"
           height="9"
           x="21"
           y="36"
           transform="translate(0,1004.3622)" />
        <path
           inkscape:connector-curvature="0"
           style="fill:#865f42;fill-opacity:1;stroke:none"
           d="m 24,12 0,3 0,6 3,0 0,3 0,3 9,0 0,-3 0,-6 0,-6 -9,0 -3,0 z m 6,6 3,0 0,6 -3,0 0,-3 0,-3 z"
           transform="translate(0,1004.3622)"
           id="rect8783" />
        <rect
           style="fill:#865f42;fill-opacity:1;stroke:none"
           id="rect8797"
           width="9"
           height="3"
           x="33"
           y="6"
           transform="translate(0,1004.3622)" />
        <rect
           style="fill:#c79767;fill-opacity:1;stroke:none"
           id="rect8803"
           width="12"
           height="6"
           x="12"
           y="12"
           transform="translate(0,1004.3622)" />
        <rect
           style="fill:#c79767;fill-opacity:1;stroke:none"
           id="rect8805"
           width="6"
           height="15"
           x="9"
           y="18"
           transform="translate(0,1004.3622)" />
        <rect
           style="fill:#c79767;fill-opacity:1;stroke:none"
           id="rect8807"
           width="6"
           height="6"
           x="15"
           y="24"
           transform="translate(0,1004.3622)" />
        <rect
           style="fill:#c79767;fill-opacity:1;stroke:none"
           id="rect8809"
           width="6"
           height="6"
           x="18"
           y="18"
           transform="translate(0,1004.3622)" />
        <rect
           style="fill:#c79767;fill-opacity:1;stroke:none"
           id="rect8811"
           width="3"
           height="3"
           x="24"
           y="21"
           transform="translate(0,1004.3622)" />
        <rect
           style="fill:#c79767;fill-opacity:1;stroke:none"
           id="rect8813"
           width="9"
           height="3"
           x="6"
           y="6"
           transform="translate(0,1004.3622)" />
        <rect
           style="fill:#c79767;fill-opacity:1;stroke:none"
           id="rect8815"
           width="3"
           height="12"
           x="36"
           y="21"
           transform="translate(0,1004.3622)" />
        <rect
           style="fill:#c79767;fill-opacity:1;stroke:none"
           id="rect8817"
           width="3"
           height="3"
           x="36"
           y="18"
           transform="translate(0,1004.3622)" />
        <rect
           style="fill:#c79767;fill-opacity:1;stroke:none"
           id="rect8819"
           width="6"
           height="3"
           x="9"
           y="39"
           transform="translate(0,1004.3622)" />
        <rect
           style="fill:#c79767;fill-opacity:1;stroke:none"
           id="rect8821"
           width="6"
           height="3"
           x="33"
           y="39"
           transform="translate(0,1004.3622)" />
        <path
           inkscape:connector-curvature="0"
           style="fill:#784421;fill-opacity:1;stroke:none"
           d="m 18,27 0,3 0,3 3,0 6,0 3,0 0,-3 3,0 0,-3 -6,0 0,3 -6,0 0,-3 -3,0 z m 15,3 0,3 -3,0 0,3 6,0 0,-3 0,-3 -3,0 z m 6,9 0,3 3,0 0,-3 -3,0 z"
           transform="translate(0,1004.3622)"
           id="rect8823" />
        <rect
           style="fill:#784421;fill-opacity:1;stroke:none"
           id="rect8833"
           width="6"
           height="3"
           x="27"
           y="36"
           transform="translate(0,1004.3622)" />
        <path
           inkscape:connector-curvature="0"
           style="fill:#784421;fill-opacity:1;stroke:none"
           d="m 12,33 0,3 3,0 0,3 6,0 0,-3 -3,0 0,-3 -6,0 z"
           transform="translate(0,1004.3622)"
           id="rect8835" />
        <rect
           style="fill:#784421;fill-opacity:1;stroke:none"
           id="rect8843"
           width="3"
           height="3"
           x="6"
           y="39"
           transform="translate(0,1004.3622)" />
        <rect
           style="fill:#c79767;fill-opacity:1;stroke:none"
           id="rect8854"
           width="3"
           height="3"
           x="33"
           y="27"
           transform="translate(0,1004.3622)" />
        <rect
           style="fill:#784421;fill-opacity:1;stroke:none"
           id="rect8856"
           width="3"
           height="3"
           x="15"
           y="27"
           transform="translate(0,1004.3622)" />
        <rect
           style="fill:#c36269;fill-opacity:1;stroke:none"
           id="rect8858"
           width="3"
           height="3"
           x="12"
           y="9"
           transform="translate(0,1004.3622)" />
        <rect
           style="fill:#c36269;fill-opacity:1;stroke:none"
           id="rect8860"
           width="3"
           height="3"
           x="33"
           y="9"
           transform="translate(0,1004.3622)" />
        <rect
           style="fill:#502d16;fill-opacity:1;stroke:none"
           id="rect8862"
           width="6"
           height="3"
           x="21"
           y="30"
           transform="translate(0,1004.3622)" />
      </g>
    </g>
  </g>
</svg>
