<?xml version="1.0" encoding="UTF-8" standalone="no"?>
<svg
   viewBox="0 0 48 48"
   width="48"
   height="48"
   version="1.1"
   id="svg8"
   sodipodi:docname="drive-harddisk.svg"
   inkscape:version="1.1 (c4e8f9e, 2021-05-24)"
   xmlns:inkscape="http://www.inkscape.org/namespaces/inkscape"
   xmlns:sodipodi="http://sodipodi.sourceforge.net/DTD/sodipodi-0.dtd"
   xmlns="http://www.w3.org/2000/svg"
   xmlns:svg="http://www.w3.org/2000/svg">
  <sodipodi:namedview
     id="namedview10"
     pagecolor="#ffffff"
     bordercolor="#666666"
     borderopacity="1.0"
     inkscape:pageshadow="2"
     inkscape:pageopacity="0.0"
     inkscape:pagecheckerboard="0"
     showgrid="false"
     inkscape:zoom="34.708333"
     inkscape:cx="12"
     inkscape:cy="12"
     inkscape:window-width="1912"
     inkscape:window-height="1022"
     inkscape:window-x="0"
     inkscape:window-y="0"
     inkscape:window-maximized="1"
     inkscape:current-layer="svg8" />
  <defs
     id="defs1">
    <style
       type="text/css"
       id="current-color-scheme">
            .ColorScheme-Text {
                color:#eff0f1;
            }
        </style>
  </defs>
  <g
     transform="matrix(2.5,0,0,2.5,-3.5,-3.5)"
     id="g6">
    <path
       style="fill:currentColor;fill-opacity:1;stroke:none"
       d="M 5,3 V 19 H 17 V 3 Z m 4,1 h 4 a 3,3 0 0 1 3,3 v 2.088 a 1.5,1.5 0 0 0 -1,1.412 1.5,1.5 0 0 0 1,1.412 V 14 l -2,2 H 8 L 6,14 V 11.912 A 1.5,1.5 0 0 0 7,10.5 1.5,1.5 0 0 0 6,9.088 V 7 A 3,3 0 0 1 9,4 Z M 7,17 h 4 v 1 H 7 Z m 6,0 h 2 v 1 h -2 z"
       class="ColorScheme-Text"
       id="path4" />
  </g>
</svg>
