<?xml version="1.0" encoding="UTF-8" standalone="no"?>
<svg
   width="48"
   height="48"
   version="1.1"
   id="svg9"
   sodipodi:docname="folder2.svg"
   inkscape:version="1.1 (c4e8f9e, 2021-05-24)"
   xmlns:inkscape="http://www.inkscape.org/namespaces/inkscape"
   xmlns:sodipodi="http://sodipodi.sourceforge.net/DTD/sodipodi-0.dtd"
   xmlns="http://www.w3.org/2000/svg"
   xmlns:svg="http://www.w3.org/2000/svg">
  <sodipodi:namedview
     id="namedview11"
     pagecolor="#ffffff"
     bordercolor="#666666"
     borderopacity="1.0"
     inkscape:pageshadow="2"
     inkscape:pageopacity="0.0"
     inkscape:pagecheckerboard="0"
     showgrid="false"
     inkscape:zoom="5.0520833"
     inkscape:cx="11.975258"
     inkscape:cy="34.441237"
     inkscape:window-width="1366"
     inkscape:window-height="702"
     inkscape:window-x="0"
     inkscape:window-y="0"
     inkscape:window-maximized="1"
     inkscape:current-layer="svg9" />
  <defs
     id="defs3">
    <style
       id="current-color-scheme"
       type="text/css">
   .ColorScheme-Text { color:#dfdfdf; } .ColorScheme-Highlight { color:#4285f4; }
  </style>
  </defs>
  <g
     id="g18058"
     transform="matrix(2.5,0,0,2.5,-6,-7.5)">
    <g
       transform="translate(0,-1028.4)"
       id="g7">
      <path
         style="fill:currentColor"
         class="ColorScheme-Text"
         d="M 5,5 C 4.446,5 4,5.446 4,6 V 8.2832 C 4.2965,8.1077 4.636,8 5,8 H 8.5859 L 10.293,6.293 A 1.0001,1.0001 0 0 1 11,6 h 1 C 12,5.446 11.554,5 11,5 Z M 11,7 9,9 H 5 C 4.446,9 4,9.446 4,10 v 8 c 0,1.108 0.892,2 2,2 h 12 c 1.108,0 2,-0.892 2,-2 V 8 C 20,7.446 19.554,7 19,7 Z m 1,3 3,4 h -2 v 4 H 11 V 14 H 9 Z"
         transform="translate(0,1028.4)"
         id="path5" />
    </g>
    <rect
       style="fill:#dfdfdf;fill-opacity:1;stroke:none;stroke-width:3.96595;stroke-linejoin:round"
       id="rect35"
       width="8.225976"
       height="9.2610502"
       x="9.0489559"
       y="9.4121132" />
  </g>
</svg>
