<?xml version="1.0" encoding="UTF-8" standalone="no"?>
<svg
   xmlns:dc="http://purl.org/dc/elements/1.1/"
   xmlns:cc="http://creativecommons.org/ns#"
   xmlns:rdf="http://www.w3.org/1999/02/22-rdf-syntax-ns#"
   xmlns:svg="http://www.w3.org/2000/svg"
   xmlns="http://www.w3.org/2000/svg"
   xmlns:xlink="http://www.w3.org/1999/xlink"
   xmlns:sodipodi="http://sodipodi.sourceforge.net/DTD/sodipodi-0.dtd"
   xmlns:inkscape="http://www.inkscape.org/namespaces/inkscape"
   viewBox="0 0 48 48"
   width="48pt"
   height="48pt"
   id="svg2"
   version="1.1"
   inkscape:version="0.91 r"
   sodipodi:docname="floppy_mntd.svg">
  <metadata
     id="metadata69">
    <rdf:RDF>
      <cc:Work
         rdf:about="">
        <dc:format>image/svg+xml</dc:format>
        <dc:type
           rdf:resource="http://purl.org/dc/dcmitype/StillImage" />
        <dc:title></dc:title>
      </cc:Work>
    </rdf:RDF>
  </metadata>
  <defs
     id="defs67">
    <linearGradient
       id="s"
       y2="8.3133001"
       xlink:href="#a-1"
       gradientUnits="userSpaceOnUse"
       y1="24.190001"
       x2="13.892"
       x1="13.892" />
    <linearGradient
       id="a-1">
      <stop
         stop-opacity=".27451"
         offset="0"
         id="stop5-6" />
      <stop
         stop-opacity="0"
         offset="1"
         id="stop7-2" />
    </linearGradient>
    <radialGradient
       id="e-6"
       xlink:href="#c-5"
       gradientUnits="userSpaceOnUse"
       cy="189.58"
       cx="450.91"
       gradientTransform="matrix(-2.6e-7,0.1172,0.21096,1.5e-7,-28.086,-11.369)"
       r="21.167" />
    <linearGradient
       id="c-5">
      <stop
         stop-opacity=".31372"
         offset="0"
         id="stop11" />
      <stop
         stop-opacity=".27451"
         offset=".22222"
         id="stop13" />
      <stop
         stop-opacity="0"
         offset="1"
         id="stop15" />
    </linearGradient>
    <radialGradient
       id="f-1"
       xlink:href="#c-5"
       gradientUnits="userSpaceOnUse"
       cy="189.58"
       cx="450.91"
       gradientTransform="matrix(-2.6e-7,-0.1172,0.21096,-1.5e-7,-28.086,95.315)"
       r="21.167" />
    <filter
       style="color-interpolation-filters:sRGB"
       height="1.3590723"
       y="-0.17953613"
       width="1.3064083"
       x="-0.15320417"
       id="filter3899"
       inkscape:collect="always">
      <feGaussianBlur
         id="feGaussianBlur3901"
         stdDeviation="0.60452965"
         inkscape:collect="always" />
    </filter>
    <filter
       style="color-interpolation-filters:sRGB"
       id="filter3794"
       inkscape:collect="always">
      <feGaussianBlur
         id="feGaussianBlur3796"
         stdDeviation="0.26270005"
         inkscape:collect="always" />
    </filter>
    <filter
       style="color-interpolation-filters:sRGB"
       id="filter3816"
       inkscape:collect="always">
      <feGaussianBlur
         id="feGaussianBlur3818"
         stdDeviation="0.336662"
         inkscape:collect="always" />
    </filter>
    <filter
       style="color-interpolation-filters:sRGB"
       height="1.2298709"
       y="-0.11493546"
       width="1.1961565"
       x="-0.098078258"
       id="filter3871"
       inkscape:collect="always">
      <feGaussianBlur
         id="feGaussianBlur3873"
         stdDeviation="0.38700783"
         inkscape:collect="always" />
    </filter>
    <filter
       style="color-interpolation-filters:sRGB"
       height="1.5222751"
       y="-0.26113757"
       width="1.4456748"
       x="-0.22283739"
       id="filter3889"
       inkscape:collect="always">
      <feGaussianBlur
         id="feGaussianBlur3891"
         stdDeviation="0.87929596"
         inkscape:collect="always" />
    </filter>
    <filter
       style="color-interpolation-filters:sRGB"
       id="filter4377"
       inkscape:collect="always">
      <feGaussianBlur
         id="feGaussianBlur4379"
         stdDeviation="0.92716331"
         inkscape:collect="always" />
    </filter>
    <filter
       style="color-interpolation-filters:sRGB"
       id="filter4104"
       inkscape:collect="always">
      <feGaussianBlur
         id="feGaussianBlur4106"
         stdDeviation="0.20218229"
         inkscape:collect="always" />
    </filter>
    <filter
       style="color-interpolation-filters:sRGB"
       id="filter4389"
       inkscape:collect="always">
      <feGaussianBlur
         id="feGaussianBlur4391"
         stdDeviation="0.70633344"
         inkscape:collect="always" />
    </filter>
    <filter
       style="color-interpolation-filters:sRGB"
       height="1.2185705"
       y="-0.10928526"
       width="1.1711894"
       x="-0.085594684"
       id="filter4355"
       inkscape:collect="always">
      <feGaussianBlur
         id="feGaussianBlur4357"
         stdDeviation="0.36923021"
         inkscape:collect="always" />
    </filter>
  </defs>
  <sodipodi:namedview
     pagecolor="#ffffff"
     bordercolor="#666666"
     borderopacity="1"
     objecttolerance="10"
     gridtolerance="10"
     guidetolerance="10"
     inkscape:pageopacity="0"
     inkscape:pageshadow="2"
     inkscape:window-width="640"
     inkscape:window-height="480"
     id="namedview65"
     showgrid="false"
     inkscape:zoom="3.9333333"
     inkscape:cx="25.550847"
     inkscape:cy="30"
     inkscape:window-x="586"
     inkscape:window-y="145"
     inkscape:window-maximized="0"
     inkscape:current-layer="svg2" />
  <linearGradient
     id="a"
     y2="44.035"
     gradientUnits="userSpaceOnUse"
     y1="42.051"
     x2="18.853"
     x1="18.853">
    <stop
       stop-opacity=".27451"
       offset="0"
       id="stop5" />
    <stop
       stop-opacity="0"
       offset="1"
       id="stop7" />
  </linearGradient>
  <linearGradient
     id="b">
    <stop
       stop-opacity=".31372"
       offset="0"
       id="stop10" />
    <stop
       stop-opacity=".27451"
       offset=".22222"
       id="stop12" />
    <stop
       stop-opacity="0"
       offset="1"
       id="stop14" />
  </linearGradient>
  <radialGradient
     id="c"
     xlink:href="#b"
     gradientUnits="userSpaceOnUse"
     cy="189.58"
     cx="450.91"
     gradientTransform="matrix(2.6e-7 -.11720 -.21096 -1.5e-7 77.204 95.393)"
     r="21.167" />
  <radialGradient
     id="d"
     xlink:href="#b"
     gradientUnits="userSpaceOnUse"
     cy="189.58"
     cx="450.91"
     gradientTransform="matrix(-2.6e-7 .11720 .21096 1.5e-7 -29.574 -11.291)"
     r="21.167" />
  <radialGradient
     id="e"
     xlink:href="#b"
     gradientUnits="userSpaceOnUse"
     cy="189.58"
     cx="450.91"
     gradientTransform="matrix(-2.6e-7 -.11720 .21096 -1.5e-7 -29.574 95.393)"
     r="21.167" />
  <radialGradient
     id="f"
     xlink:href="#b"
     gradientUnits="userSpaceOnUse"
     cy="189.58"
     cx="450.91"
     gradientTransform="matrix(2.6e-7 .11720 -.21096 1.5e-7 77.204 -11.291)"
     r="21.167" />
  <linearGradient
     id="g"
     y2="6.3287"
     gradientUnits="userSpaceOnUse"
     y1="42.051"
     x2="24.807"
     x1="24.807">
    <stop
       stop-color="#424242"
       offset="0"
       id="stop21" />
    <stop
       stop-color="#616161"
       offset="1"
       id="stop23" />
  </linearGradient>
  <linearGradient
     id="h"
     y2="6.3287"
     gradientUnits="userSpaceOnUse"
     y1="42.051"
     x2="25.799"
     x1="25.799">
    <stop
       stop-color="#9e9e9e"
       offset="0"
       id="stop26" />
    <stop
       stop-color="#e0e0e0"
       offset="1"
       id="stop28" />
  </linearGradient>
  <linearGradient
     id="i"
     y2="1695.1"
     gradientUnits="userSpaceOnUse"
     y1="935.12"
     x2="960"
     x1="960">
    <stop
       stop-color="#e0e0e0"
       offset="0"
       id="stop31" />
    <stop
       stop-color="#eee"
       offset="1"
       id="stop33" />
  </linearGradient>
  <path
     d="m9.9219 42.051h27.785v1.9844h-27.785z"
     fill="url(#a)"
     id="path35" />
  <path
     d="m37.707 42.051h3.9688v-1.9844h-3.9688z"
     fill="url(#c)"
     id="path37" />
  <path
     d="m9.9219 42.051h-3.9688v1.9844h3.9688z"
     fill="url(#d)"
     id="path39" />
  <path
     d="m9.9219 42.051h-3.9688v-1.9844h3.9688z"
     fill="url(#e)"
     id="path41" />
  <path
     d="m37.707 42.051h3.9688v1.9844h-3.9688z"
     fill="url(#f)"
     id="path43" />
  <path
     d="m7.9375 6.3281h31.754c1.0977 0 1.9844 0.89062 1.9844 1.9844v31.754c0 1.0977-0.88672 1.9844-1.9844 1.9844h-31.754c-1.0938 0-1.9844-0.88672-1.9844-1.9844v-31.754c0-1.0938 0.89062-1.9844 1.9844-1.9844z"
     fill="url(#g)"
     id="path45" />
  <path
     d="m13.891 6.3281v11.906c0 1.1016 0.88672 1.9844 1.9844 1.9844h19.848c1.0977 0 1.9844-0.88281 1.9844-1.9844v-11.906zm15.879 1.9844h3.9688c0.55078 0 0.99219 0.44141 0.99219 0.99219v5.9531c0 0.55078-0.44141 0.99219-0.99219 0.99219h-3.9688c-0.55078 0-0.99219-0.44141-0.99219-0.99219v-5.9531c0-0.55078 0.44141-0.99219 0.99219-0.99219z"
     fill="url(#h)"
     id="path47" />
  <path
     stroke-linejoin="round"
     d="m439.96 935.19c-44.248 0-79.992 35.587-79.992 79.992v679.94h1200v-679.94c0-44.405-35.745-79.992-79.992-79.992zm0 0"
     transform="scale(.024807)"
     stroke="#212121"
     stroke-linecap="round"
     stroke-width="11.339"
     fill="url(#i)"
     id="path49" />
  <path
     stroke-linejoin="round"
     d="m95.241 170h317.51v63.494h-317.51zm0 0"
     transform="matrix(.093759 0 0 .093759 0 20.158)"
     stroke="#212121"
     stroke-linecap="round"
     stroke-width="3"
     fill="#ef5350"
     id="path51" />
  <path
     d="m7.9375 42.051c-1.0977 0-1.9844-0.88672-1.9844-1.9844v-0.49609c0 1.0977 0.88672 1.9844 1.9844 1.9844h31.754c1.0977 0 1.9844-0.88672 1.9844-1.9844v0.49609c0 1.0977-0.88672 1.9844-1.9844 1.9844z"
     fill-opacity=".23529"
     id="path53" />
  <path
     fill-opacity=".31372"
     d="m29.77 7.8477c-0.55078 0-0.99219 0.44141-0.99219 0.99219v0.46484c0-0.55078 0.44141-0.99219 0.99219-0.99219h3.9688c0.55078 0 0.99219 0.44141 0.99219 0.99219v-0.46484c0-0.55078-0.44141-0.99219-0.99219-0.99219zm-15.879 9.9219v0.46484c0 1.1016 0.88672 1.9844 1.9844 1.9844h19.848c1.0977 0 1.9844-0.88281 1.9844-1.9844v-0.46484c0 1.0977-0.88672 1.9844-1.9844 1.9844h-19.848c-1.0977 0-1.9844-0.88672-1.9844-1.9844z"
     fill="#0c0c0c"
     id="path55" />
  <path
     fill-opacity=".39216"
     d="m13.891 6.3281v0.49609h23.816v-0.49609zm14.887 8.9297v0.49609c0 0.55078 0.44141 0.99219 0.99219 0.99219h3.9688c0.55078 0 0.99219-0.44141 0.99219-0.99219v-0.49609c0 0.55078-0.44141 0.99219-0.99219 0.99219h-3.9688c-0.55078 0-0.99219-0.44141-0.99219-0.99219z"
     fill="#fff"
     id="path57" />
  <path
     d="m13.891 6.1875c-0.078125 0-0.14062 0.0625-0.14062 0.14062v11.906c0 1.1758 0.95312 2.125 2.125 2.125h19.848c1.1758 0 2.125-0.94922 2.125-2.125v-11.906c0-0.078125-0.0625-0.14062-0.14062-0.14062zm0.14062 0.28125h23.535v11.766c0 1.0273-0.82031 1.8438-1.8438 1.8438h-19.848c-1.0234 0-1.8438-0.81641-1.8438-1.8438zm15.738 1.7031c-0.625 0-1.1328 0.50781-1.1328 1.1328v5.9531c0 0.625 0.50781 1.1328 1.1328 1.1328h3.9688c0.625 0 1.1328-0.50781 1.1328-1.1328v-5.9531c0-0.625-0.50781-1.1328-1.1328-1.1328zm0 0.28125h3.9688c0.47266 0 0.85156 0.37891 0.85156 0.85156v5.9531c0 0.47656-0.37891 0.85156-0.85156 0.85156h-3.9688c-0.47656 0-0.85156-0.375-0.85156-0.85156v-5.9531c0-0.47266 0.375-0.85156 0.85156-0.85156z"
     fill="#212121"
     id="path59" />
  <path
     fill-opacity=".31372"
     d="m7.9375 6.3281c-1.0977 0-1.9844 0.88672-1.9844 1.9844v0.49609c0-1.0977 0.88672-1.9844 1.9844-1.9844h31.754c1.0977 0 1.9844 0.88672 1.9844 1.9844v-0.49609c0-1.0977-0.88672-1.9844-1.9844-1.9844z"
     fill="#fff"
     id="path61" />
  <path
     d="m7.9375 6.1875c-1.1758 0-2.125 0.94922-2.125 2.125v31.754c0 1.1758 0.94922 2.125 2.125 2.125h31.754c1.1758 0 2.125-0.94922 2.125-2.125v-31.754c0-1.1758-0.94922-2.125-2.125-2.125zm0 0.28125h31.754c1.0234 0 1.8438 0.82031 1.8438 1.8438v31.754c0 1.0234-0.82031 1.8438-1.8438 1.8438h-31.754c-1.0234 0-1.8438-0.82031-1.8438-1.8438v-31.754c0-1.0234 0.82031-1.8438 1.8438-1.8438z"
     fill="#212121"
     id="path63" />
  <g
     id="g4483"
     transform="matrix(0.38641394,-0.01986924,0.01986924,0.38641394,38.010304,17.11731)">
    <path
       id="path82"
       d="m 13.891,13.273 c 0.27344,0 0.49609,0.22266 0.49609,0.49609 l 0,8.4375 c 0,0.27344 -0.22266,0.49609 -0.49609,0.49609 -0.27343,0 -0.49609,-0.22266 -0.49609,-0.49609 l 0,-8.4375 c 0,-0.27344 0.22266,-0.49609 0.49609,-0.49609 z"
       style="fill:url(#s)"
       inkscape:connector-curvature="0" />
    <g
       id="g4455">
      <path
         d="m 11.41,41.973 -3.9688,0 0,1.9844 3.9688,0 z"
         id="path54"
         style="fill:url(#e-6)"
         inkscape:connector-curvature="0" />
      <path
         d="m 11.41,41.973 -3.9688,0 0,-1.9844 3.9688,0 z"
         id="path56"
         style="fill:url(#f-1)"
         inkscape:connector-curvature="0" />
      <g
         transform="matrix(0.8,0,0,0.8,-311.70096,-381.7357)"
         id="g3949">
        <path
           style="fill:#ffffff;fill-opacity:1;stroke:#360404;stroke-width:0.03156727;stroke-linecap:round;stroke-linejoin:round;stroke-miterlimit:4;stroke-dasharray:none;stroke-dashoffset:0;stroke-opacity:1"
           d="m 356.78477,488.92588 c -2.70887,0.004 -5.41773,0.012 -8.12659,0.0178 -0.23147,0.23019 -0.15596,0.67702 -0.25898,0.99351 -0.30316,1.81214 -0.58368,3.62796 -0.8735,5.44227 0.32909,0.42706 0.78156,0.77577 1.07052,1.2529 1.01581,1.44249 1.35784,3.23074 1.51512,4.95748 0.0384,1.01901 0.15641,2.09971 -0.18455,3.08026 -0.5899,0.94373 -1.71208,1.35741 -2.70493,1.73422 -0.58091,0.22521 -1.22197,0.31385 -1.79268,0.53789 -0.57715,2.13612 -1.11496,4.30553 -1.81882,6.41037 -0.6494,2.01464 -1.42744,3.978 -2.26198,5.9233 0.0632,0.29519 0.45926,0.0345 0.64506,0.0146 2.78533,-0.75276 5.54224,-1.75403 8.43448,-1.96391 1.03549,-0.0375 2.19277,-0.0368 3.06794,0.57018 0.54394,0.39626 0.41172,1.16736 0.18348,1.70661 -0.33292,0.61025 -0.5935,1.2696 -0.98253,1.84866 -0.55867,0.723 -1.44914,1.11838 -1.93024,1.92011 -0.66269,0.85974 -0.79646,2.00213 -1.481,2.83865 -0.69503,0.66185 -1.77235,0.62997 -2.65954,0.47351 -1.55829,-0.28754 -2.67723,-1.5507 -3.49526,-2.82869 -0.6687,-1.08989 -1.4359,-2.17741 -1.78634,-3.41176 0.0131,-0.31966 -0.24987,-0.90251 -0.4037,-0.30667 -0.50871,1.04963 -0.84687,2.20574 -0.72692,3.38237 0.0265,1.34437 0.58968,2.62978 1.47278,3.6336 0.94162,1.10939 1.9891,2.13765 3.11446,3.05682 1.47135,0.36145 2.96659,0.66743 4.46085,0.93518 0.27378,-0.15429 -0.1668,-0.32134 -0.28411,-0.4084 -0.7337,-0.45671 -1.54615,-0.82315 -2.2176,-1.35542 -0.22208,-0.33723 0.22326,-0.80622 0.56427,-0.54651 1.0873,0.51995 2.10573,1.17844 3.17054,1.74015 2.61219,0.16952 5.24307,0.22026 7.85385,0.0679 0.70906,-0.007 1.40626,-0.24921 1.90762,-0.75371 0.32479,-0.22121 0.59562,-0.6576 1.0148,-0.68147 0.33397,0.073 0.42643,0.48707 0.20124,0.72605 -0.52814,0.59082 -1.17378,1.13301 -1.92363,1.41263 -1.29788,0.29032 -2.65992,0.17174 -3.98734,0.21308 -1.25193,0.0181 -2.52071,-0.0368 -3.76196,0.0276 -0.0748,0.25187 0.29481,0.48221 0.42978,0.70251 0.75917,0.88128 1.70477,1.61551 2.81909,1.98916 1.49068,0.62122 3.19843,0.61105 4.7019,0.0313 2.63225,-1.00293 4.94534,-2.67492 7.29254,-4.21279 3.58109,-2.42601 7.20993,-4.7444 10.83055,-7.10295 0.28375,-0.24231 0.70362,-0.37883 0.90188,-0.69596 -0.21322,-0.15697 -0.12159,-0.4942 -0.29989,-0.70237 -0.49704,-0.58749 -1.31878,-0.78488 -2.03806,-0.98056 -2.37665,-0.50675 -4.84586,-0.46531 -7.21715,-0.97811 -1.32751,-0.22606 -2.2985,-1.27238 -3.08571,-2.26333 -2.1907,-2.87548 -3.68546,-6.20173 -5.28298,-9.42975 -0.65956,-1.30185 -1.26882,-2.64539 -1.41538,-4.11022 -0.31463,-2.73845 0.0682,-5.50483 0.54701,-8.20489 0.43344,-2.27936 1.28718,-4.47086 2.30418,-6.55137 -0.0636,-0.27693 -0.48481,-0.0799 -0.6925,-0.14442 -1.60333,-0.0118 -3.20671,-0.0105 -4.81007,-0.007 z"
           id="path3943"
           inkscape:connector-curvature="0" />
        <path
           style="fill:#000000;fill-opacity:1;stroke:none"
           d="m 350.30277,469.76342 c -3.49194,-0.1708 -5.35168,3.40284 -8.19987,4.83676 -1.81242,1.28586 -3.74867,2.43348 -5.53092,3.73543 -1.05768,2.45249 -0.95524,5.94828 0.26255,7.90196 3.11968,-2.23333 6.01695,-5.40733 9.63954,-6.40635 -0.0553,2.59266 0.18427,5.31337 1.83485,7.39638 3.67619,-2.00633 8.53715,-2.71092 12.41639,-4.06556 1.30339,-1.24663 0.56684,-4.71776 2.92078,-4.61518 1.65876,1.53887 0.70743,3.59721 0.72386,5.63843 -0.54732,4.8867 -4.16991,9.03494 -4.30539,14.06369 -0.11877,3.08673 -0.38906,6.59923 1.63914,9.24667 1.35047,4.06623 2.77598,7.67239 5.96747,10.56312 3.42303,3.31527 8.37505,1.68902 11.49909,3.70422 -0.42678,2.7595 2.92095,-1.51117 4.04553,-1.99701 3.11557,-1.76666 5.05049,-4.72616 6.4963,-7.91367 1.19317,-2.65973 3.61988,-3.97652 5.01119,-6.45347 0.65361,-3.52678 1.93241,-5.04265 4.90896,-9.30883 0.96992,-1.3296 3.26267,-1.94398 2.53864,-4.14108 1.72221,-3.51957 1.01632,-8.29954 -0.36343,-12.70501 -4.55251,-2.70141 -9.51872,-5.08954 -14.93465,-5.20008 -1.56276,0.15212 -4.24439,-1.73086 -5.60578,-0.72225 -0.41438,2.5019 -2.6635,2.40522 -4.47937,2.5161 -5.19832,0.0282 -10.39568,-0.0859 -15.59337,-0.14761 -2.8659,-2.0227 -5.70925,-4.09184 -8.59737,-6.07433 -0.76471,0.0493 -1.52943,0.0984 -2.29414,0.14761 z"
           id="path3930"
           inkscape:connector-curvature="0"
           sodipodi:nodetypes="cccccccccccccccccccccccccc" />
        <path
           style="fill:#ffffff;fill-opacity:1;stroke:none"
           d="m 362.69023,479.62982 c -1.30382,1.24729 -1.25444,3.89472 -3.53729,3.89693 -3.46577,1.04598 -7.21355,1.94575 -10.15691,4.08298 -1.00302,2.32343 -1.46992,5.05795 -1.38393,7.58929 2.01225,2.45672 2.60449,5.99969 2.09822,9.10714 -1.03824,1.6367 -3.45318,1.69227 -4.62289,2.90899 -0.99051,3.7496 -2.42491,7.40016 -3.46863,11.07538 0.96802,0.94153 2.75177,-0.38694 3.92857,-0.35714 2.37403,-0.25871 5.13179,-1.49866 7.39956,-0.70312 1.15888,1.6033 -1.17904,3.29843 -2.09822,4.4308 -1.81178,1.06701 -1.05307,3.82031 -2.7567,4.79911 -3.11567,0.79512 -5.03112,-2.73579 -6.51785,-4.84375 -0.24146,-0.76861 -1.31415,-1.5568 -1.43973,-0.34599 -0.75817,3.79511 2.32972,7.12618 5.41294,8.76116 0.47938,-0.22706 1.93905,0.70676 1.79688,-0.0335 -0.72645,-0.21683 -1.69201,-1.61671 -0.42411,-1.59598 2.0516,0.90782 4.0783,2.02931 6.43973,1.70759 2.44555,-0.15744 5.47002,0.61982 7.31027,-1.37277 1.20093,-0.42226 0.50973,1.55831 -0.20089,1.67411 -2.61202,1.65439 -6.23093,0.34819 -8.91741,1.07143 1.97607,2.18208 5.11479,3.47272 7.93526,2.14285 6.10533,-2.8665 11.48465,-7.07839 17.12054,-10.75892 1.11347,-0.30144 1.9851,-1.68469 0.49107,-2.0759 -3.17425,-1.23537 -7.0799,-0.41443 -10,-2.26562 -2.79151,-3.12866 -5.20463,-6.59026 -6.52157,-10.54788 -2.58437,-4.2434 -0.49639,-9.44076 0.48899,-14.05417 1.08569,-4.02671 4.41154,-7.70762 3.22577,-12.02009 -0.0762,-0.89498 -0.7181,-2.19084 -1.60167,-2.27295 z"
           id="path3924"
           inkscape:connector-curvature="0"
           sodipodi:nodetypes="ccccccccccccccccccccccccccccc" />
        <path
           style="fill:#ffffff;stroke:#000000;stroke-width:1px;stroke-linecap:butt;stroke-linejoin:miter;stroke-opacity:1"
           d="m 344.46202,530.61839 c -1.11545,6.22927 -1.19046,12.65481 -0.75762,18.68782 0.13248,1.8465 -2.45718,4.19846 -2.14656,6.43972 0.17468,1.26043 0.0244,2.75059 2.14656,3.15673 2.15868,0.39691 6.37289,1.20705 7.32361,0.37881 0.89406,-0.77888 0.3292,-7.45655 1.01015,-10.73287 l 2.02031,-1.76777 c 5.12514,4.64246 13.416,5.21472 20.70812,7.07107 -0.0842,2.36469 0.3181,3.95634 -0.25253,5.80838 -0.30609,0.99345 -1.23984,1.80601 -1.6415,2.65165 0,0 -1.01862,2.11503 -0.12627,2.65165 1.84922,1.11205 9.00119,1.22905 10.73287,0.12626 1.43484,-0.91375 0.5482,-4.15798 2.11009,-5.77005 4.59006,-4.73752 7.64926,-8.88192 8.59517,-17.47262 0.23005,-2.08935 2.24459,-3.65575 2.67936,-5.69978 2.37946,-11.1866 2.05736,-28.84702 -2.27295,-30.0252 -1.34542,-0.36606 -3.16165,2.78813 -4.33693,4.95868 -1.28883,2.38025 -2.30903,5.44811 -4.24938,6.91061 -3.71602,2.8009 -8.78063,5.96379 -13.69957,9.12019 -5.71132,3.66486 -10.66098,7.71277 -14.20588,8.05241 -2.4142,0.23131 -5.09466,-0.88647 -6.59124,-3.08097 z"
           id="path2996"
           inkscape:connector-curvature="0"
           sodipodi:nodetypes="csacscccacsssssssssscc" />
        <path
           style="fill:none;stroke:#000000;stroke-width:1px;stroke-linecap:butt;stroke-linejoin:miter;stroke-opacity:1"
           d="m 344.71456,530.11332 -0.37881,0.63134"
           id="path2998"
           inkscape:connector-curvature="0" />
        <path
           style="fill:none;stroke:#000000;stroke-width:1px;stroke-linecap:round;stroke-linejoin:miter;stroke-opacity:1"
           d="m 344.58829,530.61839 c 0,0 -3.65881,-2.94694 -4.41942,-5.05076 -0.57261,-1.58378 -0.60515,-3.53377 0.12627,-5.05077 5.64819,-11.7145 6.40412,-24.37671 8.08122,-32.95622 4.65866,-2.63885 9.02503,-3.9452 11.99556,-4.41941 1.17374,-0.18738 0.99749,-4.32956 3.283,-4.29316 1.69863,3.60619 0.21962,5.62356 0.12627,8.33376 m 0.53571,-1.25 c -1.39588,2.51096 -3.41471,6.80548 -3.94498,9.96257 -0.66685,3.97023 -1.19929,7.67701 0.37881,10.85914 1.97322,3.97886 4.84504,10.48821 7.57614,12.12183 2.12132,1.26888 11.29804,0.51676 10.85914,3.6618"
           id="path3903"
           inkscape:connector-curvature="0"
           sodipodi:nodetypes="cascscccsssc" />
        <path
           style="fill:none;stroke:#000000;stroke-width:1px;stroke-linecap:butt;stroke-linejoin:miter;stroke-opacity:1"
           d="m 394.46457,505.99592 0.88388,-5.05076 c 1.29034,-2.65647 5.90782,-5.16119 6.56599,-6.81853 1.72126,-4.33432 0.65893,-14.96577 -0.25253,-15.27856 -1.85483,-0.63653 -6.64978,-3.22334 -8.96511,-4.16688 -1.60461,-0.6539 -9.54521,-0.85119 -10.9854,-1.38895 -0.90088,-0.33639 -0.56239,2.14311 -1.51524,2.27284 -5.75235,0.78316 -17.17858,0.60233 -18.81409,-0.12627 -2.97662,-1.32604 -5.82155,-4.09234 -7.95495,-5.68211 -0.49722,-0.37052 -5.03387,-0.26796 -5.68211,0.37881 -3.24212,3.23477 -9.34454,5.54237 -11.11168,8.08122 -1.49388,2.14627 -0.85165,7.90653 0.50508,7.82868 1.22038,-0.07 8.23918,-7.1379 9.21764,-5.80838 1.12778,1.53242 0.2745,5.84782 1.95717,7.32361"
           id="path3905"
           inkscape:connector-curvature="0"
           sodipodi:nodetypes="ccsssssssssssc" />
        <path
           style="fill:none;stroke:#000000;stroke-width:0.80000001;stroke-linecap:butt;stroke-linejoin:miter;stroke-miterlimit:4;stroke-dasharray:none;stroke-opacity:1"
           d="m 341.93663,519.63298 c 1.83766,-0.31718 8.33248,-2.96604 11.11168,-1.6415 1.49618,0.71307 -0.54493,2.89895 -2.18989,4.70259 -1.8158,1.99096 -0.7646,3.81703 -3.49221,3.75744 -2.48077,-0.0542 -3.77505,-2.40438 -4.8722,-4.26251 -0.44338,-0.7509 -1.37545,-2.41482 -0.55738,-2.55602 z"
           id="path3907"
           inkscape:connector-curvature="0"
           sodipodi:nodetypes="ssssas" />
        <path
           style="fill:none;stroke:#000000;stroke-width:0.5;stroke-linecap:butt;stroke-linejoin:miter;stroke-miterlimit:4;stroke-dasharray:none;stroke-opacity:1"
           d="m 345.21963,506.75354 c 1.49493,-0.28697 4.44358,-1.15234 4.67196,-2.52538 0.26279,-1.57987 0.19446,-6.93347 -2.77792,-8.83884 z"
           id="path3909"
           inkscape:connector-curvature="0"
           sodipodi:nodetypes="cscc" />
        <path
           style="fill:none;stroke:#000000;stroke-width:1px;stroke-linecap:round;stroke-linejoin:miter;stroke-opacity:1"
           d="m 347.11367,529.1663 3.21986,1.8309 c 3.16054,0.24865 6.71483,0.26122 8.90197,0 0.79434,-0.0949 1.95717,-1.38896 1.95717,-1.38896"
           id="path3911"
           inkscape:connector-curvature="0"
           sodipodi:nodetypes="ccsc" />
        <path
           style="fill:none;stroke:#000000;stroke-width:1px;stroke-linecap:round;stroke-linejoin:miter;stroke-opacity:1"
           d="m 354.1216,546.9071 c 2.01716,-3.03533 4.15718,-4.84829 5.36644,-7.76555"
           id="path3913"
           inkscape:connector-curvature="0"
           sodipodi:nodetypes="cc" />
        <path
           style="fill:none;stroke:#000000;stroke-width:1px;stroke-linecap:round;stroke-linejoin:miter;stroke-opacity:1"
           d="m 375.1454,553.53623 c 2.41487,-1.66022 2.0679,-3.81836 3.4724,-5.93465"
           id="path3917"
           inkscape:connector-curvature="0"
           sodipodi:nodetypes="cc" />
        <path
           style="fill:#070000;fill-opacity:1;stroke:none"
           d="m 347.4877,495.81522 c -0.53166,3.58037 -1.58723,7.18918 -2.09943,10.7184 1.42219,0.45399 3.49948,-0.64184 4.35702,-1.68255 1.13232,-2.98926 -0.0492,-6.52264 -2.01314,-9.08571 l -0.24445,0.0499 z"
           id="path3926"
           inkscape:connector-curvature="0" />
        <path
           style="fill:#070000;fill-opacity:1;stroke:none"
           d="m 352.64583,518.1388 c -2.7989,-1.0176 -14.39582,0.58065 -11.63441,1.8036 0.78903,2.65627 2.97605,7.41058 6.29104,6.54651 1.81372,0.26986 2.7067,-1.92501 2.80201,-3.27454 2.71386,-1.39389 2.74283,-2.86285 3.23943,-4.88553 -0.15245,-0.21763 -0.44625,-0.21666 -0.69807,-0.19004 z"
           id="path3932"
           inkscape:connector-curvature="0"
           sodipodi:nodetypes="cccccc" />
        <ellipse
           transform="matrix(1.2192671,0,0,0.63947288,-81.453793,188.44731)"
           id="path3893"
           style="fill:#1a1a1a;fill-opacity:1;stroke:none;filter:url(#filter3899)"
           cx="369.52643"
           cy="506.37473"
           rx="4.7350903"
           ry="4.0406103" />
        <ellipse
           style="fill:#666666;fill-opacity:1;stroke:none;filter:url(#filter3794)"
           id="path3000"
           transform="matrix(1.1066667,0,0,1.1875,-40.81408,-95.136521)"
           cx="369.52643"
           cy="506.37473"
           rx="4.7350903"
           ry="4.0406103" />
        <ellipse
           transform="matrix(0.93013541,0,0,1.0185035,24.608297,-9.4978229)"
           id="path3798"
           style="fill:#ffffff;fill-opacity:1;stroke:none;filter:url(#filter3816)"
           cx="369.52643"
           cy="506.37473"
           rx="4.7350903"
           ry="4.0406103" />
        <path
           transform="matrix(0.74914189,0,0,0.87364758,91.404049,63.973256)"
           style="fill:#000000;fill-opacity:1;stroke:none;filter:url(#filter3871)"
           d="m 374.01468,506.27253 c 0,1.08032 -0.0713,2.2724 -0.88071,2.89852 -0.86253,0.66722 -2.49854,0.7333 -3.60754,0.7333 -1.03552,0 -2.61926,0.005 -3.4886,-0.55627 -0.93535,-0.60432 -1.11883,-1.81675 -1.11883,-2.97335 0,-0.91774 0.17731,-2.22316 0.81629,-2.84048 0.91476,-0.88375 2.52552,-0.89353 3.79114,-0.89353 1.30486,0 2.67933,0.10713 3.55811,1.01174 0.56896,0.58568 0.93014,1.74308 0.93014,2.62007 z"
           id="path3820"
           inkscape:connector-curvature="0"
           sodipodi:nodetypes="sssssssss" />
        <ellipse
           transform="matrix(0.16722992,0,0,0.21257188,307.04697,397.07375)"
           id="path3875"
           style="fill:#ffffff;fill-opacity:1;stroke:none;filter:url(#filter3889)"
           cx="369.52643"
           cy="506.37473"
           rx="4.7350903"
           ry="4.0406103" />
        <ellipse
           style="fill:#ffffff;fill-opacity:1;stroke:none;filter:url(#filter3889)"
           id="path3935"
           transform="matrix(0.16722992,0,0,0.21257188,307.67197,397.69875)"
           cx="369.52643"
           cy="506.37473"
           rx="4.7350903"
           ry="4.0406103" />
        <path
           style="fill:#ffffff;fill-opacity:1;stroke:none"
           d="m 394.25476,506.65632 c -1.54148,0.76344 -2.17756,2.59976 -3.1011,3.95019 -1.7174,2.872 -2.7404,6.36751 -5.6397,8.30164 -5.83289,4.30068 -12.09748,7.97561 -18.07635,12.06694 -2.94796,1.77133 -5.75604,4.10644 -9.23754,4.62096 -2.76732,0.35092 -5.39456,-1.0759 -7.15402,-3.11942 -2.01914,-0.30748 -4.07315,-1.31666 -6.11607,-1.30022 -0.55255,1.08744 -0.35467,2.77164 -0.57885,3.97736 -0.55427,4.99561 -0.2691,10.02868 -0.19124,15.0405 -0.85189,2.16358 -2.71951,4.38766 -1.86942,6.83593 0.29944,1.51501 2.18072,1.37429 3.33768,1.69991 1.54782,0.15001 3.20907,0.67994 4.73152,0.23648 0.93535,-0.71898 0.42629,-2.18195 0.69047,-3.19065 0.26175,-2.45176 -0.0357,-5.00152 0.62091,-7.38971 0.7607,-1.0742 1.98859,-1.78252 2.75486,-2.8986 1.54408,-1.97277 3.34794,-3.87042 4.40474,-6.14716 0.0193,-0.50742 1.07798,-1.0257 1.08259,-0.26785 -0.5521,2.13151 -2.27717,3.81813 -3.51187,5.63059 -0.26091,0.79691 -2.18306,1.82029 -1.06894,2.47096 5.11986,3.63259 11.56292,4.30512 17.51676,5.7241 1.04025,0.26228 2.18067,0.72399 2.75043,-0.52208 1.47653,-1.39065 1.44182,-3.72633 2.8125,-5.12835 0.42449,-0.22512 0.89782,0.17821 0.50782,0.61384 -0.85109,2.2727 -1.61234,4.77665 -3.64398,6.29464 -0.21028,2.04649 0.25618,4.25873 -0.54129,6.1942 -0.62577,1.28071 -2.22577,2.60718 -1.55692,4.15736 2.04065,0.98587 4.46787,0.85645 6.69643,0.81474 1.22744,-0.18914 2.80111,-0.0863 3.69419,-1.07701 0.63601,-1.91178 0.42692,-4.23495 2.06376,-5.68804 3.45167,-3.63267 6.42987,-7.97399 7.40053,-12.98384 0.54727,-2.44565 0.61881,-5.11081 2.1875,-7.17076 1.74383,-2.86585 1.73321,-6.35455 2.19285,-9.59108 0.41007,-5.43704 0.6492,-10.96245 -0.22823,-16.36564 -0.41189,-1.95895 -0.84842,-4.1349 -2.30502,-5.57788 -0.1925,-0.10134 -0.39632,-0.24205 -0.625,-0.21205 z"
           id="path3937"
           inkscape:connector-curvature="0"
           sodipodi:nodetypes="ccccccccccccccccccccccccccccccccccc" />
        <path
           style="fill:none;stroke:#000000;stroke-width:1px;stroke-linecap:butt;stroke-linejoin:miter;stroke-opacity:1"
           d="m 346.35606,530.87093 c 0.40458,-0.27193 0.98824,-0.59502 1.01015,-0.75761 l 6.43972,1.38896 c 2.87989,-0.79468 -0.79191,0.25597 -1.62799,0.47198 z"
           id="path3947"
           inkscape:connector-curvature="0"
           sodipodi:nodetypes="ccccc" />
      </g>
      <path
         sodipodi:nodetypes="assaassa"
         inkscape:connector-curvature="0"
         id="path4022"
         d="m -22.536852,0.85494 c -0.252272,-3.63336 -6.843144,-7.36584 -9.091376,-6.06088 -2.305048,1.33792 -6.267648,3.52224 -9.2934,5.2528 -1.55984,0.89216 -2.78388,4.38168 -1.212192,5.2528 2.24908,1.24656 3.283688,-4.07704 5.454832,-5.4548 1.510816,-0.9588 3.573888,-1.80256 5.05076,-1.81832 2.475872,-0.0264 5.277312,6.16512 7.273096,4.44472 0.520168,-0.44848 1.874448,-0.80728 1.81828,-1.61632 z"
         style="opacity:0.06000001;fill:#ffffff;stroke:#000000;stroke-width:0.80000001px;stroke-linecap:butt;stroke-linejoin:miter;stroke-opacity:1" />
    </g>
    <g
       id="g4448">
      <path
         sodipodi:nodetypes="ssaaaaaassaas"
         inkscape:connector-curvature="0"
         id="path4020"
         d="m -19.506396,1.05702 c -0.03456,-2.29392 8.860552,0.72872 13.334008,-1.41424 0.733864,-0.35152 1.410808,-0.95064 2.222344,-1.01016 4.612808,-0.33808 10.625392,0.08952 13.334016,3.83864 2.012888,2.78608 0.819808,7.0916 -0.404064,10.30352 -1.056168,2.77176 -4.169336,4.3028 -5.656856,6.86904 -1.33604,2.30488 -1.207136,5.36112 -2.828424,7.47512 -2.525024,3.2924 -6.942056,9.96256 -10.101528,7.27312 -2.293328,-1.95216 3.870216,-5.33528 4.040608,-8.0812 C -5.06634,18.25414 -1.337356,17.9419 -0.111468,15.19918 0.823252,13.1079 0.958412,10.23518 -0.3135,8.33014 -2.77378,4.64502 -8.254084,4.3415 -12.435324,2.87526 -14.731916,2.0699 -19.469716,3.49046 -19.506396,1.05702 Z"
         style="opacity:0.05400002;fill:#ffffff;fill-opacity:1;stroke:none" />
      <path
         sodipodi:nodetypes="aaaasssssaaa"
         inkscape:connector-curvature="0"
         id="path4060"
         d="m 81.01142,2142.0812 c 5.84069,1.6959 2.12063,12.131 1.51523,18.1827 -0.54098,5.4076 -2.55092,10.6021 -4.54569,15.6574 -2.52872,6.4084 -3.4736,14.8293 -9.34391,18.4353 -1.14764,0.7049 -2.93309,0.7664 -4.0406,0 -7.59558,-5.2566 4.39779,-10.9921 1.78045,-16.1139 -0.59466,-1.1637 -1.52886,-1.9152 -1.92839,-0.671 -1.81374,5.6485 -1.78301,6.6196 -4.39775,5.9257 -3.59907,-0.9551 -11.35503,-1.8385 -14.64722,-4.5457 -2.47589,-2.0359 0.47376,-6.6909 2.27285,-9.3439 6.20082,-9.1438 19.09029,-11.5017 27.02158,-19.1929 2.5019,-2.4261 2.96662,-9.3056 6.31345,-8.3337 z"
         style="fill:#b3b3b3;fill-opacity:0.23305084;stroke:none;filter:url(#filter4377)"
         transform="matrix(0.8,0,0,0.8,-60.677964,-1687.3541)" />
      <path
         sodipodi:nodetypes="ssaass"
         inkscape:connector-curvature="0"
         id="path4094"
         d="m 32.77663,2164.1782 c 1.24597,-1.2525 9.36888,2.7914 11.36422,4.9245 1.81688,1.9424 -5.61911,6.7512 -7.32361,10.7329 -1.27026,2.9673 0.75713,7.8257 -2.0203,9.4702 -1.51249,0.8955 -5.86366,-0.4381 -5.05076,-1.5152 2.32573,-3.082 0.81346,-21.3837 3.03045,-23.6124 z"
         style="opacity:0.14285715;fill:#cccccc;stroke:none;filter:url(#filter4104)"
         transform="matrix(0.8,0,0,0.8,-60.677964,-1687.3541)" />
      <path
         sodipodi:nodetypes="acssaaaaaaaa"
         inkscape:connector-curvature="0"
         id="path4108"
         d="m 36.69098,2120.6154 c 2.08252,-3.5003 11.61675,-3.7881 11.61675,-3.7881 0.18968,0.024 -6.46242,13.5981 -4.92449,20.2031 1.13177,4.8607 4.99152,10.4018 6.9448,14.3947 1.4507,2.9654 8.85805,0.018 9.34391,3.283 0.60709,4.08 -5.92527,8.1067 -9.97526,7.3236 -1.41048,-0.2728 -0.96146,-3.0752 -2.27284,-3.6618 -3.54993,-1.588 -9.34552,5.2642 -11.49048,2.0203 -2.21506,-3.3499 7.4141,-6.1761 6.56599,-10.1016 -0.64356,-2.9786 -6.56526,-2.0972 -7.70242,-4.9245 -1.93901,-4.8208 3.51906,-9.958 3.66181,-15.1522 0.0894,-3.2514 -3.43087,-6.8012 -1.76777,-9.5965 z"
         style="opacity:0.11764706;fill:#cccccc;stroke:none;filter:url(#filter4389)"
         transform="matrix(0.8,0,0,0.8,-60.677964,-1687.3541)" />
      <path
         sodipodi:nodetypes="ssss"
         inkscape:connector-curvature="0"
         id="path4317"
         d="m 29.27664,2152.5448 c 1.22066,-1.6859 6.66846,-1.295 7.94642,-1.1608 1.83149,0.1925 -2.16471,3.4757 -2.76785,5.4465 -0.43467,1.4203 -6.40535,-2.5914 -5.17857,-4.2857 z"
         style="opacity:0.13025208;fill:#666666;fill-opacity:1;stroke:none;filter:url(#filter4355)"
         transform="matrix(0.8,0,0,0.8,-60.677964,-1687.3541)" />
    </g>
  </g>
</svg>
