<?xml version="1.0" encoding="UTF-8" standalone="no"?>
<svg
   width="64"
   height="64"
   version="1.1"
   id="svg7"
   sodipodi:docname="menu.svg"
   inkscape:version="1.1 (c4e8f9e, 2021-05-24)"
   xmlns:inkscape="http://www.inkscape.org/namespaces/inkscape"
   xmlns:sodipodi="http://sodipodi.sourceforge.net/DTD/sodipodi-0.dtd"
   xmlns="http://www.w3.org/2000/svg"
   xmlns:svg="http://www.w3.org/2000/svg">
  <sodipodi:namedview
     id="namedview9"
     pagecolor="#ffffff"
     bordercolor="#666666"
     borderopacity="1.0"
     inkscape:pageshadow="2"
     inkscape:pageopacity="0.0"
     inkscape:pagecheckerboard="0"
     showgrid="false"
     inkscape:zoom="3.765625"
     inkscape:cx="0.7966805"
     inkscape:cy="8.099585"
     inkscape:window-width="1356"
     inkscape:window-height="709"
     inkscape:window-x="0"
     inkscape:window-y="0"
     inkscape:window-maximized="1"
     inkscape:current-layer="svg7" />
  <defs
     id="defs3">
    <style
       id="current-color-scheme"
       type="text/css">
   .ColorScheme-Text { color:#aaaaaa; } .ColorScheme-Highlight { color:#4285f4; }
  </style>
  </defs>
  <path
     style="fill:currentColor;stroke-width:3.82007"
     class="ColorScheme-Text"
     d="m 47.280277,43.460208 h 7.640139 c 0,0 3.82007,0 3.82007,3.820069 v 7.640139 c 0,0 0,3.82007 -3.82007,3.82007 h -7.640139 c 0,0 -3.820069,0 -3.820069,-3.82007 v -7.640139 c 0,0 0,-3.820069 3.820069,-3.820069 z m -19.100347,0 h 7.640139 c 0,0 3.82007,0 3.82007,3.820069 v 7.640139 c 0,0 0,3.82007 -3.82007,3.82007 H 28.17993 c 0,0 -3.820069,0 -3.820069,-3.82007 v -7.640139 c 0,0 0,-3.820069 3.820069,-3.820069 z m -19.1003462,0 h 7.6401382 c 0,0 3.82007,0 3.82007,3.820069 v 7.640139 c 0,0 0,3.82007 -3.82007,3.82007 H 9.079584 c 0,0 -3.82007,0 -3.82007,-3.82007 v -7.640139 c 0,0 0,-3.820069 3.8200698,-3.820069 z M 47.280277,24.359861 h 7.640139 c 0,0 3.82007,0 3.82007,3.820069 v 7.640139 c 0,0 0,3.82007 -3.82007,3.82007 h -7.640139 c 0,0 -3.820069,0 -3.820069,-3.82007 V 28.17993 c 0,0 0,-3.820069 3.820069,-3.820069 z m -19.100347,0 h 7.640139 c 0,0 3.82007,0 3.82007,3.820069 v 7.640139 c 0,0 0,3.82007 -3.82007,3.82007 H 28.17993 c 0,0 -3.820069,0 -3.820069,-3.82007 V 28.17993 c 0,0 0,-3.820069 3.820069,-3.820069 z m -19.1003462,0 h 7.6401382 c 0,0 3.82007,0 3.82007,3.820069 v 7.640139 c 0,0 0,3.82007 -3.82007,3.82007 H 9.079584 c 0,0 -3.82007,0 -3.82007,-3.82007 V 28.17993 c 0,0 0,-3.820069 3.8200698,-3.820069 z M 47.280277,5.259514 h 7.640139 c 0,0 3.82007,0 3.82007,3.82007 v 7.640138 c 0,0 0,3.82007 -3.82007,3.82007 h -7.640139 c 0,0 -3.820069,0 -3.820069,-3.82007 V 9.079584 c 0,0 0,-3.82007 3.820069,-3.82007 z m -19.100347,0 h 7.640139 c 0,0 3.82007,0 3.82007,3.82007 v 7.640138 c 0,0 0,3.82007 -3.82007,3.82007 H 28.17993 c 0,0 -3.820069,0 -3.820069,-3.82007 V 9.079584 c 0,0 0,-3.82007 3.820069,-3.82007 z m -19.1003462,0 h 7.6401382 c 0,0 3.82007,0 3.82007,3.82007 v 7.640138 c 0,0 0,3.82007 -3.82007,3.82007 H 9.079584 c 0,0 -3.82007,0 -3.82007,-3.82007 V 9.079584 c 0,0 0,-3.82007 3.8200698,-3.82007 z"
     id="path5" />
</svg>
