<?xml version="1.0" encoding="UTF-8" standalone="no"?>
<svg
   width="48"
   height="48"
   viewBox="0 0 48 48"
   version="1.1"
   id="svg7"
   sodipodi:docname="www.svg"
   inkscape:version="1.1 (c4e8f9e, 2021-05-24)"
   xmlns:inkscape="http://www.inkscape.org/namespaces/inkscape"
   xmlns:sodipodi="http://sodipodi.sourceforge.net/DTD/sodipodi-0.dtd"
   xmlns="http://www.w3.org/2000/svg"
   xmlns:svg="http://www.w3.org/2000/svg">
  <sodipodi:namedview
     id="namedview9"
     pagecolor="#ffffff"
     bordercolor="#666666"
     borderopacity="1.0"
     inkscape:pageshadow="2"
     inkscape:pageopacity="0.0"
     inkscape:pagecheckerboard="0"
     showgrid="false"
     inkscape:zoom="3.765625"
     inkscape:cx="7.966805"
     inkscape:cy="8.099585"
     inkscape:window-width="1356"
     inkscape:window-height="709"
     inkscape:window-x="0"
     inkscape:window-y="0"
     inkscape:window-maximized="1"
     inkscape:current-layer="svg7" />
  <defs
     id="defs3">
    <style
       id="current-color-scheme"
       type="text/css">
   .ColorScheme-Text { color:#aaaaaa; } .ColorScheme-Highlight { color:#5294e2; }
  </style>
  </defs>
  <path
     style="fill:currentColor;stroke-width:2.61481"
     class="ColorScheme-Text"
     d="M 24,5.6963099 A 18.303233,18.303233 0 0 0 5.6963089,24 18.303233,18.303233 0 0 0 24,42.30369 18.303233,18.303233 0 0 0 42.303691,24 18.303233,18.303233 0 0 0 24,5.6963099 Z m 0,5.2296251 c 0.451305,0 0.867867,0.03674 1.307407,0.08171 0.03294,0.0063 0.06762,0.0019 0.102141,0 a 13.073738,13.073738 0 0 1 0.801808,0.122571 c 0.303572,0.05857 0.587547,0.128455 0.893734,0.204282 0.670945,0.164728 1.335401,0.38909 1.961111,0.653703 0.343841,0.145119 0.653712,0.316135 0.980556,0.490277 0,0.02353 0.0026,0.05242 0,0.08171 0.07583,0.03347 0.117012,0.174542 0.245138,0.245139 0.04706,0.02537 0.03726,0.06328 0.08171,0.08682 0.07321,0.04106 0.179114,0.0838 0.163426,0.158319 -0.02092,0.103807 -0.171924,0.08316 -0.245139,0.163426 0.01044,0.150873 -0.124203,0.143164 -0.163426,0.245139 0.02353,0.06459 0.152967,0.08525 0.163426,0.163426 -0.01308,0.08445 -0.194804,0.07714 -0.163426,0.163426 0.1412,0.109557 0.275212,0.02537 0.408565,0 0.292851,-0.03739 0.554999,-0.02014 0.735416,-0.163426 -0.02353,-0.139105 0.260827,-0.119631 0.245139,-0.245139 0.07583,0.0549 0.169309,0.108517 0.245138,0.163426 -0.02876,0.02746 -0.05034,0.06602 -0.08171,0.08171 -0.05753,0.02562 -0.113745,0.05034 -0.163426,0.08171 -0.07322,0.04706 -0.161465,0.108517 -0.245139,0.163427 -0.06014,0.04132 -0.182383,0.245138 -0.245139,0.245138 -0.07583,0 -0.190227,-0.0974 -0.245138,-0.08171 -0.07845,0.02537 -0.07452,0.132048 -0.163427,0.163426 -0.172577,0.06275 -0.511852,-0.09544 -0.571989,0.163426 0.07321,0.149041 0.359539,0.08106 0.490277,0.163427 0.08106,0.05282 0.22422,0.23795 0.245139,0.326851 0.02092,0.07243 0.03138,0.411835 0,0.490277 -0.08106,0.20918 -0.331434,0.167349 -0.57199,0.163426 h -0.163426 c -0.402672,-0.02562 -0.798831,-0.209046 -0.980556,0.08171 0.01281,0.222253 0.04968,0.378499 0,0.57199 -0.03661,0.141197 -0.252984,0.286979 -0.24514,0.408564 0.0028,0.06275 0.147999,0.157022 0.163426,0.245139 0.01023,0.04706 -0.02092,0.120281 0,0.163426 0.06824,0.127339 0.207358,-0.02537 0.326854,0 0.115051,0.02537 0.245138,0.193099 0.245138,0.321745 0,0.0923 -0.02432,0.238212 -0.08171,0.326851 -0.115052,0.172573 -0.325551,0.151009 -0.49028,0.245139 -0.135706,0.07845 -0.164081,0.273644 -0.245139,0.408565 -0.08629,0.147211 -0.197418,0.20423 -0.163425,0.413671 -0.117664,0.232451 -0.247105,0.377843 -0.490278,0.490277 -0.07059,0.03138 -0.180032,0.03465 -0.245139,0.08171 -0.05256,0.03739 -0.08995,0.160945 -0.163425,0.24514 -0.09125,0.101978 -0.19546,0.166697 -0.245138,0.245139 -0.03661,0.06066 -0.04249,0.160682 -0.08171,0.245138 -0.05727,0.109557 -0.171926,0.135319 -0.245139,0.245139 -0.034,0.05282 -0.0451,0.176632 -0.08171,0.245139 -0.08367,0.151132 -0.179115,0.275211 -0.163425,0.408563 0.01281,0.125509 0.155842,0.129568 0.163425,0.24514 0.0073,0.06275 -0.08433,0.09283 -0.08171,0.163425 0.0028,0.09988 0.07413,0.166697 0.08171,0.245139 0.01831,0.194014 -0.12708,0.276258 -0.163425,0.408565 -0.01831,0.06249 0.01569,0.107331 0,0.158319 -0.03138,0.09596 -0.160812,0.211279 -0.163426,0.326852 -0.0028,0.08028 0.155581,0.129566 0.163426,0.245138 0.0054,0.07661 -0.0974,0.172449 -0.08171,0.245139 0.02876,0.141196 0.298746,0.298745 0.408565,0.408564 0.149042,0.149042 0.343196,0.251681 0.408565,0.408565 0.05492,0.133352 0.06146,0.390655 0.163426,0.490277 0.07582,0.07243 0.230105,0.08499 0.326851,0.163426 0.09151,0.07059 0.148654,0.08499 0.245139,0.163426 0.159501,0.125508 0.400334,0.426868 0.653703,0.408564 0.133353,-0.02537 0.262139,-0.1378 0.408566,-0.163425 0.156888,-0.02537 0.333393,-0.09348 0.490277,-0.08171 0.120282,0.02537 0.283056,0.08955 0.408564,0.08171 0.130742,-0.02537 0.262139,-0.01896 0.408565,-0.08171 0.261481,-0.111912 0.685746,-0.299264 1.062268,-0.245139 0.287622,0.04132 0.288943,0.362417 0.490278,0.490277 0.230103,0.02563 0.388958,-0.04497 0.571989,0 0.138586,0.03348 0.313778,0.218079 0.326853,0.326853 0.01308,0.111911 -0.150353,0.255993 -0.163426,0.326851 -0.03661,0.151134 0.02353,0.311558 0,0.408565 -0.02353,0.07635 -0.08433,0.168789 -0.08171,0.245139 0,0.06876 0.09283,0.237427 0.163425,0.326851 0.08629,0.109821 0.22226,0.208665 0.326852,0.326852 0.190882,0.219639 0.275212,0.44518 0.408565,0.735416 0.034,0.07243 -0.03137,0.151009 0,0.245139 -0.05753,0.439278 -0.202648,0.739612 -0.490278,1.225693 -0.133355,0.15741 -0.332081,0.294171 -0.326851,0.490277 -0.01044,0.470656 0.266057,0.770727 0.245138,1.225694 -0.04706,0.61185 0.04706,0.653711 0,0.980555 0.20657,0.104589 0.06014,0.436679 0,0.653704 -0.0889,0.258866 -0.198072,0.322811 -0.245138,0.495383 0.138585,0.06014 0.336006,0.034 0.490277,0 a 13.073738,13.073738 0 0 1 -0.02562,0.0204 c -0.0706,0.07583 -0.146377,0.149018 -0.219592,0.219592 -0.559559,0.562171 -1.202667,1.092472 -1.858972,1.547438 a 13.073738,13.073738 0 0 1 -0.178748,0.127681 c -0.515103,0.342534 -1.061994,0.634508 -1.618939,0.909056 a 13.073738,13.073738 0 0 1 -0.817126,0.362602 13.073738,13.073738 0 0 1 -0.02042,0.01023 c -0.433786,0.175192 -0.885836,0.313699 -1.343155,0.439207 a 13.073738,13.073738 0 0 1 -2.420688,0.413693 c -0.323183,0.01569 -0.64442,0.03065 -0.975447,0.03065 -0.48216,0 -0.957352,-0.02942 -1.424869,-0.08171 a 13.073738,13.073738 0 0 1 -1.516796,-0.260461 c -0.617865,-0.164733 -1.212503,-0.408285 -1.797684,-0.638383 -0.02458,-0.04445 -0.08721,-0.106037 -0.08171,-0.158327 0.135969,-0.05753 0.390917,0.193496 0.490279,0 0.04968,-0.09414 -0.06563,-0.322156 0,-0.413671 0.0468,-0.06276 0.311819,-0.06079 0.408563,-0.08171 0.138583,-0.02614 0.330384,-0.0451 0.408565,-0.08171 0.08629,-0.0549 0.179115,-0.243962 0.163426,-0.403458 -0.0073,-0.07845 -0.103284,-0.100542 -0.163426,-0.168524 -0.04942,-0.05753 0.034,-0.103415 0,-0.158327 -0.06249,-0.09414 -0.218991,-0.116883 -0.245138,-0.250238 0.188261,-0.03661 0.463482,0.157542 0.735416,0.08171 0.128123,-0.03661 0.348425,-0.288286 0.408564,-0.408565 0.01831,-0.03661 -0.02092,-0.11126 0,-0.158327 0.02353,-0.04706 0.07387,-0.139892 0.08171,-0.163425 0.01831,-0.0706 -0.01569,-0.02955 0,-0.07662 0.04706,-0.13597 0.166697,-0.237817 0.245139,-0.331958 0.06014,-0.07322 0.189966,-0.174408 0.245139,-0.250238 0.06249,-0.08106 0.03987,-0.08512 0.08171,-0.158327 0.03922,-0.237948 -0.139236,-0.444524 -0.08171,-0.653703 0.06249,-0.235334 0.42622,-0.383073 0.653703,-0.490278 0.07818,-0.03922 0.179771,-0.05818 0.245139,-0.08171 0.156883,-0.05491 0.343852,-0.113745 0.490277,-0.163426 0.245788,-0.0889 0.288286,-0.262917 0.408565,-0.485171 0.05753,-0.10459 0.152704,-0.253506 0.163426,-0.331958 0.0099,-0.06798 -0.01308,-0.08236 0,-0.163426 0.01281,-0.07583 -0.02092,-0.156235 0,-0.245139 0.02876,-0.109819 0.08171,-0.364765 0.08171,-0.490274 0,-0.104589 -0.07936,-0.151005 -0.08171,-0.245139 -0.0183,-0.339916 0.119629,-0.303323 0.245138,-0.490277 0.06275,-0.09203 0.119235,-0.261482 0.163425,-0.326851 0.211796,-0.313753 0.597877,-0.422942 0.571991,-0.898827 -0.01023,-0.156884 -0.13009,-0.52231 -0.245138,-0.571989 -0.06537,-0.02929 -0.148394,-0.04667 -0.245139,-0.08171 -0.308278,-0.115835 -0.577228,-0.464132 -0.898842,-0.49028 h -0.163426 c -0.125508,0 -0.267629,-0.0621 -0.408565,-0.08171 -0.0889,-0.02562 -0.274817,0.02562 -0.326851,0 -0.08132,-0.03922 -0.09806,-0.200427 -0.163426,-0.245141 -0.05229,-0.03713 -0.164081,-0.05727 -0.245139,-0.08682 -0.128122,-0.04706 -0.17781,-0.148645 -0.326851,-0.158319 -0.04706,0 -0.111132,0.02537 -0.163426,0 -0.08106,-0.02537 -0.169311,-0.03975 -0.245139,-0.08683 -0.09387,-0.05701 -0.205916,-0.07804 -0.245138,-0.158319 0.08629,-0.28213 -0.187877,-0.325548 -0.245139,-0.490277 -0.02641,-0.07635 0.02615,-0.258869 0,-0.326851 -0.034,-0.09596 -0.137934,-0.164867 -0.245139,-0.245139 -0.188261,-0.146948 -0.302671,-0.21167 -0.571991,-0.24514 -0.120016,-0.02563 -0.264752,0.02537 -0.408563,0 -0.151657,-0.02563 -0.375229,-0.113876 -0.490278,-0.245137 -0.109819,-0.12734 -0.148655,-0.266451 -0.245138,-0.326853 -0.09151,-0.05674 -0.182387,-0.104589 -0.245139,-0.163426 -0.02876,-0.02536 -0.05557,-0.02079 -0.08171,-0.08171 -0.04706,-0.09596 -0.139235,-0.127475 -0.08171,-0.245139 -0.104589,-0.05282 -0.05099,0.09924 -0.163426,0.08171 -0.101978,-0.14329 -0.178727,-0.286975 -0.408564,-0.245139 -0.10459,0.02563 -0.20422,0.242263 -0.326852,0.245139 -0.101978,0 -0.19376,-0.22422 -0.326851,-0.245139 -0.101979,-0.02562 -0.256516,0.09374 -0.326853,0.08171 -0.112695,-0.02537 -0.143162,-0.09702 -0.245137,-0.163426 -0.07583,-0.04916 -0.203303,-0.167087 -0.24514,-0.163426 -0.130476,0 -0.228147,0.258864 -0.408564,0.163426 -0.0889,-0.111911 0.186565,-0.141333 0.08171,-0.245138 -0.07819,-0.07635 -0.100673,0.04458 -0.163426,0.08171 -0.07322,0.04706 -0.164083,0.05216 -0.245139,0.08171 -0.180416,0.0685 -0.349081,0.0889 -0.490277,0.163426 -0.130738,0.0685 -0.169573,0.111786 -0.245139,0.245139 -0.06014,0.109558 -0.153623,0.321622 -0.245139,0.326851 -0.109819,0 -0.145778,-0.12002 -0.245138,-0.163425 -0.300435,-0.131262 -0.487016,0.07569 -0.735416,0.08171 -0.230099,0 -0.582189,-0.354967 -0.571991,-0.571991 0.0073,-0.133353 0.06602,-0.325548 0.08171,-0.490277 0.01281,-0.131261 0.161072,-0.289332 0.163425,-0.408565 0.0028,-0.162635 -0.304236,-0.226574 -0.408565,-0.245139 -0.245787,-0.04497 -0.537351,0.10982 -0.817129,0 -0.0523,-0.08812 0.05034,-0.157022 0.08171,-0.245139 0.0183,-0.04706 -0.01831,-0.108516 0,-0.163425 0.03138,-0.08419 0.206179,-0.156761 0.245139,-0.245138 0.02903,-0.0685 -0.02876,-0.158854 0,-0.245139 0.034,-0.09414 0.15532,-0.176634 0.163426,-0.24514 0.0099,-0.08838 -0.09283,-0.188399 -0.163426,-0.245137 -0.216762,0.02562 -0.365031,0.02405 -0.490277,0.08682 -0.282393,0.127599 -0.205271,0.482827 -0.490278,0.57199 -0.09675,0.03137 -0.217031,0.06211 -0.326851,0.08171 -0.04628,0.02458 -0.105765,0.0015 -0.158319,0 a 13.073738,13.073738 0 0 1 0.03064,-0.153212 c 0.01935,-0.02929 0.03864,-0.05898 0.04596,-0.09193 0.186431,-0.849793 0.474336,-1.672454 0.817129,-2.451387 h 0.08171 c 0.09936,0.02537 0.158852,0.155581 0.245139,0.163426 0.240557,0.02537 0.291556,-0.221739 0.490277,-0.326852 0.203951,0.02929 0.304631,-0.02563 0.490277,0 0.125509,0.02537 0.309205,0.148383 0.408565,0.158319 0.08367,0 0.08499,-0.09164 0.163426,-0.08171 0.07845,0.02537 0.232065,0.151008 0.245139,0.245138 0.01308,0.117665 -0.115968,0.278873 -0.08171,0.408565 0.122893,0.125247 0.396802,0.172711 0.57199,0.245139 0.115049,-0.09596 0.0183,-0.272597 0,-0.408565 -0.0028,-0.06066 0.0073,-0.19023 0,-0.245139 -0.01281,-0.09414 -0.08171,-0.164866 -0.08171,-0.245138 0,-0.37417 0.320975,-0.507538 0.57199,-0.653704 0.107201,-0.06275 0.232721,-0.198071 0.326852,-0.245138 0.133353,-0.06459 0.217032,-0.01922 0.326851,-0.08171 0.198721,-0.111912 0.336008,-0.281226 0.490278,-0.408565 0.07059,-0.17048 -0.0073,-0.404907 0,-0.57199 0.07059,-0.04523 0.169574,0 0.245138,0 0.120279,-0.02563 0.177156,-0.176636 0.245139,-0.245141 0.03922,-0.03922 0.11636,-0.04249 0.163426,-0.08171 0.120279,-0.09413 0.140549,-0.203302 0.245138,-0.245139 0.03687,-0.02563 0.105645,-0.06236 0.163427,-0.08171 0.07845,-0.02562 0.201343,-0.03465 0.326851,-0.08171 0.08106,-0.02955 0.295214,-0.04615 0.326852,-0.08171 0.03922,-0.03922 -0.01023,-0.184478 0,-0.245138 0.06249,-0.295205 0.471326,-0.308943 0.735416,-0.408565 0.183031,-0.0685 0.36804,-0.281484 0.57199,-0.245139 -0.03948,0.141198 -0.197419,0.156894 -0.163425,0.326851 0.04445,0.237943 0.324892,-0.05152 0.408564,-0.08682 0.159501,-0.06876 0.444523,-0.166697 0.653703,-0.245139 0.183032,-0.06459 0.499425,-0.110735 0.326851,-0.321745 -0.143812,-0.02536 -0.201343,0.107331 -0.326851,0.158319 -0.08629,0.02562 -0.09022,-0.07387 -0.163426,-0.08171 -0.07059,0 -0.09283,0.09348 -0.163425,0.08171 -0.07059,-0.02536 -0.152967,-0.158852 -0.163426,-0.245138 -0.02876,-0.219639 0.156237,-0.246713 0.245138,-0.408565 -0.06014,-0.198721 -0.322933,-0.07987 -0.490277,-0.158319 0.0183,-0.117663 0.106558,-0.21899 0.245139,-0.245139 0.112434,-0.02562 0.422294,0.02105 0.490277,0.08171 0.03922,0.03348 -0.05988,0.108517 0,0.163426 0.06798,0.06066 0.156499,0.02536 0.245139,0 0.03138,-0.149041 -0.189574,-0.06746 -0.163426,-0.163426 0.17754,-0.115571 0.518392,-0.05242 0.735417,-0.08171 0.125508,-0.02562 0.296391,-0.104589 0.408563,-0.163425 0.10459,-0.06066 0.13532,-0.179766 0.245139,-0.08171 0.03138,0.107723 -0.02183,0.188138 -0.08171,0.245139 -0.201335,0.178325 -0.415105,0.365687 -0.57199,0.571991 0.09675,0.09413 0.246713,0.06184 0.408564,0.08171 0.06275,0.02537 0.179772,-0.01988 0.245139,0 0.07845,0.02537 0.182125,-0.02562 0.245138,0 0.10982,0.02537 0.135319,0.245139 0.24514,0.245139 0.177802,0 0.101978,-0.208664 0,-0.326851 0.03137,-0.123417 0.126164,-0.240044 0.08171,-0.326853 -0.08132,-0.162636 -0.392877,0.04837 -0.408565,-0.163425 -0.0099,-0.131262 0.116359,-0.144994 0.163426,-0.245138 -0.02092,-0.250756 0.189574,-0.263057 0.163425,-0.490278 -0.01281,-0.09413 -0.09806,-0.07504 -0.163425,-0.163426 -0.034,-0.04706 -0.04275,-0.208793 -0.08171,-0.245139 -0.135967,-0.115572 -0.392875,-0.02576 -0.408564,-0.245138 -0.0073,-0.131523 0.0183,-0.268415 0,-0.408565 -0.01831,-0.133353 -0.130351,-0.546104 -0.245138,-0.57199 -0.146428,-0.03137 -0.233378,0.24501 -0.408565,0.326851 -0.09414,0.04497 -0.311819,0.0974 -0.408565,0.08171 -0.06249,-0.02562 -0.155581,-0.04184 -0.163426,-0.163426 -0.01044,-0.111649 0.122636,-0.160944 0.163426,-0.245138 0.01044,-0.0217 -0.005,-0.05216 0,-0.08171 0.06459,-0.01804 0.129484,-0.03656 0.194069,-0.05618 a 13.073738,13.073738 0 0 1 0.847771,-0.188963 c 0.03478,0.0037 0.0692,0.0082 0.102142,0 0.349069,-0.06485 0.703786,-0.127864 1.062268,-0.163426 0.43457,-0.04497 0.860022,-0.08171 1.307404,-0.08171 z m -5.31134,1.225695 c -0.08341,0.47719 -0.530166,0.667561 -1.062267,0.653702 -0.120279,0.115573 -0.01634,0.33104 -0.08171,0.490278 -0.05492,0.133353 -0.275213,0.255598 -0.408564,0.245138 -0.09675,0 -0.245139,-0.152838 -0.245139,-0.245138 0,-0.111649 0.178458,-0.115708 0.08171,-0.245139 0.0045,-0.02537 0.05451,-0.05399 0.08171,-0.08171 0.05282,-0.0332 0.110346,-0.04825 0.163426,-0.08171 0.474053,-0.291544 0.959388,-0.505318 1.470831,-0.735416 z m 10.94953,0.490277 c -0.04706,0.02562 -0.03987,0.05425 -0.08171,0.08171 -0.09937,0.06066 -0.169309,0.13597 -0.245139,0.163425 -0.106417,0.03922 -0.22945,0.06747 -0.245139,0.163426 -0.01282,0.08028 0.08433,0.0889 0.08171,0.163426 -0.03948,0.09596 -0.06079,0.127475 -0.08171,0.245139 0.133353,0.216763 0.407262,-0.04641 0.57199,-0.08171 0.07322,-0.02537 0.124204,-0.02405 0.163427,-0.08683 0.04445,-0.07059 0.04772,-0.144993 0.08171,-0.245139 0.03661,-0.109819 0.179115,-0.149177 0.163426,-0.245138 -0.0078,-0.09622 -0.246446,-0.171915 -0.408565,-0.158319 z m -14.299758,1.634258 c 0.123939,0.10014 0.298214,0.315218 0.08171,0.408564 -0.02641,0.02536 -0.34581,0.09138 -0.408564,0.08171 -0.02536,0 -0.05949,-0.0621 -0.08171,-0.08171 0.135183,-0.131261 0.267891,-0.282795 0.408564,-0.408564 z m 0.490277,0.490278 c 0.06275,0 0.09022,0.159765 0.163426,0.163425 0.07059,0 0.121589,-0.09164 0.163425,-0.08171 0.109821,0.02929 0.186566,0.245272 0.08171,0.326852 -0.08629,0.02562 -0.100934,-0.09165 -0.163426,-0.08171 -0.177802,0.03138 -0.275213,0.419024 -0.408565,0.408565 -0.125508,-0.02562 -0.209836,-0.317048 -0.08171,-0.408565 0.0032,-0.07845 -0.0052,-0.0829 0,-0.163425 0.03948,-0.04706 0.14055,-0.171271 0.245139,-0.163426 z m -0.653703,0.08171 c 0.03661,0 0.06864,-0.02562 0.08171,0 -0.01805,0.139106 -0.05648,0.180294 -0.163426,0.245139 -0.185647,0.11165 -0.348425,0.251289 -0.408565,0.490277 -0.0183,0.07059 -0.23795,0.262657 -0.326851,0.245139 -0.206565,-0.04497 0.116359,-0.4304 0.163425,-0.490278 0.05229,-0.06459 0.103284,-0.0889 0.163426,-0.163426 0.06014,-0.07243 0.106167,-0.203301 0.163426,-0.245138 0.06275,-0.04497 0.217032,-0.08564 0.326852,-0.08171 z m 17.731701,0.408565 c 0.20657,-0.02536 0.317048,0.202389 0.408564,0.326851 0.07845,0.101979 0.280442,0.255732 0.408564,0.326851 0.07321,0.03922 0.166695,0.127865 0.24514,0.163427 0.169962,0.07635 0.482433,0.323195 0.490277,0.490277 0.0026,0.08445 -0.09479,0.166697 -0.08171,0.245139 0.128126,0.02563 0.245138,-0.198205 0.245138,-0.326852 0.240564,0.339918 0.447139,0.700126 0.653704,1.062268 0.09937,0.170742 0.235333,0.313782 0.326852,0.490278 -0.117667,0.03321 -0.145122,0.05177 -0.163426,0.163425 -0.02615,0.147212 0.05622,0.382679 -0.163426,0.408565 -0.13597,0.02537 -0.299402,-0.120281 -0.490278,-0.163426 -0.07845,-0.02563 -0.182383,0.02562 -0.245138,0 -0.143815,-0.04706 -0.122243,-0.239781 -0.245139,-0.326852 -0.07322,-0.04916 -0.296131,-0.151659 -0.408565,-0.163426 -0.0706,0 -0.09021,0.02537 -0.163425,0 -0.0889,-0.02537 -0.253637,0.03739 -0.326852,0 -0.0706,-0.04523 -0.226835,-0.184477 -0.245139,-0.245138 -0.02876,-0.09622 0.23991,-0.162775 0.245139,-0.245139 0.0052,-0.06275 -0.06602,-0.148916 -0.08171,-0.245139 -0.0078,-0.05673 0.01308,-0.124203 0,-0.163426 -0.01569,-0.06877 -0.137931,-0.07779 -0.245138,-0.08171 H 32.825 c -0.115052,0 -0.34908,-0.01961 -0.490277,0 h -0.245139 c -0.227488,0.02537 -0.394189,-0.02537 -0.571991,0 -0.128126,0 -0.372613,0.108517 -0.490277,0.163426 -0.06014,0.02929 -0.08499,0.04249 -0.163425,0.08171 -0.03661,0.02562 -0.113746,0.06001 -0.163426,0.08171 -0.0706,0.03321 -0.17454,0.143816 -0.245139,0.163426 -0.101979,0.02562 -0.222913,-0.02563 -0.408565,0 -0.13074,0 -0.324236,-0.08616 -0.326851,-0.245138 -0.0052,-0.242911 0.423604,-0.120543 0.653702,-0.163426 0.08367,-0.02563 0.140547,-0.100673 0.245139,-0.163427 0.04968,-0.02929 0.03726,-0.05034 0.08171,-0.08171 0.07845,-0.0549 0.232063,-0.182385 0.245138,-0.245138 0.01044,-0.05673 -0.0078,-0.120543 0,-0.163425 0.01044,-0.05491 0.09283,-0.09074 0.163425,-0.163426 0.109823,-0.109559 0.190882,-0.255732 0.326853,-0.326853 0.09151,-0.04706 0.203301,-0.0838 0.245138,-0.158319 0.0078,-0.08419 -0.0052,-0.08499 0,-0.163425 0.05492,-0.05282 0.116359,-0.06994 0.163426,-0.08171 0.1412,-0.03137 0.243831,0 0.408564,0 0.0706,0 0.169309,0.03321 0.245139,0 0.06276,-0.04132 0.100673,-0.132048 0.163426,-0.163425 0.0706,-0.03739 0.161464,-0.0757 0.245139,-0.08171 z m 1.470832,1.552545 h -0.326852 c -0.115052,0 -0.258866,-0.06066 -0.326852,0 0.09675,0.156883 0.273254,0.205917 0.490279,0.245138 0.07845,-0.05701 0.126818,-0.145255 0.163425,-0.245138 z M 16.482412,15.338432 h 0.245139 c 0.06537,0 0.137539,-0.02536 0.163426,0 -0.04184,0.172573 -0.436023,0.144205 -0.571991,0.08171 0.0073,-0.06485 0.07975,-0.06994 0.163426,-0.08171 z m -0.571989,0.326853 c -0.114005,0.08236 -0.227365,0.188399 -0.408565,0.245138 -0.09936,0.03137 -0.226575,0.02811 -0.245139,-0.08171 -0.02092,-0.135183 0.156238,-0.06811 0.245139,-0.08171 0.115048,-0.02562 0.275473,-0.07569 0.408565,-0.08171 z m 16.996284,0 c -0.08629,0.02955 -0.128126,0.21899 0,0.245138 0.06014,-0.03713 0.0974,-0.133489 0.08171,-0.245138 -0.034,-0.03739 -0.05557,-0.02537 -0.08171,0 z m -0.163426,0.408564 c 0.0026,0.14695 0.02876,0.281488 0,0.408564 0.08367,0.162639 0.285015,0.02785 0.326852,-0.08171 0.04968,-0.272195 -0.03791,-0.360843 -0.163426,-0.326852 -0.04184,0.02537 -0.118975,-0.03347 -0.163426,10e-7 z m -21.65392,6.128467 c 0.147473,0.133354 0.232069,0.320972 0.408565,0.408565 0.06537,0.0332 0.161466,0.06027 0.245138,0.08171 0.06798,0.02562 0.09806,-0.02144 0.163425,0 0.138583,0.04706 0.299007,0.114529 0.408565,0.163426 0.167343,0.07243 0.346205,0.324632 0.490277,0.408565 0.0071,0.08419 -0.02641,0.182385 0,0.245139 0.06798,0.09203 0.13532,0.182646 0.245139,0.245138 0.133353,0.07269 0.201343,0.186308 0.326852,0.245139 0.04445,0.02563 0.09544,-0.02562 0.163425,0 0.172573,0.05282 0.259785,0.289067 0.408565,0.245139 0.09701,-0.02955 0.06602,-0.151009 0.08171,-0.245139 0.06537,-0.07059 0.143164,-0.163426 0.245139,-0.163426 0.162113,0 0.185001,0.250112 0.245139,0.408565 0.034,0.08812 0.139893,0.151007 0.163426,0.245138 0.03922,0.162639 0.034,0.638671 0,0.735416 -0.04184,0.119495 -0.227491,0.113878 -0.326852,0.245139 -0.04706,0.06275 -0.0451,0.200689 -0.08171,0.245139 -0.06249,0.07661 -0.116359,0.09074 -0.163425,0.163426 -0.02641,0.03922 -0.05818,0.108778 -0.08171,0.163426 -0.07844,0.166822 -0.228794,0.288679 -0.163426,0.490278 0.02615,0.08028 0.163426,0.149177 0.163426,0.245138 0,0.115573 -0.226836,0.201082 -0.24514,0.32685 -0.01308,0.09203 0.05321,0.204744 0.08171,0.326853 0.02092,0.09203 0.190228,0.184478 0.245139,0.245138 0.09125,0.101978 0.161467,0.279135 0.245138,0.408564 0.164728,0.253634 0.246452,0.568728 0.408565,0.81713 0.08629,0.127338 0.269327,0.192191 0.326851,0.32685 0.02876,0.06798 -0.02641,0.182384 0,0.245139 0.09387,0.2118 0.523622,0.470015 0.735416,0.571991 0.09936,0.04968 0.235336,0.02942 0.326852,0.08171 0.138582,0.07845 0.419679,0.28567 0.490278,0.408563 0.06275,0.109823 0.05034,0.396804 0.08171,0.571992 0.03922,0.230102 -0.01023,0.405303 0,0.653703 0.0071,0.133355 0.08171,0.19088 0.08171,0.326852 0,0.04706 0.0028,0.200557 0,0.250238 -0.0028,0.162117 0.01308,0.320443 0,0.48517 -0.0073,0.0889 -0.0058,0.169309 0,0.245138 0.0073,0.08106 0.07674,0.09283 0.08171,0.163426 0.0058,0.07583 -0.08956,0.184998 -0.08171,0.245138 0.01831,0.164734 0.132048,0.256906 0.163426,0.408566 0.02615,0.120281 0.09714,0.42818 0.08171,0.57199 -0.01023,0.07582 -0.07126,0.15885 -0.08171,0.24514 -0.0073,0.06798 0.0099,0.100673 0,0.163425 -0.006,0.0523 0.0045,0.09607 0,0.137905 a 13.073738,13.073738 0 0 1 -0.29621,-0.173646 c -0.676437,-0.462809 -1.33375,-1.020647 -1.91004,-1.598508 -0.08001,-0.08106 -0.16722,-0.15898 -0.245139,-0.24004 -0.472223,-0.499416 -0.917547,-1.071964 -1.307406,-1.639364 -0.0353,-0.04968 -0.04719,-0.11113 -0.08171,-0.163426 -0.452612,-0.677219 -0.822627,-1.364952 -1.143981,-2.124535 -0.02301,-0.05491 -0.05922,-0.108517 -0.08171,-0.163426 -0.275594,-0.677219 -0.493942,-1.396328 -0.653703,-2.124536 -0.03007,-0.137275 -0.05609,-0.26946 -0.08171,-0.408565 -0.06485,-0.348807 -0.126818,-0.704047 -0.163425,-1.062267 -0.04445,-0.439531 -0.08171,-0.856093 -0.08171,-1.307399 0,-0.621525 0.07949,-1.19943 0.163427,-1.797684 z m 5.066199,1.38912 c 0.125509,-0.05701 0.101979,0.145907 0,0.163426 -0.09675,0.02562 -0.09413,-0.116359 0,-0.163426 z"
     id="path5" />
</svg>
