<?xml version="1.0" encoding="UTF-8" standalone="no"?>
<svg
   viewBox="0 0 48 48"
   version="1.1"
   id="svg8"
   sodipodi:docname="container_4.svg"
   width="48"
   height="48"
   inkscape:version="1.1 (c4e8f9e, 2021-05-24)"
   xmlns:inkscape="http://www.inkscape.org/namespaces/inkscape"
   xmlns:sodipodi="http://sodipodi.sourceforge.net/DTD/sodipodi-0.dtd"
   xmlns="http://www.w3.org/2000/svg"
   xmlns:svg="http://www.w3.org/2000/svg">
  <defs
     id="defs12" />
  <sodipodi:namedview
     id="namedview10"
     pagecolor="#ffffff"
     bordercolor="#666666"
     borderopacity="1.0"
     inkscape:pageshadow="2"
     inkscape:pageopacity="0.0"
     inkscape:pagecheckerboard="0"
     showgrid="false"
     inkscape:zoom="4.0384615"
     inkscape:cx="-47.295239"
     inkscape:cy="8.1714286"
     inkscape:window-width="1334"
     inkscape:window-height="694"
     inkscape:window-x="0"
     inkscape:window-y="0"
     inkscape:window-maximized="1"
     inkscape:current-layer="svg8" />
  <g
     id="g17"
     transform="matrix(2.375,0,0,2.375,5,4.726875)"
     style="fill:#000000">
    <path
       color="#bebebe"
       d="m 0,0.12 v 16 h 16 v -16 z"
       fill="#808080"
       fill-opacity="0.01"
       id="path2"
       style="fill:#000000" />
    <path
       color="#000000"
       d="m 770,-286.27 -0.438,0.219 -6,3.062 -0.562,0.281 v 9.25 l 0.563,0.282 6,2.937 0.437,0.219 0.438,-0.219 6,-3 0.562,-0.281 v -9.25 l -0.563,-0.281 -6,-3 z m 0,2.25 5,2.5 v 6.75 l -5,2.5 v -6.75 l -0.438,-0.219 -4.53,-2.281 z"
       fill="#232323"
       style="text-indent:0;text-decoration-line:none;text-transform:none;fill:#000000"
       id="path4"
       transform="translate(-762,286.26)" />
    <path
       d="m 8,7.24 5,-2.5 v 6.75 l -5,2.5 z"
       fill="#232323"
       opacity="0.5"
       id="path6"
       style="fill:#000000" />
  </g>
</svg>
