<?xml version="1.0" encoding="UTF-8" standalone="no"?>
<svg
   width="48"
   height="48"
   version="1.1"
   id="svg9"
   sodipodi:docname="we_02.svg"
   inkscape:version="1.1 (c4e8f9e, 2021-05-24)"
   xmlns:inkscape="http://www.inkscape.org/namespaces/inkscape"
   xmlns:sodipodi="http://sodipodi.sourceforge.net/DTD/sodipodi-0.dtd"
   xmlns="http://www.w3.org/2000/svg"
   xmlns:svg="http://www.w3.org/2000/svg">
  <sodipodi:namedview
     id="namedview11"
     pagecolor="#ffffff"
     bordercolor="#666666"
     borderopacity="1.0"
     inkscape:pageshadow="2"
     inkscape:pageopacity="0.0"
     inkscape:pagecheckerboard="0"
     showgrid="false"
     inkscape:zoom="7.53125"
     inkscape:cx="28.879668"
     inkscape:cy="18.589212"
     inkscape:window-width="1350"
     inkscape:window-height="702"
     inkscape:window-x="0"
     inkscape:window-y="0"
     inkscape:window-maximized="0"
     inkscape:current-layer="svg9" />
  <defs
     id="defs3">
    <style
       id="current-color-scheme"
       type="text/css">
   .ColorScheme-Text { color:#aaaaaa; } .ColorScheme-Highlight { color:#4285f4; }
  </style>
  </defs>
  <path
     style="fill:#78909c;stroke-width:2.91707;fill-opacity:1"
     class="ColorScheme-Text"
     d="m 3.5805303,3.5805301 c 0,0 -2.91706738,0 -2.91706738,2.9170677 V 35.668268 c 0,2.917069 2.91706738,2.917069 2.91706738,2.917069 H 12.33173 v 2.917065 c 0,2.917068 2.917069,2.917068 2.917069,2.917068 h 17.502402 c 0,0 2.917067,0 2.917067,-2.917068 v -2.917065 h 8.751202 c 0,0 2.917067,0 2.917067,-2.917069 V 6.4975978 c 0,-2.9170677 -2.917067,-2.9170677 -2.917067,-2.9170677 z M 6.4975974,9.4146643 H 41.502403 V 32.751201 H 6.4975974 Z"
     id="path7" />
  <g
     aria-label="2"
     id="text9235"
     style="font-size:32px;line-height:1.25;font-family:Neuropolitical;-inkscape-font-specification:Neuropolitical;letter-spacing:0px;word-spacing:0px;fill:#e6e6e6;fill-opacity:1"
     transform="matrix(0.85972,0,0,0.85972,3.36672,2.9505515)">
    <path
       d="m 10.976,31.945301 v -6.944 q 0,-1.536 0.288,-2.656 0.288,-1.152 1.056,-1.856 0.768,-0.736 2.08,-1.088 1.312,-0.352 3.392,-0.352 H 30.4 q 1.28,0 1.696,-0.416 0.448,-0.448 0.448,-1.664 v -0.544 q 0,-1.28 -0.416,-1.728 -0.416,-0.448 -1.6,-0.448 h -8 v -4.128 h 8.32 q 3.2,0 4.672,1.408 1.504,1.408 1.504,4.768 v 1.088 q 0,1.536 -0.32,2.56 -0.288,1.024 -1.024,1.664 -0.736,0.608 -1.952,0.864 -1.216,0.256 -3.008,0.256 H 18.016 q -1.504,0 -2.048,0.512 -0.544,0.512 -0.544,1.952 v 2.624 h 21.6 v 4.128 z"
       id="path19031"
       style="fill:#e6e6e6;fill-opacity:1" />
  </g>
</svg>
