<?xml version="1.0" encoding="UTF-8" standalone="no"?>
<svg
   width="48"
   height="48"
   version="1.1"
   id="svg9"
   sodipodi:docname="we_06.svg"
   inkscape:version="1.1 (c4e8f9e, 2021-05-24)"
   xmlns:inkscape="http://www.inkscape.org/namespaces/inkscape"
   xmlns:sodipodi="http://sodipodi.sourceforge.net/DTD/sodipodi-0.dtd"
   xmlns="http://www.w3.org/2000/svg"
   xmlns:svg="http://www.w3.org/2000/svg">
  <sodipodi:namedview
     id="namedview11"
     pagecolor="#ffffff"
     bordercolor="#666666"
     borderopacity="1.0"
     inkscape:pageshadow="2"
     inkscape:pageopacity="0.0"
     inkscape:pagecheckerboard="0"
     showgrid="false"
     inkscape:zoom="7.53125"
     inkscape:cx="28.481328"
     inkscape:cy="24.564315"
     inkscape:window-width="1350"
     inkscape:window-height="702"
     inkscape:window-x="0"
     inkscape:window-y="0"
     inkscape:window-maximized="1"
     inkscape:current-layer="svg9" />
  <defs
     id="defs3">
    <style
       id="current-color-scheme"
       type="text/css">
   .ColorScheme-Text { color:#aaaaaa; } .ColorScheme-Highlight { color:#4285f4; }
  </style>
  </defs>
  <path
     style="fill:#78909c;stroke-width:2.91707;fill-opacity:1"
     class="ColorScheme-Text"
     d="m 3.5805303,3.5805301 c 0,0 -2.91706738,0 -2.91706738,2.9170677 V 35.668268 c 0,2.917069 2.91706738,2.917069 2.91706738,2.917069 H 12.33173 v 2.917065 c 0,2.917068 2.917069,2.917068 2.917069,2.917068 h 17.502402 c 0,0 2.917067,0 2.917067,-2.917068 v -2.917065 h 8.751202 c 0,0 2.917067,0 2.917067,-2.917069 V 6.4975978 c 0,-2.9170677 -2.917067,-2.9170677 -2.917067,-2.9170677 z M 6.4975974,9.4146643 H 41.502403 V 32.751201 H 6.4975974 Z"
     id="path7" />
  <g
     aria-label="6"
     id="text46700"
     style="font-size:32px;line-height:1.25;font-family:Neuropolitical;-inkscape-font-specification:Neuropolitical;letter-spacing:0px;word-spacing:0px;fill:#e6e6e6"
     transform="matrix(0.88272562,0,0,0.88272562,2.8145851,2.4934793)">
    <path
       d="m 18.864,32.173927 q -2.4,0 -4,-0.384 -1.6,-0.416 -2.56,-1.28 -0.96,-0.896 -1.376,-2.304 -0.384,-1.44 -0.384,-3.52 v -6.848 q 0,-2.048 0.384,-3.488 0.416,-1.44 1.376,-2.304 0.96,-0.896 2.56,-1.28 1.6,-0.416 4,-0.416 h 6.912 v 4.128 h -6.752 q -1.056,0 -1.76,0.16 -0.672,0.128 -1.12,0.512 -0.416,0.384 -0.608,1.056 -0.16,0.64 -0.16,1.632 v 1.088 H 31.44 q 1.664,0 2.784,0.416 1.152,0.416 1.856,1.184 0.736,0.768 1.056,1.888 0.32,1.088 0.32,2.464 v 1.344 q 0,3.008 -1.376,4.48 -1.344,1.472 -4.64,1.472 z m 13.76,-7.36 q 0,-1.28 -0.48,-1.76 -0.448,-0.48 -1.6,-0.48 H 15.376 v 2.208 q 0,1.056 0.192,1.728 0.192,0.64 0.704,1.024 0.512,0.352 1.376,0.48 0.896,0.096 2.272,0.096 h 10.624 q 1.12,0 1.6,-0.48 0.48,-0.512 0.48,-1.6 z"
       id="path51817"
       style="fill:#e6e6e6" />
  </g>
</svg>
