<?xml version="1.0" encoding="UTF-8" standalone="no"?>
<svg
   viewBox="0 0 48 48"
   version="1.1"
   id="svg18"
   sodipodi:docname="pet.svg"
   inkscape:version="1.1 (c4e8f9e, 2021-05-24)"
   xmlns:inkscape="http://www.inkscape.org/namespaces/inkscape"
   xmlns:sodipodi="http://sodipodi.sourceforge.net/DTD/sodipodi-0.dtd"
   xmlns="http://www.w3.org/2000/svg"
   xmlns:svg="http://www.w3.org/2000/svg">
  <defs
     id="defs22" />
  <sodipodi:namedview
     id="namedview20"
     pagecolor="#ffffff"
     bordercolor="#666666"
     borderopacity="1.0"
     inkscape:pageshadow="2"
     inkscape:pageopacity="0.0"
     inkscape:pagecheckerboard="0"
     showgrid="false"
     inkscape:zoom="12.197592"
     inkscape:cx="31.727574"
     inkscape:cy="23.078326"
     inkscape:window-width="1356"
     inkscape:window-height="709"
     inkscape:window-x="0"
     inkscape:window-y="0"
     inkscape:window-maximized="1"
     inkscape:current-layer="svg18" />
  <path
     d="m 8.06 6 c -1.029 0 -2.057 1.029 -2.057 2.057 l 0 31.943 c 0 0.971 1.029 2 2 2 l 32 0 c 0.971 0 2 -1.029 2 -2 l 0 -32 c 0 -0.971 -1.029 -2 -2 -2 z"
     style="fill:none;stroke:#c19553;stroke-opacity:1"
     id="path2" />
  <g
     style="fill:#fff"
     id="g8">
    <path
       d="m 8.06 6 c -1.029 0 -2.057 1.029 -2.057 2.057 l 0 9.943 c 4 0 32 0 36 0 l 0 -10 c 0 -0.971 -1.029 -2 -2 -2 z"
       style="fill-opacity:0.196"
       id="path4" />
    <path
       d="m 21 10 0 16 6 0 0 -16 z"
       style="fill-opacity:0.392"
       id="path6" />
  </g>
  <g
     aria-label="PET"
     id="text1681"
     style="font-weight:bold;font-size:13.3333px;line-height:1.25;font-family:Monsterchild;-inkscape-font-specification:'Monsterchild Bold';fill:#ffffff">
    <path
       d="m 15.892974,28.133653 q 1.839995,0 2.679993,0.799998 0.853331,0.786665 0.853331,2.173328 0,0.826665 -0.346665,1.559996 -0.346666,0.719998 -1.159998,1.159997 -0.799998,0.439999 -2.186661,0.439999 H 14.86631 v 3.386658 h -2.013328 v -9.519976 z m -0.106666,1.65333 H 14.86631 v 2.826659 h 0.666665 q 0.853331,0 1.346663,-0.333332 0.506665,-0.346666 0.506665,-1.106664 0,-1.386663 -1.599995,-1.386663 z"
       id="path7885" />
    <path
       d="m 26.706258,37.653629 h -5.479986 v -9.519976 h 5.479986 v 1.65333 H 23.2396 v 2.093328 h 3.226658 V 33.53364 H 23.2396 v 2.453327 h 3.466658 z"
       id="path7887" />
    <path
       d="m 32.35957,37.653629 h -2.013329 v -7.83998 h -2.58666 v -1.679996 h 7.186649 v 1.679996 h -2.58666 z"
       id="path7889" />
  </g>
</svg>
