<?xml version="1.0" encoding="UTF-8" standalone="no"?>
<!-- Created with Inkscape (http://www.inkscape.org/) -->

<svg
   xmlns:dc="http://purl.org/dc/elements/1.1/"
   xmlns:cc="http://creativecommons.org/ns#"
   xmlns:rdf="http://www.w3.org/1999/02/22-rdf-syntax-ns#"
   xmlns:svg="http://www.w3.org/2000/svg"
   xmlns="http://www.w3.org/2000/svg"
   xmlns:sodipodi="http://sodipodi.sourceforge.net/DTD/sodipodi-0.dtd"
   xmlns:inkscape="http://www.inkscape.org/namespaces/inkscape"
   width="48"
   height="48"
   id="svg2"
   version="1.1"
   inkscape:version="0.48.3.1 r9886"
   sodipodi:docname="sfs481.svg"
   inkscape:export-filename="/mnt/sda3/sfs.png"
   inkscape:export-xdpi="90"
   inkscape:export-ydpi="90">
  <defs
     id="defs4">
    <linearGradient
       y2="115.908"
       x2="147.45399"
       y1="14.9416"
       x1="89.160797"
       gradientUnits="userSpaceOnUse"
       id="id7">
      <stop
         id="stop30"
         style="stop-color: rgb(255, 255, 255); stop-opacity: 1;"
         offset="0" />
      <stop
         id="stop32"
         style="stop-color: rgb(255, 255, 255); stop-opacity: 0;"
         offset="1" />
    </linearGradient>
    <linearGradient
       y2="26.319201"
       x2="138.261"
       y1="57.513599"
       x1="213.07401"
       gradientUnits="userSpaceOnUse"
       id="id6">
      <stop
         id="stop25"
         style="stop-color: rgb(255, 253, 255); stop-opacity: 1;"
         offset="0" />
      <stop
         offset="1"
         style="stop-color: rgb(255, 255, 255); stop-opacity: 0;"
         id="stop3190" />
    </linearGradient>
    <linearGradient
       y2="295.10199"
       x2="188.735"
       y1="6.0749002"
       x1="21.865101"
       gradientUnits="userSpaceOnUse"
       id="id1">
      <stop
         id="stop16"
         style="stop-color: rgb(0, 0, 0); stop-opacity: 0.392157;"
         offset="0" />
      <stop
         offset="1"
         style="stop-color: rgb(255, 255, 255); stop-opacity: 0;"
         id="stop2212" />
    </linearGradient>
    <linearGradient
       y2="24.4438"
       x2="-7.8656001"
       y1="88.3992"
       x1="52.195999"
       gradientUnits="userSpaceOnUse"
       id="id0">
      <stop
         id="stop11"
         style="stop-color: rgb(255, 255, 255); stop-opacity: 0.00884956;"
         offset="0" />
      <stop
         id="stop13"
         style="stop-color: rgb(255, 255, 255); stop-opacity: 0.784314;"
         offset="1" />
    </linearGradient>
    <style
       id="style6"
       type="text/css">
   
    .str0 {stroke:#1F1A17;stroke-width:0.2}
    .fil11 {fill:none}
    .fil12 {fill:#838281}
    .fil9 {fill:black}
    .fil10 {fill:url(#id0)}
    .fil0 {fill:url(#id1)}
    .fil5 {fill:url(#id2)}
    .fil3 {fill:url(#id3)}
    .fil2 {fill:url(#id4)}
    .fil4 {fill:url(#id5)}
    .fil6 {fill:url(#id6)}
    .fil7 {fill:url(#id7)}
    .fil1 {fill:url(#id8)}
    .fil8 {fill:url(#id9)}
   
  </style>
    <linearGradient
       id="linearGradient3226"
       gradientUnits="userSpaceOnUse"
       x1="21.865101"
       y1="6.0749002"
       x2="188.735"
       y2="295.10199">
      <stop
         offset="0"
         style="stop-color: rgb(0, 0, 0); stop-opacity: 0;"
         id="stop3228" />
      <stop
         id="stop3234"
         style="stop-color: rgb(255, 255, 255); stop-opacity: 0;"
         offset="0.63258851" />
      <stop
         offset="0.69750071"
         style="stop-color: rgb(0, 0, 0); stop-opacity: 0.392157;"
         id="stop3236" />
      <stop
         id="stop3232"
         style="stop-color: rgb(0, 0, 0); stop-opacity: 1;"
         offset="1" />
    </linearGradient>
    <filter
       inkscape:collect="always"
       id="filter3829">
      <feGaussianBlur
         inkscape:collect="always"
         stdDeviation="0.7643678"
         id="feGaussianBlur3831" />
    </filter>
    <filter
       inkscape:collect="always"
       id="filter3837"
       x="-0.10893933"
       width="1.2178787"
       y="-0.084371634"
       height="1.1687433">
      <feGaussianBlur
         inkscape:collect="always"
         stdDeviation="0.25862465"
         id="feGaussianBlur3839" />
    </filter>
    <filter
       inkscape:collect="always"
       id="filter3899"
       x="-0.013614834"
       width="1.0272297"
       y="-0.13660217"
       height="1.2732043">
      <feGaussianBlur
         inkscape:collect="always"
         stdDeviation="0.19234131"
         id="feGaussianBlur3901" />
    </filter>
  </defs>
  <sodipodi:namedview
     id="base"
     pagecolor="#736060"
     bordercolor="#666666"
     borderopacity="1.0"
     inkscape:pageopacity="0.13333333"
     inkscape:pageshadow="2"
     inkscape:zoom="10.051803"
     inkscape:cx="25.21833"
     inkscape:cy="22.366608"
     inkscape:document-units="px"
     inkscape:current-layer="layer1"
     showgrid="true"
     inkscape:window-width="1593"
     inkscape:window-height="1145"
     inkscape:window-x="-1"
     inkscape:window-y="0"
     inkscape:window-maximized="1" />
  <metadata
     id="metadata7">
    <rdf:RDF>
      <cc:Work
         rdf:about="">
        <dc:format>image/svg+xml</dc:format>
        <dc:type
           rdf:resource="http://purl.org/dc/dcmitype/StillImage" />
        <dc:title></dc:title>
      </cc:Work>
    </rdf:RDF>
  </metadata>
  <g
     inkscape:label="Layer 1"
     inkscape:groupmode="layer"
     id="layer1"
     transform="translate(0,-1004.3622)">
    <g
       id="g3066"
       transform="matrix(0.98029466,0,0,0.94750175,0.26644144,53.877946)">
      <g
         style="fill:#ffffff"
         id="g3862"
         transform="matrix(1.0241508,-0.29430764,0.29430764,1.0241508,-305.88401,-16.595081)">
        <g
           transform="scale(0.98879031,1.0113368)"
           style="font-size:9.84630394px;font-style:normal;font-variant:normal;font-weight:bold;font-stretch:normal;text-align:start;line-height:125%;letter-spacing:0px;word-spacing:0px;writing-mode:lr-tb;text-anchor:start;fill:#ffffff;fill-opacity:1;stroke:none;font-family:Arial;-inkscape-font-specification:Arial Bold"
           id="g3864">
          <path
             style="fill:#ffffff"
             d="m 25.577732,1025.3984 1.259634,0 0,0.75 c 0.163462,-0.2564 0.384619,-0.4647 0.663472,-0.625 0.278848,-0.1602 0.588147,-0.2404 0.927899,-0.2404 0.592953,0 1.096166,0.2324 1.509638,0.6972 0.413463,0.4647 0.620196,1.1122 0.620202,1.9423 -6e-6,0.8526 -0.208342,1.5161 -0.62501,1.9904 -0.416677,0.4712 -0.921492,0.7068 -1.514446,0.7068 -0.282058,0 -0.538472,-0.056 -0.769242,-0.1683 -0.22757,-0.1122 -0.467958,-0.3045 -0.721165,-0.5769 l 0,2.5721 -1.350982,0 0,-7.0482 m 1.336559,2.4664 c -2e-6,0.5737 0.113781,0.9984 0.341351,1.2741 0.227565,0.2724 0.504813,0.4086 0.831743,0.4086 0.314104,0 0.575326,-0.125 0.783666,-0.375 0.208333,-0.2532 0.312501,-0.6667 0.312505,-1.2404 -4e-6,-0.5352 -0.107378,-0.9327 -0.32212,-1.1923 -0.214751,-0.2596 -0.48078,-0.3894 -0.798089,-0.3894 -0.330136,0 -0.604179,0.1282 -0.822128,0.3846 -0.217954,0.2532 -0.32693,0.6298 -0.326928,1.1298"
             id="path3866"
             inkscape:connector-curvature="0" />
          <path
             style="fill:#ffffff"
             d="m 34.592292,1028.8792 1.346175,0.226 c -0.173085,0.4936 -0.447127,0.8702 -0.822128,1.1298 -0.371805,0.2565 -0.838157,0.3847 -1.39906,0.3847 -0.887836,0 -1.544897,-0.2901 -1.971184,-0.8702 -0.336544,-0.4648 -0.504816,-1.0513 -0.504815,-1.7597 -1e-6,-0.8462 0.221156,-1.508 0.663471,-1.9856 0.442313,-0.4808 1.001616,-0.7212 1.67791,-0.7212 0.759624,0 1.358992,0.2517 1.798105,0.7549 0.439104,0.5 0.649043,1.2676 0.629817,2.3029 l -3.384667,0 c 0.0096,0.4006 0.11859,0.7131 0.326928,0.9375 0.208334,0.2212 0.467954,0.3317 0.778858,0.3317 0.211539,0 0.389426,-0.058 0.533662,-0.1731 0.14423,-0.1153 0.253206,-0.3012 0.326928,-0.5577 m 0.07692,-1.3654 c -0.0096,-0.391 -0.110582,-0.6875 -0.302889,-0.8894 -0.192314,-0.2051 -0.426291,-0.3077 -0.701934,-0.3077 -0.294878,0 -0.538471,0.1074 -0.73078,0.3221 -0.192312,0.2148 -0.286865,0.5065 -0.283658,0.875 l 2.019261,0"
             id="path3868"
             inkscape:connector-curvature="0" />
          <path
             style="fill:#ffffff"
             d="m 39.457751,1025.3984 0,1.077 -0.923091,0 0,2.0577 c -2e-6,0.4167 0.008,0.6603 0.02404,0.7308 0.01923,0.067 0.05929,0.1234 0.120194,0.1682 0.0641,0.045 0.141026,0.067 0.230773,0.067 0.124999,10e-5 0.306092,-0.043 0.543278,-0.1298 l 0.115386,1.0481 c -0.31411,0.1347 -0.669885,0.202 -1.067324,0.202 -0.243595,0 -0.46315,-0.04 -0.658664,-0.1202 -0.195517,-0.083 -0.33975,-0.1891 -0.432699,-0.3173 -0.08975,-0.1315 -0.152247,-0.3077 -0.187503,-0.5289 -0.02885,-0.1571 -0.04327,-0.4744 -0.04327,-0.9519 l 0,-2.226 -0.620201,0 0,-1.077 0.620201,0 0,-1.0144 1.35579,-0.7885 0,1.8029 0.923091,0"
             id="path3870"
             inkscape:connector-curvature="0" />
        </g>
      </g>
      <path
         sodipodi:nodetypes="ccccc"
         inkscape:connector-curvature="0"
         id="rect3093"
         d="m 24.971477,1016.4637 16.146141,5.1765 -17.739256,5.1767 -16.3011383,-5.2594 z"
         style="fill:#aa8800;fill-opacity:1;stroke:#727272;stroke-width:0.07766965;stroke-linecap:round;stroke-linejoin:miter;stroke-miterlimit:4;stroke-opacity:0.72294371;stroke-dashoffset:0" />
      <path
         transform="matrix(0.96345515,0,0,2.8666667,0.17551375,969.09567)"
         d="m 41.790625,18.825413 c 0,0.933167 -7.590028,1.689648 -16.952801,1.689648 -9.362773,0 -16.9528009,-0.756481 -16.9528009,-1.689648 0,-0.933167 7.5900279,-1.689648 16.9528009,-1.689648 9.362773,0 16.952801,0.756481 16.952801,1.689648 z"
         sodipodi:ry="1.6896479"
         sodipodi:rx="16.952801"
         sodipodi:cy="18.825413"
         sodipodi:cx="24.837824"
         id="path3897"
         style="opacity:0.89655175;fill:#554400;fill-opacity:1;stroke:none;filter:url(#filter3899)"
         sodipodi:type="arc" />
      <path
         sodipodi:nodetypes="ccccc"
         inkscape:connector-curvature="0"
         id="path3879"
         d="m 1.4918818,1016.612 17.9636672,-4.639 5.600974,4.4662 -18.0170381,5.1015 z"
         style="fill:#d4aa00;fill-opacity:1;stroke:none" />
      <path
         style="fill:#d4aa00;fill-opacity:1;stroke:none"
         d="m 32.135784,1012.0725 14.793609,4.639 -5.811775,4.9287 -16.167836,-5.1015 z"
         id="path3881"
         inkscape:connector-curvature="0"
         sodipodi:nodetypes="ccccc" />
      <path
         sodipodi:nodetypes="cccc"
         inkscape:connector-curvature="0"
         id="path3098"
         d="m 24.746361,1017.996 0,9.3503 5.183267,-1.4144 z"
         style="opacity:0.31835207;fill:#333333;stroke:none" />
      <path
         inkscape:connector-curvature="0"
         id="path4085"
         d="m 18.847155,1018.7452 c -1.393945,0.06 -2.535278,1.5116 -1.985203,2.749 0.567913,1.2833 2.46509,1.8358 3.670122,0.9369 0.946792,-0.5993 1.386928,-1.929 0.533835,-2.7683 -0.51299,-0.6465 -1.362081,-0.9949 -2.218754,-0.9176 z"
         style="fill:#e6e6e6;fill-opacity:1;stroke:none" />
      <path
         inkscape:connector-curvature="0"
         id="path4083"
         d="m 29.460701,1009.5666 c -1.426714,0.025 -2.812887,0.3478 -4.228567,0.094 -2.102236,-0.1263 -4.28654,0.1731 -6.197324,0.9653 -0.06727,0.6487 -0.572319,0.1133 -1.026554,0.058 -1.827641,-0.3421 -3.844754,0.047 -5.392574,1.0024 -1.383636,0.9474 -0.938398,2.7011 -1.036111,4.0677 0.01237,2.3241 -0.03483,4.6544 0.03516,6.9747 0.831062,2.7678 2.542882,5.3862 5.21741,6.9362 2.32627,1.3891 5.105177,2.2628 7.899101,2.028 3.670335,0.015 7.249161,-1.5619 9.59236,-4.1679 1.943332,-2.0325 2.953924,-4.8402 2.748421,-7.5415 -0.222,-1.3907 -0.402304,-2.9362 -1.384637,-4.0637 -0.197636,-0.2279 -0.715823,-0.16 -0.859142,-0.2275 1.720103,-0.6988 1.974333,-2.8172 1.472218,-4.3067 -0.353394,-1.3479 -2.008344,-1.5491 -3.253057,-1.6579 -1.190717,-0.1215 -2.388485,-0.1801 -3.586708,-0.1619 z m 2.026907,6.539 c 1.224335,-0.106 2.179988,1.2446 1.472219,2.1977 -0.797034,1.1797 -3.190938,0.6 -3.086237,-0.8559 -0.0029,-0.7972 0.844637,-1.3055 1.614018,-1.3418 z m -13.708735,1.3957 c 1.681052,-0.2083 3.31643,0.855 3.870309,2.3018 0.612615,1.7888 -0.947856,3.791 -2.948608,4.0098 -2.058504,0.3566 -4.518906,-1.0491 -4.387462,-3.1577 0.01424,-1.6942 1.63912,-3.1559 3.465761,-3.1539 z m 12.036328,3.4277 c -0.549839,1.1734 -1.476035,2.2103 -1.810036,3.4584 0.424509,0.4466 -0.324666,0.7505 -0.170996,0.1195 -0.48613,-0.851 -1.701238,-1.0226 -2.503355,-1.5448 -0.255583,-0.2076 -1.319523,-0.4887 -1.145254,-0.6864 1.843195,-0.4555 3.79396,-1.0627 5.629641,-1.3467 z"
         style="fill:#e6e6e6;fill-opacity:1;stroke:none" />
      <g
         transform="matrix(0.25260309,0,0,0.21809281,9.8311747,1008.5372)"
         id="g3946"
         style="fill:#0b2228;fill-rule:evenodd">
        <g
           style="fill:#0b2228"
           id="g2434"
           inkscape:export-xdpi="3000.0005"
           inkscape:export-ydpi="3000.0005"
           inkscape:export-filename="D:\Puppy\puppy0912.png"
           transform="matrix(0.37957408,0,0,0.37957408,14.000289,-2.2075042)">
          <path
             inkscape:connector-curvature="0"
             id="path2488_5"
             class="fil9"
             d="m 174.02465,17.777953 c -14.41627,0.01508 -27.31368,1.118897 -33.14262,2.82806 -0.33187,0.09739 -0.63833,0.246235 -0.90886,0.431636 -8.72921,-1.766501 -17.76006,-2.695803 -27.00993,-2.695803 -21.723666,0 -42.249026,5.110308 -60.443707,14.192845 -3.515674,-1.520566 -7.098882,-2.492021 -10.64157,-2.775117 -10.930315,-0.873162 -20.891541,0.593762 -29.198333,2.933647 -13.03607842,3.672253 -22.2654346,9.762307 -24.786306,12.395676 -5.855055,4.286992 -8.727204,15.105364 -9.856274,27.725 -1.710963,19.125542 0.330867,42.918023 1.888353,52.613103 0.05123,0.38588 0.174188,0.75698 0.361783,1.10121 -1.770494,8.72153 -2.700163,17.75082 -2.700163,26.99379 0,37.32558 15.1579484,71.11576 39.654609,95.57946 24.506466,24.4734 58.348837,39.60963 95.721608,39.60963 37.37186,0 71.21033,-15.13733 95.71279,-39.60963 24.49406,-24.464 39.64581,-58.25298 39.64581,-95.57946 0,-23.26839 -5.89047,-45.16746 -16.26251,-64.286355 0.27324,-0.280698 0.54088,-0.568189 0.80301,-0.863372 4.3582,-4.909023 7.12129,-11.781436 8.48858,-19.179284 1.33487,-7.222337 1.34998,-15.008468 0.22942,-21.945612 -1.33428,-8.260022 -4.33319,-15.454489 -8.718,-19.381967 -0.0991,-0.0926 -0.20461,-0.183003 -0.31766,-0.264316 -7.09128,-5.118898 -22.26224,-7.932174 -38.4369,-9.118299 -6.65836,-0.488275 -13.53032,-0.711635 -20.08313,-0.704842 l 0,0 z m 0.6,6.351972 c 6.19713,0.01608 12.69821,0.240242 19.03311,0.704842 15.05599,1.104014 28.95551,3.547487 35.03968,7.832082 3.21232,2.933946 5.48566,8.739207 6.59152,15.584848 1.01181,6.263468 1.00071,13.283523 -0.203,19.796023 -1.17119,6.336888 -3.45124,12.129062 -6.98853,16.11338 -2.40541,2.709488 -5.42273,4.579777 -9.09739,5.171541 -8.10789,1.305697 -12.82087,-6.645557 -19.35967,-17.681694 -5.80432,-9.796571 -12.8929,-21.748624 -24.86574,-32.3766 -4.79892,-3.459282 -8.99694,0.06603 -6.45996,2.897186 l 0.0464,0.04395 c 12.69231,10.528882 19.90855,22.749447 25.79082,32.677576 7.82374,13.205006 13.45599,22.716088 25.84524,20.721026 2.54638,-0.410054 4.86315,-1.240768 6.9532,-2.413904 9.56413,17.993319 14.98297,38.526349 14.98297,60.321819 0,35.58195 -14.43829,67.78694 -37.77507,91.09518 -23.33027,23.30146 -55.57114,37.71547 -91.19501,37.71547 -35.624886,0 -67.869554,-14.41271 -91.203828,-37.71547 -23.339478,-23.30814 -37.775061,-55.51442 -37.775061,-91.09518 0,-8.73971 0.870139,-17.27973 2.532478,-25.53126 -0.89265,-4.75479 -1.298655,-9.89616 -1.552984,-13.82284 -0.0035,-0.0362 -0.0054,-0.0695 -0.0089,-0.10579 -1.066438,-11.29343 -1.789703,-27.20571 -0.582294,-40.702004 0.996303,-11.136729 3.197013,-20.400971 7.4208434,-23.240719 0.295149,-0.197388 0.544875,-0.438329 0.750079,-0.704743 1.3968047,-1.799266 9.4737802,-7.110057 21.8567296,-10.598408 6.234245,-1.756212 13.480902,-2.979597 21.397997,-2.942537 1.827022,0.0085 3.691262,0.08651 5.585518,0.237844 11.167335,0.892441 23.06774,10.322106 31.324805,21.831135 3.40972,4.752692 6.171015,9.814051 7.976825,14.756639 1.75949,4.815923 2.615325,9.504084 2.285355,13.62026 -0.346275,4.320456 -2.056535,8.001699 -5.514885,10.475046 C 71.395457,101.12836 62.890266,98.463928 53.154853,95.411504 37.984099,90.65462 20.186818,85.083109 1.1821286,99.393632 l 2e-4,0.0048 c -4.7590016,3.339198 -1.36068702,8.242788 1.464539,7.201718 17.8180914,-14.758895 34.4809994,-9.540104 48.6108284,-5.10977 11.352529,3.55945 21.270733,6.66448 29.913098,0.48457 5.135285,-3.672636 7.66786,-8.996817 8.16201,-15.161991 0.40351,-5.034488 -0.5992,-10.627277 -2.664745,-16.2808 C 84.648849,65.005489 81.616114,59.408705 77.897034,54.224877 72.820079,47.148483 66.405339,40.76914 59.472741,36.287757 75.768059,28.861839 93.882404,24.729081 112.96324,24.729081 c 9.60054,0 18.95396,1.053368 27.9541,3.039433 3.80652,-1.636541 8.92601,-2.207028 13.38896,-2.838549 l 0.0498,-0.01588 c 5.08486,-0.449117 11.13972,-0.730814 17.63019,-0.775267 0.87134,-0.006 1.75299,-0.01109 2.63833,-0.0089 l 0,0 z m 13.79176,68.576889 c -12.46779,0 -22.58039,10.096436 -22.58039,22.544716 0,12.44803 10.1126,22.54467 22.58039,22.54467 12.46779,0 22.58029,-10.09664 22.58029,-22.54467 0,-12.44818 -10.1125,-22.544716 -22.58029,-22.544716 l 0,0 z M 47.613357,109.17257 c -24.375299,0 -44.1459754,19.73948 -44.1459754,44.07632 0,24.33684 19.7706764,44.06754 44.1459754,44.06754 24.375302,0 44.145977,-19.7307 44.145977,-44.06754 0,-24.33684 -19.770675,-44.07632 -44.145977,-44.07632 l 0,0 z m 12.194654,23.06451 c 11.173638,1e-4 20.242013,9.05407 20.242013,20.21007 0,11.15611 -9.068375,20.21018 -20.242013,20.21018 -11.173638,0 -20.242014,-9.05407 -20.242014,-20.21018 0,-11.156 9.068376,-20.21007 20.242014,-20.21007 z m 112.178609,17.59359 c -0.55488,0 -1.08555,0.10468 -1.5795,0.28189 L 107.528,168.41969 c -0.12347,0.0307 -0.24243,0.0654 -0.36179,0.10568 l -0.0176,0.009 -0.0353,0.009 -0.009,0.009 c -1.81351,0.64142 -3.11487,2.36396 -3.11487,4.39618 0,1.93362 1.17419,3.59024 2.85014,4.29928 0.011,0.005 0.0243,0.004 0.0353,0.009 l 38.70163,21.80466 0,0.16742 c 0,6.70649 -2.98191,12.79835 -7.80915,17.22349 -4.91848,4.50895 -11.74802,7.29466 -19.31554,7.29466 -4.77311,0 -9.34662,-1.11071 -13.33293,-3.14512 -3.89496,-1.98786 -7.253871,-4.86347 -9.706301,-8.43114 -0.03312,-0.0539 -0.07044,-0.10638 -0.10586,-0.15863 -0.76218,-1.12419 -2.051335,-1.86769 -3.511865,-1.86769 -2.33828,0 -4.235545,1.89416 -4.235545,4.22875 0,0.9384 0.31106,1.80037 0.82952,2.50201 3.247545,4.75 7.70879,8.57878 12.891711,11.22394 5.19813,2.65295 11.0908,4.11428 17.17127,4.11428 9.75012,0 18.60959,-3.65308 25.04223,-9.55004 4.67436,-4.28499 8.06748,-9.74742 9.61806,-15.87553 6.31268,5.22268 14.63738,8.37829 23.70096,8.37829 9.75012,0 18.60959,-3.64438 25.04223,-9.54124 6.52409,-5.98067 10.55333,-14.26577 10.55333,-23.43451 0,-0.38819 -0.01,-0.85978 -0.0352,-1.37433 5e-4,-0.0267 0,-0.0525 0,-0.0793 0,-2.33459 -1.89726,-4.22876 -4.23554,-4.22876 -2.33828,0 -4.23543,1.89417 -4.23543,4.22876 0,0.0366 -9.1e-4,0.0781 0,0.11448 0.002,0.0659 0.013,0.12876 0.0176,0.19389 0.0143,0.30986 0.0177,0.68256 0.0177,1.14527 0,6.70649 -2.9819,12.79834 -7.80914,17.22348 -4.91858,4.50896 -11.74792,7.29466 -19.31554,7.29466 -7.26357,0 -13.869,-2.57303 -18.75076,-6.7925 -1.00681,-0.87026 -1.93818,-1.80795 -2.78841,-2.81038 l 20.75387,-40.26152 c 0.4013,-0.68896 0.63532,-1.4894 0.63532,-2.34348 0,-2.57813 -2.09446,-4.66928 -4.67666,-4.66928 l 0,0 z"
             sodipodi:nodetypes="cscsccsccccscscscsssccsccscssscsccccscscscsccssccsssssscccccccssscscccsccsssccsssccsssccccccccsscccssscssscssscssscsssssssssccsc"
             style="fill:#000000;fill-opacity:1" />
          <path
             inkscape:connector-curvature="0"
             class="fil12"
             d="m 215.14743,95.761948 c 1.4732,1.104798 2.9281,1.980296 4.3927,2.433896 3.9826,1.233298 7.3474,1.306002 10.1666,0.499804 -0.8791,-1.868702 -1.8012,-3.713404 -2.7661,-5.531602 -2.089,1.1744 -4.4046,2.005998 -6.9497,2.416502 -1.7395,0.2806 -3.3458,0.3337 -4.8435,0.1814 l 0,0 z"
             id="path66"
             style="fill:#0b2228;fill-opacity:0.39215698" />
        </g>
      </g>
      <path
         sodipodi:nodetypes="ccccc"
         inkscape:connector-curvature="0"
         id="rect3088"
         d="m 7.0117235,1021.8721 16.6705685,4.5147 0,21.0408 -16.6050687,-7.0412 z"
         style="fill:#806600;fill-opacity:1;stroke:none" />
      <path
         style="fill:#d4aa00;fill-opacity:1;stroke:none"
         d="m 41.367157,1021.9389 -17.737233,4.4318 0,21.0408 17.737233,-7.0412 z"
         id="path3091"
         inkscape:connector-curvature="0"
         sodipodi:nodetypes="ccccc" />
      <path
         sodipodi:nodetypes="ccccc"
         inkscape:connector-curvature="0"
         id="rect3874"
         d="m 7.1149621,1021.4994 16.5295909,4.9288 -6.000468,8.1595 -15.3219496,-5.7986 z"
         style="fill:#aa8800;fill-opacity:1;stroke:none" />
      <path
         style="fill:#a0892c;fill-opacity:1;stroke:none"
         d="m 23.644553,1026.4449 17.624017,-4.8046 4.906043,6.6684 -17.435323,6.3785 z"
         id="path3877"
         inkscape:connector-curvature="0"
         sodipodi:nodetypes="ccccc" />
    </g>
  </g>
</svg>
