<?xml version="1.0" encoding="UTF-8" standalone="no"?>
<svg
   width="48"
   height="48"
   version="1"
   id="svg12"
   sodipodi:docname="network-disconnected-symbolic.svg"
   inkscape:version="1.1 (c4e8f9e, 2021-05-24)"
   xmlns:inkscape="http://www.inkscape.org/namespaces/inkscape"
   xmlns:sodipodi="http://sodipodi.sourceforge.net/DTD/sodipodi-0.dtd"
   xmlns="http://www.w3.org/2000/svg"
   xmlns:svg="http://www.w3.org/2000/svg">
  <defs
     id="defs16" />
  <sodipodi:namedview
     id="namedview14"
     pagecolor="#ffffff"
     bordercolor="#666666"
     borderopacity="1.0"
     inkscape:pageshadow="2"
     inkscape:pageopacity="0.0"
     inkscape:pagecheckerboard="0"
     showgrid="false"
     inkscape:snap-others="false"
     inkscape:object-nodes="false"
     inkscape:snap-nodes="false"
     inkscape:zoom="4.3854166"
     inkscape:cx="-13.453682"
     inkscape:cy="49.938243"
     inkscape:window-width="1350"
     inkscape:window-height="701"
     inkscape:window-x="0"
     inkscape:window-y="40"
     inkscape:window-maximized="0"
     inkscape:current-layer="svg12" />
  <rect
     style="opacity:1;fill:#bf616a;fill-opacity:1;stroke-width:3.00766;stroke-linejoin:round"
     id="rect7203"
     width="35.152046"
     height="27.367603"
     x="5.9803481"
     y="10.159426" />
  <g
     id="g33925"
     transform="matrix(1.1052475,0,0,1.1052475,-2.525939,-2.5785628)">
    <path
       id="path2"
       style="fill:#8cc7d5;fill-opacity:1"
       d="M 7,7 C 7,7 4,7 4,10 v 24 c 0,0 3e-7,3 3,3 h 5 l 4,4 h 16 l 4,-4 h 5 c 0,0 3,0 3,-3 V 10 C 44,7 41,7 41,7 Z m 3.123047,6.519531 h 28 v 18 h -4.484375 l -4,4 h -11.03125 l -4,-4 h -4.484375 z" />
    <path
       opacity="0.2"
       d="m 4,34 v 1 c 0,0 0,3 3,3 h 5 l 4,4 h 16 l 4,-4 h 5 c 0,0 3,0 3,-3 v -1 c 0,3 -3,3 -3,3 h -5 l -4,4 H 16 L 12,37 H 7 C 4,37 4,34 4,34 Z"
       id="path10" />
  </g>
</svg>
