<?xml version="1.0" encoding="UTF-8" standalone="no"?>
<svg
   width="48"
   height="48"
   viewBox="0 0 48 48"
   version="1.1"
   id="svg7"
   sodipodi:docname="container_3.svg"
   inkscape:version="1.1 (c4e8f9e, 2021-05-24)"
   xmlns:inkscape="http://www.inkscape.org/namespaces/inkscape"
   xmlns:sodipodi="http://sodipodi.sourceforge.net/DTD/sodipodi-0.dtd"
   xmlns="http://www.w3.org/2000/svg"
   xmlns:svg="http://www.w3.org/2000/svg">
  <sodipodi:namedview
     id="namedview9"
     pagecolor="#ffffff"
     bordercolor="#666666"
     borderopacity="1.0"
     inkscape:pageshadow="2"
     inkscape:pageopacity="0.0"
     inkscape:pagecheckerboard="0"
     showgrid="false"
     inkscape:zoom="3.7734375"
     inkscape:cx="7.9503105"
     inkscape:cy="8.0828157"
     inkscape:window-width="1350"
     inkscape:window-height="701"
     inkscape:window-x="0"
     inkscape:window-y="0"
     inkscape:window-maximized="1"
     inkscape:current-layer="svg7" />
  <defs
     id="defs3">
    <style
       id="current-color-scheme"
       type="text/css">
   .ColorScheme-Text { color:#0db9d7; } .ColorScheme-Highlight { color:#5294e2; }
  </style>
  </defs>
  <path
     style="fill:#37c8ab;fill-opacity:1;stroke-width:2.85268"
     class="ColorScheme-Text"
     d="m 21.776915,6.8882726 c 0.147072,-0.015833 0.293293,0.028128 0.40673,0.1281482 0.113433,0.1001008 0.180836,0.2442922 0.195006,0.4011583 l 0.646312,7.0927019 c 0.02953,0.326364 -0.196935,0.620301 -0.501448,0.651881 -1.763978,0.183172 -3.462157,0.693181 -5.05348,1.515488 -0.0757,0.03918 -0.162594,0.05571 -0.245153,0.05571 -0.06161,0 -0.118926,-0.01125 -0.178293,-0.03343 -0.138646,-0.05189 -0.253817,-0.159034 -0.317583,-0.300871 L 13.842894,9.980522 C 13.709916,9.6851807 13.823538,9.3316651 14.09919,9.1893504 16.516344,7.940498 19.100966,7.1663344 21.776915,6.8882611 Z m 5.315347,0.1058597 c 2.66312,0.3872083 5.215352,1.2691607 7.588579,2.6186728 0.270208,0.1536679 0.371632,0.5124899 0.228444,0.8023169 l -3.11455,6.295957 c -0.0995,0.201079 -0.291845,0.312012 -0.490304,0.312012 -0.08754,0 -0.173672,-0.01985 -0.256285,-0.06686 -1.563373,-0.888827 -3.244171,-1.46659 -4.99778,-1.721637 -0.303096,-0.04406 -0.514684,-0.343592 -0.473591,-0.668598 l 0.891463,-7.0648393 c 0.04109,-0.3249251 0.321675,-0.5507529 0.624024,-0.5070208 z M 10.015174,12.120046 c 0.146103,0.01623 0.280672,0.09513 0.373302,0.217293 l 4.195446,5.527071 c 0.09263,0.122252 0.132146,0.277962 0.117006,0.434589 -0.01499,0.156626 -0.08654,0.301697 -0.200578,0.401158 -1.377504,1.2008 -2.534141,2.631764 -3.443276,4.262307 -0.103823,0.185969 -0.290623,0.289726 -0.479161,0.289726 -0.09673,0 -0.195181,-0.0265 -0.284157,-0.08357 L 4.5883925,19.513617 C 4.4624266,19.432786 4.3736169,19.304248 4.3376702,19.15146 c -0.035799,-0.152788 -0.014186,-0.316024 0.061287,-0.451303 1.3746674,-2.465323 3.1275716,-4.636811 5.2094875,-6.451964 0.1140329,-0.0993 0.2600313,-0.143898 0.4067298,-0.128147 z m 28.643821,0.590594 c 0.147284,-0.01 0.290854,0.04093 0.401158,0.144862 2.016433,1.900141 3.69068,4.138743 4.975479,6.658114 0.0704,0.138238 0.0859,0.305846 0.04458,0.456875 -0.04131,0.151109 -0.132906,0.275538 -0.261875,0.351014 l -5.833517,3.42099 c -0.08436,0.04949 -0.177581,0.07243 -0.26744,0.07243 -0.195921,0 -0.384125,-0.114693 -0.484734,-0.312013 -0.849174,-1.665243 -1.958969,-3.144671 -3.292841,-4.401598 -0.110536,-0.103769 -0.174556,-0.249464 -0.183855,-0.40673 -0.0094,-0.157105 0.03677,-0.31634 0.133704,-0.434588 l 4.390455,-5.348779 c 0.09696,-0.118252 0.232179,-0.190425 0.378873,-0.200577 z M 2.9113295,23.525201 9.2574309,25.653569 c 0.2919826,0.09803 0.4535935,0.433747 0.3621555,0.746598 -0.4552392,1.557947 -0.6853108,3.184778 -0.6853108,4.836188 0,0.243134 0.00525,0.490704 0.016717,0.757743 0.00685,0.157269 -0.045822,0.312686 -0.144862,0.429018 -0.098968,0.116418 -0.2377421,0.187821 -0.3844445,0.195009 l -6.6413964,0.328727 c -0.0088,4.02e-4 -0.013635,0 -0.022293,0 -0.2941447,0 -0.537721,-0.250095 -0.5515909,-0.568306 -0.017084,-0.396166 -0.027858,-0.769853 -0.027858,-1.142191 1.48e-4,-2.495625 0.3511333,-4.958155 1.041896,-7.32114 0.091585,-0.313012 0.3992015,-0.488276 0.6908857,-0.390014 z m 30.7499015,0.685311 c 0.120502,0.015 0.23646,0.07229 0.328726,0.167151 0.184654,0.189566 0.226246,0.488269 0.105864,0.729884 L 29.1872,34.969358 c 0.01806,0.189959 0.02787,0.385967 0.02787,0.57945 0,1.487748 -0.539802,2.88165 -1.521058,3.933581 -0.981331,1.052007 -2.283919,1.632491 -3.671714,1.632491 -1.387792,0 -2.696027,-0.580642 -3.677284,-1.632491 -0.981331,-1.051931 -1.521059,-2.445833 -1.521059,-3.933581 0,-1.487751 0.539804,-2.887221 1.521059,-3.939154 0.979936,-1.050514 2.286083,-1.630936 3.671713,-1.632489 h 0.0055 c 0.09369,1.25e-4 0.191331,2.39e-4 0.284154,0.0058 l 8.998234,-5.688871 c 0.110109,-0.06975 0.236088,-0.09859 0.356586,-0.08357 z m 11.683737,0.189436 c 0.141778,-0.0411 0.295985,-0.02264 0.423443,0.05571 0.127458,0.07834 0.217746,0.210169 0.256284,0.362157 0.527222,2.084352 0.796757,4.243039 0.796757,6.418535 0,0.372338 -0.01053,0.746024 -0.02795,1.142187 -0.0137,0.318288 -0.257284,0.56831 -0.551592,0.568306 -0.0086,0 -0.01912,4.81e-4 -0.02795,0 l -6.635826,-0.328725 c -0.146713,-0.0071 -0.285625,-0.07868 -0.384445,-0.195011 -0.09896,-0.116332 -0.151734,-0.271745 -0.144859,-0.429016 0.01173,-0.267126 0.01683,-0.51469 0.01683,-0.757744 0,-1.440736 -0.175897,-2.865404 -0.523735,-4.240021 -0.07988,-0.31645 0.09482,-0.643936 0.390015,-0.729886 z"
     id="path5" />
</svg>
