<?xml version="1.0" encoding="UTF-8" standalone="no"?>
<svg
   width="48"
   height="48"
   version="1.1"
   id="svg4"
   sodipodi:docname="shield_no.svg"
   inkscape:version="1.1 (c4e8f9e, 2021-05-24)"
   xmlns:inkscape="http://www.inkscape.org/namespaces/inkscape"
   xmlns:sodipodi="http://sodipodi.sourceforge.net/DTD/sodipodi-0.dtd"
   xmlns="http://www.w3.org/2000/svg"
   xmlns:svg="http://www.w3.org/2000/svg">
  <defs
     id="defs8" />
  <sodipodi:namedview
     id="namedview6"
     pagecolor="#ffffff"
     bordercolor="#666666"
     borderopacity="1.0"
     inkscape:pageshadow="2"
     inkscape:pageopacity="0.0"
     inkscape:pagecheckerboard="0"
     showgrid="false"
     inkscape:zoom="3.78125"
     inkscape:cx="7.9338843"
     inkscape:cy="8.0661157"
     inkscape:window-width="1350"
     inkscape:window-height="702"
     inkscape:window-x="0"
     inkscape:window-y="40"
     inkscape:window-maximized="0"
     inkscape:current-layer="svg4"
     inkscape:snap-others="false"
     inkscape:object-nodes="false" />
  <path
     id="path2"
     style="fill:#c78eae;fill-opacity:1;stroke-width:2.80322"
     d="M 24 2.9765625 L 7.1796875 8.5820312 L 7.1796875 28.205078 C 7.1796875 34.007777 11.60752 37.987315 15.419922 40.650391 C 19.232324 43.313464 24 45.023437 24 45.023438 C 24 45.023438 28.767677 43.313464 32.580078 40.650391 C 36.392479 37.959284 40.820313 33.923679 40.820312 28.205078 L 40.820312 8.5820312 L 24 2.9765625 z M 16.458984 15.492188 L 19.634766 15.492188 L 24.015625 21.904297 L 28.365234 15.492188 L 31.507812 15.492188 L 25.634766 23.808594 L 31.826172 32.507812 L 28.650391 32.507812 L 24.015625 25.714844 L 19.316406 32.507812 L 16.173828 32.507812 L 22.333984 23.808594 L 16.458984 15.492188 z " />
</svg>
