<?xml version="1.0" encoding="UTF-8" standalone="no"?>
<svg
   width="48"
   height="48"
   version="1.1"
   id="svg4"
   sodipodi:docname="container_1.svg"
   inkscape:version="1.1 (c4e8f9e, 2021-05-24)"
   xmlns:inkscape="http://www.inkscape.org/namespaces/inkscape"
   xmlns:sodipodi="http://sodipodi.sourceforge.net/DTD/sodipodi-0.dtd"
   xmlns="http://www.w3.org/2000/svg"
   xmlns:svg="http://www.w3.org/2000/svg">
  <defs
     id="defs8" />
  <sodipodi:namedview
     id="namedview6"
     pagecolor="#ffffff"
     bordercolor="#666666"
     borderopacity="1.0"
     inkscape:pageshadow="2"
     inkscape:pageopacity="0.0"
     inkscape:pagecheckerboard="0"
     showgrid="false"
     inkscape:zoom="10.650796"
     inkscape:cx="7.8867345"
     inkscape:cy="7.7928449"
     inkscape:window-width="1356"
     inkscape:window-height="738"
     inkscape:window-x="0"
     inkscape:window-y="0"
     inkscape:window-maximized="0"
     inkscape:current-layer="svg4" />
  <g
     id="g826"
     transform="matrix(2.8571429,0,0,2.8571429,1.1428568,1.1428568)">
    <path
       id="path2"
       d="M 2,1 C 1.446,1 1,1.446 1,2 v 1 h 1 v 2.2070312 l 2,2 v 0.5859376 l -2,2 V 13 H 1 v 1 c 0,0.554 0.446,1 1,1 h 12 c 0.554,0 1,-0.446 1,-1 V 13 H 14 V 9.7929688 l -2,-2 V 7.2070312 l 2,-2 V 3 h 1 V 2 C 15,1.446 14.554,1 14,1 Z M 4,3 H 5.7988281 6 h 4 2 v 1.7929688 l -2,2 v 1.4140624 l 2,1.9999998 V 13 H 4 V 10.207031 L 6,8.2070312 V 6.7929688 l -2,-2 z m 3,6 -2,2 h 6 L 9,9 Z"
       style="fill:#aaaaaa;fill-opacity:0.666667" />
    <rect
       style="fill:#ff7f2a;fill-opacity:1;stroke:#ff7f2a;stroke-width:0.1;stroke-linejoin:round;stroke-miterlimit:4;stroke-dasharray:none;stroke-opacity:1"
       id="rect1616"
       width="5.9533591"
       height="1.079841"
       x="5"
       y="-12.079782"
       transform="scale(1,-1)" />
    <path
       style="fill:#ff7f2a;fill-opacity:1;stroke:none;stroke-width:1px;stroke-linecap:butt;stroke-linejoin:miter;stroke-opacity:1"
       d="m 4.9875207,10.994721 2,-2.0000003 h 2 l 2.0000003,2.0000003 z"
       id="path1989" />
  </g>
</svg>
